*%FSLAX23Y23*%
*%MOIN*%
G01*
%ADD11C,0.001*%
%ADD12C,0.006*%
%ADD13C,0.007*%
%ADD14C,0.007*%
%ADD15C,0.008*%
%ADD16C,0.010*%
%ADD17C,0.012*%
%ADD18C,0.015*%
%ADD19C,0.020*%
%ADD20C,0.030*%
%ADD21C,0.040*%
%ADD22C,0.048*%
%ADD23C,0.060*%
%ADD24C,0.068*%
%ADD25C,0.070*%
%ADD26C,0.080*%
%ADD27C,0.088*%
%ADD28C,0.120*%
%ADD29C,0.140*%
%ADD30C,0.148*%
%ADD31C,0.180*%
%ADD32R,0.005X0.005*%
%ADD33R,0.009X0.009*%
%ADD34R,0.010X0.010*%
%ADD35R,0.015X0.015*%
%ADD36R,0.019X0.019*%
%ADD37R,0.020X0.020*%
%ADD38R,0.025X0.025*%
%ADD39R,0.029X0.029*%
%ADD40R,0.030X0.030*%
%ADD41R,0.030X0.030*%
%ADD42R,0.034X0.034*%
%ADD43R,0.035X0.035*%
%ADD44R,0.035X0.035*%
%ADD45R,0.035X0.050*%
%ADD46R,0.038X0.038*%
%ADD47R,0.039X0.039*%
%ADD48R,0.040X0.040*%
%ADD49R,0.043X0.043*%
%ADD50R,0.043X0.058*%
%ADD51R,0.045X0.045*%
%ADD52R,0.049X0.049*%
%ADD53R,0.050X0.035*%
%ADD54R,0.050X0.050*%
%ADD55R,0.055X0.055*%
%ADD56R,0.058X0.043*%
%ADD57R,0.059X0.059*%
%ADD58R,0.060X0.050*%
%ADD59R,0.060X0.060*%
%ADD60R,0.060X0.060*%
%ADD61R,0.065X0.065*%
%ADD62R,0.068X0.058*%
%ADD63R,0.068X0.068*%
%ADD64R,0.070X0.070*%
%ADD65R,0.075X0.075*%
%ADD66R,0.079X0.079*%
%ADD67R,0.080X0.080*%
%ADD68R,0.085X0.085*%
%ADD69R,0.090X0.090*%
%ADD70R,0.095X0.095*%
%ADD71R,0.105X0.105*%
%ADD72R,0.115X0.115*%
%ADD73R,0.120X0.120*%
%ADD74R,0.125X0.125*%
%ADD75R,0.140X0.140*%
%ADD76R,0.155X0.155*%
%ADD77R,0.185X0.185*%
D16*
X8755Y9097D02*
X11320D01*
X11315Y6757D02*
X8755D01*
X8600Y6912D02*
Y8942D01*
X11470Y8942D02*
Y6912D01*
X11470Y6909D01*
X11470Y6905D01*
X11470Y6902D01*
X11469Y6898D01*
X11469Y6895D01*
X11469Y6892D01*
X11468Y6888D01*
X11468Y6885D01*
X11467Y6882D01*
X11466Y6878D01*
X11466Y6875D01*
X11465Y6872D01*
X11464Y6869D01*
X11463Y6865D01*
X11462Y6862D01*
X11461Y6859D01*
X11459Y6856D01*
X11458Y6853D01*
X11457Y6850D01*
X11455Y6846D01*
X11454Y6843D01*
X11452Y6840D01*
X11451Y6837D01*
X11449Y6834D01*
X11448Y6832D01*
X11446Y6829D01*
X11444Y6826D01*
X11442Y6823D01*
X11440Y6820D01*
X11438Y6818D01*
X11436Y6815D01*
X11434Y6812D01*
X11432Y6810D01*
X11429Y6807D01*
X11427Y6805D01*
X11425Y6802D01*
X11422Y6800D01*
X11420Y6798D01*
X11417Y6795D01*
X11415Y6793D01*
X11412Y6791D01*
X11409Y6789D01*
X11407Y6787D01*
X11404Y6785D01*
X11401Y6783D01*
X11398Y6781D01*
X11395Y6779D01*
X11392Y6778D01*
X11390Y6776D01*
X11387Y6775D01*
X11384Y6773D01*
X11381Y6772D01*
X11377Y6770D01*
X11374Y6769D01*
X11371Y6768D01*
X11368Y6766D01*
X11365Y6765D01*
X11362Y6764D01*
X11358Y6763D01*
X11355Y6762D01*
X11352Y6761D01*
X11349Y6761D01*
X11345Y6760D01*
X11342Y6759D01*
X11339Y6759D01*
X11335Y6758D01*
X11332Y6758D01*
X11329Y6758D01*
X11325Y6757D01*
X11322Y6757D01*
X11318Y6757D01*
X11315Y6757D01*
X8755D02*
X8752Y6757D01*
X8748Y6757D01*
X8745Y6757D01*
X8741Y6758D01*
X8738Y6758D01*
X8735Y6758D01*
X8731Y6759D01*
X8728Y6759D01*
X8725Y6760D01*
X8721Y6761D01*
X8718Y6761D01*
X8715Y6762D01*
X8712Y6763D01*
X8708Y6764D01*
X8705Y6765D01*
X8702Y6766D01*
X8699Y6768D01*
X8696Y6769D01*
X8693Y6770D01*
X8689Y6772D01*
X8686Y6773D01*
X8683Y6775D01*
X8680Y6776D01*
X8678Y6778D01*
X8675Y6779D01*
X8672Y6781D01*
X8669Y6783D01*
X8666Y6785D01*
X8663Y6787D01*
X8661Y6789D01*
X8658Y6791D01*
X8655Y6793D01*
X8653Y6795D01*
X8650Y6798D01*
X8648Y6800D01*
X8645Y6802D01*
X8643Y6805D01*
X8641Y6807D01*
X8638Y6810D01*
X8636Y6812D01*
X8634Y6815D01*
X8632Y6818D01*
X8630Y6820D01*
X8628Y6823D01*
X8626Y6826D01*
X8624Y6829D01*
X8622Y6832D01*
X8621Y6834D01*
X8619Y6837D01*
X8618Y6840D01*
X8616Y6843D01*
X8615Y6846D01*
X8613Y6850D01*
X8612Y6853D01*
X8611Y6856D01*
X8609Y6859D01*
X8608Y6862D01*
X8607Y6865D01*
X8606Y6869D01*
X8605Y6872D01*
X8604Y6875D01*
X8604Y6878D01*
X8603Y6882D01*
X8602Y6885D01*
X8602Y6888D01*
X8601Y6892D01*
X8601Y6895D01*
X8601Y6898D01*
X8600Y6902D01*
X8600Y6905D01*
X8600Y6909D01*
X8600Y6912D01*
X11315Y9097D02*
X11318Y9097D01*
X11322Y9097D01*
X11325Y9097D01*
X11329Y9096D01*
X11332Y9096D01*
X11335Y9096D01*
X11339Y9095D01*
X11342Y9095D01*
X11345Y9094D01*
X11349Y9093D01*
X11352Y9093D01*
X11355Y9092D01*
X11358Y9091D01*
X11362Y9090D01*
X11365Y9089D01*
X11368Y9088D01*
X11371Y9086D01*
X11374Y9085D01*
X11377Y9084D01*
X11381Y9082D01*
X11384Y9081D01*
X11387Y9079D01*
X11390Y9078D01*
X11392Y9076D01*
X11395Y9075D01*
X11398Y9073D01*
X11401Y9071D01*
X11404Y9069D01*
X11407Y9067D01*
X11409Y9065D01*
X11412Y9063D01*
X11415Y9061D01*
X11417Y9059D01*
X11420Y9056D01*
X11422Y9054D01*
X11425Y9052D01*
X11427Y9049D01*
X11429Y9047D01*
X11432Y9044D01*
X11434Y9042D01*
X11436Y9039D01*
X11438Y9036D01*
X11440Y9034D01*
X11442Y9031D01*
X11444Y9028D01*
X11446Y9025D01*
X11448Y9022D01*
X11449Y9020D01*
X11451Y9017D01*
X11452Y9014D01*
X11454Y9011D01*
X11455Y9008D01*
X11457Y9004D01*
X11458Y9001D01*
X11459Y8998D01*
X11461Y8995D01*
X11462Y8992D01*
X11463Y8989D01*
X11464Y8985D01*
X11465Y8982D01*
X11466Y8979D01*
X11466Y8976D01*
X11467Y8972D01*
X11468Y8969D01*
X11468Y8966D01*
X11469Y8962D01*
X11469Y8959D01*
X11469Y8956D01*
X11470Y8952D01*
X11470Y8949D01*
X11470Y8945D01*
X11470Y8942D01*
X8755Y9097D02*
X8752Y9097D01*
X8748Y9097D01*
X8745Y9097D01*
X8741Y9096D01*
X8738Y9096D01*
X8735Y9096D01*
X8731Y9095D01*
X8728Y9095D01*
X8725Y9094D01*
X8721Y9093D01*
X8718Y9093D01*
X8715Y9092D01*
X8712Y9091D01*
X8708Y9090D01*
X8705Y9089D01*
X8702Y9088D01*
X8699Y9086D01*
X8696Y9085D01*
X8693Y9084D01*
X8689Y9082D01*
X8686Y9081D01*
X8683Y9079D01*
X8680Y9078D01*
X8678Y9076D01*
X8675Y9075D01*
X8672Y9073D01*
X8669Y9071D01*
X8666Y9069D01*
X8663Y9067D01*
X8661Y9065D01*
X8658Y9063D01*
X8655Y9061D01*
X8653Y9059D01*
X8650Y9056D01*
X8648Y9054D01*
X8645Y9052D01*
X8643Y9049D01*
X8641Y9047D01*
X8638Y9044D01*
X8636Y9042D01*
X8634Y9039D01*
X8632Y9036D01*
X8630Y9034D01*
X8628Y9031D01*
X8626Y9028D01*
X8624Y9025D01*
X8622Y9022D01*
X8621Y9020D01*
X8619Y9017D01*
X8618Y9014D01*
X8616Y9011D01*
X8615Y9008D01*
X8613Y9004D01*
X8612Y9001D01*
X8611Y8998D01*
X8609Y8995D01*
X8608Y8992D01*
X8607Y8989D01*
X8606Y8985D01*
X8605Y8982D01*
X8604Y8979D01*
X8604Y8976D01*
X8603Y8972D01*
X8602Y8969D01*
X8602Y8966D01*
X8601Y8962D01*
X8601Y8959D01*
X8601Y8956D01*
X8600Y8952D01*
X8600Y8949D01*
X8600Y8945D01*
X8600Y8942D01*
D02*
M02*
