*%FSLAX23Y23*%
*%MOIN*%
G01*
%ADD11C,0.001*%
%ADD12C,0.006*%
%ADD13C,0.007*%
%ADD14C,0.007*%
%ADD15C,0.008*%
%ADD16C,0.010*%
%ADD17C,0.012*%
%ADD18C,0.015*%
%ADD19C,0.020*%
%ADD20C,0.030*%
%ADD21C,0.040*%
%ADD22C,0.048*%
%ADD23C,0.060*%
%ADD24C,0.068*%
%ADD25C,0.070*%
%ADD26C,0.080*%
%ADD27C,0.088*%
%ADD28C,0.120*%
%ADD29C,0.140*%
%ADD30C,0.148*%
%ADD31C,0.180*%
%ADD32R,0.005X0.005*%
%ADD33R,0.009X0.009*%
%ADD34R,0.010X0.010*%
%ADD35R,0.015X0.015*%
%ADD36R,0.019X0.019*%
%ADD37R,0.020X0.020*%
%ADD38R,0.025X0.025*%
%ADD39R,0.029X0.029*%
%ADD40R,0.030X0.030*%
%ADD41R,0.030X0.030*%
%ADD42R,0.034X0.034*%
%ADD43R,0.035X0.035*%
%ADD44R,0.035X0.035*%
%ADD45R,0.035X0.050*%
%ADD46R,0.038X0.038*%
%ADD47R,0.039X0.039*%
%ADD48R,0.040X0.040*%
%ADD49R,0.043X0.043*%
%ADD50R,0.043X0.058*%
%ADD51R,0.045X0.045*%
%ADD52R,0.049X0.049*%
%ADD53R,0.050X0.035*%
%ADD54R,0.050X0.050*%
%ADD55R,0.055X0.055*%
%ADD56R,0.058X0.043*%
%ADD57R,0.059X0.059*%
%ADD58R,0.060X0.050*%
%ADD59R,0.060X0.060*%
%ADD60R,0.060X0.060*%
%ADD61R,0.065X0.065*%
%ADD62R,0.068X0.058*%
%ADD63R,0.068X0.068*%
%ADD64R,0.070X0.070*%
%ADD65R,0.075X0.075*%
%ADD66R,0.079X0.079*%
%ADD67R,0.080X0.080*%
%ADD68R,0.085X0.085*%
%ADD69R,0.090X0.090*%
%ADD70R,0.095X0.095*%
%ADD71R,0.105X0.105*%
%ADD72R,0.115X0.115*%
%ADD73R,0.120X0.120*%
%ADD74R,0.125X0.125*%
%ADD75R,0.140X0.140*%
%ADD76R,0.155X0.155*%
%ADD77R,0.185X0.185*%
D11*
X10185Y8012D02*
Y8052D01*
X10225D01*
Y8012D01*
X10185D01*
X10285Y8002D02*
Y7962D01*
Y8002D02*
X10325D01*
Y7962D01*
X10285D01*
X10185Y7952D02*
Y7912D01*
Y7952D02*
X10225D01*
Y7912D01*
X10185D01*
Y7752D02*
Y7712D01*
Y7752D02*
X10225D01*
Y7712D01*
X10185D01*
Y7652D02*
Y7612D01*
Y7652D02*
X10225D01*
Y7612D01*
X10185D01*
X10285Y7862D02*
Y7902D01*
X10325D01*
Y7862D01*
X10285D01*
Y7702D02*
Y7662D01*
Y7702D02*
X10325D01*
Y7662D01*
X10285D01*
Y7602D02*
Y7562D01*
Y7602D02*
X10325D01*
Y7562D01*
X10285D01*
X10845Y8012D02*
Y8052D01*
X10885D01*
Y8012D01*
X10845D01*
X10945Y8002D02*
Y7962D01*
Y8002D02*
X10985D01*
Y7962D01*
X10945D01*
X10845Y7952D02*
Y7912D01*
Y7952D02*
X10885D01*
Y7912D01*
X10845D01*
Y7752D02*
Y7712D01*
Y7752D02*
X10885D01*
Y7712D01*
X10845D01*
Y7652D02*
Y7612D01*
Y7652D02*
X10885D01*
Y7612D01*
X10845D01*
X10945Y7862D02*
Y7902D01*
X10985D01*
Y7862D01*
X10945D01*
Y7702D02*
Y7662D01*
Y7702D02*
X10985D01*
Y7662D01*
X10945D01*
Y7602D02*
Y7562D01*
Y7602D02*
X10985D01*
Y7562D01*
X10945D01*
X10605Y7582D02*
X10605Y7579D01*
X10604Y7576D01*
X10603Y7573D01*
X10601Y7570D01*
X10599Y7568D01*
X10596Y7566D01*
X10594Y7564D01*
X10591Y7563D01*
X10587Y7562D01*
X10584Y7562D01*
X10581Y7562D01*
X10578Y7563D01*
X10575Y7565D01*
X10572Y7567D01*
X10570Y7569D01*
X10568Y7571D01*
X10567Y7574D01*
X10566Y7577D01*
X10565Y7580D01*
Y7584D01*
X10566Y7587D01*
X10567Y7590D01*
X10568Y7593D01*
X10570Y7595D01*
X10572Y7597D01*
X10575Y7599D01*
X10578Y7601D01*
X10581Y7602D01*
X10584Y7602D01*
X10587Y7602D01*
X10591Y7601D01*
X10594Y7600D01*
X10596Y7598D01*
X10599Y7596D01*
X10601Y7594D01*
X10603Y7591D01*
X10604Y7588D01*
X10605Y7585D01*
X10605Y7582D01*
Y8032D02*
X10605Y8029D01*
X10604Y8026D01*
X10603Y8023D01*
X10601Y8020D01*
X10599Y8018D01*
X10596Y8016D01*
X10594Y8014D01*
X10591Y8013D01*
X10587Y8012D01*
X10584Y8012D01*
X10581Y8012D01*
X10578Y8013D01*
X10575Y8015D01*
X10572Y8017D01*
X10570Y8019D01*
X10568Y8021D01*
X10567Y8024D01*
X10566Y8027D01*
X10565Y8030D01*
Y8034D01*
X10566Y8037D01*
X10567Y8040D01*
X10568Y8043D01*
X10570Y8045D01*
X10572Y8047D01*
X10575Y8049D01*
X10578Y8051D01*
X10581Y8052D01*
X10584Y8052D01*
X10587Y8052D01*
X10591Y8051D01*
X10594Y8050D01*
X10596Y8048D01*
X10599Y8046D01*
X10601Y8044D01*
X10603Y8041D01*
X10604Y8038D01*
X10605Y8035D01*
X10605Y8032D01*
X8995Y7032D02*
X9015Y6992D01*
X8995Y7032D02*
X9035D01*
X9015Y6992D01*
Y8922D02*
X8995Y8962D01*
X9035D01*
X9015Y8922D01*
X11295Y8962D02*
X11315Y8922D01*
X11295Y8962D02*
X11335D01*
X11315Y8922D01*
X11295Y7032D02*
X11315Y6992D01*
X11295Y7032D02*
X11335D01*
X11315Y6992D01*
X9895Y8922D02*
Y8962D01*
X9935D01*
Y8922D01*
X9895D01*
X9695D02*
Y8962D01*
X9735D01*
Y8922D01*
X9695D01*
X10440D02*
Y8962D01*
X10480D01*
Y8922D01*
X10440D01*
X10240D02*
Y8962D01*
X10280D01*
Y8922D01*
X10240D01*
X10875D02*
Y8962D01*
X10915D01*
Y8922D01*
X10875D01*
X9795D02*
Y8962D01*
X9835D01*
Y8922D01*
X9795D01*
X10340D02*
Y8962D01*
X10380D01*
Y8922D01*
X10340D01*
X9130Y8327D02*
Y8287D01*
Y8327D02*
X9170D01*
Y8287D01*
X9130D01*
X9595D02*
Y8327D01*
X9635D01*
Y8287D01*
X9595D01*
X10255Y8572D02*
Y8612D01*
X10295D01*
Y8572D01*
X10255D01*
X11175Y8347D02*
Y8307D01*
Y8347D02*
X11215D01*
Y8307D01*
X11175D01*
X9585Y7767D02*
Y7727D01*
Y7767D02*
X9625D01*
Y7727D01*
X9585D01*
X9430Y8287D02*
Y8327D01*
X9470D01*
Y8287D01*
X9430D01*
Y8227D02*
Y8187D01*
Y8227D02*
X9470D01*
Y8187D01*
X9430D01*
X9895D02*
Y8227D01*
X9935D01*
Y8187D01*
X9895D01*
X10155Y8272D02*
Y8312D01*
X10195D01*
Y8272D01*
X10155D01*
X11275Y8607D02*
Y8647D01*
X11315D01*
Y8607D01*
X11275D01*
X8940Y7317D02*
Y7277D01*
Y7317D02*
X8980D01*
Y7277D01*
X8940D01*
X9075D02*
Y7317D01*
X9115D01*
Y7277D01*
X9075D01*
X9495Y7292D02*
Y7332D01*
X9535D01*
Y7292D01*
X9495D01*
X8785Y7637D02*
Y7677D01*
X8825D01*
Y7637D01*
X8785D01*
Y7477D02*
Y7437D01*
Y7477D02*
X8825D01*
Y7437D01*
X8785D01*
X11215Y7587D02*
Y7627D01*
X11255D01*
Y7587D01*
X11215D01*
X8785Y7577D02*
Y7537D01*
Y7577D02*
X8825D01*
Y7537D01*
X8785D01*
X9585Y7467D02*
Y7427D01*
Y7467D02*
X9625D01*
Y7427D01*
X9585D01*
X11315Y7687D02*
Y7727D01*
X11355D01*
Y7687D01*
X11315D01*
X9685Y7727D02*
Y7767D01*
X9725D01*
Y7727D01*
X9685D01*
X10495Y7332D02*
Y7292D01*
Y7332D02*
X10535D01*
Y7292D01*
X10495D01*
X9685Y7427D02*
Y7467D01*
X9725D01*
Y7427D01*
X9685D01*
X9130Y8187D02*
Y8227D01*
X9170D01*
Y8187D01*
X9130D01*
X9595D02*
Y8227D01*
X9635D01*
Y8187D01*
X9595D01*
X10155Y8572D02*
Y8612D01*
X10195D01*
Y8572D01*
X10155D01*
X11275Y8347D02*
Y8307D01*
Y8347D02*
X11315D01*
Y8307D01*
X11275D01*
X10395Y7332D02*
Y7292D01*
Y7332D02*
X10435D01*
Y7292D01*
X10395D01*
X9595D02*
Y7332D01*
X9635D01*
Y7292D01*
X9595D01*
X9075Y7217D02*
Y7177D01*
Y7217D02*
X9115D01*
Y7177D01*
X9075D01*
X8940D02*
Y7217D01*
X8980D01*
Y7177D01*
X8940D01*
X10975Y8922D02*
Y8962D01*
X11015D01*
Y8922D01*
X10975D01*
X10995Y7082D02*
Y7042D01*
Y7082D02*
X11035D01*
Y7042D01*
X10995D01*
X10895D02*
Y7082D01*
X10935D01*
Y7042D01*
X10895D01*
X11095D02*
Y7082D01*
X11135D01*
Y7042D01*
X11095D01*
X10295D02*
Y7082D01*
X10335D01*
Y7042D01*
X10295D01*
X10795D02*
Y7082D01*
X10835D01*
Y7042D01*
X10795D01*
X10595D02*
Y7082D01*
X10635D01*
Y7042D01*
X10595D01*
X10495D02*
Y7082D01*
X10535D01*
Y7042D01*
X10495D01*
X10395D02*
Y7082D01*
X10435D01*
Y7042D01*
X10395D01*
X10195D02*
Y7082D01*
X10235D01*
Y7042D01*
X10195D01*
X10095D02*
Y7082D01*
X10135D01*
Y7042D01*
X10095D01*
X9995D02*
Y7082D01*
X10035D01*
Y7042D01*
X9995D01*
X9795D02*
Y7082D01*
X9835D01*
Y7042D01*
X9795D01*
X9695D02*
Y7082D01*
X9735D01*
Y7042D01*
X9695D01*
X9595D02*
Y7082D01*
X9635D01*
Y7042D01*
X9595D01*
X9495D02*
Y7082D01*
X9535D01*
Y7042D01*
X9495D01*
X9395D02*
Y7082D01*
X9435D01*
Y7042D01*
X9395D01*
X9295D02*
Y7082D01*
X9335D01*
Y7042D01*
X9295D01*
X11095Y6982D02*
Y6942D01*
Y6982D02*
X11135D01*
Y6942D01*
X11095D01*
X10995D02*
Y6982D01*
X11035D01*
Y6942D01*
X10995D01*
X10795D02*
Y6982D01*
X10835D01*
Y6942D01*
X10795D01*
X10695D02*
Y6982D01*
X10735D01*
Y6942D01*
X10695D01*
X10595D02*
Y6982D01*
X10635D01*
Y6942D01*
X10595D01*
X10395D02*
Y6982D01*
X10435D01*
Y6942D01*
X10395D01*
X10295D02*
Y6982D01*
X10335D01*
Y6942D01*
X10295D01*
X10095D02*
Y6982D01*
X10135D01*
Y6942D01*
X10095D01*
X9995D02*
Y6982D01*
X10035D01*
Y6942D01*
X9995D01*
X9895D02*
Y6982D01*
X9935D01*
Y6942D01*
X9895D01*
X9795D02*
Y6982D01*
X9835D01*
Y6942D01*
X9795D01*
X9595D02*
Y6982D01*
X9635D01*
Y6942D01*
X9595D01*
X10495D02*
Y6982D01*
X10535D01*
Y6942D01*
X10495D01*
X10195D02*
Y6982D01*
X10235D01*
Y6942D01*
X10195D01*
X9895Y7042D02*
Y7082D01*
X9935D01*
Y7042D01*
X9895D01*
X9695Y6982D02*
Y6942D01*
Y6982D02*
X9735D01*
Y6942D01*
X9695D01*
X9495D02*
Y6982D01*
X9535D01*
Y6942D01*
X9495D01*
X9195Y7042D02*
Y7082D01*
X9235D01*
Y7042D01*
X9195D01*
X10895Y6982D02*
Y6942D01*
Y6982D02*
X10935D01*
Y6942D01*
X10895D01*
X10695Y7042D02*
Y7082D01*
X10735D01*
Y7042D01*
X10695D01*
X9395Y6982D02*
Y6942D01*
Y6982D02*
X9435D01*
Y6942D01*
X9395D01*
X9295D02*
Y6982D01*
X9335D01*
Y6942D01*
X9295D01*
X9195D02*
Y6982D01*
X9235D01*
Y6942D01*
X9195D01*
X11215Y7787D02*
Y7827D01*
X11255D01*
Y7787D01*
X11215D01*
X11315D02*
Y7827D01*
X11355D01*
Y7787D01*
X11315D01*
X11215Y7727D02*
Y7687D01*
Y7727D02*
X11255D01*
Y7687D01*
X11215D01*
X11315Y7627D02*
Y7587D01*
Y7627D02*
X11355D01*
Y7587D01*
X11315D01*
X11215Y7527D02*
Y7487D01*
Y7527D02*
X11255D01*
Y7487D01*
X11215D01*
X11315D02*
Y7527D01*
X11355D01*
Y7487D01*
X11315D01*
X10995Y7217D02*
Y7177D01*
Y7217D02*
X11035D01*
Y7177D01*
X10995D01*
X10895D02*
Y7217D01*
X10935D01*
Y7177D01*
X10895D01*
X11095D02*
Y7217D01*
X11135D01*
Y7177D01*
X11095D01*
X10295D02*
Y7217D01*
X10335D01*
Y7177D01*
X10295D01*
X9895D02*
Y7217D01*
X9935D01*
Y7177D01*
X9895D01*
X9195D02*
Y7217D01*
X9235D01*
Y7177D01*
X9195D01*
X10695D02*
Y7217D01*
X10735D01*
Y7177D01*
X10695D01*
X10795D02*
Y7217D01*
X10835D01*
Y7177D01*
X10795D01*
X10595D02*
Y7217D01*
X10635D01*
Y7177D01*
X10595D01*
X10495D02*
Y7217D01*
X10535D01*
Y7177D01*
X10495D01*
X10395D02*
Y7217D01*
X10435D01*
Y7177D01*
X10395D01*
X10195D02*
Y7217D01*
X10235D01*
Y7177D01*
X10195D01*
X10095D02*
Y7217D01*
X10135D01*
Y7177D01*
X10095D01*
X9995D02*
Y7217D01*
X10035D01*
Y7177D01*
X9995D01*
X9795D02*
Y7217D01*
X9835D01*
Y7177D01*
X9795D01*
X9695D02*
Y7217D01*
X9735D01*
Y7177D01*
X9695D01*
X9595D02*
Y7217D01*
X9635D01*
Y7177D01*
X9595D01*
X9495D02*
Y7217D01*
X9535D01*
Y7177D01*
X9495D01*
X9395D02*
Y7217D01*
X9435D01*
Y7177D01*
X9395D01*
X9295D02*
Y7217D01*
X9335D01*
Y7177D01*
X9295D01*
X9395Y6847D02*
Y6807D01*
Y6847D02*
X9435D01*
Y6807D01*
X9395D01*
X10195D02*
Y6847D01*
X10235D01*
Y6807D01*
X10195D01*
X9695D02*
Y6847D01*
X9735D01*
Y6807D01*
X9695D01*
X9495D02*
Y6847D01*
X9535D01*
Y6807D01*
X9495D01*
X10895D02*
Y6847D01*
X10935D01*
Y6807D01*
X10895D01*
X10495D02*
Y6847D01*
X10535D01*
Y6807D01*
X10495D01*
X11095D02*
Y6847D01*
X11135D01*
Y6807D01*
X11095D01*
X10995D02*
Y6847D01*
X11035D01*
Y6807D01*
X10995D01*
X10795D02*
Y6847D01*
X10835D01*
Y6807D01*
X10795D01*
X10695D02*
Y6847D01*
X10735D01*
Y6807D01*
X10695D01*
X10595D02*
Y6847D01*
X10635D01*
Y6807D01*
X10595D01*
X10395D02*
Y6847D01*
X10435D01*
Y6807D01*
X10395D01*
X10295D02*
Y6847D01*
X10335D01*
Y6807D01*
X10295D01*
X10095D02*
Y6847D01*
X10135D01*
Y6807D01*
X10095D01*
X9995D02*
Y6847D01*
X10035D01*
Y6807D01*
X9995D01*
X9895D02*
Y6847D01*
X9935D01*
Y6807D01*
X9895D01*
X9795D02*
Y6847D01*
X9835D01*
Y6807D01*
X9795D01*
X9595D02*
Y6847D01*
X9635D01*
Y6807D01*
X9595D01*
X9295D02*
Y6847D01*
X9335D01*
Y6807D01*
X9295D01*
X9195D02*
Y6847D01*
X9235D01*
Y6807D01*
X9195D01*
X11175Y8607D02*
Y8647D01*
X11215D01*
Y8607D01*
X11175D01*
X10255Y8312D02*
Y8272D01*
Y8312D02*
X10295D01*
Y8272D01*
X10255D01*
X9895Y8287D02*
Y8327D01*
X9935D01*
Y8287D01*
X9895D01*
X9430Y8922D02*
Y8962D01*
X9470D01*
Y8922D01*
X9430D01*
X9330D02*
Y8962D01*
X9370D01*
Y8922D01*
X9330D01*
X9230D02*
Y8962D01*
X9270D01*
Y8922D01*
X9230D01*
X9430Y8752D02*
Y8712D01*
Y8752D02*
X9470D01*
Y8712D01*
X9430D01*
Y8552D02*
Y8512D01*
Y8552D02*
X9470D01*
Y8512D01*
X9430D01*
Y8612D02*
Y8652D01*
X9470D01*
Y8612D01*
X9430D01*
X9130Y8452D02*
Y8412D01*
Y8452D02*
X9170D01*
Y8412D01*
X9130D01*
X9430D02*
Y8452D01*
X9470D01*
Y8412D01*
X9430D01*
X9130Y8512D02*
Y8552D01*
X9170D01*
Y8512D01*
X9130D01*
Y8612D02*
Y8652D01*
X9170D01*
Y8612D01*
X9130D01*
Y8712D02*
Y8752D01*
X9170D01*
Y8712D01*
X9130D01*
Y8812D02*
Y8852D01*
X9170D01*
Y8812D01*
X9130D01*
X9430D02*
Y8852D01*
X9470D01*
Y8812D01*
X9430D01*
X9155Y7767D02*
Y7727D01*
Y7767D02*
X9195D01*
Y7727D01*
X9155D01*
X9355D02*
Y7767D01*
X9395D01*
Y7727D01*
X9355D01*
X9255D02*
Y7767D01*
X9295D01*
Y7727D01*
X9255D01*
X9455Y7467D02*
Y7427D01*
Y7467D02*
X9495D01*
Y7427D01*
X9455D01*
Y7727D02*
Y7767D01*
X9495D01*
Y7727D01*
X9455D01*
X9355Y7467D02*
Y7427D01*
Y7467D02*
X9395D01*
Y7427D01*
X9355D01*
X9255D02*
Y7467D01*
X9295D01*
Y7427D01*
X9255D01*
X9155D02*
Y7467D01*
X9195D01*
Y7427D01*
X9155D01*
X9055D02*
Y7467D01*
X9095D01*
Y7427D01*
X9055D01*
Y7727D02*
Y7767D01*
X9095D01*
Y7727D01*
X9055D01*
X11075Y8712D02*
Y8752D01*
X11115D01*
Y8712D01*
X11075D01*
Y8652D02*
Y8612D01*
Y8652D02*
X11115D01*
Y8612D01*
X11075D01*
X10775Y8452D02*
Y8412D01*
Y8452D02*
X10815D01*
Y8412D01*
X10775D01*
X11075D02*
Y8452D01*
X11115D01*
Y8412D01*
X11075D01*
Y8512D02*
Y8552D01*
X11115D01*
Y8512D01*
X11075D01*
X10775D02*
Y8552D01*
X10815D01*
Y8512D01*
X10775D01*
Y8612D02*
Y8652D01*
X10815D01*
Y8612D01*
X10775D01*
Y8712D02*
Y8752D01*
X10815D01*
Y8712D01*
X10775D01*
Y8812D02*
Y8852D01*
X10815D01*
Y8812D01*
X10775D01*
X11075D02*
Y8852D01*
X11115D01*
Y8812D01*
X11075D01*
X10665Y8752D02*
Y8712D01*
Y8752D02*
X10705D01*
Y8712D01*
X10665D01*
Y8552D02*
Y8512D01*
Y8552D02*
X10705D01*
Y8512D01*
X10665D01*
Y8612D02*
Y8652D01*
X10705D01*
Y8612D01*
X10665D01*
X10365Y8452D02*
Y8412D01*
Y8452D02*
X10405D01*
Y8412D01*
X10365D01*
X10665D02*
Y8452D01*
X10705D01*
Y8412D01*
X10665D01*
X10365Y8512D02*
Y8552D01*
X10405D01*
Y8512D01*
X10365D01*
Y8612D02*
Y8652D01*
X10405D01*
Y8612D01*
X10365D01*
Y8712D02*
Y8752D01*
X10405D01*
Y8712D01*
X10365D01*
Y8812D02*
Y8852D01*
X10405D01*
Y8812D01*
X10365D01*
X10665D02*
Y8852D01*
X10705D01*
Y8812D01*
X10665D01*
X9725Y7332D02*
Y7292D01*
Y7332D02*
X9765D01*
Y7292D01*
X9725D01*
X9825D02*
Y7332D01*
X9865D01*
Y7292D01*
X9825D01*
X9895Y8712D02*
Y8752D01*
X9935D01*
Y8712D01*
X9895D01*
Y8552D02*
Y8512D01*
Y8552D02*
X9935D01*
Y8512D01*
X9895D01*
Y8612D02*
Y8652D01*
X9935D01*
Y8612D01*
X9895D01*
X9595Y8452D02*
Y8412D01*
Y8452D02*
X9635D01*
Y8412D01*
X9595D01*
X9895D02*
Y8452D01*
X9935D01*
Y8412D01*
X9895D01*
X9595Y8512D02*
Y8552D01*
X9635D01*
Y8512D01*
X9595D01*
Y8612D02*
Y8652D01*
X9635D01*
Y8612D01*
X9595D01*
Y8712D02*
Y8752D01*
X9635D01*
Y8712D01*
X9595D01*
Y8812D02*
Y8852D01*
X9635D01*
Y8812D01*
X9595D01*
X9895D02*
Y8852D01*
X9935D01*
Y8812D01*
X9895D01*
X11315Y7927D02*
Y7887D01*
Y7927D02*
X11355D01*
Y7887D01*
X11315D01*
Y8157D02*
Y8197D01*
X11355D01*
Y8157D01*
X11315D01*
X11215Y7927D02*
Y7887D01*
Y7927D02*
X11255D01*
Y7887D01*
X11215D01*
Y8157D02*
Y8197D01*
X11255D01*
Y8157D01*
X11215D01*
X8935Y8222D02*
Y8262D01*
X8975D01*
Y8222D01*
X8935D01*
Y8162D02*
Y8122D01*
Y8162D02*
X8975D01*
Y8122D01*
X8935D01*
Y7962D02*
Y7922D01*
Y7962D02*
X8975D01*
Y7922D01*
X8935D01*
Y8022D02*
Y8062D01*
X8975D01*
Y8022D01*
X8935D01*
X8965Y7572D02*
X8955Y7562D01*
X8965Y7572D02*
X8975D01*
X8965Y7582D01*
X8975Y7592D01*
X8965D01*
X8955Y7602D01*
X8945Y7592D01*
X8935D01*
X8945Y7582D01*
X8935Y7572D01*
X8945D01*
X8955Y7562D01*
Y8532D02*
X8965Y8542D01*
X8975D01*
X8965Y8552D01*
X8975Y8562D01*
X8965D01*
X8955Y8572D01*
X8945Y8562D01*
X8935D01*
X8945Y8552D01*
X8935Y8542D01*
X8945D01*
X8955Y8532D01*
Y8582D02*
X8965Y8592D01*
X8975D01*
X8965Y8602D01*
X8975Y8612D01*
X8965D01*
X8955Y8622D01*
X8945Y8612D01*
X8935D01*
X8945Y8602D01*
X8935Y8592D01*
X8945D01*
X8955Y8582D01*
X8965Y7622D02*
X8955Y7612D01*
X8965Y7622D02*
X8975D01*
X8965Y7632D01*
X8975Y7642D01*
X8965D01*
X8955Y7652D01*
X8945Y7642D01*
X8935D01*
X8945Y7632D01*
X8935Y7622D01*
X8945D01*
X8955Y7612D01*
X10015Y8532D02*
X10025Y8542D01*
X10035D01*
X10025Y8552D01*
X10035Y8562D01*
X10025D01*
X10015Y8572D01*
X10005Y8562D01*
X9995D01*
X10005Y8552D01*
X9995Y8542D01*
X10005D01*
X10015Y8532D01*
Y8582D02*
X10025Y8592D01*
X10035D01*
X10025Y8602D01*
X10035Y8612D01*
X10025D01*
X10015Y8622D01*
X10005Y8612D01*
X9995D01*
X10005Y8602D01*
X9995Y8592D01*
X10005D01*
X10015Y8582D01*
X10025Y7572D02*
X10015Y7562D01*
X10025Y7572D02*
X10035D01*
X10025Y7582D01*
X10035Y7592D01*
X10025D01*
X10015Y7602D01*
X10005Y7592D01*
X9995D01*
X10005Y7582D01*
X9995Y7572D01*
X10005D01*
X10015Y7562D01*
Y7612D02*
X10025Y7622D01*
X10035D01*
X10025Y7632D01*
X10035Y7642D01*
X10025D01*
X10015Y7652D01*
X10005Y7642D01*
X9995D01*
X10005Y7632D01*
X9995Y7622D01*
X10005D01*
X10015Y7612D01*
X11245Y6807D02*
X11255Y6817D01*
X11265D01*
X11255Y6827D01*
X11265Y6837D01*
X11255D01*
X11245Y6847D01*
X11235Y6837D01*
X11225D01*
X11235Y6827D01*
X11225Y6817D01*
X11235D01*
X11245Y6807D01*
X11235Y7422D02*
X11245Y7432D01*
X11255D01*
X11245Y7442D01*
X11255Y7452D01*
X11245D01*
X11235Y7462D01*
X11225Y7452D01*
X11215D01*
X11225Y7442D01*
X11215Y7432D01*
X11225D01*
X11235Y7422D01*
X9150Y7867D02*
X9140Y7857D01*
X9150Y7867D02*
X9160D01*
X9150Y7877D01*
X9160Y7887D01*
X9150D01*
X9140Y7897D01*
X9130Y7887D01*
X9120D01*
X9130Y7877D01*
X9120Y7867D01*
X9130D01*
X9140Y7857D01*
X9225D02*
X9235Y7867D01*
X9245D01*
X9235Y7877D01*
X9245Y7887D01*
X9235D01*
X9225Y7897D01*
X9215Y7887D01*
X9205D01*
X9215Y7877D01*
X9205Y7867D01*
X9215D01*
X9225Y7857D01*
X9700Y7497D02*
X9710Y7507D01*
X9720D01*
X9710Y7517D01*
X9720Y7527D01*
X9710D01*
X9700Y7537D01*
X9690Y7527D01*
X9680D01*
X9690Y7517D01*
X9680Y7507D01*
X9690D01*
X9700Y7497D01*
X10075Y8912D02*
X10085Y8922D01*
X10095D01*
X10085Y8932D01*
X10095Y8942D01*
X10085D01*
X10075Y8952D01*
X10065Y8942D01*
X10055D01*
X10065Y8932D01*
X10055Y8922D01*
X10065D01*
X10075Y8912D01*
X9575Y8932D02*
X9565Y8922D01*
X9575Y8932D02*
X9585D01*
X9575Y8942D01*
X9585Y8952D01*
X9575D01*
X9565Y8962D01*
X9555Y8952D01*
X9545D01*
X9555Y8942D01*
X9545Y8932D01*
X9555D01*
X9565Y8922D01*
X9690Y8207D02*
X9680Y8197D01*
X9690Y8207D02*
X9700D01*
X9690Y8217D01*
X9700Y8227D01*
X9690D01*
X9680Y8237D01*
X9670Y8227D01*
X9660D01*
X9670Y8217D01*
X9660Y8207D01*
X9670D01*
X9680Y8197D01*
X9230Y8207D02*
X9220Y8197D01*
X9230Y8207D02*
X9240D01*
X9230Y8217D01*
X9240Y8227D01*
X9230D01*
X9220Y8237D01*
X9210Y8227D01*
X9200D01*
X9210Y8217D01*
X9200Y8207D01*
X9210D01*
X9220Y8197D01*
X9310Y7867D02*
X9300Y7857D01*
X9310Y7867D02*
X9320D01*
X9310Y7877D01*
X9320Y7887D01*
X9310D01*
X9300Y7897D01*
X9290Y7887D01*
X9280D01*
X9290Y7877D01*
X9280Y7867D01*
X9290D01*
X9300Y7857D01*
X9680D02*
X9690Y7867D01*
X9700D01*
X9690Y7877D01*
X9700Y7887D01*
X9690D01*
X9680Y7897D01*
X9670Y7887D01*
X9660D01*
X9670Y7877D01*
X9660Y7867D01*
X9670D01*
X9680Y7857D01*
X11190Y7222D02*
X11200Y7232D01*
X11210D01*
X11200Y7242D01*
X11210Y7252D01*
X11200D01*
X11190Y7262D01*
X11180Y7252D01*
X11170D01*
X11180Y7242D01*
X11170Y7232D01*
X11180D01*
X11190Y7222D01*
X11100Y8912D02*
X11110Y8922D01*
X11120D01*
X11110Y8932D01*
X11120Y8942D01*
X11110D01*
X11100Y8952D01*
X11090Y8942D01*
X11080D01*
X11090Y8932D01*
X11080Y8922D01*
X11090D01*
X11100Y8912D01*
X11375Y8422D02*
X11365Y8412D01*
X11375Y8422D02*
X11385D01*
X11375Y8432D01*
X11385Y8442D01*
X11375D01*
X11365Y8452D01*
X11355Y8442D01*
X11345D01*
X11355Y8432D01*
X11345Y8422D01*
X11355D01*
X11365Y8412D01*
X11300Y8247D02*
X11290Y8237D01*
X11300Y8247D02*
X11310D01*
X11300Y8257D01*
X11310Y8267D01*
X11300D01*
X11290Y8277D01*
X11280Y8267D01*
X11270D01*
X11280Y8257D01*
X11270Y8247D01*
X11280D01*
X11290Y8237D01*
X8825Y7802D02*
X8815Y7792D01*
X8825Y7802D02*
X8835D01*
X8825Y7812D01*
X8835Y7822D01*
X8825D01*
X8815Y7832D01*
X8805Y7822D01*
X8795D01*
X8805Y7812D01*
X8795Y7802D01*
X8805D01*
X8815Y7792D01*
X10315Y7292D02*
X10325Y7302D01*
X10335D01*
X10325Y7312D01*
X10335Y7322D01*
X10325D01*
X10315Y7332D01*
X10305Y7322D01*
X10295D01*
X10305Y7312D01*
X10295Y7302D01*
X10305D01*
X10315Y7292D01*
X10930Y8342D02*
X10940Y8352D01*
X10950D01*
X10940Y8362D01*
X10950Y8372D01*
X10940D01*
X10930Y8382D01*
X10920Y8372D01*
X10910D01*
X10920Y8362D01*
X10910Y8352D01*
X10920D01*
X10930Y8342D01*
X10720Y8912D02*
X10730Y8922D01*
X10740D01*
X10730Y8932D01*
X10740Y8942D01*
X10730D01*
X10720Y8952D01*
X10710Y8942D01*
X10700D01*
X10710Y8932D01*
X10700Y8922D01*
X10710D01*
X10720Y8912D01*
X10825Y7287D02*
X10815Y7277D01*
X10825Y7287D02*
X10835D01*
X10825Y7297D01*
X10835Y7307D01*
X10825D01*
X10815Y7317D01*
X10805Y7307D01*
X10795D01*
X10805Y7297D01*
X10795Y7287D01*
X10805D01*
X10815Y7277D01*
X11115Y7317D02*
X11125Y7327D01*
X11135D01*
X11125Y7337D01*
X11135Y7347D01*
X11125D01*
X11115Y7357D01*
X11105Y7347D01*
X11095D01*
X11105Y7337D01*
X11095Y7327D01*
X11105D01*
X11115Y7317D01*
Y7482D02*
X11125Y7492D01*
X11135D01*
X11125Y7502D01*
X11135Y7512D01*
X11125D01*
X11115Y7522D01*
X11105Y7512D01*
X11095D01*
X11105Y7502D01*
X11095Y7492D01*
X11105D01*
X11115Y7482D01*
Y7727D02*
X11125Y7737D01*
X11135D01*
X11125Y7747D01*
X11135Y7757D01*
X11125D01*
X11115Y7767D01*
X11105Y7757D01*
X11095D01*
X11105Y7747D01*
X11095Y7737D01*
X11105D01*
X11115Y7727D01*
X10025Y7302D02*
X10015Y7292D01*
X10025Y7302D02*
X10035D01*
X10025Y7312D01*
X10035Y7322D01*
X10025D01*
X10015Y7332D01*
X10005Y7322D01*
X9995D01*
X10005Y7312D01*
X9995Y7302D01*
X10005D01*
X10015Y7292D01*
X10115D02*
X10125Y7302D01*
X10135D01*
X10125Y7312D01*
X10135Y7322D01*
X10125D01*
X10115Y7332D01*
X10105Y7322D01*
X10095D01*
X10105Y7312D01*
X10095Y7302D01*
X10105D01*
X10115Y7292D01*
X10415Y7842D02*
X10425Y7852D01*
X10435D01*
X10425Y7862D01*
X10435Y7872D01*
X10425D01*
X10415Y7882D01*
X10405Y7872D01*
X10395D01*
X10405Y7862D01*
X10395Y7852D01*
X10405D01*
X10415Y7842D01*
X10425Y7517D02*
X10415Y7507D01*
X10425Y7517D02*
X10435D01*
X10425Y7527D01*
X10435Y7537D01*
X10425D01*
X10415Y7547D01*
X10405Y7537D01*
X10395D01*
X10405Y7527D01*
X10395Y7517D01*
X10405D01*
X10415Y7507D01*
X10980Y8237D02*
X10990Y8247D01*
X11000D01*
X10990Y8257D01*
X11000Y8267D01*
X10990D01*
X10980Y8277D01*
X10970Y8267D01*
X10960D01*
X10970Y8257D01*
X10960Y8247D01*
X10970D01*
X10980Y8237D01*
X10870Y8477D02*
X10880Y8487D01*
X10890D01*
X10880Y8497D01*
X10890Y8507D01*
X10880D01*
X10870Y8517D01*
X10860Y8507D01*
X10850D01*
X10860Y8497D01*
X10850Y8487D01*
X10860D01*
X10870Y8477D01*
X10990Y8092D02*
X10980Y8082D01*
X10990Y8092D02*
X11000D01*
X10990Y8102D01*
X11000Y8112D01*
X10990D01*
X10980Y8122D01*
X10970Y8112D01*
X10960D01*
X10970Y8102D01*
X10960Y8092D01*
X10970D01*
X10980Y8082D01*
X11035Y8237D02*
X11045Y8247D01*
X11055D01*
X11045Y8257D01*
X11055Y8267D01*
X11045D01*
X11035Y8277D01*
X11025Y8267D01*
X11015D01*
X11025Y8257D01*
X11015Y8247D01*
X11025D01*
X11035Y8237D01*
X9995Y7687D02*
X9985Y7677D01*
X9995Y7687D02*
X10005D01*
X9995Y7697D01*
X10005Y7707D01*
X9995D01*
X9985Y7717D01*
X9975Y7707D01*
X9965D01*
X9975Y7697D01*
X9965Y7687D01*
X9975D01*
X9985Y7677D01*
X9370Y7922D02*
X9360Y7912D01*
X9370Y7922D02*
X9380D01*
X9370Y7932D01*
X9380Y7942D01*
X9370D01*
X9360Y7952D01*
X9350Y7942D01*
X9340D01*
X9350Y7932D01*
X9340Y7922D01*
X9350D01*
X9360Y7912D01*
X9530D02*
X9540Y7922D01*
X9550D01*
X9540Y7932D01*
X9550Y7942D01*
X9540D01*
X9530Y7952D01*
X9520Y7942D01*
X9510D01*
X9520Y7932D01*
X9510Y7922D01*
X9520D01*
X9530Y7912D01*
X9865Y7657D02*
X9875Y7667D01*
X9885D01*
X9875Y7677D01*
X9885Y7687D01*
X9875D01*
X9865Y7697D01*
X9855Y7687D01*
X9845D01*
X9855Y7677D01*
X9845Y7667D01*
X9855D01*
X9865Y7657D01*
X11055Y7727D02*
X11065Y7737D01*
X11075D01*
X11065Y7747D01*
X11075Y7757D01*
X11065D01*
X11055Y7767D01*
X11045Y7757D01*
X11035D01*
X11045Y7747D01*
X11035Y7737D01*
X11045D01*
X11055Y7727D01*
Y7852D02*
X11065Y7862D01*
X11075D01*
X11065Y7872D01*
X11075Y7882D01*
X11065D01*
X11055Y7892D01*
X11045Y7882D01*
X11035D01*
X11045Y7872D01*
X11035Y7862D01*
X11045D01*
X11055Y7852D01*
X9845Y7912D02*
X9835Y7902D01*
X9845Y7912D02*
X9855D01*
X9845Y7922D01*
X9855Y7932D01*
X9845D01*
X9835Y7942D01*
X9825Y7932D01*
X9815D01*
X9825Y7922D01*
X9815Y7912D01*
X9825D01*
X9835Y7902D01*
X11370Y7217D02*
X11380Y7227D01*
X11390D01*
X11380Y7237D01*
X11390Y7247D01*
X11380D01*
X11370Y7257D01*
X11360Y7247D01*
X11350D01*
X11360Y7237D01*
X11350Y7227D01*
X11360D01*
X11370Y7217D01*
X9845Y8002D02*
X9835Y7992D01*
X9845Y8002D02*
X9855D01*
X9845Y8012D01*
X9855Y8022D01*
X9845D01*
X9835Y8032D01*
X9825Y8022D01*
X9815D01*
X9825Y8012D01*
X9815Y8002D01*
X9825D01*
X9835Y7992D01*
X10540Y8442D02*
X10550Y8452D01*
X10560D01*
X10550Y8462D01*
X10560Y8472D01*
X10550D01*
X10540Y8482D01*
X10530Y8472D01*
X10520D01*
X10530Y8462D01*
X10520Y8452D01*
X10530D01*
X10540Y8442D01*
X10550Y8247D02*
X10540Y8237D01*
X10550Y8247D02*
X10560D01*
X10550Y8257D01*
X10560Y8267D01*
X10550D01*
X10540Y8277D01*
X10530Y8267D01*
X10520D01*
X10530Y8257D01*
X10520Y8247D01*
X10530D01*
X10540Y8237D01*
X9995Y7837D02*
X9985Y7827D01*
X9995Y7837D02*
X10005D01*
X9995Y7847D01*
X10005Y7857D01*
X9995D01*
X9985Y7867D01*
X9975Y7857D01*
X9965D01*
X9975Y7847D01*
X9965Y7837D01*
X9975D01*
X9985Y7827D01*
X10090Y7372D02*
X10080Y7362D01*
X10090Y7372D02*
X10100D01*
X10090Y7382D01*
X10100Y7392D01*
X10090D01*
X10080Y7402D01*
X10070Y7392D01*
X10060D01*
X10070Y7382D01*
X10060Y7372D01*
X10070D01*
X10080Y7362D01*
X10140Y7397D02*
X10150Y7407D01*
X10160D01*
X10150Y7417D01*
X10160Y7427D01*
X10150D01*
X10140Y7437D01*
X10130Y7427D01*
X10120D01*
X10130Y7417D01*
X10120Y7407D01*
X10130D01*
X10140Y7397D01*
D02*
M02*
