*%FSLAX23Y23*%
*%MOIN*%
G01*
%ADD11C,0.001*%
%ADD12C,0.006*%
%ADD13C,0.007*%
%ADD14C,0.007*%
%ADD15C,0.008*%
%ADD16C,0.010*%
%ADD17C,0.012*%
%ADD18C,0.015*%
%ADD19C,0.020*%
%ADD20C,0.030*%
%ADD21C,0.040*%
%ADD22C,0.048*%
%ADD23C,0.060*%
%ADD24C,0.068*%
%ADD25C,0.070*%
%ADD26C,0.080*%
%ADD27C,0.088*%
%ADD28C,0.120*%
%ADD29C,0.140*%
%ADD30C,0.148*%
%ADD31C,0.180*%
%ADD32R,0.005X0.005*%
%ADD33R,0.009X0.009*%
%ADD34R,0.010X0.010*%
%ADD35R,0.015X0.015*%
%ADD36R,0.019X0.019*%
%ADD37R,0.020X0.020*%
%ADD38R,0.025X0.025*%
%ADD39R,0.029X0.029*%
%ADD40R,0.030X0.030*%
%ADD41R,0.030X0.030*%
%ADD42R,0.034X0.034*%
%ADD43R,0.035X0.035*%
%ADD44R,0.035X0.035*%
%ADD45R,0.035X0.050*%
%ADD46R,0.038X0.038*%
%ADD47R,0.039X0.039*%
%ADD48R,0.040X0.040*%
%ADD49R,0.043X0.043*%
%ADD50R,0.043X0.058*%
%ADD51R,0.045X0.045*%
%ADD52R,0.049X0.049*%
%ADD53R,0.050X0.035*%
%ADD54R,0.050X0.050*%
%ADD55R,0.055X0.055*%
%ADD56R,0.058X0.043*%
%ADD57R,0.059X0.059*%
%ADD58R,0.060X0.050*%
%ADD59R,0.060X0.060*%
%ADD60R,0.060X0.060*%
%ADD61R,0.065X0.065*%
%ADD62R,0.068X0.058*%
%ADD63R,0.068X0.068*%
%ADD64R,0.070X0.070*%
%ADD65R,0.075X0.075*%
%ADD66R,0.079X0.079*%
%ADD67R,0.080X0.080*%
%ADD68R,0.085X0.085*%
%ADD69R,0.090X0.090*%
%ADD70R,0.095X0.095*%
%ADD71R,0.105X0.105*%
%ADD72R,0.115X0.115*%
%ADD73R,0.120X0.120*%
%ADD74R,0.125X0.125*%
%ADD75R,0.140X0.140*%
%ADD76R,0.155X0.155*%
%ADD77R,0.185X0.185*%
D12*
X9825Y7842D02*
X9865D01*
X9825D02*
Y7822D01*
X9832Y7815D01*
X9845D01*
X9852Y7822D01*
Y7842D01*
Y7829D02*
X9865Y7815D01*
Y7782D02*
X9825D01*
X9845Y7802D01*
Y7775D01*
X9832Y7762D02*
X9825Y7755D01*
Y7742D01*
X9832Y7735D01*
X9858D01*
X9865Y7742D01*
Y7755D01*
X9858Y7762D01*
X9832D01*
X9565Y7587D02*
X9525D01*
Y7567D01*
X9532Y7560D01*
X9545D01*
X9552Y7567D01*
Y7587D01*
Y7574D02*
X9565Y7560D01*
X9532Y7547D02*
X9525Y7540D01*
Y7527D01*
X9532Y7520D01*
X9538D01*
X9539D01*
X9538D02*
X9539D01*
X9538D02*
X9539D01*
X9538D02*
X9545Y7527D01*
Y7534D01*
Y7527D01*
X9552Y7520D01*
X9558D01*
X9565Y7527D01*
Y7540D01*
X9558Y7547D01*
Y7507D02*
X9565Y7500D01*
Y7487D01*
X9558Y7480D01*
X9532D01*
X9525Y7487D01*
Y7500D01*
X9532Y7507D01*
X9538D01*
X9545Y7500D01*
Y7480D01*
X9555Y8052D02*
Y8092D01*
X9535D01*
X9528Y8085D01*
Y8072D01*
X9535Y8065D01*
X9555D01*
X9542D02*
X9528Y8052D01*
X9515Y8085D02*
X9508Y8092D01*
X9495D01*
X9488Y8085D01*
Y8079D01*
X9489D01*
X9488D02*
X9489D01*
X9488D02*
X9489D01*
X9488D02*
X9495Y8072D01*
X9502D01*
X9495D01*
X9488Y8065D01*
Y8059D01*
X9495Y8052D01*
X9508D01*
X9515Y8059D01*
X9475Y8085D02*
X9468Y8092D01*
X9455D01*
X9448Y8085D01*
Y8079D01*
X9455Y8072D01*
X9448Y8065D01*
Y8059D01*
X9455Y8052D01*
X9468D01*
X9475Y8059D01*
Y8065D01*
X9468Y8072D01*
X9475Y8079D01*
Y8085D01*
X9468Y8072D02*
X9455D01*
X9290Y8342D02*
Y8382D01*
X9270D01*
X9263Y8375D01*
Y8362D01*
X9270Y8355D01*
X9290D01*
X9277D02*
X9263Y8342D01*
X9250Y8375D02*
X9243Y8382D01*
X9230D01*
X9223Y8375D01*
Y8369D01*
X9224D01*
X9223D02*
X9224D01*
X9223D02*
X9224D01*
X9223D02*
X9230Y8362D01*
X9237D01*
X9230D01*
X9223Y8355D01*
Y8349D01*
X9230Y8342D01*
X9243D01*
X9250Y8349D01*
X9210Y8382D02*
X9183D01*
Y8375D01*
X9210Y8349D01*
Y8342D01*
X10015Y8087D02*
Y8047D01*
Y8087D02*
X9995D01*
X9988Y8080D01*
Y8067D01*
X9995Y8060D01*
X10015D01*
X10002D02*
X9988Y8047D01*
X9975Y8080D02*
X9968Y8087D01*
X9955D01*
X9948Y8080D01*
Y8074D01*
X9949D01*
X9948D02*
X9949D01*
X9948D02*
X9949D01*
X9948D02*
X9955Y8067D01*
X9962D01*
X9955D01*
X9948Y8060D01*
Y8054D01*
X9955Y8047D01*
X9968D01*
X9975Y8054D01*
X9922Y8080D02*
X9908Y8087D01*
X9922Y8080D02*
X9935Y8067D01*
Y8054D01*
X9928Y8047D01*
X9915D01*
X9908Y8054D01*
Y8060D01*
X9915Y8067D01*
X9935D01*
X9755Y8342D02*
Y8382D01*
X9735D01*
X9728Y8375D01*
Y8362D01*
X9735Y8355D01*
X9755D01*
X9742D02*
X9728Y8342D01*
X9715Y8375D02*
X9708Y8382D01*
X9695D01*
X9688Y8375D01*
Y8369D01*
X9689D01*
X9688D02*
X9689D01*
X9688D02*
X9689D01*
X9688D02*
X9695Y8362D01*
X9702D01*
X9695D01*
X9688Y8355D01*
Y8349D01*
X9695Y8342D01*
X9708D01*
X9715Y8349D01*
X9675Y8382D02*
X9648D01*
X9675D02*
Y8362D01*
X9662Y8369D01*
X9655D01*
X9648Y8362D01*
Y8349D01*
X9655Y8342D01*
X9668D01*
X9675Y8349D01*
X10080Y8182D02*
X10120D01*
X10080D02*
Y8162D01*
X10087Y8155D01*
X10100D01*
X10107Y8162D01*
Y8182D01*
Y8169D02*
X10120Y8155D01*
X10087Y8142D02*
X10080Y8135D01*
Y8122D01*
X10087Y8115D01*
X10093D01*
X10094D01*
X10093D02*
X10094D01*
X10093D02*
X10094D01*
X10093D02*
X10100Y8122D01*
Y8129D01*
Y8122D01*
X10107Y8115D01*
X10113D01*
X10120Y8122D01*
Y8135D01*
X10113Y8142D01*
X10120Y8082D02*
X10080D01*
X10100Y8102D01*
Y8075D01*
X10310Y8592D02*
X10350D01*
X10310D02*
Y8572D01*
X10317Y8565D01*
X10330D01*
X10337Y8572D01*
Y8592D01*
Y8579D02*
X10350Y8565D01*
X10317Y8552D02*
X10310Y8545D01*
Y8532D01*
X10317Y8525D01*
X10323D01*
X10324D01*
X10323D02*
X10324D01*
X10323D02*
X10324D01*
X10323D02*
X10330Y8532D01*
Y8539D01*
Y8532D01*
X10337Y8525D01*
X10343D01*
X10350Y8532D01*
Y8545D01*
X10343Y8552D01*
X10317Y8512D02*
X10310Y8505D01*
Y8492D01*
X10317Y8485D01*
X10323D01*
X10324D01*
X10323D02*
X10324D01*
X10323D02*
X10324D01*
X10323D02*
X10330Y8492D01*
Y8499D01*
Y8492D01*
X10337Y8485D01*
X10343D01*
X10350Y8492D01*
Y8505D01*
X10343Y8512D01*
X11345Y8847D02*
X11385D01*
X11345D02*
Y8827D01*
X11352Y8820D01*
X11365D01*
X11372Y8827D01*
Y8847D01*
Y8834D02*
X11385Y8820D01*
X11352Y8807D02*
X11345Y8800D01*
Y8787D01*
X11352Y8780D01*
X11358D01*
X11359D01*
X11358D02*
X11359D01*
X11358D02*
X11359D01*
X11358D02*
X11365Y8787D01*
Y8794D01*
Y8787D01*
X11372Y8780D01*
X11378D01*
X11385Y8787D01*
Y8800D01*
X11378Y8807D01*
X11385Y8767D02*
Y8740D01*
Y8767D02*
X11358Y8740D01*
X11352D01*
X11345Y8747D01*
Y8760D01*
X11352Y8767D01*
X11265Y8442D02*
X11225D01*
Y8422D01*
X11232Y8415D01*
X11245D01*
X11252Y8422D01*
Y8442D01*
Y8429D02*
X11265Y8415D01*
X11232Y8402D02*
X11225Y8395D01*
Y8382D01*
X11232Y8375D01*
X11238D01*
X11239D01*
X11238D02*
X11239D01*
X11238D02*
X11239D01*
X11238D02*
X11245Y8382D01*
Y8389D01*
Y8382D01*
X11252Y8375D01*
X11258D01*
X11265Y8382D01*
Y8395D01*
X11258Y8402D01*
X11265Y8362D02*
Y8349D01*
Y8355D01*
X11225D01*
X11226D01*
X11225D02*
X11232Y8362D01*
X11220Y8842D02*
X11260D01*
X11220D02*
Y8822D01*
X11227Y8815D01*
X11240D01*
X11247Y8822D01*
Y8842D01*
Y8829D02*
X11260Y8815D01*
X11227Y8802D02*
X11220Y8795D01*
Y8782D01*
X11227Y8775D01*
X11233D01*
X11234D01*
X11233D02*
X11234D01*
X11233D02*
X11234D01*
X11233D02*
X11240Y8782D01*
Y8789D01*
Y8782D01*
X11247Y8775D01*
X11253D01*
X11260Y8782D01*
Y8795D01*
X11253Y8802D01*
X11227Y8762D02*
X11220Y8755D01*
Y8742D01*
X11227Y8735D01*
X11253D01*
X11260Y8742D01*
Y8755D01*
X11253Y8762D01*
X11227D01*
X10400Y8237D02*
Y8197D01*
Y8237D02*
X10380D01*
X10373Y8230D01*
Y8217D01*
X10380Y8210D01*
X10400D01*
X10387D02*
X10373Y8197D01*
X10360D02*
X10333D01*
X10360D02*
X10333Y8224D01*
Y8230D01*
X10340Y8237D01*
X10353D01*
X10360Y8230D01*
X10320Y8204D02*
X10313Y8197D01*
X10300D01*
X10293Y8204D01*
Y8230D01*
X10300Y8237D01*
X10313D01*
X10320Y8230D01*
Y8224D01*
X10313Y8217D01*
X10293D01*
X10015Y8412D02*
X9975D01*
Y8392D01*
X9982Y8385D01*
X9995D01*
X10002Y8392D01*
Y8412D01*
Y8399D02*
X10015Y8385D01*
Y8372D02*
Y8345D01*
Y8372D02*
X9988Y8345D01*
X9982D01*
X9975Y8352D01*
Y8365D01*
X9982Y8372D01*
Y8332D02*
X9975Y8325D01*
Y8312D01*
X9982Y8305D01*
X9988D01*
X9995Y8312D01*
X10002Y8305D01*
X10008D01*
X10015Y8312D01*
Y8325D01*
X10008Y8332D01*
X10002D01*
X9995Y8325D01*
X9988Y8332D01*
X9982D01*
X9995Y8325D02*
Y8312D01*
X9550Y8412D02*
X9510D01*
Y8392D01*
X9517Y8385D01*
X9530D01*
X9537Y8392D01*
Y8412D01*
Y8399D02*
X9550Y8385D01*
Y8372D02*
Y8345D01*
Y8372D02*
X9523Y8345D01*
X9517D01*
X9510Y8352D01*
Y8365D01*
X9517Y8372D01*
X9510Y8332D02*
Y8305D01*
X9517D01*
X9543Y8332D01*
X9550D01*
X11255Y7332D02*
Y7292D01*
Y7332D02*
X11235D01*
X11228Y7325D01*
Y7312D01*
X11235Y7305D01*
X11255D01*
X11242D02*
X11228Y7292D01*
X11215D02*
X11188D01*
X11215D02*
X11188Y7319D01*
Y7325D01*
X11195Y7332D01*
X11208D01*
X11215Y7325D01*
X11162D02*
X11148Y7332D01*
X11162Y7325D02*
X11175Y7312D01*
Y7299D01*
X11168Y7292D01*
X11155D01*
X11148Y7299D01*
Y7305D01*
X11155Y7312D01*
X11175D01*
X11275Y8092D02*
X11315D01*
X11275D02*
Y8072D01*
X11282Y8065D01*
X11295D01*
X11302Y8072D01*
Y8092D01*
Y8079D02*
X11315Y8065D01*
Y8052D02*
Y8025D01*
Y8052D02*
X11288Y8025D01*
X11282D01*
X11275Y8032D01*
Y8045D01*
X11282Y8052D01*
Y8012D02*
X11275Y8005D01*
Y7992D01*
X11282Y7985D01*
X11288D01*
X11289D01*
X11288D02*
X11289D01*
X11288D02*
X11289D01*
X11288D02*
X11295Y7992D01*
Y7999D01*
Y7992D01*
X11302Y7985D01*
X11308D01*
X11315Y7992D01*
Y8005D01*
X11308Y8012D01*
X11045Y7537D02*
X11005D01*
Y7517D01*
X11012Y7510D01*
X11025D01*
X11032Y7517D01*
Y7537D01*
Y7524D02*
X11045Y7510D01*
Y7497D02*
Y7470D01*
Y7497D02*
X11018Y7470D01*
X11012D01*
X11005Y7477D01*
Y7490D01*
X11012Y7497D01*
X11045Y7457D02*
Y7444D01*
Y7450D01*
X11005D01*
X11006D01*
X11005D02*
X11012Y7457D01*
X9565Y7727D02*
X9525D01*
Y7707D01*
X9532Y7700D01*
X9545D01*
X9552Y7707D01*
Y7727D01*
Y7714D02*
X9565Y7700D01*
Y7687D02*
Y7674D01*
Y7680D01*
X9525D01*
X9526D01*
X9525D02*
X9532Y7687D01*
Y7654D02*
X9525Y7647D01*
Y7634D01*
X9532Y7627D01*
X9538D01*
X9545Y7634D01*
X9552Y7627D01*
X9558D01*
X9565Y7634D01*
Y7647D01*
X9558Y7654D01*
X9552D01*
X9545Y7647D01*
X9538Y7654D01*
X9532D01*
X9545Y7647D02*
Y7634D01*
X9415Y8342D02*
Y8382D01*
X9395D01*
X9388Y8375D01*
Y8362D01*
X9395Y8355D01*
X9415D01*
X9402D02*
X9388Y8342D01*
X9375D02*
X9362D01*
X9368D01*
Y8382D01*
X9369D01*
X9368D02*
X9375Y8375D01*
X9342Y8382D02*
X9315D01*
Y8375D01*
X9342Y8349D01*
Y8342D01*
X9890D02*
Y8382D01*
X9870D01*
X9863Y8375D01*
Y8362D01*
X9870Y8355D01*
X9890D01*
X9877D02*
X9863Y8342D01*
X9850D02*
X9837D01*
X9843D01*
Y8382D01*
X9844D01*
X9843D02*
X9850Y8375D01*
X9803D02*
X9790Y8382D01*
X9803Y8375D02*
X9817Y8362D01*
Y8349D01*
X9810Y8342D01*
X9797D01*
X9790Y8349D01*
Y8355D01*
X9797Y8362D01*
X9817D01*
X9783Y7565D02*
Y7539D01*
Y7565D02*
X9790Y7572D01*
X9803D01*
X9810Y7565D01*
Y7539D01*
X9803Y7532D01*
X9790D01*
X9783D02*
X9797Y7545D01*
X9790Y7532D02*
X9783Y7539D01*
X9770Y7572D02*
X9743D01*
X9770D02*
Y7552D01*
X9757Y7559D01*
X9750D01*
X9743Y7552D01*
Y7539D01*
X9750Y7532D01*
X9763D01*
X9770Y7539D01*
X9238Y8179D02*
Y8205D01*
X9245Y8212D01*
X9258D01*
X9265Y8205D01*
Y8179D01*
X9258Y8172D01*
X9245D01*
X9238D02*
X9252Y8185D01*
X9245Y8172D02*
X9238Y8179D01*
X9205Y8172D02*
Y8212D01*
X9225Y8192D01*
X9198D01*
X9708Y8179D02*
Y8205D01*
X9715Y8212D01*
X9728D01*
X9735Y8205D01*
Y8179D01*
X9728Y8172D01*
X9715D01*
X9708D02*
X9722Y8185D01*
X9715Y8172D02*
X9708Y8179D01*
X9695Y8205D02*
X9688Y8212D01*
X9675D01*
X9668Y8205D01*
Y8199D01*
X9669D01*
X9668D02*
X9669D01*
X9668D02*
X9669D01*
X9668D02*
X9675Y8192D01*
X9682D01*
X9675D01*
X9668Y8185D01*
Y8179D01*
X9675Y8172D01*
X9688D01*
X9695Y8179D01*
X10168Y8474D02*
Y8500D01*
X10175Y8507D01*
X10188D01*
X10195Y8500D01*
Y8474D01*
X10188Y8467D01*
X10175D01*
X10168D02*
X10182Y8480D01*
X10175Y8467D02*
X10168Y8474D01*
X10155Y8467D02*
X10128D01*
X10155D02*
X10128Y8494D01*
Y8500D01*
X10135Y8507D01*
X10148D01*
X10155Y8500D01*
X11398Y8549D02*
Y8575D01*
X11405Y8582D01*
X11418D01*
X11425Y8575D01*
Y8549D01*
X11418Y8542D01*
X11405D01*
X11398D02*
X11412Y8555D01*
X11405Y8542D02*
X11398Y8549D01*
X11385Y8542D02*
X11372D01*
X11378D01*
Y8582D01*
X11379D01*
X11378D02*
X11385Y8575D01*
X9420Y7677D02*
X9380D01*
X9420D02*
Y7657D01*
X9413Y7650D01*
X9387D01*
X9380Y7657D01*
Y7677D01*
Y7637D02*
Y7610D01*
Y7637D02*
X9400D01*
X9393Y7624D01*
Y7617D01*
X9400Y7610D01*
X9413D01*
X9420Y7617D01*
Y7630D01*
X9413Y7637D01*
X9380Y8477D02*
Y8517D01*
Y8477D02*
X9360D01*
X9353Y8484D01*
Y8510D01*
X9360Y8517D01*
X9380D01*
X9320D02*
Y8477D01*
X9340Y8497D02*
X9320Y8517D01*
X9313Y8497D02*
X9340D01*
X9780Y8477D02*
Y8517D01*
X9800D01*
X9807Y8510D01*
Y8484D01*
X9800Y8477D01*
X9780D01*
X9820Y8484D02*
X9827Y8477D01*
X9840D01*
X9847Y8484D01*
Y8490D01*
X9848D01*
X9847D02*
X9848D01*
X9847D02*
X9848D01*
X9847D02*
X9840Y8497D01*
X9833D01*
X9840D01*
X9847Y8504D01*
Y8510D01*
X9840Y8517D01*
X9827D01*
X9820Y8510D01*
X10615Y8582D02*
Y8622D01*
Y8582D02*
X10595D01*
X10588Y8589D01*
Y8615D01*
X10595Y8622D01*
X10615D01*
X10575Y8582D02*
X10548D01*
X10575D02*
X10548Y8609D01*
Y8615D01*
X10555Y8622D01*
X10568D01*
X10575Y8615D01*
X10920Y8442D02*
Y8402D01*
X10900D01*
X10893Y8409D01*
Y8435D01*
X10900Y8442D01*
X10920D01*
X10880Y8402D02*
X10867D01*
X10873D01*
Y8442D01*
X10874D01*
X10873D02*
X10880Y8435D01*
X11125Y8577D02*
X11165D01*
X11125D02*
Y8557D01*
X11132Y8550D01*
X11145D01*
X11152Y8557D01*
Y8577D01*
Y8564D02*
X11165Y8550D01*
Y8537D02*
Y8524D01*
Y8530D01*
X11125D01*
X11126D01*
X11125D02*
X11132Y8537D01*
X11125Y8484D02*
X11165D01*
X11145Y8504D02*
X11125Y8484D01*
X11145Y8477D02*
Y8504D01*
X10350Y8442D02*
X10310D01*
Y8422D01*
X10317Y8415D01*
X10330D01*
X10337Y8422D01*
Y8442D01*
Y8429D02*
X10350Y8415D01*
Y8402D02*
Y8389D01*
Y8395D01*
X10310D01*
X10311D01*
X10310D02*
X10317Y8402D01*
X10310Y8369D02*
Y8342D01*
Y8369D02*
X10330D01*
X10323Y8355D01*
Y8349D01*
X10330Y8342D01*
X10343D01*
X10350Y8349D01*
Y8362D01*
X10343Y8369D01*
X11330Y7402D02*
Y7362D01*
Y7402D02*
X11310D01*
X11303Y7395D01*
Y7382D01*
X11310Y7375D01*
X11330D01*
X11317D02*
X11303Y7362D01*
X11290D02*
X11277D01*
X11283D01*
Y7402D01*
X11284D01*
X11283D02*
X11290Y7395D01*
X11210Y7632D02*
Y7672D01*
X11190D01*
X11183Y7665D01*
Y7652D01*
X11190Y7645D01*
X11210D01*
X11197D02*
X11183Y7632D01*
X11170D02*
X11143D01*
X11170D02*
X11143Y7659D01*
Y7665D01*
X11150Y7672D01*
X11163D01*
X11170Y7665D01*
X11120Y7897D02*
X11080D01*
Y7877D01*
X11087Y7870D01*
X11100D01*
X11107Y7877D01*
Y7897D01*
Y7884D02*
X11120Y7870D01*
X11087Y7857D02*
X11080Y7850D01*
Y7837D01*
X11087Y7830D01*
X11093D01*
X11094D01*
X11093D02*
X11094D01*
X11093D02*
X11094D01*
X11093D02*
X11100Y7837D01*
Y7844D01*
Y7837D01*
X11107Y7830D01*
X11113D01*
X11120Y7837D01*
Y7850D01*
X11113Y7857D01*
X10095Y7817D02*
Y7777D01*
Y7817D02*
X10075D01*
X10068Y7810D01*
Y7797D01*
X10075Y7790D01*
X10095D01*
X10082D02*
X10068Y7777D01*
X10035D02*
Y7817D01*
X10055Y7797D01*
X10028D01*
X10095Y7837D02*
Y7877D01*
X10075D01*
X10068Y7870D01*
Y7857D01*
X10075Y7850D01*
X10095D01*
X10082D02*
X10068Y7837D01*
X10055Y7877D02*
X10028D01*
X10055D02*
Y7857D01*
X10042Y7864D01*
X10035D01*
X10028Y7857D01*
Y7844D01*
X10035Y7837D01*
X10048D01*
X10055Y7844D01*
X10400Y8082D02*
X10440D01*
X10400D02*
Y8062D01*
X10407Y8055D01*
X10420D01*
X10427Y8062D01*
Y8082D01*
Y8069D02*
X10440Y8055D01*
X10407Y8029D02*
X10400Y8015D01*
X10407Y8029D02*
X10420Y8042D01*
X10433D01*
X10440Y8035D01*
Y8022D01*
X10433Y8015D01*
X10427D01*
X10420Y8022D01*
Y8042D01*
X10450Y7697D02*
X10490D01*
X10450D02*
Y7677D01*
X10457Y7670D01*
X10470D01*
X10477Y7677D01*
Y7697D01*
Y7684D02*
X10490Y7670D01*
X10450Y7657D02*
Y7630D01*
X10457D01*
X10483Y7657D01*
X10490D01*
X10790Y7732D02*
X10830D01*
X10790D02*
Y7712D01*
X10797Y7705D01*
X10810D01*
X10817Y7712D01*
Y7732D01*
Y7719D02*
X10830Y7705D01*
X10797Y7692D02*
X10790Y7685D01*
Y7672D01*
X10797Y7665D01*
X10803D01*
X10810Y7672D01*
X10817Y7665D01*
X10823D01*
X10830Y7672D01*
Y7685D01*
X10823Y7692D01*
X10817D01*
X10810Y7685D01*
X10803Y7692D01*
X10797D01*
X10810Y7685D02*
Y7672D01*
X10780Y8022D02*
X10740D01*
Y8002D01*
X10747Y7995D01*
X10760D01*
X10767Y8002D01*
Y8022D01*
Y8009D02*
X10780Y7995D01*
X10773Y7982D02*
X10780Y7975D01*
Y7962D01*
X10773Y7955D01*
X10747D01*
X10740Y7962D01*
Y7975D01*
X10747Y7982D01*
X10753D01*
X10760Y7975D01*
Y7955D01*
X9105Y8132D02*
X9065D01*
Y8112D01*
X9072Y8105D01*
X9085D01*
X9092Y8112D01*
Y8132D01*
Y8119D02*
X9105Y8105D01*
Y8092D02*
Y8079D01*
Y8085D01*
X9065D01*
X9066D01*
X9065D02*
X9072Y8092D01*
Y8059D02*
X9065Y8052D01*
Y8039D01*
X9072Y8032D01*
X9098D01*
X9105Y8039D01*
Y8052D01*
X9098Y8059D01*
X9072D01*
X9055Y8032D02*
X9015D01*
Y8012D01*
X9022Y8005D01*
X9035D01*
X9042Y8012D01*
Y8032D01*
Y8019D02*
X9055Y8005D01*
Y7992D02*
Y7979D01*
Y7985D01*
X9015D01*
X9016D01*
X9015D02*
X9022Y7992D01*
X9055Y7959D02*
Y7945D01*
Y7952D01*
X9015D01*
X9016D01*
X9015D02*
X9022Y7959D01*
X11085Y7637D02*
X11125D01*
X11085D02*
Y7617D01*
X11092Y7610D01*
X11105D01*
X11112Y7617D01*
Y7637D01*
Y7624D02*
X11125Y7610D01*
Y7597D02*
Y7584D01*
Y7590D01*
X11085D01*
X11086D01*
X11085D02*
X11092Y7597D01*
X11125Y7564D02*
Y7537D01*
Y7564D02*
X11098Y7537D01*
X11092D01*
X11085Y7544D01*
Y7557D01*
X11092Y7564D01*
X11025Y7822D02*
X10985D01*
Y7802D01*
X10992Y7795D01*
X11005D01*
X11012Y7802D01*
Y7822D01*
Y7809D02*
X11025Y7795D01*
Y7782D02*
Y7769D01*
Y7775D01*
X10985D01*
X10986D01*
X10985D02*
X10992Y7782D01*
Y7749D02*
X10985Y7742D01*
Y7729D01*
X10992Y7722D01*
X10998D01*
X10999D01*
X10998D02*
X10999D01*
X10998D02*
X10999D01*
X10998D02*
X11005Y7729D01*
Y7735D01*
Y7729D01*
X11012Y7722D01*
X11018D01*
X11025Y7729D01*
Y7742D01*
X11018Y7749D01*
X11395Y6922D02*
Y6882D01*
Y6922D02*
X11375D01*
X11368Y6915D01*
Y6902D01*
X11375Y6895D01*
X11395D01*
X11382D02*
X11368Y6882D01*
X11355D02*
X11328D01*
X11355D02*
X11328Y6909D01*
Y6915D01*
X11335Y6922D01*
X11348D01*
X11355Y6915D01*
X11315Y6922D02*
X11288D01*
X11315D02*
Y6902D01*
X11302Y6909D01*
X11295D01*
X11288Y6902D01*
Y6889D01*
X11295Y6882D01*
X11308D01*
X11315Y6889D01*
X9635Y7792D02*
Y7832D01*
X9615D01*
X9608Y7825D01*
Y7812D01*
X9615Y7805D01*
X9635D01*
X9622D02*
X9608Y7792D01*
X9595D02*
X9582D01*
X9588D01*
Y7832D01*
X9589D01*
X9588D02*
X9595Y7825D01*
X9562Y7799D02*
X9555Y7792D01*
X9542D01*
X9535Y7799D01*
Y7825D01*
X9542Y7832D01*
X9555D01*
X9562Y7825D01*
Y7819D01*
X9555Y7812D01*
X9535D01*
X9280Y7552D02*
Y7512D01*
Y7552D02*
X9260D01*
X9253Y7545D01*
Y7532D01*
X9260Y7525D01*
X9280D01*
X9267D02*
X9253Y7512D01*
X9240Y7552D02*
X9213D01*
X9240D02*
Y7512D01*
X9213D01*
X9227Y7532D02*
X9240D01*
X9200Y7512D02*
Y7552D01*
Y7512D02*
X9173D01*
X9160D02*
Y7539D01*
X9147Y7552D01*
X9133Y7539D01*
Y7512D01*
Y7532D01*
X9160D01*
X9120Y7545D02*
Y7552D01*
Y7545D02*
X9107Y7532D01*
X9093Y7545D01*
Y7552D01*
X9107Y7532D02*
Y7512D01*
X9080Y7552D02*
X9053D01*
X9080D02*
Y7532D01*
X9067Y7539D01*
X9060D01*
X9053Y7532D01*
Y7519D01*
X9060Y7512D01*
X9073D01*
X9080Y7519D01*
X9205Y8862D02*
X9245D01*
X9205D02*
Y8842D01*
X9212Y8835D01*
X9225D01*
X9232Y8842D01*
Y8862D01*
Y8849D02*
X9245Y8835D01*
X9205Y8822D02*
Y8795D01*
Y8822D02*
X9245D01*
Y8795D01*
X9225Y8809D02*
Y8822D01*
X9245Y8782D02*
X9205D01*
X9245D02*
Y8755D01*
Y8742D02*
X9218D01*
X9205Y8729D01*
X9218Y8715D01*
X9245D01*
X9225D01*
Y8742D01*
X9212Y8702D02*
X9205D01*
X9212D02*
X9225Y8689D01*
X9212Y8675D01*
X9205D01*
X9225Y8689D02*
X9245D01*
Y8642D02*
X9205D01*
X9225Y8662D01*
Y8635D01*
X9670Y8862D02*
X9710D01*
X9670D02*
Y8842D01*
X9677Y8835D01*
X9690D01*
X9697Y8842D01*
Y8862D01*
Y8849D02*
X9710Y8835D01*
X9670Y8822D02*
Y8795D01*
Y8822D02*
X9710D01*
Y8795D01*
X9690Y8809D02*
Y8822D01*
X9710Y8782D02*
X9670D01*
X9710D02*
Y8755D01*
Y8742D02*
X9683D01*
X9670Y8729D01*
X9683Y8715D01*
X9710D01*
X9690D01*
Y8742D01*
X9677Y8702D02*
X9670D01*
X9677D02*
X9690Y8689D01*
X9677Y8675D01*
X9670D01*
X9690Y8689D02*
X9710D01*
X9677Y8662D02*
X9670Y8655D01*
Y8642D01*
X9677Y8635D01*
X9683D01*
X9684D01*
X9683D02*
X9684D01*
X9683D02*
X9684D01*
X9683D02*
X9690Y8642D01*
Y8649D01*
Y8642D01*
X9697Y8635D01*
X9703D01*
X9710Y8642D01*
Y8655D01*
X9703Y8662D01*
X10435Y8867D02*
X10475D01*
X10435D02*
Y8847D01*
X10442Y8840D01*
X10455D01*
X10462Y8847D01*
Y8867D01*
Y8854D02*
X10475Y8840D01*
X10435Y8827D02*
Y8800D01*
Y8827D02*
X10475D01*
Y8800D01*
X10455Y8814D02*
Y8827D01*
X10475Y8787D02*
X10435D01*
X10475D02*
Y8760D01*
Y8747D02*
X10448D01*
X10435Y8734D01*
X10448Y8720D01*
X10475D01*
X10455D01*
Y8747D01*
X10442Y8707D02*
X10435D01*
X10442D02*
X10455Y8694D01*
X10442Y8680D01*
X10435D01*
X10455Y8694D02*
X10475D01*
Y8667D02*
Y8640D01*
Y8667D02*
X10448Y8640D01*
X10442D01*
X10435Y8647D01*
Y8660D01*
X10442Y8667D01*
X10845Y8867D02*
X10885D01*
X10845D02*
Y8847D01*
X10852Y8840D01*
X10865D01*
X10872Y8847D01*
Y8867D01*
Y8854D02*
X10885Y8840D01*
X10845Y8827D02*
Y8800D01*
Y8827D02*
X10885D01*
Y8800D01*
X10865Y8814D02*
Y8827D01*
X10885Y8787D02*
X10845D01*
X10885D02*
Y8760D01*
Y8747D02*
X10858D01*
X10845Y8734D01*
X10858Y8720D01*
X10885D01*
X10865D01*
Y8747D01*
X10852Y8707D02*
X10845D01*
X10852D02*
X10865Y8694D01*
X10852Y8680D01*
X10845D01*
X10865Y8694D02*
X10885D01*
Y8667D02*
Y8654D01*
Y8660D01*
X10845D01*
X10846D01*
X10845D02*
X10852Y8667D01*
D16*
X11230Y6922D02*
X11265D01*
Y6872D01*
X11230D01*
X11195D02*
X11160D01*
Y6922D01*
X11195D01*
X11190Y7362D02*
X11155D01*
Y7412D01*
X11190D01*
X11225D02*
X11260D01*
Y7362D01*
X11225D01*
X11180Y7792D02*
Y7827D01*
Y7792D02*
X11130D01*
Y7827D01*
Y7862D02*
Y7897D01*
X11180D01*
Y7862D01*
X9055Y8217D02*
Y8252D01*
X9105D01*
Y8217D01*
Y8182D02*
Y8147D01*
X9055D01*
Y8182D01*
X10440Y7997D02*
Y7962D01*
Y7997D02*
X10390D01*
Y7962D01*
Y7927D02*
Y7892D01*
X10440D01*
Y7927D01*
Y7697D02*
Y7662D01*
Y7697D02*
X10390D01*
Y7662D01*
Y7627D02*
Y7592D01*
X10440D01*
Y7627D01*
X10730Y7837D02*
Y7872D01*
Y7837D02*
X10780D01*
Y7872D01*
Y7907D02*
Y7942D01*
X10730D01*
Y7907D01*
X9005Y8047D02*
Y8082D01*
Y8047D02*
X9055D01*
Y8082D01*
Y8117D02*
Y8152D01*
X9005D01*
Y8117D01*
X11000Y7622D02*
Y7587D01*
X11050D01*
Y7622D01*
Y7657D02*
Y7692D01*
X11000D01*
Y7657D01*
X10145Y7772D02*
X10110D01*
Y7822D01*
X10145D01*
X10180D02*
X10215D01*
Y7772D01*
X10180D01*
X10780Y7647D02*
Y7612D01*
Y7647D02*
X10830D01*
Y7612D01*
Y7577D02*
Y7542D01*
X10780D01*
Y7577D01*
X11190Y7532D02*
Y7497D01*
X11140D01*
Y7532D01*
Y7567D02*
Y7602D01*
X11190D01*
Y7567D01*
X10990Y7467D02*
Y7432D01*
X10940D01*
Y7467D01*
Y7502D02*
Y7537D01*
X10990D01*
Y7502D01*
X11180Y7282D02*
X11215D01*
Y7232D01*
X11180D01*
X11145D02*
X11110D01*
Y7282D01*
X11145D01*
X9765Y8332D02*
X9730D01*
X9765D02*
Y8282D01*
X9730D01*
X9695D02*
X9660D01*
Y8332D01*
X9695D01*
X9910Y8102D02*
X9945D01*
X9910D02*
Y8152D01*
X9945D01*
X9980D02*
X10015D01*
Y8102D01*
X9980D01*
X9835Y8397D02*
X9780D01*
Y8467D02*
X9835D01*
X9745Y8397D02*
X9680D01*
Y8467D01*
X9745D01*
X9835D02*
X9845Y8457D01*
Y8407D01*
X9835Y8397D01*
X9800Y8282D02*
X9765D01*
Y8332D01*
X9800D01*
X9835D02*
X9870D01*
Y8282D01*
X9835D01*
X9965Y8287D02*
Y8252D01*
Y8287D02*
X10015D01*
Y8252D01*
Y8217D02*
Y8182D01*
X9965D01*
Y8217D01*
X9370Y8397D02*
X9315D01*
Y8467D02*
X9370D01*
X9280Y8397D02*
X9215D01*
Y8467D01*
X9280D01*
X9370D02*
X9380Y8457D01*
Y8407D01*
X9370Y8397D01*
X9300Y8332D02*
X9265D01*
X9300D02*
Y8282D01*
X9265D01*
X9230D02*
X9195D01*
Y8332D01*
X9230D01*
X9300Y8282D02*
X9335D01*
X9300D02*
Y8332D01*
X9335D01*
X9370D02*
X9405D01*
Y8282D01*
X9370D01*
X9445Y8102D02*
X9480D01*
X9445D02*
Y8152D01*
X9480D01*
X9515D02*
X9550D01*
Y8102D01*
X9515D01*
X9500Y8252D02*
Y8287D01*
X9550D01*
Y8252D01*
Y8217D02*
Y8182D01*
X9500D01*
Y8217D01*
Y7677D02*
X9510Y7667D01*
X9500Y7677D02*
X9450D01*
X9440Y7667D01*
Y7577D02*
Y7512D01*
X9510D01*
Y7577D01*
X9440Y7612D02*
Y7667D01*
X9510D02*
Y7612D01*
X9630Y7597D02*
Y7632D01*
Y7597D02*
X9580D01*
Y7632D01*
Y7667D02*
Y7702D01*
X9630D01*
Y7667D01*
X9580Y7597D02*
Y7562D01*
Y7597D02*
X9630D01*
Y7562D01*
Y7527D02*
Y7492D01*
X9580D01*
Y7527D01*
X10550Y8497D02*
X10605D01*
Y8567D02*
X10550D01*
X10515Y8497D02*
X10450D01*
Y8567D01*
X10515D01*
X10605D02*
X10615Y8557D01*
Y8507D01*
X10605Y8497D01*
X10250Y8442D02*
Y8407D01*
Y8442D02*
X10300D01*
Y8407D01*
Y8372D02*
Y8337D01*
X10250D01*
Y8372D01*
X10300Y8442D02*
Y8477D01*
Y8442D02*
X10250D01*
Y8477D01*
Y8512D02*
Y8547D01*
X10300D01*
Y8512D01*
X10075Y8302D02*
Y8267D01*
Y8302D02*
X10125D01*
Y8267D01*
Y8232D02*
Y8197D01*
X10075D01*
Y8232D01*
X10240Y8247D02*
X10275D01*
Y8197D01*
X10240D01*
X10205D02*
X10170D01*
Y8247D01*
X10205D01*
X10855Y8322D02*
X10910D01*
Y8392D02*
X10855D01*
X10820Y8322D02*
X10755D01*
Y8392D01*
X10820D01*
X10910D02*
X10920Y8382D01*
Y8332D01*
X10910Y8322D01*
X11270Y8742D02*
Y8777D01*
X11320D01*
Y8742D01*
Y8707D02*
Y8672D01*
X11270D01*
Y8707D01*
X11385Y8652D02*
Y8617D01*
X11335D01*
Y8652D01*
Y8687D02*
Y8722D01*
X11385D01*
Y8687D01*
X11220Y8512D02*
Y8477D01*
X11170D01*
Y8512D01*
Y8547D02*
Y8582D01*
X11220D01*
Y8547D01*
X11170Y8477D02*
Y8442D01*
Y8477D02*
X11220D01*
Y8442D01*
Y8407D02*
Y8372D01*
X11170D01*
Y8407D01*
X9690Y7792D02*
X9655D01*
Y7842D01*
X9690D01*
X9725D02*
X9760D01*
Y7792D01*
X9725D01*
X11160Y7732D02*
X11195D01*
Y7682D01*
X11160D01*
X11125D02*
X11090D01*
Y7732D01*
X11125D01*
X10145Y7837D02*
X10110D01*
Y7887D01*
X10145D01*
X10180D02*
X10215D01*
Y7837D01*
X10180D01*
X9810Y7772D02*
Y7737D01*
X9760D01*
Y7772D01*
Y7807D02*
Y7842D01*
X9810D01*
Y7807D01*
X11260Y8057D02*
Y8092D01*
X11210D01*
Y8057D01*
Y8022D02*
Y7987D01*
X11260D01*
Y8022D01*
X10630Y7582D02*
X10630Y7579D01*
X10629Y7575D01*
X10629Y7572D01*
X10628Y7569D01*
X10627Y7566D01*
X10626Y7562D01*
X10624Y7560D01*
X10622Y7557D01*
X10620Y7554D01*
X10618Y7551D01*
X10616Y7549D01*
X10613Y7547D01*
X10610Y7545D01*
X10608Y7543D01*
X10605Y7541D01*
X10601Y7540D01*
X10598Y7539D01*
X10595Y7538D01*
X10592Y7538D01*
X10588Y7537D01*
X10585Y7537D01*
X10582Y7537D01*
X10578Y7538D01*
X10575Y7538D01*
X10572Y7539D01*
X10569Y7540D01*
X10565Y7541D01*
X10562Y7543D01*
X10560Y7545D01*
X10557Y7547D01*
X10554Y7549D01*
X10552Y7551D01*
X10550Y7554D01*
X10548Y7557D01*
X10546Y7560D01*
X10544Y7562D01*
X10543Y7566D01*
X10542Y7569D01*
X10541Y7572D01*
X10541Y7575D01*
X10540Y7579D01*
X10540Y7582D01*
X10540Y7585D01*
X10541Y7589D01*
X10541Y7592D01*
X10542Y7595D01*
X10543Y7598D01*
X10544Y7602D01*
X10546Y7604D01*
X10548Y7607D01*
X10550Y7610D01*
X10552Y7613D01*
X10554Y7615D01*
X10557Y7617D01*
X10560Y7619D01*
X10562Y7621D01*
X10565Y7623D01*
X10569Y7624D01*
X10572Y7625D01*
X10575Y7626D01*
X10578Y7626D01*
X10582Y7627D01*
X10585Y7627D01*
X10588Y7627D01*
X10592Y7626D01*
X10595Y7626D01*
X10598Y7625D01*
X10601Y7624D01*
X10605Y7623D01*
X10608Y7621D01*
X10610Y7619D01*
X10613Y7617D01*
X10616Y7615D01*
X10618Y7613D01*
X10620Y7610D01*
X10622Y7607D01*
X10624Y7604D01*
X10626Y7602D01*
X10627Y7598D01*
X10628Y7595D01*
X10629Y7592D01*
X10629Y7589D01*
X10630Y7585D01*
X10630Y7582D01*
Y8032D02*
X10630Y8029D01*
X10629Y8025D01*
X10629Y8022D01*
X10628Y8019D01*
X10627Y8016D01*
X10626Y8012D01*
X10624Y8010D01*
X10622Y8007D01*
X10620Y8004D01*
X10618Y8001D01*
X10616Y7999D01*
X10613Y7997D01*
X10610Y7995D01*
X10608Y7993D01*
X10605Y7991D01*
X10601Y7990D01*
X10598Y7989D01*
X10595Y7988D01*
X10592Y7988D01*
X10588Y7987D01*
X10585Y7987D01*
X10582Y7987D01*
X10578Y7988D01*
X10575Y7988D01*
X10572Y7989D01*
X10569Y7990D01*
X10565Y7991D01*
X10562Y7993D01*
X10560Y7995D01*
X10557Y7997D01*
X10554Y7999D01*
X10552Y8001D01*
X10550Y8004D01*
X10548Y8007D01*
X10546Y8010D01*
X10544Y8012D01*
X10543Y8016D01*
X10542Y8019D01*
X10541Y8022D01*
X10541Y8025D01*
X10540Y8029D01*
X10540Y8032D01*
X10540Y8035D01*
X10541Y8039D01*
X10541Y8042D01*
X10542Y8045D01*
X10543Y8048D01*
X10544Y8052D01*
X10546Y8054D01*
X10548Y8057D01*
X10550Y8060D01*
X10552Y8063D01*
X10554Y8065D01*
X10557Y8067D01*
X10560Y8069D01*
X10562Y8071D01*
X10565Y8073D01*
X10569Y8074D01*
X10572Y8075D01*
X10575Y8076D01*
X10578Y8076D01*
X10582Y8077D01*
X10585Y8077D01*
X10588Y8077D01*
X10592Y8076D01*
X10595Y8076D01*
X10598Y8075D01*
X10601Y8074D01*
X10605Y8073D01*
X10608Y8071D01*
X10610Y8069D01*
X10613Y8067D01*
X10616Y8065D01*
X10618Y8063D01*
X10620Y8060D01*
X10622Y8057D01*
X10624Y8054D01*
X10626Y8052D01*
X10627Y8048D01*
X10628Y8045D01*
X10629Y8042D01*
X10629Y8039D01*
X10630Y8035D01*
X10630Y8032D01*
D17*
X9868Y8172D02*
Y8217D01*
X9752D02*
Y8172D01*
X9848D02*
X9868D01*
X9812Y8262D02*
X9808D01*
X9772Y8172D02*
X9752D01*
X9308D02*
X9288D01*
X9342Y8262D02*
X9348D01*
X9382Y8172D02*
X9402D01*
X9288D02*
Y8217D01*
X9402D02*
Y8172D01*
X9710Y7700D02*
X9755D01*
Y7584D02*
X9710D01*
X9755Y7680D02*
Y7700D01*
X9665Y7644D02*
Y7640D01*
X9755Y7604D02*
Y7584D01*
X10135Y8434D02*
Y8454D01*
X10225Y8400D02*
Y8394D01*
X10135Y8360D02*
Y8340D01*
Y8454D02*
X10180D01*
Y8340D02*
X10135D01*
X11300Y8580D02*
X11345D01*
Y8464D02*
X11300D01*
X11345Y8560D02*
Y8580D01*
X11255Y8524D02*
Y8520D01*
X11345Y8484D02*
Y8464D01*
D02*
M02*
