G04 This is an RS-274x file exported by *
G04 gerbv version 2.6A *
G04 More information is available about gerbv at *
G04 http://gerbv.geda-project.org/ *
G04 --End of header info--*
%MOIN*%
%FSLAX34Y34*%
%IPPOS*%
G04 --Define apertures--*
%ADD10C,0.0010*%
%ADD11C,0.0060*%
%ADD12C,0.0070*%
%ADD13C,0.0070*%
%ADD14C,0.0080*%
%ADD15C,0.0100*%
%ADD16C,0.0120*%
%ADD17C,0.0150*%
%ADD18C,0.0200*%
%ADD19C,0.0300*%
%ADD20C,0.0400*%
%ADD21C,0.0480*%
%ADD22C,0.0600*%
%ADD23C,0.0680*%
%ADD24C,0.0700*%
%ADD25C,0.0800*%
%ADD26C,0.0880*%
%ADD27C,0.1200*%
%ADD28C,0.1400*%
%ADD29C,0.1480*%
%ADD30C,0.1800*%
%ADD31R,0.0050X0.0050*%
%ADD32R,0.0090X0.0090*%
%ADD33R,0.0100X0.0100*%
%ADD34R,0.0150X0.0150*%
%ADD35R,0.0190X0.0190*%
%ADD36R,0.0200X0.0200*%
%ADD37R,0.0250X0.0250*%
%ADD38R,0.0290X0.0290*%
%ADD39R,0.0300X0.0300*%
%ADD40R,0.0300X0.0300*%
%ADD41R,0.0340X0.0340*%
%ADD42R,0.0350X0.0350*%
%ADD43R,0.0350X0.0350*%
%ADD44R,0.0350X0.0500*%
%ADD45R,0.0380X0.0380*%
%ADD46R,0.0390X0.0390*%
%ADD47R,0.0400X0.0400*%
%ADD48R,0.0430X0.0430*%
%ADD49R,0.0430X0.0580*%
%ADD50R,0.0450X0.0450*%
%ADD51R,0.0490X0.0490*%
%ADD52R,0.0500X0.0350*%
%ADD53R,0.0500X0.0500*%
%ADD54R,0.0550X0.0550*%
%ADD55R,0.0580X0.0430*%
%ADD56R,0.0590X0.0590*%
%ADD57R,0.0600X0.0500*%
%ADD58R,0.0600X0.0600*%
%ADD59R,0.0600X0.0600*%
%ADD60R,0.0650X0.0650*%
%ADD61R,0.0680X0.0580*%
%ADD62R,0.0680X0.0680*%
%ADD63R,0.0700X0.0700*%
%ADD64R,0.0750X0.0750*%
%ADD65R,0.0790X0.0790*%
%ADD66R,0.0800X0.0800*%
%ADD67R,0.0850X0.0850*%
%ADD68R,0.0900X0.0900*%
%ADD69R,0.0950X0.0950*%
%ADD70R,0.1050X0.1050*%
%ADD71R,0.1150X0.1150*%
%ADD72R,0.1200X0.1200*%
%ADD73R,0.1250X0.1250*%
%ADD74R,0.1400X0.1400*%
%ADD75R,0.1550X0.1550*%
%ADD76R,0.1850X0.1850*%
G04 --Start main section--*
G54D15*
G01X0093150Y0069620D02*
G01X0093150Y0069870D01*
G01X0092900Y0068020D02*
G01X0093400Y0068020D01*
G01X0093400Y0069870D02*
G01X0092900Y0069870D01*
G01X0093900Y0068020D02*
G01X0094400Y0068020D01*
G01X0094400Y0069870D02*
G01X0093900Y0069870D01*
G01X0094900Y0068020D02*
G01X0095400Y0068020D01*
G01X0095400Y0069870D02*
G01X0094900Y0069870D01*
G01X0095900Y0068020D02*
G01X0096400Y0068020D01*
G01X0096400Y0069870D02*
G01X0095900Y0069870D01*
G01X0096900Y0068020D02*
G01X0097400Y0068020D01*
G01X0097400Y0069870D02*
G01X0096900Y0069870D01*
G01X0097900Y0068020D02*
G01X0098400Y0068020D01*
G01X0098400Y0069870D02*
G01X0097900Y0069870D01*
G01X0098900Y0068020D02*
G01X0099400Y0068020D01*
G01X0099400Y0069870D02*
G01X0098900Y0069870D01*
G01X0099900Y0068020D02*
G01X0100400Y0068020D01*
G01X0100400Y0069870D02*
G01X0099900Y0069870D01*
G01X0100900Y0068020D02*
G01X0101400Y0068020D01*
G01X0101400Y0069870D02*
G01X0100900Y0069870D01*
G01X0101900Y0068020D02*
G01X0102400Y0068020D01*
G01X0102400Y0069870D02*
G01X0101900Y0069870D01*
G01X0102900Y0068020D02*
G01X0103400Y0068020D01*
G01X0103400Y0069870D02*
G01X0102900Y0069870D01*
G01X0103900Y0068020D02*
G01X0104400Y0068020D01*
G01X0104400Y0069870D02*
G01X0103900Y0069870D01*
G01X0104900Y0068020D02*
G01X0105400Y0068020D01*
G01X0105400Y0069870D02*
G01X0104900Y0069870D01*
G01X0105900Y0069870D02*
G01X0106400Y0069870D01*
G01X0106900Y0068020D02*
G01X0107400Y0068020D01*
G01X0107400Y0069870D02*
G01X0106900Y0069870D01*
G01X0107900Y0068020D02*
G01X0108400Y0068020D01*
G01X0108400Y0069870D02*
G01X0107900Y0069870D01*
G01X0108900Y0068020D02*
G01X0109400Y0068020D01*
G01X0109400Y0069870D02*
G01X0108900Y0069870D01*
G01X0109900Y0069870D02*
G01X0109900Y0068020D01*
G01X0110900Y0070370D02*
G01X0111400Y0070370D01*
G01X0110400Y0070370D02*
G01X0110400Y0072220D01*
G01X0110400Y0070370D02*
G01X0109900Y0070370D01*
G01X0109900Y0070370D02*
G01X0109900Y0072220D01*
G01X0109900Y0072220D02*
G01X0110400Y0072220D01*
G01X0109400Y0072220D02*
G01X0109400Y0070370D01*
G01X0109400Y0070370D02*
G01X0108900Y0070370D01*
G01X0108900Y0070370D02*
G01X0108900Y0072220D01*
G01X0108900Y0072220D02*
G01X0109400Y0072220D01*
G01X0108400Y0070370D02*
G01X0107900Y0070370D01*
G01X0107400Y0070370D02*
G01X0107400Y0072220D01*
G01X0107400Y0070370D02*
G01X0106900Y0070370D01*
G01X0106900Y0070370D02*
G01X0106900Y0072220D01*
G01X0106900Y0072220D02*
G01X0107400Y0072220D01*
G01X0106400Y0072220D02*
G01X0106400Y0070370D01*
G01X0106400Y0070370D02*
G01X0105900Y0070370D01*
G01X0105900Y0070370D02*
G01X0105900Y0072220D01*
G01X0105900Y0072220D02*
G01X0106400Y0072220D01*
G01X0105400Y0072220D02*
G01X0105400Y0070370D01*
G01X0105400Y0070370D02*
G01X0104900Y0070370D01*
G01X0104900Y0070370D02*
G01X0104900Y0072220D01*
G01X0104900Y0072220D02*
G01X0105400Y0072220D01*
G01X0104400Y0072220D02*
G01X0104400Y0070370D01*
G01X0104400Y0070370D02*
G01X0103900Y0070370D01*
G01X0103900Y0070370D02*
G01X0103900Y0072220D01*
G01X0103900Y0072220D02*
G01X0104400Y0072220D01*
G01X0103400Y0072220D02*
G01X0103400Y0070370D01*
G01X0103400Y0070370D02*
G01X0102900Y0070370D01*
G01X0102900Y0070370D02*
G01X0102900Y0072220D01*
G01X0102900Y0072220D02*
G01X0103400Y0072220D01*
G01X0102400Y0070370D02*
G01X0101900Y0070370D01*
G01X0101400Y0070370D02*
G01X0100900Y0070370D01*
G01X0100400Y0070370D02*
G01X0099900Y0070370D01*
G01X0099400Y0070370D02*
G01X0099400Y0072220D01*
G01X0099400Y0070370D02*
G01X0098900Y0070370D01*
G01X0098900Y0070370D02*
G01X0098900Y0072220D01*
G01X0098900Y0072220D02*
G01X0099400Y0072220D01*
G01X0098400Y0072220D02*
G01X0098400Y0070370D01*
G01X0098400Y0070370D02*
G01X0097900Y0070370D01*
G01X0097900Y0070370D02*
G01X0097900Y0072220D01*
G01X0097900Y0072220D02*
G01X0098400Y0072220D01*
G01X0097400Y0072220D02*
G01X0097400Y0070370D01*
G01X0097400Y0070370D02*
G01X0096900Y0070370D01*
G01X0096900Y0070370D02*
G01X0096900Y0072220D01*
G01X0096900Y0072220D02*
G01X0097400Y0072220D01*
G01X0096400Y0072220D02*
G01X0096400Y0070370D01*
G01X0096400Y0070370D02*
G01X0095900Y0070370D01*
G01X0095900Y0070370D02*
G01X0095900Y0072220D01*
G01X0095900Y0072220D02*
G01X0096400Y0072220D01*
G01X0095400Y0072220D02*
G01X0095400Y0070370D01*
G01X0095400Y0070370D02*
G01X0094900Y0070370D01*
G01X0094900Y0070370D02*
G01X0094900Y0072220D01*
G01X0094900Y0072220D02*
G01X0095400Y0072220D01*
G01X0094400Y0072220D02*
G01X0094400Y0070370D01*
G01X0094400Y0070370D02*
G01X0093900Y0070370D01*
G01X0093900Y0070370D02*
G01X0093900Y0072220D01*
G01X0093900Y0072220D02*
G01X0094400Y0072220D01*
G01X0093400Y0072220D02*
G01X0093400Y0070370D01*
G01X0093400Y0070370D02*
G01X0092900Y0070370D01*
G01X0092900Y0070370D02*
G01X0092900Y0072220D01*
G01X0092900Y0072220D02*
G01X0093400Y0072220D01*
G01X0092400Y0072220D02*
G01X0092400Y0070370D01*
G01X0092400Y0070370D02*
G01X0091900Y0070370D01*
G01X0091900Y0070370D02*
G01X0091900Y0072220D01*
G01X0091900Y0072220D02*
G01X0092400Y0072220D01*
G01X0092400Y0068020D02*
G01X0091900Y0068020D01*
G01X0091900Y0069870D02*
G01X0092400Y0069870D01*
G01X0113300Y0076070D02*
G01X0113350Y0076070D01*
G01X0100650Y0070120D02*
G01X0100150Y0069620D01*
G01X0095900Y0072220D02*
G01X0095900Y0073420D01*
G01X0095900Y0073420D02*
G01X0096400Y0073420D01*
G01X0096400Y0073420D02*
G01X0096400Y0072220D01*
G01X0096900Y0072220D02*
G01X0096900Y0073420D01*
G01X0096900Y0073420D02*
G01X0097700Y0073420D01*
G01X0097700Y0073420D02*
G01X0097700Y0072820D01*
G01X0097700Y0072820D02*
G01X0097400Y0072820D01*
G01X0097400Y0072820D02*
G01X0097400Y0072220D01*
G01X0097400Y0072720D02*
G01X0097500Y0072820D01*
G01X0097600Y0072820D02*
G01X0097400Y0072620D01*
G01X0094450Y0076070D02*
G01X0094450Y0077770D01*
G01X0094450Y0077770D02*
G01X0095050Y0077770D01*
G01X0095050Y0077770D02*
G01X0095050Y0076070D01*
G01X0095050Y0076070D02*
G01X0094450Y0076070D01*
G01X0094450Y0075820D02*
G01X0094450Y0074220D01*
G01X0094450Y0074220D02*
G01X0095050Y0074220D01*
G01X0095050Y0074220D02*
G01X0095050Y0075820D01*
G01X0095050Y0075820D02*
G01X0094450Y0075820D01*
G01X0096350Y0075320D02*
G01X0096350Y0074220D01*
G01X0096350Y0074220D02*
G01X0095800Y0074220D01*
G01X0095800Y0074220D02*
G01X0095800Y0075320D01*
G01X0095800Y0075320D02*
G01X0096350Y0075320D01*
G01X0095800Y0075570D02*
G01X0095800Y0076370D01*
G01X0095800Y0076370D02*
G01X0096900Y0076370D01*
G01X0096900Y0076370D02*
G01X0096900Y0075570D01*
G01X0096900Y0075570D02*
G01X0095800Y0075570D01*
G01X0095800Y0076620D02*
G01X0095800Y0077770D01*
G01X0095800Y0077770D02*
G01X0096300Y0077770D01*
G01X0096300Y0077770D02*
G01X0096300Y0076970D01*
G01X0096300Y0076970D02*
G01X0096900Y0076970D01*
G01X0096900Y0076970D02*
G01X0096900Y0076620D01*
G01X0096900Y0076620D02*
G01X0095800Y0076620D01*
G01X0097750Y0076570D02*
G01X0097750Y0074970D01*
G01X0097750Y0074970D02*
G01X0096800Y0074970D01*
G01X0096800Y0074970D02*
G01X0096800Y0075320D01*
G01X0097750Y0076570D02*
G01X0097750Y0076970D01*
G01X0097750Y0076970D02*
G01X0097150Y0076970D01*
G01X0097150Y0076970D02*
G01X0097150Y0075320D01*
G01X0097150Y0075320D02*
G01X0096800Y0075320D01*
G01X0097050Y0075320D02*
G01X0097150Y0075420D01*
G01X0097150Y0075520D02*
G01X0096950Y0075320D01*
G01X0109400Y0069870D02*
G01X0109400Y0069370D01*
G01X0109400Y0069370D02*
G01X0108900Y0069370D01*
G01X0108900Y0069370D02*
G01X0108900Y0069870D01*
G01X0108400Y0069870D02*
G01X0108400Y0069370D01*
G01X0108400Y0069370D02*
G01X0107900Y0069370D01*
G01X0107900Y0069370D02*
G01X0107900Y0069870D01*
G01X0107400Y0069870D02*
G01X0107400Y0069370D01*
G01X0107400Y0069370D02*
G01X0106900Y0069370D01*
G01X0106900Y0069370D02*
G01X0106900Y0069870D01*
G01X0106400Y0069870D02*
G01X0106400Y0069370D01*
G01X0106400Y0069370D02*
G01X0105900Y0069370D01*
G01X0105900Y0069370D02*
G01X0105900Y0069870D01*
G01X0105400Y0069870D02*
G01X0105400Y0069370D01*
G01X0105400Y0069370D02*
G01X0104900Y0069370D01*
G01X0104900Y0069370D02*
G01X0104900Y0069870D01*
G01X0104400Y0069870D02*
G01X0104400Y0069370D01*
G01X0104400Y0069370D02*
G01X0103900Y0069370D01*
G01X0103900Y0069370D02*
G01X0103900Y0069870D01*
G01X0103400Y0069870D02*
G01X0103400Y0069370D01*
G01X0103400Y0069370D02*
G01X0102900Y0069370D01*
G01X0102900Y0069370D02*
G01X0102900Y0069870D01*
G01X0102400Y0069870D02*
G01X0102400Y0069370D01*
G01X0102400Y0069370D02*
G01X0101900Y0069370D01*
G01X0101900Y0069370D02*
G01X0101900Y0069870D01*
G01X0101400Y0069870D02*
G01X0101400Y0069370D01*
G01X0101400Y0069370D02*
G01X0100900Y0069370D01*
G01X0100900Y0069370D02*
G01X0100900Y0069870D01*
G01X0099400Y0069870D02*
G01X0099400Y0069370D01*
G01X0099400Y0069370D02*
G01X0098900Y0069370D01*
G01X0098900Y0069370D02*
G01X0098900Y0069870D01*
G01X0098400Y0069870D02*
G01X0098400Y0069370D01*
G01X0098400Y0069370D02*
G01X0097900Y0069370D01*
G01X0097900Y0069370D02*
G01X0097900Y0069870D01*
G01X0097400Y0069870D02*
G01X0097400Y0069370D01*
G01X0097400Y0069370D02*
G01X0096900Y0069370D01*
G01X0096900Y0069370D02*
G01X0096900Y0069870D01*
G01X0096400Y0069870D02*
G01X0096400Y0069370D01*
G01X0096400Y0069370D02*
G01X0095900Y0069370D01*
G01X0095900Y0069370D02*
G01X0095900Y0069870D01*
G01X0095400Y0069870D02*
G01X0095400Y0069370D01*
G01X0095400Y0069370D02*
G01X0094900Y0069370D01*
G01X0094900Y0069370D02*
G01X0094900Y0069870D01*
G01X0094400Y0069870D02*
G01X0094400Y0069370D01*
G01X0094400Y0069370D02*
G01X0093900Y0069370D01*
G01X0093900Y0069370D02*
G01X0093900Y0069870D01*
G01X0093400Y0069870D02*
G01X0093400Y0069370D01*
G01X0093400Y0069370D02*
G01X0092900Y0069370D01*
G01X0092900Y0069370D02*
G01X0092900Y0069870D01*
G01X0092400Y0069870D02*
G01X0092400Y0069370D01*
G01X0092400Y0069370D02*
G01X0091900Y0069370D01*
G01X0091900Y0069370D02*
G01X0091900Y0069870D01*
G01X0100400Y0069870D02*
G01X0100400Y0069370D01*
G01X0100400Y0069370D02*
G01X0099900Y0069370D01*
G01X0099900Y0069370D02*
G01X0099900Y0069870D01*
G01X0108900Y0068520D02*
G01X0108900Y0068020D01*
G01X0108900Y0068520D02*
G01X0109400Y0068520D01*
G01X0109400Y0068520D02*
G01X0109400Y0068020D01*
G01X0107900Y0068020D02*
G01X0107900Y0068520D01*
G01X0107900Y0068520D02*
G01X0108400Y0068520D01*
G01X0108400Y0068520D02*
G01X0108400Y0068020D01*
G01X0106900Y0068020D02*
G01X0106900Y0068520D01*
G01X0106900Y0068520D02*
G01X0107400Y0068520D01*
G01X0107400Y0068520D02*
G01X0107400Y0068020D01*
G01X0104900Y0068020D02*
G01X0104900Y0068520D01*
G01X0104900Y0068520D02*
G01X0105400Y0068520D01*
G01X0105400Y0068520D02*
G01X0105400Y0068020D01*
G01X0101900Y0068020D02*
G01X0101900Y0068520D01*
G01X0101900Y0068520D02*
G01X0102400Y0068520D01*
G01X0102400Y0068520D02*
G01X0102400Y0068020D01*
G01X0102900Y0068020D02*
G01X0102900Y0068520D01*
G01X0102900Y0068520D02*
G01X0103400Y0068520D01*
G01X0103400Y0068520D02*
G01X0103400Y0068020D01*
G01X0103900Y0068020D02*
G01X0103900Y0068520D01*
G01X0103900Y0068520D02*
G01X0104400Y0068520D01*
G01X0104400Y0068520D02*
G01X0104400Y0068020D01*
G01X0100900Y0068020D02*
G01X0100900Y0068520D01*
G01X0100900Y0068520D02*
G01X0101400Y0068520D01*
G01X0101400Y0068520D02*
G01X0101400Y0068020D01*
G01X0099900Y0068020D02*
G01X0099900Y0068520D01*
G01X0099900Y0068520D02*
G01X0100400Y0068520D01*
G01X0100400Y0068520D02*
G01X0100400Y0068020D01*
G01X0098900Y0068020D02*
G01X0098900Y0068520D01*
G01X0098900Y0068520D02*
G01X0099400Y0068520D01*
G01X0099400Y0068520D02*
G01X0099400Y0068020D01*
G01X0097900Y0068020D02*
G01X0097900Y0068520D01*
G01X0097900Y0068520D02*
G01X0098400Y0068520D01*
G01X0098400Y0068520D02*
G01X0098400Y0068020D01*
G01X0096900Y0068020D02*
G01X0096900Y0068520D01*
G01X0096900Y0068520D02*
G01X0097400Y0068520D01*
G01X0097400Y0068520D02*
G01X0097400Y0068020D01*
G01X0095900Y0068020D02*
G01X0095900Y0068520D01*
G01X0095900Y0068520D02*
G01X0096400Y0068520D01*
G01X0096400Y0068520D02*
G01X0096400Y0068020D01*
G01X0094900Y0068020D02*
G01X0094900Y0068520D01*
G01X0094900Y0068520D02*
G01X0095400Y0068520D01*
G01X0095400Y0068520D02*
G01X0095400Y0068020D01*
G01X0093900Y0068020D02*
G01X0093900Y0068520D01*
G01X0093900Y0068520D02*
G01X0094400Y0068520D01*
G01X0094400Y0068520D02*
G01X0094400Y0068020D01*
G01X0092900Y0068020D02*
G01X0092900Y0068520D01*
G01X0092900Y0068520D02*
G01X0093400Y0068520D01*
G01X0093400Y0068520D02*
G01X0093400Y0068020D01*
G01X0091900Y0068020D02*
G01X0091900Y0068520D01*
G01X0091900Y0068520D02*
G01X0092400Y0068520D01*
G01X0092400Y0068520D02*
G01X0092400Y0068020D01*
G01X0108650Y0070120D02*
G01X0109150Y0070620D01*
G01X0109650Y0070120D02*
G01X0110150Y0070620D01*
G01X0091650Y0068770D02*
G01X0091650Y0068020D01*
G01X0091650Y0068670D02*
G01X0091750Y0068770D01*
G01X0091850Y0068770D02*
G01X0091650Y0068570D01*
G01X0109600Y0068770D02*
G01X0109600Y0070070D01*
G01X0109600Y0070070D02*
G01X0109700Y0070170D01*
G01X0109650Y0070020D02*
G01X0110000Y0070370D01*
G01X0091300Y0069070D02*
G01X0091300Y0068270D01*
G01X0091300Y0068270D02*
G01X0087350Y0068270D01*
G01X0091300Y0069020D02*
G01X0108650Y0069020D01*
G01X0109650Y0068720D02*
G01X0109650Y0070020D01*
G01X0108650Y0070120D02*
G01X0108650Y0069020D01*
G01X0108650Y0069070D02*
G01X0091200Y0069070D01*
G01X0091650Y0068720D02*
G01X0109650Y0068720D01*
G01X0109650Y0068770D02*
G01X0091650Y0068770D01*
G01X0109500Y0068770D02*
G01X0109600Y0068870D01*
G01X0109600Y0068970D02*
G01X0109400Y0068770D01*
G01X0108650Y0069170D02*
G01X0108550Y0069070D01*
G01X0108450Y0069070D02*
G01X0108650Y0069270D01*
G01X0091200Y0069070D02*
G01X0091200Y0068320D01*
G01X0091600Y0068020D02*
G01X0091600Y0068770D01*
G01X0091600Y0068770D02*
G01X0091650Y0068770D01*
G01X0091600Y0068120D02*
G01X0091500Y0068020D01*
G01X0091450Y0068020D02*
G01X0091600Y0068170D01*
G01X0091200Y0068370D02*
G01X0091100Y0068270D01*
G01X0091050Y0068270D02*
G01X0091200Y0068420D01*
G01X0087350Y0068270D02*
G01X0087350Y0081120D01*
G01X0087350Y0081120D02*
G01X0090400Y0081120D01*
G01X0090400Y0081120D02*
G01X0090400Y0081670D01*
G01X0090400Y0081670D02*
G01X0087250Y0081670D01*
G01X0087250Y0081670D02*
G01X0087250Y0068270D01*
G01X0087250Y0068270D02*
G01X0087350Y0068270D01*
G01X0087350Y0068370D02*
G01X0087450Y0068270D01*
G01X0087550Y0068270D02*
G01X0087350Y0068470D01*
G01X0087350Y0081020D02*
G01X0087450Y0081120D01*
G01X0087500Y0081120D02*
G01X0087350Y0080970D01*
G01X0090150Y0080870D02*
G01X0090150Y0079720D01*
G01X0090150Y0079720D02*
G01X0089250Y0079720D01*
G01X0089250Y0079720D02*
G01X0089250Y0079120D01*
G01X0090150Y0080870D02*
G01X0090650Y0080870D01*
G01X0090650Y0081870D02*
G01X0090950Y0081870D01*
G01X0090950Y0079120D02*
G01X0089250Y0079120D01*
G01X0090050Y0079720D02*
G01X0090150Y0079820D01*
G01X0090150Y0079870D02*
G01X0090000Y0079720D01*
G01X0090550Y0080870D02*
G01X0090650Y0080970D01*
G01X0090650Y0081020D02*
G01X0090500Y0080870D01*
G01X0087000Y0082120D02*
G01X0087000Y0068020D01*
G01X0087000Y0082120D02*
G01X0090950Y0082120D01*
G01X0090950Y0082120D02*
G01X0090950Y0082670D01*
G01X0086900Y0082670D02*
G01X0086900Y0068020D01*
G01X0087000Y0082020D02*
G01X0087100Y0082120D01*
G01X0087200Y0082120D02*
G01X0087000Y0081920D01*
G01X0087000Y0068120D02*
G01X0087100Y0068020D01*
G01X0087200Y0068020D02*
G01X0087000Y0068220D01*
G01X0086900Y0068020D02*
G01X0091650Y0068020D01*
G01X0086900Y0068020D02*
G01X0086900Y0067920D01*
G01X0086900Y0067920D02*
G01X0091650Y0067920D01*
G01X0091650Y0067920D02*
G01X0091650Y0068020D01*
G01X0090950Y0082670D02*
G01X0086900Y0082670D01*
G01X0090650Y0081870D02*
G01X0090650Y0080870D01*
G01X0090950Y0081870D02*
G01X0090950Y0079120D01*
G01X0091250Y0084020D02*
G01X0092800Y0084020D01*
G01X0091250Y0084020D02*
G01X0091250Y0084620D01*
G01X0091250Y0084620D02*
G01X0092800Y0084620D01*
G01X0092800Y0084620D02*
G01X0092800Y0084020D01*
G01X0092350Y0083320D02*
G01X0091250Y0083320D01*
G01X0092350Y0083320D02*
G01X0092350Y0082820D01*
G01X0092350Y0082820D02*
G01X0091250Y0082820D01*
G01X0091250Y0082820D02*
G01X0091250Y0083320D01*
G01X0093700Y0082420D02*
G01X0093950Y0082420D01*
G01X0094250Y0082370D02*
G01X0094250Y0081120D01*
G01X0094800Y0081120D02*
G01X0094800Y0082370D01*
G01X0094750Y0084620D02*
G01X0093050Y0084620D01*
G01X0094750Y0084620D02*
G01X0094750Y0084020D01*
G01X0094750Y0084020D02*
G01X0093050Y0084020D01*
G01X0093050Y0084020D02*
G01X0093050Y0084620D01*
G01X0093400Y0083320D02*
G01X0092600Y0083320D01*
G01X0093400Y0083320D02*
G01X0093400Y0082220D01*
G01X0093400Y0082220D02*
G01X0092600Y0082220D01*
G01X0092600Y0082220D02*
G01X0092600Y0083320D01*
G01X0093650Y0083320D02*
G01X0094800Y0083320D01*
G01X0094800Y0083320D02*
G01X0094800Y0082820D01*
G01X0094800Y0082820D02*
G01X0094000Y0082820D01*
G01X0094000Y0082820D02*
G01X0094000Y0082220D01*
G01X0094000Y0082220D02*
G01X0093650Y0082220D01*
G01X0093650Y0082220D02*
G01X0093650Y0083320D01*
G01X0093600Y0081370D02*
G01X0092000Y0081370D01*
G01X0092000Y0081370D02*
G01X0092000Y0082320D01*
G01X0093600Y0081370D02*
G01X0094000Y0081370D01*
G01X0094000Y0081370D02*
G01X0094000Y0081970D01*
G01X0094000Y0081970D02*
G01X0092350Y0081970D01*
G01X0092350Y0081970D02*
G01X0092350Y0082320D01*
G01X0092350Y0082070D02*
G01X0092450Y0081970D01*
G01X0092550Y0081970D02*
G01X0092350Y0082170D01*
G01X0097750Y0084620D02*
G01X0099450Y0084620D01*
G01X0099450Y0084620D02*
G01X0099450Y0084020D01*
G01X0099450Y0084020D02*
G01X0097750Y0084020D01*
G01X0097750Y0084020D02*
G01X0097750Y0084620D01*
G01X0098050Y0083320D02*
G01X0097250Y0083320D01*
G01X0098050Y0083320D02*
G01X0098050Y0082220D01*
G01X0098050Y0082220D02*
G01X0097250Y0082220D01*
G01X0097250Y0082220D02*
G01X0097250Y0083320D01*
G01X0098300Y0083320D02*
G01X0099450Y0083320D01*
G01X0099450Y0083320D02*
G01X0099450Y0082820D01*
G01X0099450Y0082820D02*
G01X0098650Y0082820D01*
G01X0098650Y0082820D02*
G01X0098650Y0082220D01*
G01X0098650Y0082220D02*
G01X0098300Y0082220D01*
G01X0098300Y0082220D02*
G01X0098300Y0083320D01*
G01X0098250Y0081370D02*
G01X0096650Y0081370D01*
G01X0096650Y0081370D02*
G01X0096650Y0082320D01*
G01X0096650Y0082320D02*
G01X0097000Y0082320D01*
G01X0098250Y0081370D02*
G01X0098650Y0081370D01*
G01X0098650Y0081370D02*
G01X0098650Y0081970D01*
G01X0098650Y0081970D02*
G01X0097000Y0081970D01*
G01X0097000Y0081970D02*
G01X0097000Y0082320D01*
G01X0097000Y0082070D02*
G01X0097100Y0081970D01*
G01X0097200Y0081970D02*
G01X0097000Y0082170D01*
G01X0094800Y0082370D02*
G01X0094250Y0082370D01*
G01X0094000Y0082720D02*
G01X0094100Y0082820D01*
G01X0094200Y0082820D02*
G01X0094000Y0082620D01*
G01X0094250Y0081120D02*
G01X0094800Y0081120D01*
G01X0098900Y0082370D02*
G01X0099450Y0082370D01*
G01X0099450Y0082370D02*
G01X0099450Y0081120D01*
G01X0099450Y0081120D02*
G01X0098900Y0081120D01*
G01X0098900Y0081120D02*
G01X0098900Y0082370D01*
G01X0092400Y0069370D02*
G01X0090850Y0069370D01*
G01X0090850Y0069370D02*
G01X0090850Y0068570D01*
G01X0090800Y0069420D02*
G01X0091900Y0069420D01*
G01X0090800Y0069420D02*
G01X0090800Y0068620D01*
G01X0090850Y0068570D02*
G01X0089250Y0068570D01*
G01X0089250Y0068570D02*
G01X0089250Y0072270D01*
G01X0089250Y0072270D02*
G01X0089900Y0072270D01*
G01X0089900Y0072270D02*
G01X0089900Y0071670D01*
G01X0089900Y0071670D02*
G01X0089300Y0071670D01*
G01X0089300Y0071670D02*
G01X0089300Y0068620D01*
G01X0089300Y0068620D02*
G01X0090800Y0068620D01*
G01X0090700Y0068620D02*
G01X0090800Y0068720D01*
G01X0090800Y0068820D02*
G01X0090600Y0068620D01*
G01X0089400Y0068620D02*
G01X0089300Y0068720D01*
G01X0089300Y0068820D02*
G01X0089500Y0068620D01*
G01X0090850Y0069270D02*
G01X0090950Y0069370D01*
G01X0091050Y0069370D02*
G01X0090850Y0069170D01*
G01X0089300Y0071570D02*
G01X0089400Y0071670D01*
G01X0089500Y0071670D02*
G01X0089300Y0071470D01*
G01X0092250Y0085070D02*
G01X0092250Y0089720D01*
G01X0092250Y0085070D02*
G01X0094750Y0085070D01*
G01X0094750Y0085070D02*
G01X0094750Y0085570D01*
G01X0092750Y0089720D02*
G01X0092250Y0089720D01*
G01X0092750Y0089720D02*
G01X0092750Y0085570D01*
G01X0092750Y0085570D02*
G01X0094750Y0085570D01*
G01X0092850Y0085570D02*
G01X0092750Y0085670D01*
G01X0092750Y0085770D02*
G01X0092950Y0085570D01*
G01X0093250Y0086070D02*
G01X0093250Y0089720D01*
G01X0093250Y0086070D02*
G01X0094750Y0086070D01*
G01X0094750Y0086070D02*
G01X0094750Y0086570D01*
G01X0093750Y0089720D02*
G01X0093250Y0089720D01*
G01X0093750Y0089720D02*
G01X0093750Y0086570D01*
G01X0093750Y0086570D02*
G01X0094750Y0086570D01*
G01X0093850Y0086570D02*
G01X0093750Y0086670D01*
G01X0093750Y0086770D02*
G01X0093950Y0086570D01*
G01X0094250Y0089170D02*
G01X0095000Y0089170D01*
G01X0095000Y0089170D02*
G01X0095000Y0087570D01*
G01X0095000Y0087570D02*
G01X0094250Y0087570D01*
G01X0094250Y0087570D02*
G01X0094250Y0087070D01*
G01X0094250Y0087070D02*
G01X0095200Y0087070D01*
G01X0095200Y0087070D02*
G01X0095200Y0089720D01*
G01X0095200Y0089720D02*
G01X0094250Y0089720D01*
G01X0094250Y0089720D02*
G01X0094250Y0089170D01*
G01X0094900Y0089170D02*
G01X0095000Y0089070D01*
G01X0095000Y0088970D02*
G01X0094800Y0089170D01*
G01X0095000Y0087670D02*
G01X0094900Y0087570D01*
G01X0094800Y0087570D02*
G01X0095000Y0087770D01*
G01X0096900Y0089720D02*
G01X0096900Y0085070D01*
G01X0096900Y0085070D02*
G01X0099400Y0085070D01*
G01X0099400Y0085070D02*
G01X0099400Y0085570D01*
G01X0097400Y0089720D02*
G01X0096900Y0089720D01*
G01X0097400Y0089720D02*
G01X0097400Y0085570D01*
G01X0097400Y0085570D02*
G01X0099400Y0085570D01*
G01X0097500Y0085570D02*
G01X0097400Y0085670D01*
G01X0097400Y0085770D02*
G01X0097600Y0085570D01*
G01X0097900Y0086070D02*
G01X0097900Y0089720D01*
G01X0097900Y0086070D02*
G01X0099400Y0086070D01*
G01X0099400Y0086070D02*
G01X0099400Y0086570D01*
G01X0098400Y0089720D02*
G01X0097900Y0089720D01*
G01X0098400Y0089720D02*
G01X0098400Y0086570D01*
G01X0098400Y0086570D02*
G01X0099400Y0086570D01*
G01X0098500Y0086570D02*
G01X0098400Y0086670D01*
G01X0098400Y0086770D02*
G01X0098600Y0086570D01*
G01X0098900Y0089170D02*
G01X0099650Y0089170D01*
G01X0099650Y0089170D02*
G01X0099650Y0087570D01*
G01X0099650Y0087570D02*
G01X0098900Y0087570D01*
G01X0098900Y0087570D02*
G01X0098900Y0087070D01*
G01X0098900Y0087070D02*
G01X0099850Y0087070D01*
G01X0099850Y0087070D02*
G01X0099850Y0089720D01*
G01X0099850Y0089720D02*
G01X0098900Y0089720D01*
G01X0098900Y0089720D02*
G01X0098900Y0089170D01*
G01X0099550Y0089170D02*
G01X0099650Y0089070D01*
G01X0099650Y0088970D02*
G01X0099450Y0089170D01*
G01X0099650Y0087670D02*
G01X0099550Y0087570D01*
G01X0099450Y0087570D02*
G01X0099650Y0087770D01*
G01X0097500Y0084620D02*
G01X0097500Y0084020D01*
G01X0097500Y0084020D02*
G01X0095900Y0084020D01*
G01X0095900Y0084020D02*
G01X0095900Y0084620D01*
G01X0095900Y0084620D02*
G01X0097500Y0084620D01*
G01X0097000Y0083320D02*
G01X0095900Y0083320D01*
G01X0097000Y0083320D02*
G01X0097000Y0082820D01*
G01X0097000Y0082820D02*
G01X0095900Y0082820D01*
G01X0095900Y0082820D02*
G01X0095900Y0083320D01*
G01X0095400Y0072870D02*
G01X0094900Y0072870D01*
G01X0094900Y0072870D02*
G01X0094900Y0073370D01*
G01X0094900Y0073370D02*
G01X0095400Y0073370D01*
G01X0095400Y0073370D02*
G01X0095400Y0072870D01*
G01X0098200Y0072870D02*
G01X0098700Y0072870D01*
G01X0098200Y0072870D02*
G01X0098200Y0073370D01*
G01X0098200Y0073370D02*
G01X0098700Y0073370D01*
G01X0098700Y0073370D02*
G01X0098700Y0072870D01*
G01X0104900Y0072870D02*
G01X0105400Y0072870D01*
G01X0104900Y0072870D02*
G01X0104900Y0073370D01*
G01X0104900Y0073370D02*
G01X0105400Y0073370D01*
G01X0105400Y0073370D02*
G01X0105400Y0072870D01*
G01X0094750Y0088070D02*
G01X0094250Y0088070D01*
G01X0094250Y0088070D02*
G01X0094250Y0088570D01*
G01X0094250Y0088570D02*
G01X0094750Y0088570D01*
G01X0094750Y0088570D02*
G01X0094750Y0088070D01*
G01X0091750Y0088070D02*
G01X0091250Y0088070D01*
G01X0091250Y0088070D02*
G01X0091250Y0088570D01*
G01X0091250Y0088570D02*
G01X0091750Y0088570D01*
G01X0091750Y0088570D02*
G01X0091750Y0088070D01*
G01X0091750Y0087070D02*
G01X0091250Y0087070D01*
G01X0091250Y0087070D02*
G01X0091250Y0087570D01*
G01X0091250Y0087570D02*
G01X0091750Y0087570D01*
G01X0091750Y0087570D02*
G01X0091750Y0087070D01*
G01X0091750Y0086070D02*
G01X0091250Y0086070D01*
G01X0091250Y0086070D02*
G01X0091250Y0086570D01*
G01X0091250Y0086570D02*
G01X0091750Y0086570D01*
G01X0091750Y0086570D02*
G01X0091750Y0086070D01*
G01X0091750Y0085070D02*
G01X0091250Y0085070D01*
G01X0091250Y0085070D02*
G01X0091250Y0085570D01*
G01X0091250Y0085570D02*
G01X0091750Y0085570D01*
G01X0091750Y0085570D02*
G01X0091750Y0085070D01*
G01X0098900Y0088070D02*
G01X0099400Y0088070D01*
G01X0098900Y0088070D02*
G01X0098900Y0088570D01*
G01X0098900Y0088570D02*
G01X0099400Y0088570D01*
G01X0099400Y0088570D02*
G01X0099400Y0088070D01*
G01X0096400Y0088070D02*
G01X0095900Y0088070D01*
G01X0095900Y0088070D02*
G01X0095900Y0088570D01*
G01X0095900Y0088570D02*
G01X0096400Y0088570D01*
G01X0096400Y0088570D02*
G01X0096400Y0088070D01*
G01X0096400Y0087070D02*
G01X0095900Y0087070D01*
G01X0095900Y0087070D02*
G01X0095900Y0087570D01*
G01X0095900Y0087570D02*
G01X0096400Y0087570D01*
G01X0096400Y0087570D02*
G01X0096400Y0087070D01*
G01X0096400Y0086070D02*
G01X0095900Y0086070D01*
G01X0095900Y0086070D02*
G01X0095900Y0086570D01*
G01X0095900Y0086570D02*
G01X0096400Y0086570D01*
G01X0096400Y0086570D02*
G01X0096400Y0086070D01*
G01X0096400Y0085070D02*
G01X0095900Y0085070D01*
G01X0095900Y0085070D02*
G01X0095900Y0085570D01*
G01X0095900Y0085570D02*
G01X0096400Y0085570D01*
G01X0096400Y0085570D02*
G01X0096400Y0085070D01*
G01X0096400Y0081820D02*
G01X0095900Y0081820D01*
G01X0095900Y0081820D02*
G01X0095900Y0082320D01*
G01X0095900Y0082320D02*
G01X0096400Y0082320D01*
G01X0096400Y0082320D02*
G01X0096400Y0081820D01*
G01X0091750Y0081820D02*
G01X0091250Y0081820D01*
G01X0091250Y0081820D02*
G01X0091250Y0082320D01*
G01X0091250Y0082320D02*
G01X0091750Y0082320D01*
G01X0091750Y0082320D02*
G01X0091750Y0081820D01*
G01X0089800Y0080170D02*
G01X0089300Y0080170D01*
G01X0089300Y0080170D02*
G01X0089300Y0080670D01*
G01X0089300Y0080670D02*
G01X0089800Y0080670D01*
G01X0089800Y0080670D02*
G01X0089800Y0080170D01*
G01X0090500Y0074220D02*
G01X0091000Y0074220D01*
G01X0090500Y0074220D02*
G01X0090500Y0074720D01*
G01X0090500Y0074720D02*
G01X0091000Y0074720D01*
G01X0091000Y0074720D02*
G01X0091000Y0074220D01*
G01X0091500Y0074220D02*
G01X0092000Y0074220D01*
G01X0091500Y0074220D02*
G01X0091500Y0074720D01*
G01X0091500Y0074720D02*
G01X0092000Y0074720D01*
G01X0092000Y0074720D02*
G01X0092000Y0074220D01*
G01X0092500Y0074220D02*
G01X0093000Y0074220D01*
G01X0092500Y0074220D02*
G01X0092500Y0074720D01*
G01X0092500Y0074720D02*
G01X0093000Y0074720D01*
G01X0093000Y0074720D02*
G01X0093000Y0074220D01*
G01X0093500Y0074220D02*
G01X0094000Y0074220D01*
G01X0093500Y0074220D02*
G01X0093500Y0074720D01*
G01X0093500Y0074720D02*
G01X0094000Y0074720D01*
G01X0094000Y0074720D02*
G01X0094000Y0074220D01*
G01X0091000Y0077220D02*
G01X0090500Y0077220D01*
G01X0090500Y0077220D02*
G01X0090500Y0077720D01*
G01X0090500Y0077720D02*
G01X0091000Y0077720D01*
G01X0091000Y0077720D02*
G01X0091000Y0077220D01*
G01X0105900Y0068020D02*
G01X0106400Y0068020D01*
G01X0105900Y0068020D02*
G01X0105900Y0068520D01*
G01X0105900Y0068520D02*
G01X0106400Y0068520D01*
G01X0106400Y0068520D02*
G01X0106400Y0068020D01*
G01X0107700Y0088070D02*
G01X0108200Y0088070D01*
G01X0107700Y0088070D02*
G01X0107700Y0088570D01*
G01X0107700Y0088570D02*
G01X0108200Y0088570D01*
G01X0108200Y0088570D02*
G01X0108200Y0088070D01*
G01X0108200Y0087070D02*
G01X0107700Y0087070D01*
G01X0107700Y0087070D02*
G01X0107700Y0087570D01*
G01X0107700Y0087570D02*
G01X0108200Y0087570D01*
G01X0108200Y0087570D02*
G01X0108200Y0087070D01*
G01X0108200Y0086070D02*
G01X0107700Y0086070D01*
G01X0107700Y0086070D02*
G01X0107700Y0086570D01*
G01X0107700Y0086570D02*
G01X0108200Y0086570D01*
G01X0108200Y0086570D02*
G01X0108200Y0086070D01*
G01X0108200Y0085070D02*
G01X0107700Y0085070D01*
G01X0107700Y0085070D02*
G01X0107700Y0085570D01*
G01X0107700Y0085570D02*
G01X0108200Y0085570D01*
G01X0108200Y0085570D02*
G01X0108200Y0085070D01*
G01X0104100Y0088070D02*
G01X0103600Y0088070D01*
G01X0103600Y0088070D02*
G01X0103600Y0088570D01*
G01X0103600Y0088570D02*
G01X0104100Y0088570D01*
G01X0104100Y0088570D02*
G01X0104100Y0088070D01*
G01X0104100Y0087070D02*
G01X0103600Y0087070D01*
G01X0103600Y0087070D02*
G01X0103600Y0087570D01*
G01X0103600Y0087570D02*
G01X0104100Y0087570D01*
G01X0104100Y0087570D02*
G01X0104100Y0087070D01*
G01X0104100Y0086070D02*
G01X0103600Y0086070D01*
G01X0103600Y0086070D02*
G01X0103600Y0086570D01*
G01X0103600Y0086570D02*
G01X0104100Y0086570D01*
G01X0104100Y0086570D02*
G01X0104100Y0086070D01*
G01X0104100Y0085070D02*
G01X0103600Y0085070D01*
G01X0103600Y0085070D02*
G01X0103600Y0085570D01*
G01X0103600Y0085570D02*
G01X0104100Y0085570D01*
G01X0104100Y0085570D02*
G01X0104100Y0085070D01*
G01X0089850Y0072720D02*
G01X0089350Y0072720D01*
G01X0089350Y0072720D02*
G01X0089350Y0073220D01*
G01X0089350Y0073220D02*
G01X0089850Y0073220D01*
G01X0089850Y0073220D02*
G01X0089850Y0072720D01*
G01X0090700Y0072720D02*
G01X0091200Y0072720D01*
G01X0090700Y0072720D02*
G01X0090700Y0073220D01*
G01X0090700Y0073220D02*
G01X0091200Y0073220D01*
G01X0091200Y0073220D02*
G01X0091200Y0072720D01*
G01X0095100Y0080870D02*
G01X0095100Y0082220D01*
G01X0095100Y0080870D02*
G01X0091250Y0080870D01*
G01X0091250Y0080870D02*
G01X0091250Y0078570D01*
G01X0091250Y0078570D02*
G01X0091550Y0078570D01*
G01X0095100Y0082220D02*
G01X0095400Y0082220D01*
G01X0095400Y0082220D02*
G01X0095400Y0080720D01*
G01X0095400Y0080720D02*
G01X0091550Y0080720D01*
G01X0091550Y0080720D02*
G01X0091550Y0078570D01*
G01X0091550Y0080620D02*
G01X0091650Y0080720D01*
G01X0091750Y0080720D02*
G01X0091550Y0080520D01*
G01X0095000Y0080870D02*
G01X0095100Y0080970D01*
G01X0095100Y0081070D02*
G01X0094900Y0080870D01*
G01X0095100Y0082470D02*
G01X0095650Y0082470D01*
G01X0095100Y0082470D02*
G01X0095100Y0082770D01*
G01X0095100Y0082770D02*
G01X0095550Y0082770D01*
G01X0095550Y0082770D02*
G01X0095550Y0089020D01*
G01X0095550Y0089020D02*
G01X0095450Y0089020D01*
G01X0095450Y0089020D02*
G01X0095450Y0089620D01*
G01X0095450Y0089620D02*
G01X0095800Y0089620D01*
G01X0095800Y0089620D02*
G01X0095800Y0089020D01*
G01X0095650Y0089020D02*
G01X0095650Y0082470D01*
G01X0095650Y0089020D02*
G01X0095800Y0089020D01*
G01X0095750Y0089020D02*
G01X0095650Y0088920D01*
G01X0095650Y0088870D02*
G01X0095800Y0089020D01*
G01X0095550Y0088920D02*
G01X0095450Y0089020D01*
G01X0095550Y0082870D02*
G01X0095450Y0082770D01*
G01X0095350Y0082770D02*
G01X0095550Y0082970D01*
G01X0092100Y0080370D02*
G01X0092100Y0078570D01*
G01X0092100Y0078570D02*
G01X0092400Y0078570D01*
G01X0092400Y0078570D02*
G01X0092400Y0080170D01*
G01X0099750Y0082220D02*
G01X0100050Y0082220D01*
G01X0092500Y0080170D02*
G01X0092400Y0080070D01*
G01X0092400Y0079970D02*
G01X0092600Y0080170D01*
G01X0099750Y0082470D02*
G01X0100350Y0082470D01*
G01X0100350Y0082470D02*
G01X0100350Y0084820D01*
G01X0100350Y0084820D02*
G01X0100900Y0084820D01*
G01X0099750Y0084970D02*
G01X0099750Y0082470D01*
G01X0100100Y0089020D02*
G01X0100100Y0089620D01*
G01X0100900Y0089620D02*
G01X0100900Y0084820D01*
G01X0100900Y0089620D02*
G01X0100100Y0089620D01*
G01X0100450Y0084820D02*
G01X0100350Y0084720D01*
G01X0100350Y0084620D02*
G01X0100550Y0084820D01*
G01X0094900Y0073970D02*
G01X0094900Y0073370D01*
G01X0095400Y0073370D02*
G01X0095400Y0073720D01*
G01X0095400Y0073620D02*
G01X0095500Y0073720D01*
G01X0095600Y0073720D02*
G01X0095400Y0073520D01*
G01X0100700Y0082620D02*
G01X0100700Y0083220D01*
G01X0089750Y0086220D02*
G01X0089350Y0086220D01*
G01X0089750Y0086220D02*
G01X0089750Y0085320D01*
G01X0089750Y0085320D02*
G01X0089350Y0085320D01*
G01X0089350Y0085320D02*
G01X0089350Y0086220D01*
G01X0099950Y0076520D02*
G01X0100350Y0076520D01*
G01X0100350Y0076520D02*
G01X0100350Y0075620D01*
G01X0100350Y0075620D02*
G01X0099950Y0075620D01*
G01X0099950Y0075620D02*
G01X0099950Y0076520D01*
G01X0089750Y0076520D02*
G01X0089350Y0076520D01*
G01X0089750Y0076520D02*
G01X0089750Y0075620D01*
G01X0089750Y0075620D02*
G01X0089350Y0075620D01*
G01X0089350Y0075620D02*
G01X0089350Y0076520D01*
G01X0099950Y0086220D02*
G01X0100350Y0086220D01*
G01X0100350Y0086220D02*
G01X0100350Y0085320D01*
G01X0100350Y0085320D02*
G01X0099950Y0085320D01*
G01X0099950Y0085320D02*
G01X0099950Y0086220D01*
G01X0100650Y0084970D02*
G01X0100650Y0089020D01*
G01X0100650Y0084970D02*
G01X0099750Y0084970D01*
G01X0100550Y0084970D02*
G01X0100650Y0085070D01*
G01X0100650Y0085170D02*
G01X0100450Y0084970D01*
G01X0100650Y0089020D02*
G01X0100100Y0089020D01*
G01X0100550Y0089020D02*
G01X0100650Y0088920D01*
G01X0100650Y0088820D02*
G01X0100450Y0089020D01*
G01X0092350Y0082320D02*
G01X0092000Y0082320D01*
G01X0100700Y0082620D02*
G01X0102050Y0082620D01*
G01X0102050Y0082620D02*
G01X0102050Y0083220D01*
G01X0102050Y0083220D02*
G01X0100700Y0083220D01*
G01X0102050Y0083770D02*
G01X0103050Y0083770D01*
G01X0103050Y0083770D02*
G01X0103050Y0082670D01*
G01X0103050Y0082670D02*
G01X0102500Y0082670D01*
G01X0102500Y0082670D02*
G01X0102500Y0083420D01*
G01X0102500Y0083420D02*
G01X0102050Y0083420D01*
G01X0102050Y0083420D02*
G01X0102050Y0083770D01*
G01X0102400Y0083420D02*
G01X0102500Y0083320D01*
G01X0102500Y0083220D02*
G01X0102300Y0083420D01*
G01X0102050Y0084020D02*
G01X0102050Y0084820D01*
G01X0102050Y0084820D02*
G01X0103000Y0084820D01*
G01X0103000Y0084820D02*
G01X0103000Y0084020D01*
G01X0103000Y0084020D02*
G01X0102050Y0084020D01*
G01X0103000Y0085070D02*
G01X0103000Y0086170D01*
G01X0103000Y0086170D02*
G01X0102500Y0086170D01*
G01X0102500Y0086170D02*
G01X0102500Y0085070D01*
G01X0102500Y0085070D02*
G01X0103000Y0085070D01*
G01X0101250Y0082070D02*
G01X0100850Y0082070D01*
G01X0101250Y0082070D02*
G01X0101250Y0082370D01*
G01X0101250Y0082370D02*
G01X0100700Y0082370D01*
G01X0100450Y0082070D02*
G01X0100350Y0081970D01*
G01X0100350Y0081870D02*
G01X0100550Y0082070D01*
G01X0101250Y0082370D02*
G01X0102050Y0082370D01*
G01X0102050Y0082370D02*
G01X0102050Y0082070D01*
G01X0102050Y0082070D02*
G01X0101250Y0082070D01*
G01X0103600Y0084020D02*
G01X0103600Y0084620D01*
G01X0107150Y0084620D02*
G01X0107150Y0084020D01*
G01X0111250Y0084020D02*
G01X0111250Y0084620D01*
G01X0103900Y0073420D02*
G01X0103900Y0072220D01*
G01X0104400Y0072220D02*
G01X0104400Y0073420D01*
G01X0104400Y0073420D02*
G01X0103900Y0073420D01*
G01X0111750Y0072720D02*
G01X0111750Y0071720D01*
G01X0111750Y0072720D02*
G01X0112250Y0072720D01*
G01X0112250Y0072720D02*
G01X0112250Y0071720D01*
G01X0112250Y0071720D02*
G01X0111750Y0071720D01*
G01X0111450Y0070370D02*
G01X0110850Y0070370D01*
G01X0112700Y0069220D02*
G01X0112700Y0068020D01*
G01X0112250Y0068020D02*
G01X0112250Y0069220D01*
G01X0111750Y0069870D02*
G01X0111750Y0071420D01*
G01X0112250Y0069220D02*
G01X0112700Y0069220D01*
G01X0112700Y0068020D02*
G01X0112250Y0068020D01*
G01X0112000Y0068020D02*
G01X0109900Y0068020D01*
G01X0112000Y0068020D02*
G01X0112000Y0071070D01*
G01X0111750Y0069870D02*
G01X0109900Y0069870D01*
G01X0111650Y0069870D02*
G01X0111750Y0069970D01*
G01X0111750Y0070070D02*
G01X0111550Y0069870D01*
G01X0112000Y0070870D02*
G01X0112200Y0071070D01*
G01X0112100Y0071070D02*
G01X0112000Y0070970D01*
G01X0112000Y0071070D02*
G01X0114350Y0071070D01*
G01X0114350Y0071070D02*
G01X0114350Y0083720D01*
G01X0114350Y0083770D02*
G01X0112700Y0083770D01*
G01X0112700Y0083770D02*
G01X0112700Y0083020D01*
G01X0111750Y0071420D02*
G01X0114050Y0071420D01*
G01X0114050Y0083020D02*
G01X0112700Y0083020D01*
G01X0113950Y0083020D02*
G01X0114050Y0082920D01*
G01X0114050Y0082820D02*
G01X0113850Y0083020D01*
G01X0114050Y0071520D02*
G01X0113950Y0071420D01*
G01X0113850Y0071420D02*
G01X0114050Y0071620D01*
G01X0098000Y0077770D02*
G01X0096750Y0077770D01*
G01X0096300Y0077070D02*
G01X0096400Y0076970D01*
G01X0096500Y0076970D02*
G01X0096300Y0077170D01*
G01X0096750Y0077220D02*
G01X0096750Y0077770D01*
G01X0096750Y0077220D02*
G01X0098000Y0077220D01*
G01X0098000Y0077220D02*
G01X0098000Y0077770D01*
G01X0098000Y0078020D02*
G01X0097200Y0078020D01*
G01X0098000Y0078020D02*
G01X0098000Y0078320D01*
G01X0098000Y0078320D02*
G01X0097200Y0078320D01*
G01X0097200Y0078320D02*
G01X0097200Y0078020D01*
G01X0096950Y0078020D02*
G01X0096950Y0078320D01*
G01X0088450Y0078020D02*
G01X0088450Y0077370D01*
G01X0087850Y0077370D02*
G01X0087850Y0078320D01*
G01X0087850Y0077370D02*
G01X0088450Y0077370D01*
G01X0088450Y0077920D02*
G01X0088550Y0078020D01*
G01X0088650Y0078020D02*
G01X0088450Y0077820D01*
G01X0106600Y0088070D02*
G01X0107100Y0088070D01*
G01X0106600Y0088070D02*
G01X0106600Y0088570D01*
G01X0106600Y0088570D02*
G01X0107100Y0088570D01*
G01X0107100Y0088570D02*
G01X0107100Y0088070D01*
G01X0107100Y0087070D02*
G01X0106600Y0087070D01*
G01X0106600Y0087070D02*
G01X0106600Y0087570D01*
G01X0106600Y0087570D02*
G01X0107100Y0087570D01*
G01X0107100Y0087570D02*
G01X0107100Y0087070D01*
G01X0107100Y0086070D02*
G01X0106600Y0086070D01*
G01X0106600Y0086070D02*
G01X0106600Y0086570D01*
G01X0106600Y0086570D02*
G01X0107100Y0086570D01*
G01X0107100Y0086570D02*
G01X0107100Y0086070D01*
G01X0107100Y0085070D02*
G01X0106600Y0085070D01*
G01X0106600Y0085070D02*
G01X0106600Y0085570D01*
G01X0106600Y0085570D02*
G01X0107100Y0085570D01*
G01X0107100Y0085570D02*
G01X0107100Y0085070D01*
G01X0111700Y0086020D02*
G01X0112200Y0086020D01*
G01X0111700Y0086020D02*
G01X0111700Y0086520D01*
G01X0111700Y0086520D02*
G01X0112200Y0086520D01*
G01X0112200Y0086520D02*
G01X0112200Y0086020D01*
G01X0111200Y0086070D02*
G01X0111200Y0086570D01*
G01X0111200Y0085070D02*
G01X0110700Y0085070D01*
G01X0110700Y0085070D02*
G01X0110700Y0085570D01*
G01X0110700Y0085570D02*
G01X0111200Y0085570D01*
G01X0111200Y0085570D02*
G01X0111200Y0085070D01*
G01X0111200Y0087070D02*
G01X0110700Y0087070D01*
G01X0110700Y0087070D02*
G01X0110700Y0087570D01*
G01X0110700Y0087570D02*
G01X0111200Y0087570D01*
G01X0111200Y0087570D02*
G01X0111200Y0087070D01*
G01X0111200Y0088070D02*
G01X0110700Y0088070D01*
G01X0110700Y0088070D02*
G01X0110700Y0088570D01*
G01X0110700Y0088570D02*
G01X0111200Y0088570D01*
G01X0111200Y0088570D02*
G01X0111200Y0088070D01*
G01X0110200Y0089170D02*
G01X0109700Y0089170D01*
G01X0109700Y0089170D02*
G01X0109700Y0089670D01*
G01X0109700Y0089670D02*
G01X0110200Y0089670D01*
G01X0110200Y0089670D02*
G01X0110200Y0089170D01*
G01X0104850Y0089170D02*
G01X0104350Y0089170D01*
G01X0104350Y0089170D02*
G01X0104350Y0089670D01*
G01X0104350Y0089670D02*
G01X0104850Y0089670D01*
G01X0104850Y0089670D02*
G01X0104850Y0089170D01*
G01X0103850Y0089170D02*
G01X0103350Y0089170D01*
G01X0103350Y0089170D02*
G01X0103350Y0089670D01*
G01X0103350Y0089670D02*
G01X0103850Y0089670D01*
G01X0103850Y0089670D02*
G01X0103850Y0089170D01*
G01X0088300Y0076320D02*
G01X0087800Y0076320D01*
G01X0087800Y0076320D02*
G01X0087800Y0076820D01*
G01X0087800Y0076820D02*
G01X0088300Y0076820D01*
G01X0088300Y0076820D02*
G01X0088300Y0076320D01*
G01X0088300Y0075320D02*
G01X0087800Y0075320D01*
G01X0087800Y0075320D02*
G01X0087800Y0075820D01*
G01X0087800Y0075820D02*
G01X0088300Y0075820D01*
G01X0088300Y0075820D02*
G01X0088300Y0075320D01*
G01X0091500Y0077220D02*
G01X0092000Y0077220D01*
G01X0091500Y0077220D02*
G01X0091500Y0077720D01*
G01X0091500Y0077720D02*
G01X0092000Y0077720D01*
G01X0092000Y0077720D02*
G01X0092000Y0077220D01*
G01X0092500Y0077220D02*
G01X0093000Y0077220D01*
G01X0092500Y0077220D02*
G01X0092500Y0077720D01*
G01X0092500Y0077720D02*
G01X0093000Y0077720D01*
G01X0093000Y0077720D02*
G01X0093000Y0077220D01*
G01X0093500Y0077220D02*
G01X0094000Y0077220D01*
G01X0093500Y0077220D02*
G01X0093500Y0077720D01*
G01X0093500Y0077720D02*
G01X0094000Y0077720D01*
G01X0094000Y0077720D02*
G01X0094000Y0077220D01*
G01X0096800Y0074220D02*
G01X0097300Y0074220D01*
G01X0096800Y0074220D02*
G01X0096800Y0074720D01*
G01X0096800Y0074720D02*
G01X0097300Y0074720D01*
G01X0097300Y0074720D02*
G01X0097300Y0074220D01*
G01X0111600Y0085170D02*
G01X0111800Y0085170D01*
G01X0111600Y0085170D02*
G01X0111600Y0084370D01*
G01X0111600Y0084370D02*
G01X0112750Y0084370D01*
G01X0112750Y0085170D02*
G01X0111850Y0085170D01*
G01X0112750Y0085170D02*
G01X0112750Y0084370D01*
G01X0112700Y0086570D02*
G01X0113750Y0086570D01*
G01X0112700Y0086570D02*
G01X0112700Y0085970D01*
G01X0112700Y0085970D02*
G01X0113750Y0085970D01*
G01X0113750Y0085970D02*
G01X0113750Y0086570D01*
G01X0112200Y0086020D02*
G01X0112200Y0085720D01*
G01X0112200Y0085720D02*
G01X0112800Y0085720D01*
G01X0112800Y0085720D02*
G01X0112800Y0085420D01*
G01X0112800Y0085420D02*
G01X0111700Y0085420D01*
G01X0111700Y0085420D02*
G01X0111700Y0086020D01*
G01X0112200Y0085820D02*
G01X0112300Y0085720D01*
G01X0112400Y0085720D02*
G01X0112200Y0085920D01*
G01X0111800Y0084120D02*
G01X0111600Y0084120D01*
G01X0111600Y0084120D02*
G01X0111600Y0083020D01*
G01X0111600Y0083020D02*
G01X0112350Y0083020D01*
G01X0112350Y0083020D02*
G01X0112350Y0084120D01*
G01X0112350Y0084120D02*
G01X0111800Y0084120D01*
G01X0102900Y0089720D02*
G01X0102300Y0089720D01*
G01X0102300Y0089720D02*
G01X0102300Y0089120D01*
G01X0102300Y0089120D02*
G01X0102900Y0089120D01*
G01X0102900Y0089120D02*
G01X0102900Y0089720D01*
G01X0109250Y0089720D02*
G01X0109250Y0089120D01*
G01X0109250Y0089120D02*
G01X0108650Y0089120D01*
G01X0108650Y0089120D02*
G01X0108650Y0089720D01*
G01X0108650Y0089720D02*
G01X0109250Y0089720D01*
G01X0112800Y0087120D02*
G01X0113750Y0087120D01*
G01X0113750Y0087120D02*
G01X0113750Y0086820D01*
G01X0113750Y0086820D02*
G01X0112700Y0086820D01*
G01X0112700Y0086820D02*
G01X0112700Y0087120D01*
G01X0112700Y0087120D02*
G01X0112800Y0087120D01*
G01X0113100Y0087370D02*
G01X0111700Y0087370D01*
G01X0113100Y0087370D02*
G01X0113100Y0087920D01*
G01X0111700Y0087370D02*
G01X0111700Y0089020D01*
G01X0111700Y0089020D02*
G01X0110700Y0089020D01*
G01X0110700Y0089020D02*
G01X0110700Y0089670D01*
G01X0112000Y0087920D02*
G01X0113100Y0087920D01*
G01X0112000Y0087920D02*
G01X0112000Y0089670D01*
G01X0112000Y0089670D02*
G01X0110700Y0089670D01*
G01X0111600Y0089020D02*
G01X0111700Y0088920D01*
G01X0111700Y0088820D02*
G01X0111500Y0089020D01*
G01X0112000Y0088020D02*
G01X0112100Y0087920D01*
G01X0112200Y0087920D02*
G01X0112000Y0088120D01*
G01X0113150Y0083970D02*
G01X0114350Y0083970D01*
G01X0114350Y0083770D02*
G01X0114350Y0083620D01*
G01X0114350Y0083970D02*
G01X0114350Y0085720D01*
G01X0113150Y0085720D02*
G01X0113150Y0083970D01*
G01X0113150Y0085720D02*
G01X0114350Y0085720D01*
G01X0113100Y0082720D02*
G01X0113100Y0082420D01*
G01X0098750Y0082820D02*
G01X0098650Y0082720D01*
G01X0098650Y0082620D02*
G01X0098700Y0082620D01*
G01X0098700Y0082620D02*
G01X0098900Y0082820D01*
G01X0108600Y0070170D02*
G01X0108600Y0069020D01*
G01X0108600Y0070170D02*
G01X0108900Y0070470D01*
G01X0101900Y0074620D02*
G01X0101200Y0074620D01*
G01X0101800Y0074620D02*
G01X0101900Y0074520D01*
G01X0101900Y0074420D02*
G01X0101700Y0074620D01*
G01X0111400Y0078320D02*
G01X0112600Y0078320D01*
G01X0112600Y0078320D02*
G01X0112600Y0077820D01*
G01X0112600Y0077820D02*
G01X0111400Y0077820D01*
G01X0111400Y0077820D02*
G01X0111400Y0078320D01*
G01X0111400Y0078570D02*
G01X0111700Y0078570D01*
G01X0111700Y0078570D02*
G01X0111700Y0081720D01*
G01X0108900Y0079570D02*
G01X0108900Y0079070D01*
G01X0108900Y0076570D02*
G01X0108900Y0076070D01*
G01X0111950Y0074020D02*
G01X0111950Y0073720D01*
G01X0112600Y0074820D02*
G01X0112600Y0075320D01*
G01X0112200Y0074020D02*
G01X0112200Y0073720D01*
G01X0112200Y0074020D02*
G01X0112800Y0074020D01*
G01X0112800Y0074070D02*
G01X0112800Y0075570D01*
G01X0112800Y0075570D02*
G01X0113300Y0076070D01*
G01X0112850Y0075570D02*
G01X0112850Y0073770D01*
G01X0112850Y0075570D02*
G01X0113350Y0076070D01*
G01X0112790Y0074110D02*
G01X0112690Y0074010D01*
G01X0112600Y0074020D02*
G01X0112850Y0074270D01*
G01X0109400Y0074970D02*
G01X0109400Y0076070D01*
G01X0109400Y0076070D02*
G01X0109900Y0076070D01*
G01X0109900Y0076070D02*
G01X0109900Y0074970D01*
G01X0109900Y0074970D02*
G01X0109400Y0074970D01*
G01X0112350Y0076070D02*
G01X0112600Y0075820D01*
G01X0112600Y0075820D02*
G01X0111800Y0075820D01*
G01X0111800Y0075820D02*
G01X0111800Y0075620D01*
G01X0111800Y0075620D02*
G01X0111500Y0075620D01*
G01X0112600Y0075820D02*
G01X0112600Y0076320D01*
G01X0111500Y0076320D02*
G01X0111500Y0075620D01*
G01X0111500Y0076320D02*
G01X0112600Y0076320D01*
G01X0111900Y0075820D02*
G01X0111800Y0075720D01*
G01X0111800Y0075620D02*
G01X0112000Y0075820D01*
G01X0112600Y0076820D02*
G01X0112600Y0077320D01*
G01X0109400Y0077070D02*
G01X0109400Y0076570D01*
G01X0102350Y0082070D02*
G01X0102350Y0082370D01*
G01X0101750Y0085920D02*
G01X0101750Y0086170D01*
G01X0101750Y0086170D02*
G01X0102000Y0086170D01*
G01X0102000Y0086170D02*
G01X0102000Y0085670D01*
G01X0102000Y0085670D02*
G01X0101500Y0085670D01*
G01X0101500Y0085670D02*
G01X0101500Y0086170D01*
G01X0101500Y0086170D02*
G01X0101750Y0086170D01*
G01X0101150Y0086870D02*
G01X0101150Y0083820D01*
G01X0101150Y0086870D02*
G01X0104750Y0086870D01*
G01X0101650Y0083820D02*
G01X0101150Y0083820D01*
G01X0101650Y0083820D02*
G01X0101650Y0084170D01*
G01X0101650Y0084170D02*
G01X0101250Y0084170D01*
G01X0101250Y0084170D02*
G01X0101250Y0086820D01*
G01X0101250Y0086820D02*
G01X0104700Y0086820D01*
G01X0101300Y0084170D02*
G01X0101150Y0084170D01*
G01X0101250Y0084270D02*
G01X0101350Y0084170D01*
G01X0101450Y0084170D02*
G01X0101250Y0084370D01*
G01X0101250Y0086720D02*
G01X0101350Y0086820D01*
G01X0101450Y0086820D02*
G01X0101250Y0086620D01*
G01X0106200Y0086070D02*
G01X0106600Y0086070D01*
G01X0106300Y0086570D02*
G01X0107100Y0086570D01*
G01X0106300Y0086570D02*
G01X0106300Y0088870D01*
G01X0106300Y0088870D02*
G01X0104250Y0088870D01*
G01X0104250Y0088870D02*
G01X0103650Y0089470D01*
G01X0106200Y0088820D02*
G01X0106200Y0086070D01*
G01X0106400Y0086570D02*
G01X0106300Y0086670D01*
G01X0106300Y0086770D02*
G01X0106500Y0086570D01*
G01X0106200Y0088770D02*
G01X0106100Y0088870D01*
G01X0106000Y0088870D02*
G01X0106200Y0088670D01*
G01X0106200Y0088820D02*
G01X0104200Y0088820D01*
G01X0104200Y0088820D02*
G01X0103850Y0089170D01*
G01X0110650Y0084620D02*
G01X0111250Y0084620D01*
G01X0111250Y0084020D02*
G01X0110650Y0084020D01*
G01X0110650Y0084020D02*
G01X0110650Y0084620D01*
G01X0107400Y0083820D02*
G01X0107400Y0089020D01*
G01X0103650Y0081920D02*
G01X0102350Y0081920D01*
G01X0107450Y0083770D02*
G01X0107450Y0089620D01*
G01X0107400Y0089020D02*
G01X0106900Y0089020D01*
G01X0106900Y0089020D02*
G01X0106900Y0089620D01*
G01X0106900Y0089620D02*
G01X0107450Y0089620D01*
G01X0107300Y0089020D02*
G01X0107400Y0088920D01*
G01X0107400Y0088820D02*
G01X0107200Y0089020D01*
G01X0107900Y0073520D02*
G01X0108400Y0073520D01*
G01X0110850Y0073520D02*
G01X0111450Y0073520D01*
G01X0107900Y0073520D02*
G01X0107900Y0070370D01*
G01X0108400Y0070370D02*
G01X0108400Y0073520D01*
G01X0110850Y0073520D02*
G01X0110850Y0070370D01*
G01X0111450Y0070370D02*
G01X0111450Y0073520D01*
G01X0109900Y0074720D02*
G01X0109400Y0074720D01*
G01X0109900Y0074720D02*
G01X0109900Y0074570D01*
G01X0109900Y0074570D02*
G01X0112500Y0074570D01*
G01X0112500Y0074570D02*
G01X0112500Y0074220D01*
G01X0112500Y0074220D02*
G01X0109400Y0074220D01*
G01X0109400Y0074220D02*
G01X0109400Y0074720D01*
G01X0109900Y0074720D02*
G01X0110050Y0074570D01*
G01X0112200Y0073720D02*
G01X0112850Y0073720D01*
G01X0112850Y0073720D02*
G01X0112850Y0073770D01*
G01X0111950Y0074020D02*
G01X0108900Y0074020D01*
G01X0108900Y0074120D02*
G01X0109000Y0074020D01*
G01X0109100Y0074020D02*
G01X0108900Y0074220D01*
G01X0108650Y0073720D02*
G01X0111950Y0073720D01*
G01X0107400Y0074920D02*
G01X0107400Y0078770D01*
G01X0107400Y0075020D02*
G01X0107300Y0074920D01*
G01X0107200Y0074920D02*
G01X0107400Y0075120D01*
G01X0110400Y0076620D02*
G01X0110400Y0077070D01*
G01X0110400Y0077070D02*
G01X0109400Y0077070D01*
G01X0110400Y0076620D02*
G01X0113600Y0076620D01*
G01X0113600Y0076570D02*
G01X0109400Y0076570D01*
G01X0113600Y0076570D02*
G01X0113600Y0077320D01*
G01X0113600Y0077320D02*
G01X0113100Y0077320D01*
G01X0113100Y0077320D02*
G01X0113100Y0076570D01*
G01X0113000Y0076620D02*
G01X0113100Y0076720D01*
G01X0113100Y0076820D02*
G01X0112900Y0076620D01*
G01X0110500Y0076620D02*
G01X0110400Y0076720D01*
G01X0110400Y0076820D02*
G01X0110600Y0076620D01*
G01X0111600Y0077320D02*
G01X0112600Y0077320D01*
G01X0111600Y0077320D02*
G01X0111600Y0076820D01*
G01X0111600Y0076820D02*
G01X0112600Y0076820D01*
G01X0104300Y0076570D02*
G01X0102800Y0076570D01*
G01X0102800Y0076570D02*
G01X0102800Y0077070D01*
G01X0102800Y0077070D02*
G01X0104300Y0077070D01*
G01X0104300Y0077070D02*
G01X0104300Y0076570D01*
G01X0104300Y0076320D02*
G01X0104300Y0075120D01*
G01X0104300Y0075120D02*
G01X0103950Y0075120D01*
G01X0103950Y0075120D02*
G01X0103950Y0076320D01*
G01X0103950Y0076320D02*
G01X0104300Y0076320D01*
G01X0102900Y0074920D02*
G01X0102900Y0072420D01*
G01X0102900Y0072420D02*
G01X0103400Y0072420D01*
G01X0103400Y0072420D02*
G01X0103400Y0074620D01*
G01X0102900Y0074920D02*
G01X0107400Y0074920D01*
G01X0103500Y0074620D02*
G01X0103400Y0074520D01*
G01X0103400Y0074420D02*
G01X0103600Y0074620D01*
G01X0101400Y0073420D02*
G01X0101400Y0070370D01*
G01X0100900Y0070370D02*
G01X0100900Y0073420D01*
G01X0100900Y0073420D02*
G01X0101400Y0073420D01*
G01X0100400Y0073420D02*
G01X0100400Y0070370D01*
G01X0099900Y0070370D02*
G01X0099900Y0073420D01*
G01X0099900Y0073420D02*
G01X0100400Y0073420D01*
G01X0107900Y0076570D02*
G01X0108900Y0076570D01*
G01X0107900Y0076570D02*
G01X0107900Y0076070D01*
G01X0107900Y0076070D02*
G01X0108900Y0076070D01*
G01X0108900Y0079570D02*
G01X0107400Y0079570D01*
G01X0107400Y0079570D02*
G01X0107400Y0079070D01*
G01X0107400Y0079070D02*
G01X0108900Y0079070D01*
G01X0108900Y0079070D02*
G01X0108900Y0079570D01*
G01X0107700Y0078770D02*
G01X0107400Y0078770D01*
G01X0107700Y0075770D02*
G01X0108900Y0075770D01*
G01X0107700Y0075770D02*
G01X0107700Y0078770D01*
G01X0108900Y0075770D02*
G01X0108900Y0074020D01*
G01X0108650Y0073720D02*
G01X0108650Y0074620D01*
G01X0108550Y0074620D02*
G01X0108650Y0074520D01*
G01X0108650Y0074420D02*
G01X0108450Y0074620D01*
G01X0108650Y0074620D02*
G01X0103400Y0074620D01*
G01X0101900Y0074620D02*
G01X0101900Y0070370D01*
G01X0102400Y0070370D02*
G01X0102400Y0074920D01*
G01X0107700Y0075870D02*
G01X0107800Y0075770D01*
G01X0107900Y0075770D02*
G01X0107700Y0075970D01*
G01X0107700Y0084570D02*
G01X0108200Y0084570D01*
G01X0108500Y0084570D02*
G01X0109450Y0084570D01*
G01X0108500Y0084570D02*
G01X0108500Y0083320D01*
G01X0108500Y0083320D02*
G01X0109450Y0083320D01*
G01X0109450Y0083320D02*
G01X0109450Y0084570D01*
G01X0104300Y0079570D02*
G01X0102800Y0079570D01*
G01X0102800Y0079570D02*
G01X0102800Y0080070D01*
G01X0102800Y0080070D02*
G01X0104300Y0080070D01*
G01X0104300Y0080070D02*
G01X0104300Y0079570D01*
G01X0104300Y0079320D02*
G01X0103950Y0079320D01*
G01X0103950Y0079320D02*
G01X0103950Y0078420D01*
G01X0103950Y0078420D02*
G01X0104300Y0078420D01*
G01X0104300Y0078420D02*
G01X0104300Y0079320D01*
G01X0111300Y0076320D02*
G01X0111300Y0075320D01*
G01X0111300Y0076320D02*
G01X0110100Y0076320D01*
G01X0110100Y0076320D02*
G01X0110100Y0074820D01*
G01X0110100Y0074820D02*
G01X0112600Y0074820D01*
G01X0112600Y0075320D02*
G01X0111300Y0075320D01*
G01X0111300Y0075420D02*
G01X0111400Y0075320D01*
G01X0111500Y0075320D02*
G01X0111300Y0075520D01*
G01X0111700Y0082420D02*
G01X0113100Y0082420D01*
G01X0111700Y0082420D02*
G01X0111700Y0081920D01*
G01X0111700Y0081920D02*
G01X0107700Y0081920D01*
G01X0107700Y0081920D02*
G01X0107700Y0084570D01*
G01X0111550Y0082720D02*
G01X0113100Y0082720D01*
G01X0111550Y0082720D02*
G01X0111550Y0082170D01*
G01X0111550Y0082170D02*
G01X0108200Y0082170D01*
G01X0108200Y0082170D02*
G01X0108200Y0084570D01*
G01X0108200Y0082270D02*
G01X0108300Y0082170D01*
G01X0108400Y0082170D02*
G01X0108200Y0082370D01*
G01X0111700Y0082320D02*
G01X0111800Y0082420D01*
G01X0111900Y0082420D02*
G01X0111700Y0082220D01*
G01X0111550Y0082270D02*
G01X0111450Y0082170D01*
G01X0111350Y0082170D02*
G01X0111550Y0082370D01*
G01X0111200Y0086070D02*
G01X0109950Y0086070D01*
G01X0109950Y0085970D02*
G01X0110050Y0086070D01*
G01X0110150Y0086070D02*
G01X0109950Y0085870D01*
G01X0108500Y0086820D02*
G01X0112700Y0086820D01*
G01X0112700Y0086870D02*
G01X0108500Y0086870D01*
G01X0108500Y0086870D02*
G01X0108500Y0084820D01*
G01X0108500Y0084820D02*
G01X0108850Y0084820D01*
G01X0108850Y0084820D02*
G01X0108850Y0086870D01*
G01X0102400Y0074920D02*
G01X0101500Y0074920D01*
G01X0101500Y0075020D02*
G01X0101600Y0074920D01*
G01X0101700Y0074920D02*
G01X0101500Y0075120D01*
G01X0111400Y0078570D02*
G01X0111400Y0081520D01*
G01X0111300Y0081520D02*
G01X0111400Y0081420D01*
G01X0111400Y0081320D02*
G01X0111200Y0081520D01*
G01X0107150Y0078070D02*
G01X0102800Y0078070D01*
G01X0107150Y0078070D02*
G01X0107150Y0080870D01*
G01X0107150Y0080870D02*
G01X0109950Y0080870D01*
G01X0102800Y0079070D02*
G01X0102800Y0078070D01*
G01X0102800Y0079070D02*
G01X0103350Y0079070D01*
G01X0103350Y0079070D02*
G01X0103350Y0078220D01*
G01X0103350Y0078220D02*
G01X0107100Y0078220D01*
G01X0107100Y0078220D02*
G01X0107100Y0080920D01*
G01X0109950Y0080870D02*
G01X0109950Y0081220D01*
G01X0109950Y0081220D02*
G01X0107100Y0081220D01*
G01X0107100Y0081220D02*
G01X0107100Y0080920D01*
G01X0107150Y0080770D02*
G01X0107250Y0080870D01*
G01X0107350Y0080870D02*
G01X0107150Y0080670D01*
G01X0107100Y0078320D02*
G01X0107000Y0078220D01*
G01X0106900Y0078220D02*
G01X0107100Y0078420D01*
G01X0103450Y0078220D02*
G01X0103350Y0078320D01*
G01X0103350Y0078420D02*
G01X0103550Y0078220D01*
G01X0109650Y0082370D02*
G01X0109650Y0086570D01*
G01X0109650Y0082370D02*
G01X0109950Y0082370D01*
G01X0109950Y0082370D02*
G01X0109950Y0086070D01*
G01X0109650Y0086570D02*
G01X0111200Y0086570D01*
G01X0110700Y0085570D02*
G01X0110200Y0085570D01*
G01X0110200Y0085570D02*
G01X0110200Y0082370D01*
G01X0110200Y0082370D02*
G01X0110500Y0082370D01*
G01X0110500Y0082370D02*
G01X0110500Y0083420D01*
G01X0110500Y0083420D02*
G01X0110400Y0083420D01*
G01X0110400Y0083420D02*
G01X0110400Y0085070D01*
G01X0110400Y0085070D02*
G01X0110700Y0085070D01*
G01X0110500Y0085070D02*
G01X0110400Y0084970D01*
G01X0110400Y0083520D02*
G01X0110500Y0083420D01*
G01X0099650Y0070120D02*
G01X0099150Y0069620D01*
G01X0097750Y0074720D02*
G01X0097300Y0074720D01*
G01X0097750Y0074720D02*
G01X0097750Y0074220D01*
G01X0097750Y0074220D02*
G01X0097300Y0074220D01*
G01X0092850Y0078620D02*
G01X0093000Y0078770D01*
G01X0092850Y0078620D02*
G01X0096950Y0078620D01*
G01X0096950Y0078620D02*
G01X0096950Y0078920D01*
G01X0096950Y0078920D02*
G01X0092850Y0078920D01*
G01X0092850Y0078920D02*
G01X0092850Y0078620D01*
G01X0096950Y0078020D02*
G01X0088450Y0078020D01*
G01X0087850Y0078320D02*
G01X0096950Y0078320D01*
G01X0093600Y0079120D02*
G01X0093600Y0079320D01*
G01X0093600Y0079120D02*
G01X0093450Y0079120D01*
G01X0093450Y0079120D02*
G01X0093450Y0079520D01*
G01X0093450Y0079520D02*
G01X0095500Y0079520D01*
G01X0095500Y0079520D02*
G01X0095500Y0079120D01*
G01X0095500Y0079120D02*
G01X0093450Y0079120D01*
G01X0110100Y0079570D02*
G01X0110100Y0077070D01*
G01X0110150Y0077070D02*
G01X0110150Y0080070D01*
G01X0110100Y0079570D02*
G01X0109400Y0079570D01*
G01X0109400Y0080070D02*
G01X0110150Y0080070D01*
G01X0110000Y0079570D02*
G01X0110100Y0079470D01*
G01X0110100Y0079370D02*
G01X0109900Y0079570D01*
G01X0110100Y0077170D02*
G01X0110000Y0077070D01*
G01X0109900Y0077070D02*
G01X0110100Y0077270D01*
G01X0110100Y0077170D02*
G01X0110200Y0077070D01*
G01X0110300Y0077070D02*
G01X0110100Y0077270D01*
G01X0110400Y0077320D02*
G01X0110400Y0078870D01*
G01X0110400Y0078870D02*
G01X0110700Y0078870D01*
G01X0110700Y0078870D02*
G01X0110700Y0077320D01*
G01X0110700Y0077320D02*
G01X0110400Y0077320D01*
G01X0111000Y0076820D02*
G01X0111300Y0076820D01*
G01X0111000Y0076820D02*
G01X0111000Y0077620D01*
G01X0111000Y0077620D02*
G01X0111300Y0077620D01*
G01X0111300Y0077620D02*
G01X0111300Y0076820D01*
G01X0109150Y0077070D02*
G01X0108400Y0077070D01*
G01X0109150Y0077070D02*
G01X0109150Y0080570D01*
G01X0109150Y0080570D02*
G01X0108400Y0080570D01*
G01X0108400Y0080570D02*
G01X0108400Y0080070D01*
G01X0108400Y0080070D02*
G01X0109100Y0080070D01*
G01X0109100Y0080070D02*
G01X0109100Y0077570D01*
G01X0109100Y0077570D02*
G01X0108400Y0077570D01*
G01X0108400Y0077570D02*
G01X0108400Y0077070D01*
G01X0109000Y0077570D02*
G01X0109100Y0077670D01*
G01X0109100Y0077770D02*
G01X0108900Y0077570D01*
G01X0109100Y0079970D02*
G01X0109000Y0080070D01*
G01X0108900Y0080070D02*
G01X0109100Y0079870D01*
G01X0109400Y0080070D02*
G01X0109400Y0079570D01*
G01X0099650Y0077120D02*
G01X0099650Y0070120D01*
G01X0099650Y0077120D02*
G01X0100050Y0077120D01*
G01X0100050Y0077120D02*
G01X0100050Y0076770D01*
G01X0100050Y0076770D02*
G01X0099650Y0076770D01*
G01X0099700Y0076770D02*
G01X0099700Y0070070D01*
G01X0099700Y0070070D02*
G01X0099150Y0069520D01*
G01X0100650Y0070120D02*
G01X0100650Y0073970D01*
G01X0100650Y0073970D02*
G01X0100950Y0073970D01*
G01X0100950Y0073970D02*
G01X0100950Y0073670D01*
G01X0100950Y0073670D02*
G01X0100650Y0073670D01*
G01X0100700Y0073670D02*
G01X0100700Y0070070D01*
G01X0100700Y0070070D02*
G01X0100150Y0069520D01*
G01X0100700Y0073570D02*
G01X0100800Y0073670D01*
G01X0101400Y0074020D02*
G01X0101550Y0074020D01*
G01X0101550Y0074020D02*
G01X0101550Y0074320D01*
G01X0101550Y0074320D02*
G01X0100950Y0074320D01*
G01X0101250Y0074320D02*
G01X0101250Y0074020D01*
G01X0101250Y0074020D02*
G01X0101550Y0074020D01*
G01X0101250Y0074270D02*
G01X0100900Y0074270D01*
G01X0101150Y0074270D02*
G01X0101250Y0074170D01*
G01X0101250Y0074070D02*
G01X0101050Y0074270D01*
G01X0101800Y0080070D02*
G01X0102300Y0080070D01*
G01X0101800Y0078120D02*
G01X0101800Y0077070D01*
G01X0101800Y0077070D02*
G01X0102300Y0077070D01*
G01X0102300Y0077070D02*
G01X0102300Y0078120D01*
G01X0102300Y0078120D02*
G01X0101800Y0078120D01*
G01X0102050Y0076570D02*
G01X0102300Y0076570D01*
G01X0102300Y0076570D02*
G01X0102300Y0076070D01*
G01X0102300Y0076070D02*
G01X0101800Y0076070D01*
G01X0101800Y0076070D02*
G01X0101800Y0076570D01*
G01X0101800Y0076570D02*
G01X0102050Y0076570D01*
G01X0102050Y0079570D02*
G01X0102300Y0079570D01*
G01X0102300Y0079570D02*
G01X0102300Y0079070D01*
G01X0102300Y0079070D02*
G01X0101800Y0079070D01*
G01X0101800Y0079070D02*
G01X0101800Y0079570D01*
G01X0101800Y0079570D02*
G01X0102050Y0079570D01*
G01X0103050Y0076070D02*
G01X0103300Y0076070D01*
G01X0103300Y0076070D02*
G01X0103300Y0075570D01*
G01X0103300Y0075570D02*
G01X0102800Y0075570D01*
G01X0102800Y0075570D02*
G01X0102800Y0076070D01*
G01X0102800Y0076070D02*
G01X0103050Y0076070D01*
G01X0109650Y0079070D02*
G01X0109900Y0079070D01*
G01X0109900Y0079070D02*
G01X0109900Y0078570D01*
G01X0109900Y0078570D02*
G01X0109400Y0078570D01*
G01X0109400Y0078570D02*
G01X0109400Y0079070D01*
G01X0109400Y0079070D02*
G01X0109650Y0079070D01*
G01X0113350Y0078320D02*
G01X0113600Y0078320D01*
G01X0113600Y0077820D02*
G01X0113100Y0077820D01*
G01X0113100Y0077820D02*
G01X0113100Y0078320D01*
G01X0113100Y0078320D02*
G01X0113350Y0078320D01*
G01X0113350Y0076320D02*
G01X0113600Y0076320D01*
G01X0113600Y0076320D02*
G01X0113600Y0075820D01*
G01X0113600Y0075820D02*
G01X0113100Y0075820D01*
G01X0113100Y0075820D02*
G01X0113100Y0076320D01*
G01X0113100Y0076320D02*
G01X0113350Y0076320D01*
G01X0099800Y0076770D02*
G01X0099700Y0076670D01*
G01X0099650Y0076520D02*
G01X0099900Y0076770D01*
G01X0100950Y0074320D02*
G01X0100950Y0079620D01*
G01X0100900Y0079570D02*
G01X0100900Y0074270D01*
G01X0100900Y0079570D02*
G01X0098000Y0079570D01*
G01X0098000Y0079570D02*
G01X0098000Y0078320D01*
G01X0097850Y0078320D02*
G01X0097850Y0079620D01*
G01X0097850Y0078420D02*
G01X0097750Y0078320D01*
G01X0097650Y0078320D02*
G01X0097850Y0078520D01*
G01X0097850Y0079620D02*
G01X0100950Y0079620D01*
G01X0100800Y0079570D02*
G01X0100900Y0079470D01*
G01X0098100Y0079570D02*
G01X0098000Y0079470D01*
G01X0098200Y0073970D02*
G01X0094900Y0073970D01*
G01X0098200Y0073970D02*
G01X0098200Y0079370D01*
G01X0102300Y0080070D02*
G01X0102300Y0080570D01*
G01X0102300Y0080570D02*
G01X0101800Y0080570D01*
G01X0101800Y0080570D02*
G01X0101800Y0080070D01*
G01X0101800Y0078470D02*
G01X0102550Y0078470D01*
G01X0101800Y0078470D02*
G01X0101800Y0078770D01*
G01X0101800Y0078770D02*
G01X0102500Y0078770D01*
G01X0102550Y0078470D02*
G01X0102550Y0080570D01*
G01X0102500Y0080070D02*
G01X0102500Y0078770D01*
G01X0102500Y0080070D02*
G01X0102300Y0080070D01*
G01X0102300Y0080570D02*
G01X0102550Y0080570D01*
G01X0102400Y0080070D02*
G01X0102500Y0079970D01*
G01X0102500Y0079870D02*
G01X0102300Y0080070D01*
G01X0102500Y0078870D02*
G01X0102400Y0078770D01*
G01X0102300Y0078770D02*
G01X0102500Y0078970D01*
G01X0101500Y0080770D02*
G01X0104800Y0080770D01*
G01X0104800Y0080770D02*
G01X0104800Y0081520D01*
G01X0104800Y0081520D02*
G01X0111400Y0081520D01*
G01X0104900Y0081520D02*
G01X0104800Y0081420D01*
G01X0104800Y0081320D02*
G01X0105000Y0081520D01*
G01X0104750Y0081720D02*
G01X0111700Y0081720D01*
G01X0104750Y0081720D02*
G01X0104750Y0080820D01*
G01X0101200Y0080820D02*
G01X0101200Y0074620D01*
G01X0101200Y0080820D02*
G01X0104750Y0080820D01*
G01X0104650Y0080820D02*
G01X0104750Y0080920D01*
G01X0104750Y0081020D02*
G01X0104550Y0080820D01*
G01X0101500Y0080770D02*
G01X0101500Y0074920D01*
G01X0101500Y0080670D02*
G01X0101600Y0080770D01*
G01X0101700Y0080770D02*
G01X0101500Y0080570D01*
G01X0113600Y0078320D02*
G01X0113850Y0078320D01*
G01X0113850Y0078320D02*
G01X0113850Y0072220D01*
G01X0113800Y0077820D02*
G01X0113600Y0077820D01*
G01X0113800Y0077820D02*
G01X0113800Y0072570D01*
G01X0113800Y0072570D02*
G01X0113450Y0072570D01*
G01X0113450Y0072570D02*
G01X0113450Y0072220D01*
G01X0113450Y0072220D02*
G01X0113850Y0072220D01*
G01X0113700Y0072570D02*
G01X0113800Y0072670D01*
G01X0113800Y0072770D02*
G01X0113600Y0072570D01*
G01X0113800Y0077720D02*
G01X0113700Y0077820D01*
G01X0113600Y0077820D02*
G01X0113800Y0077620D01*
G01X0114050Y0083020D02*
G01X0114050Y0071420D01*
G01X0113100Y0074770D02*
G01X0113100Y0075370D01*
G01X0113100Y0074770D02*
G01X0113600Y0074770D01*
G01X0113600Y0074770D02*
G01X0113600Y0075370D01*
G01X0113600Y0075370D02*
G01X0113100Y0075370D01*
G01X0098500Y0079370D02*
G01X0098200Y0079370D01*
G01X0098500Y0079370D02*
G01X0098500Y0079070D01*
G01X0098500Y0079070D02*
G01X0098200Y0079070D01*
G01X0098250Y0079070D02*
G01X0098250Y0073720D01*
G01X0098250Y0073720D02*
G01X0095400Y0073720D01*
G01X0098250Y0078970D02*
G01X0098350Y0079070D01*
G01X0098450Y0079070D02*
G01X0098250Y0078870D01*
G01X0098250Y0078820D02*
G01X0098500Y0079070D01*
G01X0095750Y0080370D02*
G01X0092100Y0080370D01*
G01X0095750Y0080370D02*
G01X0095750Y0080870D01*
G01X0095750Y0080870D02*
G01X0099750Y0080870D01*
G01X0099650Y0080870D02*
G01X0099750Y0080970D01*
G01X0099750Y0081070D02*
G01X0099550Y0080870D01*
G01X0099750Y0080870D02*
G01X0099750Y0082220D01*
G01X0095800Y0080170D02*
G01X0092400Y0080170D01*
G01X0095800Y0080170D02*
G01X0095800Y0080820D01*
G01X0095800Y0080820D02*
G01X0100050Y0080820D01*
G01X0100050Y0080820D02*
G01X0100050Y0082220D01*
G01X0095750Y0080470D02*
G01X0095650Y0080370D01*
G01X0095550Y0080370D02*
G01X0095750Y0080570D01*
G01X0095800Y0080720D02*
G01X0095900Y0080820D01*
G01X0096000Y0080820D02*
G01X0095800Y0080620D01*
G01X0098200Y0080270D02*
G01X0098200Y0079970D01*
G01X0098200Y0080270D02*
G01X0100300Y0080270D01*
G01X0098500Y0079970D02*
G01X0098200Y0079970D01*
G01X0098500Y0079970D02*
G01X0098500Y0080270D01*
G01X0098500Y0080220D02*
G01X0100350Y0080220D01*
G01X0100350Y0080220D02*
G01X0100350Y0082070D01*
G01X0100300Y0082170D02*
G01X0100300Y0080270D01*
G01X0100300Y0082170D02*
G01X0100750Y0082170D01*
G01X0100850Y0082070D02*
G01X0100350Y0082070D01*
G01X0100700Y0082170D02*
G01X0100700Y0082370D01*
G01X0100700Y0082270D02*
G01X0100600Y0082170D01*
G01X0100500Y0082170D02*
G01X0100700Y0082370D01*
G01X0100300Y0080370D02*
G01X0100200Y0080270D01*
G01X0100100Y0080270D02*
G01X0100300Y0080470D01*
G01X0098600Y0080220D02*
G01X0098500Y0080120D01*
G01X0098500Y0080020D02*
G01X0098700Y0080220D01*
G01X0098750Y0080220D02*
G01X0098500Y0079970D01*
G01X0103600Y0084620D02*
G01X0104600Y0084620D01*
G01X0104600Y0084620D02*
G01X0104600Y0086820D01*
G01X0104600Y0084720D02*
G01X0104500Y0084620D01*
G01X0104400Y0084620D02*
G01X0104600Y0084820D01*
G01X0104700Y0084020D02*
G01X0103600Y0084020D01*
G01X0104700Y0084020D02*
G01X0104700Y0085020D01*
G01X0104700Y0085020D02*
G01X0105200Y0085020D01*
G01X0105200Y0085020D02*
G01X0105200Y0085620D01*
G01X0105200Y0085620D02*
G01X0104600Y0085620D01*
G01X0104750Y0085620D02*
G01X0104750Y0086870D01*
G01X0104750Y0085720D02*
G01X0104850Y0085620D01*
G01X0104950Y0085620D02*
G01X0104750Y0085820D01*
G01X0104800Y0085020D02*
G01X0104700Y0084920D01*
G01X0104700Y0084820D02*
G01X0104900Y0085020D01*
G01X0104600Y0086720D02*
G01X0104500Y0086820D01*
G01X0104400Y0086820D02*
G01X0104600Y0086620D01*
G01X0105450Y0085620D02*
G01X0105450Y0085020D01*
G01X0106200Y0084020D02*
G01X0107150Y0084020D01*
G01X0106200Y0084020D02*
G01X0106200Y0085020D01*
G01X0106200Y0085020D02*
G01X0105450Y0085020D01*
G01X0106100Y0085020D02*
G01X0106200Y0084920D01*
G01X0106200Y0084820D02*
G01X0106000Y0085020D01*
G01X0106300Y0085620D02*
G01X0105450Y0085620D01*
G01X0106300Y0085620D02*
G01X0106300Y0084620D01*
G01X0106300Y0084620D02*
G01X0107150Y0084620D01*
G01X0106400Y0084620D02*
G01X0106300Y0084720D01*
G01X0106300Y0084820D02*
G01X0106500Y0084620D01*
G01X0112600Y0086870D02*
G01X0112700Y0086970D01*
G01X0112700Y0087070D02*
G01X0112500Y0086870D01*
G01X0112450Y0086870D02*
G01X0112700Y0087120D01*
G01X0108950Y0086820D02*
G01X0108850Y0086720D01*
G01X0108850Y0086620D02*
G01X0109050Y0086820D01*
G01X0095850Y0080170D02*
G01X0095800Y0080170D01*
G01X0095850Y0080170D02*
G01X0095850Y0080770D01*
G01X0095850Y0080770D02*
G01X0095900Y0080820D01*
G01X0103650Y0081920D02*
G01X0107450Y0081920D01*
G01X0107450Y0082070D02*
G01X0107450Y0083770D01*
G01X0107400Y0083970D02*
G01X0107400Y0082370D01*
G01X0107390Y0082060D02*
G01X0107290Y0081960D01*
G01X0107190Y0081960D02*
G01X0107390Y0082160D01*
G01X0105200Y0082420D02*
G01X0105200Y0084820D01*
G01X0105200Y0082420D02*
G01X0105550Y0082420D01*
G01X0105550Y0082420D02*
G01X0105550Y0084820D01*
G01X0105550Y0084820D02*
G01X0105200Y0084820D01*
G01X0102350Y0082070D02*
G01X0102350Y0081920D01*
G01X0102350Y0082370D02*
G01X0102650Y0082370D01*
G01X0102650Y0082370D02*
G01X0102650Y0081970D01*
G01X0102650Y0081970D02*
G01X0107400Y0081970D01*
G01X0107400Y0081970D02*
G01X0107400Y0082370D01*
G01X0107450Y0082070D02*
G01X0107450Y0081920D01*
G01X0102750Y0081970D02*
G01X0102650Y0082070D01*
G01X0102650Y0082170D02*
G01X0102850Y0081970D01*
G01X0100050Y0078320D02*
G01X0099850Y0078320D01*
G01X0100050Y0078320D02*
G01X0100050Y0078620D01*
G01X0100050Y0078620D02*
G01X0098500Y0078620D01*
G01X0098500Y0078620D02*
G01X0098500Y0076620D01*
G01X0098500Y0076620D02*
G01X0098850Y0076620D01*
G01X0098850Y0076620D02*
G01X0098850Y0078320D01*
G01X0098850Y0078320D02*
G01X0100050Y0078320D01*
G01X0098950Y0078320D02*
G01X0098850Y0078220D01*
G01X0098850Y0078120D02*
G01X0099050Y0078320D01*
G01X0098200Y0079920D02*
G01X0100350Y0079920D01*
G01X0098200Y0079920D02*
G01X0098200Y0079970D01*
G01X0100350Y0079920D02*
G01X0100350Y0080220D01*
G01X0092000Y0077220D02*
G01X0092000Y0076970D01*
G01X0092000Y0076970D02*
G01X0087800Y0076970D01*
G01X0087800Y0077020D02*
G01X0092000Y0077020D01*
G01X0087800Y0077020D02*
G01X0087800Y0076820D01*
G01X0088300Y0076820D02*
G01X0088300Y0077020D01*
G01X0088400Y0076970D02*
G01X0088300Y0076870D01*
G01X0088300Y0076820D02*
G01X0088450Y0076970D01*
G01X0091500Y0077020D02*
G01X0091500Y0077220D01*
G01X0091500Y0077120D02*
G01X0091400Y0077020D01*
G01X0091300Y0077020D02*
G01X0091500Y0077220D01*
G01X0090800Y0075320D02*
G01X0088300Y0075320D01*
G01X0088300Y0075370D02*
G01X0090750Y0075370D01*
G01X0087750Y0075020D02*
G01X0087750Y0074270D01*
G01X0088400Y0075370D02*
G01X0088300Y0075470D01*
G01X0088300Y0075570D02*
G01X0088500Y0075370D01*
G01X0088600Y0075370D02*
G01X0088300Y0075670D01*
G01X0094000Y0074970D02*
G01X0094000Y0077220D01*
G01X0093500Y0077720D02*
G01X0093500Y0075020D01*
G01X0094000Y0074970D02*
G01X0087750Y0074970D01*
G01X0087750Y0075020D02*
G01X0093500Y0075020D01*
G01X0093400Y0075020D02*
G01X0093500Y0075120D01*
G01X0093500Y0075220D02*
G01X0093300Y0075020D01*
G01X0088350Y0074270D02*
G01X0087750Y0074270D01*
G01X0088350Y0074270D02*
G01X0088350Y0074920D01*
G01X0088350Y0074870D02*
G01X0088450Y0074970D01*
G01X0088500Y0074970D02*
G01X0088350Y0074820D01*
G01X0090800Y0075320D02*
G01X0093000Y0075320D01*
G01X0092500Y0075370D02*
G01X0092500Y0077220D01*
G01X0092500Y0075370D02*
G01X0090750Y0075370D01*
G01X0092400Y0075370D02*
G01X0092500Y0075470D01*
G01X0092500Y0075570D02*
G01X0092300Y0075370D01*
G01X0093000Y0075320D02*
G01X0093000Y0077220D01*
G01X0098100Y0073970D02*
G01X0098200Y0074070D01*
G01X0098200Y0074170D02*
G01X0098000Y0073970D01*
G01X0091900Y0069520D02*
G01X0091800Y0069420D01*
G01X0091700Y0069420D02*
G01X0091900Y0069620D01*
G01X0093400Y0069870D02*
G01X0093400Y0070070D01*
G01X0093400Y0070070D02*
G01X0093400Y0070120D01*
G01X0093400Y0070120D02*
G01X0091250Y0070120D01*
G01X0092900Y0070070D02*
G01X0092900Y0069870D01*
G01X0092900Y0070070D02*
G01X0091100Y0070070D01*
G01X0092800Y0070070D02*
G01X0092900Y0069970D01*
G01X0092900Y0069870D02*
G01X0092700Y0070070D01*
G01X0091250Y0070120D02*
G01X0091250Y0072270D01*
G01X0091250Y0072270D02*
G01X0090650Y0072270D01*
G01X0090650Y0072270D02*
G01X0090650Y0071670D01*
G01X0091100Y0071670D02*
G01X0091100Y0070070D01*
G01X0091100Y0071670D02*
G01X0090650Y0071670D01*
G01X0091000Y0071670D02*
G01X0091100Y0071570D01*
G01X0091100Y0071470D02*
G01X0090900Y0071670D01*
G01X0091250Y0070220D02*
G01X0091350Y0070120D01*
G01X0091450Y0070120D02*
G01X0091250Y0070320D01*
G01X0112650Y0080520D02*
G01X0112650Y0082070D01*
G01X0112650Y0080520D02*
G01X0112050Y0080520D01*
G01X0112050Y0080520D02*
G01X0112050Y0082070D01*
G01X0112050Y0082070D02*
G01X0112650Y0082070D01*
G01X0112650Y0080270D02*
G01X0112650Y0078820D01*
G01X0112050Y0078820D02*
G01X0112050Y0080270D01*
G01X0112050Y0078820D02*
G01X0112650Y0078820D01*
G01X0112650Y0080270D02*
G01X0112050Y0080270D01*
G01X0113100Y0078820D02*
G01X0114050Y0078820D01*
G01X0113950Y0078820D02*
G01X0114050Y0078720D01*
G01X0114050Y0078620D02*
G01X0113850Y0078820D01*
G01X0113750Y0078820D02*
G01X0114050Y0078520D01*
G01X0113100Y0078820D02*
G01X0113100Y0081020D01*
G01X0113100Y0081020D02*
G01X0114050Y0081020D01*
G01X0113950Y0081020D02*
G01X0114050Y0081120D01*
G01X0114050Y0081220D02*
G01X0113850Y0081020D01*
G01X0113750Y0081020D02*
G01X0114050Y0081320D01*
G01X0113100Y0081770D02*
G01X0113100Y0082070D01*
G01X0113100Y0082070D02*
G01X0113750Y0082070D01*
G01X0113750Y0082070D02*
G01X0113750Y0081520D01*
G01X0113750Y0081520D02*
G01X0113100Y0081520D01*
G01X0113100Y0081520D02*
G01X0113100Y0081770D01*
G54D20*
G01X0112450Y0068270D03*
G01X0112350Y0074420D03*
G01X0091400Y0078770D03*
G01X0092250Y0078770D03*
G01X0097000Y0075170D03*
G01X0100750Y0089320D03*
G01X0095650Y0089420D03*
G01X0096800Y0082170D03*
G01X0092200Y0082170D03*
G01X0093000Y0078770D03*
G01X0096800Y0078770D03*
G01X0111900Y0072420D03*
G01X0111000Y0089320D03*
G01X0113650Y0084320D03*
G01X0112900Y0082570D03*
G01X0088150Y0078120D03*
G01X0103150Y0073120D03*
G01X0109300Y0083620D03*
G01X0107200Y0089320D03*
G01X0108150Y0072970D03*
G01X0111150Y0073370D03*
G01X0111150Y0075020D03*
G01X0111150Y0077470D03*
G01X0100150Y0073120D03*
G01X0101150Y0073120D03*
G01X0104150Y0078620D03*
G01X0104150Y0075270D03*
G01X0109800Y0082570D03*
G01X0108700Y0084970D03*
G01X0109800Y0081020D03*
G01X0110350Y0082570D03*
G01X0099850Y0076970D03*
G01X0093600Y0079320D03*
G01X0095300Y0079320D03*
G01X0098650Y0076770D03*
G01X0110550Y0077470D03*
G01X0110550Y0078720D03*
G01X0098350Y0079220D03*
G01X0113700Y0072370D03*
G01X0098350Y0080120D03*
G01X0105400Y0084620D03*
G01X0105400Y0082570D03*
G01X0099850Y0078470D03*
G01X0100800Y0073820D03*
G01X0101400Y0074170D03*
G01X0089550Y0075820D03*
G01X0089550Y0085520D03*
G01X0089550Y0086020D03*
G01X0089550Y0076320D03*
G01X0100150Y0085520D03*
G01X0100150Y0086020D03*
G01X0100150Y0075820D03*
G01X0100150Y0076320D03*
G54D22*
G01X0102050Y0080320D03*
G01X0103050Y0079820D03*
G01X0102050Y0079320D03*
G01X0102050Y0077320D03*
G01X0102050Y0076320D03*
G01X0103050Y0078820D03*
G01X0103050Y0076820D03*
G01X0103050Y0075820D03*
G01X0108650Y0080320D03*
G01X0109650Y0079820D03*
G01X0108650Y0079320D03*
G01X0108650Y0077320D03*
G01X0108650Y0076320D03*
G01X0109650Y0078820D03*
G01X0109650Y0076820D03*
G01X0109650Y0075820D03*
G01X0099150Y0089420D03*
G01X0104600Y0089420D03*
G01X0098150Y0089420D03*
G01X0103600Y0089420D03*
G01X0091500Y0083070D03*
G01X0096150Y0083070D03*
G01X0102750Y0085920D03*
G01X0111950Y0083270D03*
G01X0096050Y0077470D03*
G01X0094500Y0083070D03*
G01X0089600Y0072970D03*
G01X0090950Y0072970D03*
G01X0095150Y0073120D03*
G01X0088050Y0076570D03*
G01X0112350Y0076070D03*
G01X0088050Y0075570D03*
G01X0096050Y0074470D03*
G01X0113350Y0077070D03*
G01X0105150Y0073120D03*
G01X0097050Y0074470D03*
G01X0091500Y0082070D03*
G01X0096150Y0082070D03*
G01X0101750Y0085920D03*
G01X0112950Y0083270D03*
G01X0109950Y0089420D03*
G01X0110150Y0070620D03*
G01X0109150Y0070620D03*
G01X0103150Y0070620D03*
G01X0108150Y0070620D03*
G01X0106150Y0070620D03*
G01X0105150Y0070620D03*
G01X0104150Y0070620D03*
G01X0102150Y0070620D03*
G01X0101150Y0070620D03*
G01X0100150Y0070620D03*
G01X0098150Y0070620D03*
G01X0097150Y0070620D03*
G01X0096150Y0070620D03*
G01X0095150Y0070620D03*
G01X0094150Y0070620D03*
G01X0093150Y0070620D03*
G01X0111150Y0069620D03*
G01X0110150Y0069620D03*
G01X0108150Y0069620D03*
G01X0107150Y0069620D03*
G01X0106150Y0069620D03*
G01X0104150Y0069620D03*
G01X0103150Y0069620D03*
G01X0101150Y0069620D03*
G01X0100150Y0069620D03*
G01X0099150Y0069620D03*
G01X0098150Y0069620D03*
G01X0096150Y0069620D03*
G01X0105150Y0069620D03*
G01X0102150Y0069620D03*
G01X0099150Y0070620D03*
G01X0097150Y0069620D03*
G01X0095150Y0069620D03*
G01X0092150Y0070620D03*
G01X0109150Y0069620D03*
G01X0107150Y0070620D03*
G01X0094150Y0069620D03*
G01X0093150Y0069620D03*
G01X0092150Y0069620D03*
G01X0112350Y0078070D03*
G01X0113350Y0078070D03*
G01X0112350Y0077070D03*
G01X0113350Y0076070D03*
G01X0112350Y0075070D03*
G01X0110150Y0071970D03*
G01X0109150Y0071970D03*
G01X0103150Y0071970D03*
G01X0099150Y0071970D03*
G01X0092150Y0071970D03*
G01X0107150Y0071970D03*
G01X0108150Y0071970D03*
G01X0106150Y0071970D03*
G01X0105150Y0071970D03*
G01X0104150Y0071970D03*
G01X0102150Y0071970D03*
G01X0101150Y0071970D03*
G01X0100150Y0071970D03*
G01X0098150Y0071970D03*
G01X0097150Y0071970D03*
G01X0096150Y0071970D03*
G01X0095150Y0071970D03*
G01X0094150Y0071970D03*
G01X0093150Y0071970D03*
G01X0094150Y0068270D03*
G01X0102150Y0068270D03*
G01X0097150Y0068270D03*
G01X0095150Y0068270D03*
G01X0109150Y0068270D03*
G01X0105150Y0068270D03*
G01X0110150Y0068270D03*
G01X0108150Y0068270D03*
G01X0107150Y0068270D03*
G01X0106150Y0068270D03*
G01X0104150Y0068270D03*
G01X0103150Y0068270D03*
G01X0101150Y0068270D03*
G01X0100150Y0068270D03*
G01X0099150Y0068270D03*
G01X0098150Y0068270D03*
G01X0096150Y0068270D03*
G01X0093150Y0068270D03*
G01X0092150Y0068270D03*
G01X0111950Y0086270D03*
G01X0102750Y0082920D03*
G01X0099150Y0083070D03*
G01X0094500Y0089420D03*
G01X0093500Y0089420D03*
G01X0094500Y0087320D03*
G01X0094500Y0085320D03*
G01X0094500Y0086320D03*
G01X0091500Y0084320D03*
G01X0091500Y0085320D03*
G01X0091500Y0086320D03*
G01X0091500Y0087320D03*
G01X0091500Y0088320D03*
G01X0094500Y0088320D03*
G01X0091750Y0077470D03*
G01X0093750Y0077470D03*
G01X0092750Y0077470D03*
G01X0094750Y0074470D03*
G01X0093750Y0074470D03*
G01X0092750Y0074470D03*
G01X0091750Y0074470D03*
G01X0090750Y0074470D03*
G01X0090750Y0077470D03*
G01X0110950Y0087320D03*
G01X0110950Y0086320D03*
G01X0107950Y0084320D03*
G01X0110950Y0085320D03*
G01X0107950Y0085320D03*
G01X0107950Y0086320D03*
G01X0107950Y0087320D03*
G01X0107950Y0088320D03*
G01X0110950Y0088320D03*
G01X0106850Y0087320D03*
G01X0106850Y0085320D03*
G01X0106850Y0086320D03*
G01X0103850Y0084320D03*
G01X0103850Y0085320D03*
G01X0103850Y0086320D03*
G01X0103850Y0087320D03*
G01X0103850Y0088320D03*
G01X0106850Y0088320D03*
G01X0098450Y0073120D03*
G01X0099150Y0087320D03*
G01X0099150Y0085320D03*
G01X0099150Y0086320D03*
G01X0096150Y0084320D03*
G01X0096150Y0085320D03*
G01X0096150Y0086320D03*
G01X0096150Y0087320D03*
G01X0096150Y0088320D03*
G01X0099150Y0088320D03*
G01X0113350Y0079070D03*
G01X0113350Y0081770D03*
G01X0112350Y0079070D03*
G01X0089550Y0082420D03*
G01X0089550Y0081420D03*
G01X0089550Y0080420D03*
G54D25*
G01X0105850Y0075820D03*
G01X0105850Y0080320D03*
G54D28*
G01X0090150Y0070120D03*
G01X0090150Y0089420D03*
G01X0113150Y0089420D03*
G01X0113150Y0070120D03*
G54D33*
G01X0087300Y0068320D02*
G01X0087300Y0081620D01*
G01X0086950Y0067970D02*
G01X0091600Y0067970D01*
G01X0095600Y0082520D02*
G01X0095600Y0088970D01*
G01X0106250Y0088820D02*
G01X0106250Y0086120D01*
G01X0097900Y0079570D02*
G01X0097900Y0078120D01*
G54D34*
G01X0095320Y0080800D02*
G01X0091320Y0080800D01*
G01X0099820Y0084900D02*
G01X0100820Y0084900D01*
G01X0111620Y0082640D02*
G01X0111620Y0082000D01*
G01X0107080Y0078140D02*
G01X0102880Y0078140D01*
G01X0104680Y0085640D02*
G01X0104680Y0086800D01*
G01X0091180Y0072200D02*
G01X0091180Y0070140D01*
G54D36*
G01X0095100Y0087170D02*
G01X0095100Y0089620D01*
G01X0099750Y0089620D02*
G01X0099750Y0087170D01*
G01X0100800Y0084920D02*
G01X0100800Y0089520D01*
G01X0110300Y0085470D02*
G01X0110300Y0083520D01*
G01X0111300Y0081620D02*
G01X0104850Y0081620D01*
G01X0095700Y0080270D02*
G01X0092350Y0080270D01*
G54D37*
G01X0111880Y0071300D02*
G01X0111880Y0069840D01*
G01X0108780Y0073840D02*
G01X0108780Y0075640D01*
G01X0107820Y0082040D02*
G01X0111580Y0082040D01*
G01X0096820Y0078740D02*
G01X0092980Y0078740D01*
G01X0101380Y0080700D02*
G01X0101380Y0074740D01*
G01X0098120Y0073840D02*
G01X0095020Y0073840D01*
G01X0114220Y0071200D02*
G01X0114220Y0082900D01*
G54D39*
G01X0111850Y0068970D03*
G01X0112400Y0068970D03*
G01X0111800Y0073870D03*
G01X0112350Y0073870D03*
G01X0111550Y0078170D03*
G01X0111550Y0078720D03*
G01X0090800Y0082270D03*
G01X0090800Y0081720D03*
G01X0104150Y0076720D03*
G01X0110250Y0076670D03*
G01X0107550Y0079170D03*
G01X0110250Y0076120D03*
G01X0090300Y0080720D03*
G01X0090300Y0081270D03*
G01X0107550Y0078620D03*
G01X0104150Y0076170D03*
G01X0104150Y0079170D03*
G01X0104150Y0079720D03*
G01X0101350Y0077970D03*
G01X0101900Y0077970D03*
G01X0108050Y0075670D03*
G01X0108050Y0076220D03*
G01X0111650Y0075220D03*
G01X0111650Y0075770D03*
G01X0109650Y0075120D03*
G01X0109650Y0074570D03*
G01X0111350Y0072570D03*
G01X0111900Y0072570D03*
G01X0096850Y0083070D03*
G01X0097400Y0083070D03*
G01X0099350Y0081270D03*
G01X0099900Y0081270D03*
G01X0098450Y0083070D03*
G01X0097900Y0083070D03*
G01X0099900Y0082620D03*
G01X0099900Y0082070D03*
G01X0092200Y0083070D03*
G01X0092750Y0083070D03*
G01X0093800Y0083070D03*
G01X0093250Y0083070D03*
G01X0094700Y0081270D03*
G01X0095250Y0081270D03*
G01X0095250Y0082620D03*
G01X0095250Y0082070D03*
G01X0096050Y0076770D03*
G01X0096050Y0076220D03*
G01X0096050Y0075170D03*
G01X0096050Y0075720D03*
G01X0102750Y0083620D03*
G01X0102750Y0084170D03*
G01X0102750Y0084670D03*
G01X0102750Y0085220D03*
G01X0101000Y0082770D03*
G01X0101000Y0082220D03*
G01X0102500Y0082220D03*
G01X0101950Y0082220D03*
G01X0112950Y0087520D03*
G01X0112950Y0086970D03*
G01X0113600Y0086420D03*
G01X0113600Y0086970D03*
G01X0111950Y0085570D03*
G01X0111950Y0085020D03*
G01X0111950Y0084520D03*
G01X0111950Y0083970D03*
G01X0096800Y0078170D03*
G01X0097350Y0078170D03*
G01X0111700Y0077070D03*
G01X0111150Y0077070D03*
G01X0101350Y0078620D03*
G01X0101900Y0078620D03*
G01X0097850Y0077620D03*
G01X0097850Y0078170D03*
G01X0112350Y0080670D03*
G01X0112350Y0080120D03*
G54D40*
G01X0090800Y0080770D02*
G01X0090800Y0081720D01*
G01X0091400Y0080720D02*
G01X0091400Y0078720D01*
G01X0095250Y0080920D02*
G01X0095250Y0082070D01*
G01X0095250Y0082620D02*
G01X0095500Y0082620D01*
G01X0092250Y0080220D02*
G01X0092250Y0078720D01*
G01X0100850Y0082220D02*
G01X0101900Y0082220D01*
G01X0111900Y0085570D02*
G01X0112650Y0085570D01*
G01X0111850Y0087520D02*
G01X0111850Y0089520D01*
G01X0112850Y0086970D02*
G01X0113600Y0086970D01*
G01X0107450Y0074770D02*
G01X0103050Y0074770D01*
G01X0108800Y0073870D02*
G01X0111800Y0073870D01*
G01X0112350Y0073870D02*
G01X0112700Y0073870D01*
G01X0102250Y0074770D02*
G01X0101350Y0074770D01*
G01X0107550Y0074770D02*
G01X0107550Y0078620D01*
G01X0111700Y0082570D02*
G01X0112950Y0082570D01*
G01X0109800Y0082520D02*
G01X0109800Y0086420D01*
G01X0110350Y0083270D02*
G01X0110350Y0082520D01*
G01X0097850Y0078170D02*
G01X0097350Y0078170D01*
G01X0096800Y0078170D02*
G01X0088000Y0078170D01*
G01X0111550Y0078720D02*
G01X0111550Y0081570D01*
G01X0110550Y0078720D02*
G01X0110550Y0077470D01*
G01X0111150Y0077470D02*
G01X0111150Y0076970D01*
G01X0102400Y0078620D02*
G01X0101950Y0078620D01*
G01X0099900Y0080970D02*
G01X0099900Y0082070D01*
G01X0102500Y0082070D02*
G01X0102500Y0082220D01*
G01X0099900Y0078470D02*
G01X0098900Y0078470D01*
G54D42*
G01X0098480Y0082570D03*
G01X0097720Y0082570D03*
G01X0093080Y0082570D03*
G01X0093820Y0082570D03*
G01X0096700Y0076800D03*
G01X0096700Y0076040D03*
G01X0102200Y0084340D03*
G01X0102200Y0083600D03*
G01X0112600Y0085600D03*
G01X0112600Y0084840D03*
G54D43*
G01X0096720Y0076800D02*
G01X0096380Y0076800D01*
G01X0096980Y0075140D02*
G01X0097580Y0075140D01*
G01X0093820Y0082400D02*
G01X0093820Y0082740D01*
G01X0092180Y0082140D02*
G01X0092180Y0081540D01*
G01X0098480Y0082400D02*
G01X0098480Y0082740D01*
G01X0096820Y0082140D02*
G01X0096820Y0081540D01*
G01X0095620Y0089200D02*
G01X0095620Y0089440D01*
G01X0102220Y0083600D02*
G01X0102880Y0083600D01*
G01X0111920Y0071240D02*
G01X0114180Y0071240D01*
G01X0112320Y0074400D02*
G01X0109580Y0074400D01*
G01X0104120Y0078600D02*
G01X0104120Y0079140D01*
G01X0107280Y0081040D02*
G01X0109780Y0081040D01*
G01X0104120Y0076140D02*
G01X0104120Y0075340D01*
G01X0108680Y0085000D02*
G01X0108680Y0086700D01*
G01X0113620Y0072400D02*
G01X0113680Y0072400D01*
G01X0105380Y0082600D02*
G01X0105380Y0084640D01*
G01X0098680Y0078440D02*
G01X0098680Y0076800D01*
G01X0098380Y0080100D02*
G01X0100180Y0080100D01*
G54D44*
G01X0098100Y0081770D03*
G01X0093460Y0081770D03*
G54D47*
G01X0089550Y0085520D02*
G01X0089550Y0086020D01*
G01X0100150Y0076320D02*
G01X0100150Y0075820D01*
G01X0089550Y0075820D02*
G01X0089550Y0076320D01*
G01X0100150Y0085520D02*
G01X0100150Y0086020D01*
G01X0095300Y0079320D02*
G01X0093650Y0079320D01*
G54D50*
G01X0112480Y0069000D02*
G01X0112480Y0068240D01*
G01X0112380Y0076040D02*
G01X0111720Y0076040D01*
G54D52*
G01X0097500Y0076420D03*
G01X0101400Y0083960D03*
G01X0113400Y0085220D03*
G54D53*
G01X0110150Y0071970D02*
G01X0110150Y0070620D01*
G01X0109150Y0070620D02*
G01X0109150Y0071970D01*
G01X0107150Y0071970D02*
G01X0107150Y0070620D01*
G01X0106150Y0070620D02*
G01X0106150Y0071970D01*
G01X0105150Y0071970D02*
G01X0105150Y0070620D01*
G01X0104150Y0070620D02*
G01X0104150Y0071970D01*
G01X0103150Y0071970D02*
G01X0103150Y0070620D01*
G01X0099150Y0070620D02*
G01X0099150Y0071970D01*
G01X0098150Y0071970D02*
G01X0098150Y0070620D01*
G01X0097150Y0070620D02*
G01X0097150Y0071970D01*
G01X0096150Y0071970D02*
G01X0096150Y0070620D01*
G01X0095150Y0070620D02*
G01X0095150Y0071970D01*
G01X0094150Y0071970D02*
G01X0094150Y0070620D01*
G01X0093150Y0070620D02*
G01X0093150Y0071970D01*
G01X0092150Y0071970D02*
G01X0092150Y0070620D01*
G01X0096150Y0072520D02*
G01X0096150Y0073170D01*
G01X0097150Y0073170D02*
G01X0097150Y0072470D01*
G01X0096050Y0076870D02*
G01X0096050Y0077520D01*
G01X0109150Y0069620D03*
G01X0108150Y0069620D03*
G01X0107150Y0069620D03*
G01X0106150Y0069620D03*
G01X0105150Y0069620D03*
G01X0104150Y0069620D03*
G01X0103150Y0069620D03*
G01X0102150Y0069620D03*
G01X0101150Y0069620D03*
G01X0099150Y0069620D03*
G01X0098150Y0069620D03*
G01X0097150Y0069620D03*
G01X0096150Y0069620D03*
G01X0095150Y0069620D03*
G01X0094150Y0069620D03*
G01X0093150Y0069620D03*
G01X0092150Y0069620D03*
G01X0100150Y0069620D03*
G01X0109150Y0068270D03*
G01X0108150Y0068270D03*
G01X0107150Y0068270D03*
G01X0105150Y0068270D03*
G01X0102150Y0068270D03*
G01X0103150Y0068270D03*
G01X0104150Y0068270D03*
G01X0101150Y0068270D03*
G01X0100150Y0068270D03*
G01X0099150Y0068270D03*
G01X0098150Y0068270D03*
G01X0097150Y0068270D03*
G01X0096150Y0068270D03*
G01X0095150Y0068270D03*
G01X0094150Y0068270D03*
G01X0093150Y0068270D03*
G01X0092150Y0068270D03*
G01X0092100Y0083070D02*
G01X0091500Y0083070D01*
G01X0093900Y0083070D02*
G01X0094550Y0083070D01*
G01X0098550Y0083070D02*
G01X0099200Y0083070D01*
G01X0094950Y0087320D02*
G01X0094500Y0087320D01*
G01X0093500Y0086320D02*
G01X0093500Y0089470D01*
G01X0093500Y0086320D02*
G01X0094500Y0086320D01*
G01X0094500Y0085320D02*
G01X0092500Y0085320D01*
G01X0092500Y0085320D02*
G01X0092500Y0089470D01*
G01X0099150Y0087320D02*
G01X0099600Y0087320D01*
G01X0098150Y0086320D02*
G01X0098150Y0089470D01*
G01X0098150Y0086320D02*
G01X0099150Y0086320D01*
G01X0099150Y0085320D02*
G01X0097150Y0085320D01*
G01X0097150Y0085320D02*
G01X0097150Y0089470D01*
G01X0096750Y0083070D02*
G01X0096150Y0083070D01*
G01X0095150Y0073120D03*
G01X0098450Y0073120D03*
G01X0105150Y0073120D03*
G01X0094500Y0088320D03*
G01X0091500Y0088320D03*
G01X0091500Y0087320D03*
G01X0091500Y0086320D03*
G01X0091500Y0085320D03*
G01X0099150Y0088320D03*
G01X0096150Y0088320D03*
G01X0096150Y0087320D03*
G01X0096150Y0086320D03*
G01X0096150Y0085320D03*
G01X0096150Y0082070D03*
G01X0091500Y0082070D03*
G01X0089550Y0080420D03*
G01X0090750Y0074470D03*
G01X0091750Y0074470D03*
G01X0092750Y0074470D03*
G01X0093750Y0074470D03*
G01X0090750Y0077470D03*
G01X0106150Y0068270D03*
G01X0107950Y0088320D03*
G01X0107950Y0087320D03*
G01X0107950Y0086320D03*
G01X0107950Y0085320D03*
G01X0103850Y0088320D03*
G01X0103850Y0087320D03*
G01X0103850Y0086320D03*
G01X0103850Y0085320D03*
G01X0089600Y0072970D03*
G01X0090950Y0072970D03*
G01X0095150Y0073120D02*
G01X0095150Y0073720D01*
G01X0102750Y0085320D02*
G01X0102750Y0085870D01*
G01X0104150Y0073170D02*
G01X0104150Y0071920D01*
G01X0112000Y0071970D02*
G01X0112000Y0072420D01*
G01X0106850Y0088320D03*
G01X0106850Y0087320D03*
G01X0106850Y0086320D03*
G01X0106850Y0085320D03*
G01X0111950Y0086270D03*
G01X0110950Y0085320D03*
G01X0110950Y0087320D03*
G01X0110950Y0088320D03*
G01X0109950Y0089420D03*
G01X0104600Y0089420D03*
G01X0103600Y0089420D03*
G01X0088050Y0076570D03*
G01X0088050Y0075570D03*
G01X0091750Y0077470D03*
G01X0092750Y0077470D03*
G01X0093750Y0077470D03*
G01X0097050Y0074470D03*
G01X0111950Y0085670D02*
G01X0111950Y0086270D01*
G01X0108650Y0076320D02*
G01X0108100Y0076320D01*
G01X0109650Y0075820D02*
G01X0109650Y0075220D01*
G01X0101750Y0085920D03*
G01X0106450Y0086320D02*
G01X0106850Y0086320D01*
G01X0108150Y0073270D02*
G01X0108150Y0070620D01*
G01X0109650Y0074470D03*
G01X0109650Y0076820D02*
G01X0110150Y0076820D01*
G01X0113350Y0076870D02*
G01X0113350Y0077070D01*
G01X0112350Y0077070D02*
G01X0111850Y0077070D01*
G01X0101150Y0073170D02*
G01X0101150Y0070620D01*
G01X0100150Y0070620D02*
G01X0100150Y0073170D01*
G01X0103150Y0072670D02*
G01X0103150Y0074670D01*
G01X0107650Y0079320D02*
G01X0108650Y0079320D01*
G01X0102150Y0074620D02*
G01X0102150Y0070620D01*
G01X0111650Y0078070D02*
G01X0112350Y0078070D01*
G01X0104050Y0076820D02*
G01X0103050Y0076820D01*
G01X0110350Y0075070D02*
G01X0112350Y0075070D01*
G01X0107950Y0082170D02*
G01X0107950Y0084320D01*
G01X0109900Y0086320D02*
G01X0110950Y0086320D01*
G01X0110950Y0085320D02*
G01X0110450Y0085320D01*
G01X0104050Y0079820D02*
G01X0103050Y0079820D01*
G01X0108650Y0080320D02*
G01X0108900Y0080320D01*
G01X0108900Y0077320D02*
G01X0108650Y0077320D01*
G01X0109650Y0079820D02*
G01X0109900Y0079820D01*
G01X0102050Y0077870D02*
G01X0102050Y0077320D01*
G01X0102050Y0076320D03*
G01X0102050Y0079320D03*
G01X0103050Y0075820D03*
G01X0109650Y0078820D03*
G01X0113350Y0076070D03*
G01X0113350Y0078070D02*
G01X0113600Y0078070D01*
G01X0091750Y0077470D02*
G01X0091750Y0077270D01*
G01X0088050Y0076770D02*
G01X0088050Y0076570D01*
G01X0093750Y0077470D02*
G01X0093750Y0075220D01*
G01X0092750Y0075570D02*
G01X0092750Y0077470D01*
G01X0097050Y0074470D02*
G01X0097500Y0074470D01*
G01X0093150Y0069870D02*
G01X0093150Y0069620D01*
G01X0102050Y0080320D02*
G01X0102300Y0080320D01*
G54D54*
G01X0096080Y0075040D02*
G01X0096080Y0074500D01*
G01X0090120Y0081400D02*
G01X0087520Y0081400D01*
G01X0087180Y0082400D02*
G01X0090680Y0082400D01*
G01X0099180Y0082100D02*
G01X0099180Y0081400D01*
G01X0094920Y0089440D02*
G01X0094520Y0089440D01*
G01X0099180Y0089440D02*
G01X0099580Y0089440D01*
G01X0094520Y0082100D02*
G01X0094520Y0081400D01*
G01X0102780Y0082940D02*
G01X0102780Y0083500D01*
G01X0111980Y0087640D02*
G01X0112820Y0087640D01*
G01X0097720Y0077500D02*
G01X0097020Y0077500D01*
G01X0107180Y0089300D02*
G01X0107180Y0089340D01*
G01X0103080Y0078800D02*
G01X0103080Y0078340D01*
G01X0088080Y0074740D02*
G01X0088080Y0074540D01*
G01X0113380Y0081800D02*
G01X0113480Y0081800D01*
G54D58*
G01X0098050Y0084320D03*
G01X0097200Y0084320D03*
G01X0093400Y0084320D03*
G01X0092550Y0084320D03*
G01X0094750Y0075520D03*
G01X0094750Y0076370D03*
G01X0105750Y0085320D03*
G01X0104900Y0085320D03*
G01X0108800Y0083570D03*
G01X0107950Y0083570D03*
G01X0097150Y0089420D03*
G01X0102600Y0089420D03*
G01X0108950Y0089420D03*
G01X0094500Y0082070D03*
G01X0099150Y0082070D03*
G01X0101750Y0082920D03*
G01X0112950Y0086270D03*
G01X0088050Y0074570D03*
G01X0097050Y0077470D03*
G01X0104150Y0073120D03*
G01X0096150Y0073120D03*
G01X0090950Y0071970D03*
G01X0089600Y0071970D03*
G01X0111150Y0070620D03*
G01X0113350Y0075070D03*
G01X0111150Y0071970D03*
G01X0111150Y0068270D03*
G01X0092500Y0089420D03*
G01X0094500Y0084320D03*
G01X0094750Y0077470D03*
G01X0110950Y0084320D03*
G01X0106850Y0084320D03*
G01X0097450Y0073120D03*
G01X0099150Y0084320D03*
G01X0112350Y0081770D03*
G01X0089550Y0079420D03*
G54D59*
G01X0094750Y0075520D02*
G01X0094750Y0074520D01*
G01X0094750Y0076370D02*
G01X0094750Y0077470D01*
G01X0097450Y0076670D02*
G01X0097450Y0075620D01*
G01X0090650Y0079420D02*
G01X0089550Y0079420D01*
G01X0091550Y0084320D02*
G01X0092500Y0084320D01*
G01X0093400Y0084320D02*
G01X0094500Y0084320D01*
G01X0093700Y0081670D02*
G01X0092650Y0081670D01*
G01X0098050Y0084320D02*
G01X0099150Y0084320D01*
G01X0098350Y0081670D02*
G01X0097300Y0081670D01*
G01X0097200Y0084320D02*
G01X0096200Y0084320D01*
G01X0100050Y0084670D02*
G01X0100050Y0082770D01*
G01X0100400Y0089320D02*
G01X0100600Y0089320D01*
G01X0101000Y0082920D02*
G01X0101750Y0082920D01*
G01X0113000Y0086270D02*
G01X0113450Y0086270D01*
G01X0088150Y0078020D02*
G01X0088150Y0077670D01*
G01X0111150Y0073220D02*
G01X0111150Y0070670D01*
G01X0104400Y0084320D02*
G01X0103900Y0084320D01*
G01X0105750Y0085320D02*
G01X0106000Y0085320D01*
G01X0106500Y0084320D02*
G01X0106850Y0084320D01*
G01X0112350Y0079970D02*
G01X0112350Y0079120D01*
G01X0112350Y0080820D02*
G01X0112350Y0081770D01*
G54D60*
G01X0111680Y0089340D02*
G01X0111020Y0089340D01*
G54D64*
G01X0113080Y0083400D02*
G01X0113980Y0083400D01*
G01X0111980Y0083400D02*
G01X0111980Y0083740D01*
G54D66*
G01X0096500Y0075970D02*
G01X0096200Y0075970D01*
G01X0090550Y0079520D02*
G01X0090550Y0080470D01*
G01X0093000Y0082620D02*
G01X0093000Y0082920D01*
G01X0097650Y0082920D02*
G01X0097650Y0082620D01*
G01X0102450Y0084420D02*
G01X0102600Y0084420D01*
G01X0112000Y0084770D02*
G01X0112350Y0084770D01*
G54D69*
G01X0108980Y0084100D02*
G01X0108980Y0083800D01*
G54D70*
G01X0113620Y0080500D02*
G01X0113620Y0079340D01*
G54D71*
G01X0108320Y0075200D02*
G01X0107980Y0075200D01*
G54D72*
G01X0113750Y0084570D02*
G01X0113750Y0085120D01*
G01X0110700Y0075720D02*
G01X0110700Y0075420D01*
G54D76*
G01X0110820Y0068940D02*
G01X0111080Y0068940D01*
M02*
