M71
M48
T1F00S00C0.762
T2F00S00C1.016
T3F00S00C2.032
T4F00S00C3.556
%
T01
X0067183Y0001778
X0032131Y0023368
X0031369Y0029591
Y0031877
X0027432Y0028448
X0023622Y0029845
X0019304
X001778Y0028448
X0015875
X0013716
X0005461Y0026797
X0009017Y0022225
Y0020955
X002794Y0019304
X0027432Y0037084
X0015748
X0009017Y0045593
Y0046863
X0035941
Y0045593
X0049276Y0043307
Y00381
X0060452
X0061849
X0059182Y0040767
X0057658Y0044196
X0060452Y0034163
X0062357Y0028321
Y0025146
X0063881
Y0018923
Y0014732
X0065786Y0012319
X0070358Y0012192
X0066929Y0017399
X0056261Y0013716
X0043561Y0014097
X0038481
X0035941
X0037592Y0015875
X0039116Y0016764
X0035941Y0020955
Y0022225
X0035179Y0023876
Y0027686
X0046101Y0028067
Y0019558
X0068326Y00381
X0070231Y0042545
X00635Y0055245
X0053848
X0037465
X0024511Y0055499
T02
X0035941Y0001778
X0038481
X0041021
X0043561
X0046101
X0048641
X0051181
X0053721
X0056261
X0058801
X0061341
X0063881
Y0005207
Y0007747
X0061341
X0058801
X0056261
Y0005207
X0053721
X0051181
Y0007747
X0048641
X0046101
X0043561
X0041021
X0038481
X0035941
Y0005207
X0038481
X0041021
X0043561
X0046101
X0048641
X0053721Y0007747
X0058801Y0005207
X0061341
X0033401
X0030861
Y0007747
X0028321
X0025781
X0023241
X0020701
X0018161
X0015621
Y0005207
X0018161
X0020701
X0023241
X0025781
X0028321
Y0001778
X0030861
X0033401
Y0007747
X0025781Y0001778
X0023241
X0020701
X0018161
X0015621
Y0011176
X0018161
X0020701
X0023241
X0025781
X0028321
X0030861
X0033401
X0031623Y0014097
X0029083
X0025781
X0023241
X0022225Y0017526
X0019685
X0017145
X0014605
X0012065
X0012573Y0013716
Y0011176
X0009144
Y0013716
X0005207Y001778
Y002032
Y002286
X0012065Y0025146
X0014605
X0017145
X0019685
X0022225
X0025527
X0028067
Y0017526
X0025527
X0025781Y003683
Y003937
Y0042545
Y0045085
Y0047625
X002159
Y0045085
Y0042545
Y003937
Y003683
X001397
Y003937
Y0042545
Y0045085
Y0047625
X0009017Y0037719
Y0035179
Y0032639
Y0030099
X0033401Y003683
Y003937
Y0042545
Y0045085
Y0047625
X0040005Y0046609
X0042545
X0045339Y0047625
Y0045085
Y0042545
X0042545Y0038989
X0040005
X0040767Y0032385
Y0029845
X0043307Y0031115
Y0028575
Y0023495
Y0020955
X0040767Y0022225
Y0024765
X0041021Y0011176
X0043561
X0046101
X0048641
X0051181
X0053721
X0056261
X0058801
X0061341
X0063881
X0066929Y001905
Y002159
Y002413
X0069469
Y002667
X0066929
Y002921
X0069469
Y0036068
X0066929
X0065913Y0039878
X0068453
Y0047498
X0065913
X0063373Y0047625
Y0045085
Y0042545
X0055753
Y0045085
Y0047625
X0052959
Y0045085
Y0042545
X0057531Y0032385
Y0029845
X0060071Y0031115
Y0028575
Y0023495
Y0020955
X0057531Y0022225
Y0024765
X0069469Y002159
Y001905
X0048641Y0014097
X0046101
X0038481Y0011176
X0035941
X0045339Y0050165
Y0052705
X0044704Y0055499
X0047244
X0042164
X0052959Y0052705
Y0050165
X0055753
Y0052705
X0058293Y0055499
X0060833
X0063373Y0052705
Y0050165
X0033401
Y0052705
Y0055499
X0030861
X0028321
X0025781Y0052705
Y0050165
X002159
Y0052705
Y0055499
X001905
X001651
X001397Y0052705
Y0050165
T03
X0050419Y0020955
Y0032385
T04
X0068961Y0006477
X0010541
X0068961Y0055499
X0010541
M30
