*%FSLAX23Y23*%
*%MOIN*%
G01*
%ADD11C,0.001*%
%ADD12C,0.006*%
%ADD13C,0.007*%
%ADD14C,0.007*%
%ADD15C,0.008*%
%ADD16C,0.010*%
%ADD17C,0.012*%
%ADD18C,0.015*%
%ADD19C,0.020*%
%ADD20C,0.030*%
%ADD21C,0.040*%
%ADD22C,0.048*%
%ADD23C,0.060*%
%ADD24C,0.068*%
%ADD25C,0.070*%
%ADD26C,0.080*%
%ADD27C,0.088*%
%ADD28C,0.120*%
%ADD29C,0.140*%
%ADD30C,0.148*%
%ADD31C,0.180*%
%ADD32R,0.005X0.005*%
%ADD33R,0.009X0.009*%
%ADD34R,0.010X0.010*%
%ADD35R,0.015X0.015*%
%ADD36R,0.019X0.019*%
%ADD37R,0.020X0.020*%
%ADD38R,0.025X0.025*%
%ADD39R,0.029X0.029*%
%ADD40R,0.030X0.030*%
%ADD41R,0.030X0.030*%
%ADD42R,0.034X0.034*%
%ADD43R,0.035X0.035*%
%ADD44R,0.035X0.035*%
%ADD45R,0.035X0.050*%
%ADD46R,0.038X0.038*%
%ADD47R,0.039X0.039*%
%ADD48R,0.040X0.040*%
%ADD49R,0.043X0.043*%
%ADD50R,0.043X0.058*%
%ADD51R,0.045X0.045*%
%ADD52R,0.049X0.049*%
%ADD53R,0.050X0.035*%
%ADD54R,0.050X0.050*%
%ADD55R,0.055X0.055*%
%ADD56R,0.058X0.043*%
%ADD57R,0.059X0.059*%
%ADD58R,0.060X0.050*%
%ADD59R,0.060X0.060*%
%ADD60R,0.060X0.060*%
%ADD61R,0.065X0.065*%
%ADD62R,0.068X0.058*%
%ADD63R,0.068X0.068*%
%ADD64R,0.070X0.070*%
%ADD65R,0.075X0.075*%
%ADD66R,0.079X0.079*%
%ADD67R,0.080X0.080*%
%ADD68R,0.085X0.085*%
%ADD69R,0.090X0.090*%
%ADD70R,0.095X0.095*%
%ADD71R,0.105X0.105*%
%ADD72R,0.115X0.115*%
%ADD73R,0.120X0.120*%
%ADD74R,0.125X0.125*%
%ADD75R,0.140X0.140*%
%ADD76R,0.155X0.155*%
%ADD77R,0.185X0.185*%
D11*
X8756Y7156D02*
X8789D01*
Y7155D02*
X8756D01*
Y7154D02*
X8789D01*
Y7153D02*
X8756D01*
X8755Y7152D02*
X8790D01*
Y7151D02*
X8755D01*
Y7150D02*
X8790D01*
Y7149D02*
X8755D01*
Y7148D02*
X8790D01*
Y7147D02*
X8755D01*
X8754Y7146D02*
X8791D01*
Y7145D02*
X8754D01*
Y7144D02*
X8791D01*
Y7143D02*
X8754D01*
Y7142D02*
X8791D01*
Y7141D02*
X8754D01*
Y7140D02*
X8791D01*
X8792Y7139D02*
X8753D01*
Y7138D02*
X8792D01*
Y7137D02*
X8753D01*
Y7136D02*
X8792D01*
X8793Y7135D02*
X8752D01*
X8707Y7134D02*
X8703D01*
X8752D02*
X8793D01*
X8838D02*
X8842D01*
X8709Y7133D02*
X8702D01*
X8752D02*
X8793D01*
X8836D02*
X8843D01*
X8711Y7132D02*
X8701D01*
X8752D02*
X8793D01*
X8834D02*
X8844D01*
X8712Y7131D02*
X8700D01*
X8752D02*
X8793D01*
X8833D02*
X8845D01*
X8713Y7130D02*
X8699D01*
X8751D02*
X8794D01*
X8832D02*
X8846D01*
X8715Y7129D02*
X8698D01*
X8751D02*
X8794D01*
X8830D02*
X8847D01*
X8716Y7128D02*
X8697D01*
X8751D02*
X8794D01*
X8829D02*
X8848D01*
X8718Y7127D02*
X8696D01*
X8751D02*
X8794D01*
X8827D02*
X8849D01*
X8719Y7126D02*
X8695D01*
X8749D02*
X8796D01*
X8826D02*
X8850D01*
X8721Y7125D02*
X8694D01*
X8747D02*
X8798D01*
X8824D02*
X8851D01*
X8722Y7124D02*
X8693D01*
X8745D02*
X8800D01*
X8823D02*
X8852D01*
X8723Y7123D02*
X8692D01*
X8742D02*
X8803D01*
X8822D02*
X8853D01*
X8725Y7122D02*
X8691D01*
X8740D02*
X8805D01*
X8820D02*
X8854D01*
X8726Y7121D02*
X8690D01*
X8737D02*
X8808D01*
X8819D02*
X8855D01*
X8728Y7120D02*
X8689D01*
X8735D02*
X8810D01*
X8817D02*
X8856D01*
X8729Y7119D02*
X8688D01*
X8732D02*
X8813D01*
X8816D02*
X8857D01*
X8858Y7118D02*
X8687D01*
X8686Y7117D02*
X8859D01*
X8860Y7116D02*
X8685D01*
X8684Y7115D02*
X8861D01*
X8862Y7114D02*
X8683D01*
Y7113D02*
X8862D01*
Y7112D02*
X8683D01*
X8684Y7111D02*
X8861D01*
X8860Y7110D02*
X8685D01*
Y7109D02*
X8860D01*
X8859Y7108D02*
X8686D01*
X8687Y7107D02*
X8858D01*
Y7106D02*
X8687D01*
X8688Y7105D02*
X8857D01*
X8856Y7104D02*
X8689D01*
Y7103D02*
X8856D01*
X8855Y7102D02*
X8690D01*
X8691Y7101D02*
X8854D01*
Y7100D02*
X8691D01*
X8692Y7099D02*
X8853D01*
X8852Y7098D02*
X8693D01*
X8694Y7097D02*
X8851D01*
Y7096D02*
X8694D01*
X8695Y7095D02*
X8850D01*
X8849Y7093D02*
X8696D01*
X8697Y7092D02*
X8848D01*
X8847Y7091D02*
X8698D01*
Y7090D02*
X8847D01*
X8846Y7089D02*
X8699D01*
X8700Y7088D02*
X8845D01*
X8846Y7087D02*
X8699D01*
Y7086D02*
X8846D01*
X8847Y7085D02*
X8698D01*
Y7084D02*
X8847D01*
X8848Y7083D02*
X8697D01*
Y7082D02*
X8848D01*
Y7081D02*
X8697D01*
X8696Y7080D02*
X8849D01*
Y7079D02*
X8696D01*
X8695Y7078D02*
X8850D01*
Y7077D02*
X8695D01*
Y7076D02*
X8850D01*
X8768Y7075D02*
X8694D01*
X8777D02*
X8851D01*
X8764Y7074D02*
X8694D01*
X8781D02*
X8851D01*
X8761Y7073D02*
X8693D01*
X8784D02*
X8852D01*
X8759Y7072D02*
X8693D01*
X8786D02*
X8852D01*
X8756Y7071D02*
X8692D01*
X8789D02*
X8853D01*
X8755Y7070D02*
X8692D01*
X8790D02*
X8853D01*
X8754Y7069D02*
X8691D01*
X8791D02*
X8854D01*
X8753Y7068D02*
X8691D01*
X8792D02*
X8854D01*
X8752Y7067D02*
X8690D01*
X8793D02*
X8855D01*
X8750Y7066D02*
X8685D01*
X8795D02*
X8860D01*
X8750Y7065D02*
X8679D01*
X8795D02*
X8866D01*
X8749Y7064D02*
X8674D01*
X8796D02*
X8871D01*
X8748Y7063D02*
X8669D01*
X8797D02*
X8876D01*
X8747Y7062D02*
X8665D01*
X8798D02*
X8880D01*
X8747Y7061D02*
X8661D01*
X8798D02*
X8884D01*
X8746Y7060D02*
X8661D01*
X8799D02*
X8884D01*
X8746Y7059D02*
X8661D01*
X8799D02*
X8884D01*
X8745Y7058D02*
X8661D01*
X8800D02*
X8884D01*
X8745Y7057D02*
X8661D01*
X8800D02*
X8884D01*
X8744Y7056D02*
X8661D01*
X8801D02*
X8884D01*
X8744Y7055D02*
X8661D01*
X8801D02*
X8884D01*
X8744Y7054D02*
X8661D01*
X8801D02*
X8884D01*
X8743Y7053D02*
X8661D01*
X8802D02*
X8884D01*
X8743Y7052D02*
X8661D01*
X8802D02*
X8884D01*
X8743Y7051D02*
X8661D01*
X8802D02*
X8884D01*
X8743Y7050D02*
X8661D01*
X8802D02*
X8884D01*
X8743Y7049D02*
X8661D01*
X8802D02*
X8884D01*
X8743Y7048D02*
X8661D01*
X8802D02*
X8884D01*
X8743Y7047D02*
X8661D01*
X8802D02*
X8884D01*
X8743Y7046D02*
X8661D01*
X8802D02*
X8884D01*
X8743Y7045D02*
X8661D01*
X8802D02*
X8884D01*
X8743Y7044D02*
X8661D01*
X8802D02*
X8884D01*
X8743Y7043D02*
X8661D01*
X8802D02*
X8884D01*
X8743Y7042D02*
X8661D01*
X8802D02*
X8884D01*
X8743Y7041D02*
X8661D01*
X8802D02*
X8884D01*
X8743Y7040D02*
X8661D01*
X8802D02*
X8884D01*
X8743Y7039D02*
X8661D01*
X8802D02*
X8884D01*
X8743Y7038D02*
X8661D01*
X8802D02*
X8884D01*
X8743Y7037D02*
X8661D01*
X8802D02*
X8884D01*
X8744Y7036D02*
X8661D01*
X8801D02*
X8884D01*
X8744Y7035D02*
X8661D01*
X8801D02*
X8884D01*
X8744Y7034D02*
X8661D01*
X8801D02*
X8884D01*
X8745Y7033D02*
X8661D01*
X8800D02*
X8884D01*
X8746Y7032D02*
X8661D01*
X8799D02*
X8884D01*
X8746Y7031D02*
X8661D01*
X8799D02*
X8884D01*
X8747Y7030D02*
X8662D01*
X8798D02*
X8883D01*
X8747Y7029D02*
X8665D01*
X8798D02*
X8880D01*
X8748Y7028D02*
X8670D01*
X8797D02*
X8875D01*
X8748Y7027D02*
X8674D01*
X8797D02*
X8871D01*
X8749Y7026D02*
X8679D01*
X8796D02*
X8866D01*
X8750Y7025D02*
X8685D01*
X8795D02*
X8860D01*
X8751Y7024D02*
X8690D01*
X8794D02*
X8855D01*
X8752Y7023D02*
X8690D01*
X8793D02*
X8855D01*
X8753Y7022D02*
X8691D01*
X8792D02*
X8854D01*
X8755Y7021D02*
X8691D01*
X8790D02*
X8854D01*
X8756Y7020D02*
X8691D01*
X8789D02*
X8854D01*
X8757Y7019D02*
X8692D01*
X8788D02*
X8853D01*
X8759Y7018D02*
X8692D01*
X8786D02*
X8853D01*
X8761Y7017D02*
X8693D01*
X8784D02*
X8852D01*
X8761Y7016D02*
X8693D01*
X8784D02*
X8852D01*
X8761Y7015D02*
X8694D01*
X8784D02*
X8851D01*
X8761Y7014D02*
X8694D01*
X8784D02*
X8851D01*
X8761Y7013D02*
X8695D01*
X8784D02*
X8850D01*
X8760Y7012D02*
X8695D01*
X8785D02*
X8850D01*
X8760Y7011D02*
X8695D01*
X8785D02*
X8850D01*
X8759Y7010D02*
X8696D01*
X8786D02*
X8849D01*
X8759Y7009D02*
X8696D01*
X8786D02*
X8849D01*
X8759Y7008D02*
X8696D01*
X8786D02*
X8849D01*
X8758Y7007D02*
X8697D01*
X8787D02*
X8848D01*
X8758Y7006D02*
X8697D01*
X8787D02*
X8848D01*
X8757Y7005D02*
X8698D01*
X8788D02*
X8847D01*
X8757Y7004D02*
X8698D01*
X8788D02*
X8847D01*
X8756Y7003D02*
X8698D01*
X8789D02*
X8847D01*
X8756Y7002D02*
X8699D01*
X8789D02*
X8846D01*
X8755Y7001D02*
X8698D01*
X8790D02*
X8847D01*
X8755Y7000D02*
X8698D01*
X8790D02*
X8847D01*
X8755Y6999D02*
X8697D01*
X8790D02*
X8848D01*
X8754Y6998D02*
X8696D01*
X8791D02*
X8849D01*
X8754Y6997D02*
X8696D01*
X8791D02*
X8849D01*
X8753Y6996D02*
X8695D01*
X8792D02*
X8850D01*
X8753Y6995D02*
X8694D01*
X8792D02*
X8851D01*
X8753Y6994D02*
X8693D01*
X8792D02*
X8852D01*
X8752Y6993D02*
X8693D01*
X8793D02*
X8852D01*
X8752Y6992D02*
X8692D01*
X8793D02*
X8853D01*
X8751Y6991D02*
X8691D01*
X8794D02*
X8854D01*
X8751Y6990D02*
X8691D01*
X8794D02*
X8854D01*
X8750Y6989D02*
X8690D01*
X8795D02*
X8855D01*
X8750Y6988D02*
X8689D01*
X8795D02*
X8856D01*
X8750Y6987D02*
X8689D01*
X8795D02*
X8856D01*
X8749Y6986D02*
X8688D01*
X8796D02*
X8857D01*
X8749Y6985D02*
X8687D01*
X8796D02*
X8858D01*
X8749Y6984D02*
X8687D01*
X8796D02*
X8858D01*
X8748Y6983D02*
X8686D01*
X8797D02*
X8859D01*
X8748Y6982D02*
X8685D01*
X8797D02*
X8860D01*
X8747Y6981D02*
X8685D01*
X8798D02*
X8860D01*
X8747Y6980D02*
X8684D01*
X8798D02*
X8861D01*
X8746Y6979D02*
X8683D01*
X8799D02*
X8862D01*
X8746Y6978D02*
X8683D01*
X8799D02*
X8862D01*
X8746Y6977D02*
X8683D01*
X8799D02*
X8862D01*
X8745Y6976D02*
X8684D01*
X8800D02*
X8861D01*
X8745Y6975D02*
X8685D01*
X8800D02*
X8860D01*
X8744Y6974D02*
X8686D01*
X8801D02*
X8859D01*
X8744Y6973D02*
X8687D01*
X8801D02*
X8858D01*
X8743Y6972D02*
X8688D01*
X8802D02*
X8857D01*
X8728Y6971D02*
X8689D01*
X8729D02*
X8743D01*
X8802D02*
X8816D01*
X8817D02*
X8856D01*
X8726Y6970D02*
X8690D01*
X8731D02*
X8743D01*
X8802D02*
X8814D01*
X8819D02*
X8855D01*
X8725Y6969D02*
X8691D01*
X8734D02*
X8742D01*
X8803D02*
X8811D01*
X8820D02*
X8854D01*
X8723Y6968D02*
X8692D01*
X8735D02*
X8742D01*
X8803D02*
X8810D01*
X8822D02*
X8853D01*
X8722Y6967D02*
X8693D01*
X8737D02*
X8741D01*
X8804D02*
X8808D01*
X8823D02*
X8852D01*
X8720Y6966D02*
X8694D01*
X8739D02*
X8740D01*
X8805D02*
X8806D01*
X8825D02*
X8851D01*
X8719Y6965D02*
X8695D01*
X8826D02*
X8850D01*
X8717Y6964D02*
X8696D01*
X8828D02*
X8849D01*
X8716Y6963D02*
X8697D01*
X8829D02*
X8848D01*
X8715Y6962D02*
X8698D01*
X8830D02*
X8847D01*
X8713Y6961D02*
X8699D01*
X8832D02*
X8846D01*
X8712Y6960D02*
X8700D01*
X8833D02*
X8845D01*
X8710Y6959D02*
X8701D01*
X8835D02*
X8844D01*
X8709Y6958D02*
X8702D01*
X8836D02*
X8843D01*
X8707Y6957D02*
X8703D01*
X8838D02*
X8842D01*
X8647Y6934D02*
X8637D01*
X8659D02*
X8666D01*
X8669D02*
X8678D01*
X8695D02*
X8704D01*
X8716D02*
X8724D01*
X8726D02*
X8735D01*
X8765D02*
X8776D01*
X8793D02*
X8803D01*
X8814D02*
X8822D01*
X8832D02*
X8840D01*
X8845D02*
X8852D01*
X8855D02*
X8863D01*
X8873D02*
X8883D01*
X8898D02*
X8907D01*
X8649Y6933D02*
X8635D01*
X8659D02*
X8666D01*
X8667D02*
X8679D01*
X8693D02*
X8706D01*
X8716D02*
X8724D01*
X8725D02*
X8736D01*
X8763D02*
X8778D01*
X8791D02*
X8805D01*
X8814D02*
X8822D01*
X8832D02*
X8840D01*
X8845D02*
X8852D01*
X8853D02*
X8866D01*
X8871D02*
X8885D01*
X8896D02*
X8909D01*
X8650Y6932D02*
X8634D01*
X8659D02*
X8680D01*
X8692D02*
X8708D01*
X8716D02*
X8738D01*
X8761D02*
X8780D01*
X8790D02*
X8806D01*
X8814D02*
X8822D01*
X8832D02*
X8840D01*
X8845D02*
X8866D01*
X8870D02*
X8887D01*
X8895D02*
X8911D01*
X8651Y6931D02*
X8633D01*
X8659D02*
X8681D01*
X8691D02*
X8709D01*
X8716D02*
X8739D01*
X8760D02*
X8782D01*
X8789D02*
X8807D01*
X8814D02*
X8822D01*
X8832D02*
X8840D01*
X8845D02*
X8866D01*
X8869D02*
X8888D01*
X8894D02*
X8912D01*
X8652Y6930D02*
X8632D01*
X8659D02*
X8682D01*
X8690D02*
X8710D01*
X8716D02*
X8740D01*
X8760D02*
X8782D01*
X8788D02*
X8808D01*
X8814D02*
X8822D01*
X8832D02*
X8840D01*
X8845D02*
X8865D01*
X8868D02*
X8889D01*
X8893D02*
X8913D01*
X8653Y6929D02*
X8631D01*
X8659D02*
X8683D01*
X8689D02*
X8710D01*
X8716D02*
X8740D01*
X8759D02*
X8782D01*
X8787D02*
X8809D01*
X8814D02*
X8822D01*
X8832D02*
X8840D01*
X8845D02*
X8864D01*
X8867D02*
X8890D01*
X8892D02*
X8914D01*
X8654Y6928D02*
X8631D01*
X8659D02*
X8683D01*
X8689D02*
X8711D01*
X8716D02*
X8741D01*
X8758D02*
X8781D01*
X8786D02*
X8809D01*
X8814D02*
X8822D01*
X8832D02*
X8840D01*
X8845D02*
X8863D01*
X8866D02*
X8890D01*
X8892D02*
X8914D01*
X8641Y6927D02*
X8630D01*
X8644D02*
X8654D01*
X8659D02*
X8669D01*
X8674D02*
X8684D01*
X8688D02*
X8697D01*
X8702D02*
X8712D01*
X8716D02*
X8727D01*
X8731D02*
X8741D01*
X8758D02*
X8767D01*
X8774D02*
X8780D01*
X8786D02*
X8796D01*
X8799D02*
X8810D01*
X8814D02*
X8822D01*
X8832D02*
X8840D01*
X8845D02*
X8855D01*
X8859D02*
X8863D01*
X8866D02*
X8876D01*
X8881D02*
X8888D01*
X8891D02*
X8900D01*
X8905D02*
X8915D01*
X8639Y6926D02*
X8630D01*
X8646D02*
X8654D01*
X8659D02*
X8668D01*
X8675D02*
X8684D01*
X8688D02*
X8696D01*
X8703D02*
X8712D01*
X8716D02*
X8725D01*
X8732D02*
X8741D01*
X8758D02*
X8766D01*
X8776D02*
X8779D01*
X8785D02*
X8794D01*
X8801D02*
X8810D01*
X8814D02*
X8822D01*
X8832D02*
X8840D01*
X8845D02*
X8854D01*
X8865D02*
X8874D01*
X8882D02*
X8887D01*
X8891D02*
X8899D01*
X8907D02*
X8915D01*
X8638Y6925D02*
X8630D01*
X8647D02*
X8655D01*
X8659D02*
X8667D01*
X8676D02*
X8684D01*
X8687D02*
X8695D01*
X8704D02*
X8712D01*
X8716D02*
X8725D01*
X8733D02*
X8742D01*
X8758D02*
X8766D01*
X8777D02*
X8778D01*
X8785D02*
X8794D01*
X8802D02*
X8810D01*
X8814D02*
X8822D01*
X8832D02*
X8840D01*
X8845D02*
X8853D01*
X8865D02*
X8873D01*
X8883D02*
X8886D01*
X8891D02*
X8898D01*
X8907D02*
X8915D01*
X8637Y6924D02*
X8630D01*
X8647D02*
X8655D01*
X8659D02*
X8667D01*
X8676D02*
X8684D01*
X8687D02*
X8695D01*
X8705D02*
X8713D01*
X8716D02*
X8724D01*
X8733D02*
X8742D01*
X8758D02*
X8766D01*
X8785D02*
X8793D01*
X8803D02*
X8811D01*
X8814D02*
X8822D01*
X8832D02*
X8840D01*
X8845D02*
X8853D01*
X8865D02*
X8873D01*
X8890D02*
X8898D01*
X8908D02*
X8915D01*
X8637Y6923D02*
X8630D01*
X8647D02*
X8655D01*
X8659D02*
X8667D01*
X8676D02*
X8684D01*
X8687D02*
X8694D01*
X8705D02*
X8713D01*
X8716D02*
X8724D01*
X8734D02*
X8742D01*
X8758D02*
X8768D01*
X8785D02*
X8793D01*
X8803D02*
X8811D01*
X8814D02*
X8822D01*
X8832D02*
X8840D01*
X8845D02*
X8853D01*
X8864D02*
X8872D01*
X8890D02*
X8898D01*
X8908D02*
X8915D01*
X8637Y6922D02*
X8630D01*
X8647D02*
X8655D01*
X8659D02*
X8666D01*
X8677D02*
X8684D01*
X8687D02*
X8713D01*
X8716D02*
X8724D01*
X8734D02*
X8742D01*
X8759D02*
X8776D01*
X8785D02*
X8793D01*
X8803D02*
X8811D01*
X8814D02*
X8822D01*
X8832D02*
X8840D01*
X8845D02*
X8852D01*
X8864D02*
X8872D01*
X8890D02*
X8915D01*
X8637Y6921D02*
X8630D01*
X8647D02*
X8655D01*
X8659D02*
X8666D01*
X8677D02*
X8684D01*
X8687D02*
X8713D01*
X8716D02*
X8724D01*
X8734D02*
X8742D01*
X8759D02*
X8779D01*
X8785D02*
X8793D01*
X8803D02*
X8811D01*
X8814D02*
X8822D01*
X8832D02*
X8840D01*
X8845D02*
X8852D01*
X8864D02*
X8872D01*
X8890D02*
X8915D01*
X8637Y6920D02*
X8630D01*
X8647D02*
X8655D01*
X8659D02*
X8666D01*
X8677D02*
X8684D01*
X8687D02*
X8713D01*
X8716D02*
X8724D01*
X8734D02*
X8742D01*
X8760D02*
X8780D01*
X8785D02*
X8792D01*
X8803D02*
X8811D01*
X8814D02*
X8822D01*
X8832D02*
X8840D01*
X8845D02*
X8852D01*
X8864D02*
X8872D01*
X8890D02*
X8915D01*
X8637Y6919D02*
X8630D01*
X8648D02*
X8655D01*
X8659D02*
X8666D01*
X8677D02*
X8684D01*
X8687D02*
X8713D01*
X8716D02*
X8724D01*
X8734D02*
X8742D01*
X8760D02*
X8781D01*
X8785D02*
X8792D01*
X8803D02*
X8811D01*
X8814D02*
X8822D01*
X8832D02*
X8840D01*
X8845D02*
X8852D01*
X8864D02*
X8872D01*
X8890D02*
X8915D01*
X8637Y6918D02*
X8630D01*
X8647D02*
X8655D01*
X8659D02*
X8666D01*
X8677D02*
X8684D01*
X8687D02*
X8713D01*
X8716D02*
X8724D01*
X8734D02*
X8742D01*
X8761D02*
X8782D01*
X8785D02*
X8792D01*
X8803D02*
X8811D01*
X8814D02*
X8822D01*
X8832D02*
X8840D01*
X8845D02*
X8852D01*
X8864D02*
X8872D01*
X8890D02*
X8915D01*
X8637Y6917D02*
X8630D01*
X8647D02*
X8655D01*
X8659D02*
X8666D01*
X8677D02*
X8684D01*
X8687D02*
X8713D01*
X8716D02*
X8724D01*
X8734D02*
X8742D01*
X8763D02*
X8782D01*
X8785D02*
X8792D01*
X8803D02*
X8811D01*
X8814D02*
X8822D01*
X8832D02*
X8840D01*
X8845D02*
X8852D01*
X8864D02*
X8872D01*
X8890D02*
X8915D01*
X8637Y6916D02*
X8630D01*
X8647D02*
X8655D01*
X8659D02*
X8666D01*
X8677D02*
X8684D01*
X8687D02*
X8713D01*
X8716D02*
X8724D01*
X8734D02*
X8742D01*
X8765D02*
X8783D01*
X8785D02*
X8793D01*
X8803D02*
X8811D01*
X8814D02*
X8822D01*
X8832D02*
X8840D01*
X8845D02*
X8852D01*
X8864D02*
X8872D01*
X8890D02*
X8915D01*
X8637Y6915D02*
X8630D01*
X8647D02*
X8655D01*
X8659D02*
X8666D01*
X8676D02*
X8684D01*
X8687D02*
X8694D01*
X8716D02*
X8724D01*
X8734D02*
X8742D01*
X8774D02*
X8783D01*
X8785D02*
X8793D01*
X8803D02*
X8811D01*
X8814D02*
X8822D01*
X8832D02*
X8840D01*
X8845D02*
X8852D01*
X8864D02*
X8872D01*
X8890D02*
X8898D01*
X8637Y6914D02*
X8630D01*
X8647D02*
X8655D01*
X8659D02*
X8667D01*
X8676D02*
X8684D01*
X8687D02*
X8695D01*
X8716D02*
X8724D01*
X8734D02*
X8742D01*
X8775D02*
X8783D01*
X8785D02*
X8793D01*
X8803D02*
X8811D01*
X8814D02*
X8822D01*
X8832D02*
X8840D01*
X8845D02*
X8852D01*
X8864D02*
X8873D01*
X8890D02*
X8898D01*
X8638Y6913D02*
X8630D01*
X8647D02*
X8655D01*
X8659D02*
X8667D01*
X8676D02*
X8684D01*
X8687D02*
X8695D01*
X8716D02*
X8724D01*
X8734D02*
X8742D01*
X8760D02*
X8762D01*
X8775D02*
X8783D01*
X8785D02*
X8793D01*
X8802D02*
X8810D01*
X8814D02*
X8823D01*
X8832D02*
X8840D01*
X8845D02*
X8852D01*
X8865D02*
X8873D01*
X8884D02*
X8885D01*
X8891D02*
X8898D01*
X8638Y6912D02*
X8630D01*
X8646D02*
X8654D01*
X8659D02*
X8668D01*
X8675D02*
X8684D01*
X8688D02*
X8696D01*
X8706D02*
X8708D01*
X8716D02*
X8724D01*
X8734D02*
X8742D01*
X8759D02*
X8763D01*
X8775D02*
X8783D01*
X8785D02*
X8794D01*
X8802D02*
X8810D01*
X8814D02*
X8823D01*
X8831D02*
X8840D01*
X8845D02*
X8852D01*
X8865D02*
X8874D01*
X8883D02*
X8886D01*
X8891D02*
X8899D01*
X8909D02*
X8911D01*
X8640Y6911D02*
X8630D01*
X8645D02*
X8654D01*
X8659D02*
X8669D01*
X8674D02*
X8684D01*
X8688D02*
X8697D01*
X8704D02*
X8709D01*
X8716D02*
X8724D01*
X8734D02*
X8742D01*
X8758D02*
X8765D01*
X8774D02*
X8783D01*
X8786D02*
X8795D01*
X8800D02*
X8810D01*
X8815D02*
X8825D01*
X8830D02*
X8840D01*
X8845D02*
X8852D01*
X8865D02*
X8875D01*
X8881D02*
X8887D01*
X8891D02*
X8900D01*
X8907D02*
X8912D01*
X8654Y6910D02*
X8630D01*
X8659D02*
X8684D01*
X8688D02*
X8711D01*
X8716D02*
X8724D01*
X8734D02*
X8742D01*
X8756D02*
X8783D01*
X8786D02*
X8809D01*
X8815D02*
X8840D01*
X8845D02*
X8852D01*
X8866D02*
X8889D01*
X8891D02*
X8914D01*
X8654Y6909D02*
X8631D01*
X8659D02*
X8683D01*
X8689D02*
X8712D01*
X8716D02*
X8724D01*
X8734D02*
X8742D01*
X8756D02*
X8782D01*
X8787D02*
X8809D01*
X8815D02*
X8840D01*
X8845D02*
X8852D01*
X8867D02*
X8890D01*
X8892D02*
X8915D01*
X8653Y6908D02*
X8632D01*
X8659D02*
X8683D01*
X8689D02*
X8712D01*
X8716D02*
X8724D01*
X8734D02*
X8742D01*
X8756D02*
X8782D01*
X8787D02*
X8808D01*
X8816D02*
X8840D01*
X8845D02*
X8852D01*
X8867D02*
X8890D01*
X8892D02*
X8915D01*
X8652Y6907D02*
X8632D01*
X8659D02*
X8682D01*
X8690D02*
X8711D01*
X8716D02*
X8724D01*
X8734D02*
X8742D01*
X8758D02*
X8781D01*
X8788D02*
X8808D01*
X8817D02*
X8840D01*
X8845D02*
X8852D01*
X8868D02*
X8888D01*
X8893D02*
X8915D01*
X8651Y6906D02*
X8633D01*
X8659D02*
X8681D01*
X8691D02*
X8710D01*
X8716D02*
X8724D01*
X8734D02*
X8742D01*
X8759D02*
X8780D01*
X8789D02*
X8807D01*
X8818D02*
X8840D01*
X8845D02*
X8852D01*
X8869D02*
X8887D01*
X8894D02*
X8913D01*
X8650Y6905D02*
X8635D01*
X8659D02*
X8666D01*
X8667D02*
X8680D01*
X8692D02*
X8709D01*
X8716D02*
X8724D01*
X8734D02*
X8742D01*
X8761D02*
X8779D01*
X8790D02*
X8805D01*
X8819D02*
X8840D01*
X8845D02*
X8852D01*
X8870D02*
X8886D01*
X8895D02*
X8912D01*
X8648Y6904D02*
X8636D01*
X8659D02*
X8666D01*
X8668D02*
X8678D01*
X8694D02*
X8707D01*
X8716D02*
X8724D01*
X8734D02*
X8742D01*
X8763D02*
X8777D01*
X8792D02*
X8804D01*
X8820D02*
X8830D01*
X8832D02*
X8840D01*
X8845D02*
X8852D01*
X8872D02*
X8884D01*
X8897D02*
X8910D01*
X8644Y6903D02*
X8641D01*
X8659D02*
X8666D01*
X8672D02*
X8675D01*
X8698D02*
X8702D01*
X8768D02*
X8771D01*
X8796D02*
X8799D01*
X8824D02*
X8827D01*
X8877D02*
X8880D01*
X8901D02*
X8905D01*
X8666Y6902D02*
X8659D01*
Y6901D02*
X8666D01*
Y6900D02*
X8659D01*
Y6899D02*
X8666D01*
X8755D02*
X8763D01*
X8666Y6898D02*
X8659D01*
X8755D02*
X8763D01*
X8666Y6897D02*
X8659D01*
X8755D02*
X8763D01*
X8666Y6896D02*
X8659D01*
X8755D02*
X8763D01*
X8666Y6895D02*
X8659D01*
X8755D02*
X8763D01*
X8666Y6894D02*
X8659D01*
X8755D02*
X8763D01*
X8666Y6893D02*
X8659D01*
X8755D02*
X8763D01*
X8666Y6892D02*
X8659D01*
X8755D02*
X8763D01*
X8666Y6891D02*
X8659D01*
X8755D02*
X8763D01*
X8666Y6890D02*
X8659D01*
X8755D02*
X8763D01*
X8666Y6889D02*
X8659D01*
X8755D02*
X8763D01*
X8666Y6888D02*
X8659D01*
X8755D02*
X8763D01*
X8666Y6887D02*
X8659D01*
X8669D02*
X8677D01*
X8694D02*
X8705D01*
X8717D02*
X8725D01*
X8728D02*
X8736D01*
X8744D02*
X8752D01*
X8755D02*
X8763D01*
X8764D02*
X8772D01*
X8783D02*
X8789D01*
X8800D02*
X8808D01*
X8814D02*
X8825D01*
X8837D02*
X8845D01*
X8848D02*
X8856D01*
X8866D02*
X8875D01*
X8666Y6886D02*
X8659D01*
X8667D02*
X8679D01*
X8692D02*
X8708D01*
X8717D02*
X8725D01*
X8726D02*
X8738D01*
X8742D02*
X8754D01*
X8755D02*
X8763D01*
X8765D02*
X8773D01*
X8783D02*
X8789D01*
X8800D02*
X8808D01*
X8812D02*
X8828D01*
X8837D02*
X8845D01*
X8846D02*
X8858D01*
X8864D02*
X8877D01*
X8680Y6885D02*
X8659D01*
X8690D02*
X8709D01*
X8717D02*
X8739D01*
X8741D02*
X8763D01*
X8765D02*
X8773D01*
X8783D02*
X8790D01*
X8799D02*
X8808D01*
X8810D02*
X8829D01*
X8837D02*
X8859D01*
X8863D02*
X8879D01*
X8682Y6884D02*
X8659D01*
X8689D02*
X8710D01*
X8717D02*
X8739D01*
X8740D02*
X8763D01*
X8765D02*
X8773D01*
X8782D02*
X8790D01*
X8799D02*
X8807D01*
X8809D02*
X8830D01*
X8837D02*
X8859D01*
X8862D02*
X8880D01*
X8682Y6883D02*
X8659D01*
X8689D02*
X8711D01*
X8717D02*
X8738D01*
X8739D02*
X8763D01*
X8766D02*
X8773D01*
X8782D02*
X8791D01*
X8799D02*
X8807D01*
X8808D02*
X8831D01*
X8837D02*
X8858D01*
X8861D02*
X8881D01*
X8683Y6882D02*
X8659D01*
X8689D02*
X8711D01*
X8717D02*
X8737D01*
X8739D02*
X8763D01*
X8766D02*
X8773D01*
X8782D02*
X8791D01*
X8799D02*
X8807D01*
X8809D02*
X8832D01*
X8837D02*
X8857D01*
X8860D02*
X8881D01*
X8683Y6881D02*
X8659D01*
X8690D02*
X8712D01*
X8717D02*
X8736D01*
X8738D02*
X8763D01*
X8766D02*
X8774D01*
X8781D02*
X8791D01*
X8798D02*
X8806D01*
X8810D02*
X8832D01*
X8837D02*
X8856D01*
X8860D02*
X8882D01*
X8671Y6880D02*
X8659D01*
X8672D02*
X8684D01*
X8691D02*
X8696D01*
X8703D02*
X8712D01*
X8717D02*
X8729D01*
X8730D02*
X8735D01*
X8738D02*
X8749D01*
X8751D02*
X8763D01*
X8766D02*
X8774D01*
X8781D02*
X8791D01*
X8798D02*
X8806D01*
X8811D02*
X8816D01*
X8823D02*
X8832D01*
X8837D02*
X8849D01*
X8850D02*
X8855D01*
X8859D02*
X8868D01*
X8873D02*
X8883D01*
X8668Y6879D02*
X8659D01*
X8675D02*
X8684D01*
X8692D02*
X8695D01*
X8704D02*
X8712D01*
X8717D02*
X8726D01*
X8738D02*
X8747D01*
X8754D02*
X8763D01*
X8767D02*
X8774D01*
X8780D02*
X8791D01*
X8798D02*
X8806D01*
X8813D02*
X8815D01*
X8825D02*
X8832D01*
X8837D02*
X8847D01*
X8858D02*
X8867D01*
X8874D02*
X8883D01*
X8667Y6878D02*
X8659D01*
X8676D02*
X8684D01*
X8705D02*
X8712D01*
X8717D02*
X8726D01*
X8738D02*
X8746D01*
X8754D02*
X8763D01*
X8767D02*
X8775D01*
X8780D02*
X8792D01*
X8798D02*
X8805D01*
X8825D02*
X8832D01*
X8837D02*
X8846D01*
X8858D02*
X8866D01*
X8875D02*
X8883D01*
X8667Y6877D02*
X8659D01*
X8676D02*
X8684D01*
X8705D02*
X8712D01*
X8717D02*
X8725D01*
X8738D02*
X8746D01*
X8754D02*
X8763D01*
X8767D02*
X8775D01*
X8780D02*
X8792D01*
X8797D02*
X8805D01*
X8825D02*
X8832D01*
X8837D02*
X8845D01*
X8858D02*
X8866D01*
X8875D02*
X8884D01*
X8666Y6876D02*
X8659D01*
X8677D02*
X8684D01*
X8705D02*
X8712D01*
X8717D02*
X8725D01*
X8737D02*
X8745D01*
X8755D02*
X8763D01*
X8768D02*
X8775D01*
X8780D02*
X8793D01*
X8797D02*
X8805D01*
X8825D02*
X8832D01*
X8837D02*
X8845D01*
X8858D02*
X8865D01*
X8876D02*
X8884D01*
X8666Y6875D02*
X8659D01*
X8677D02*
X8684D01*
X8694D02*
X8712D01*
X8717D02*
X8725D01*
X8737D02*
X8745D01*
X8755D02*
X8763D01*
X8768D02*
X8775D01*
X8779D02*
X8793D01*
X8797D02*
X8804D01*
X8815D02*
X8832D01*
X8837D02*
X8845D01*
X8858D02*
X8884D01*
X8666Y6874D02*
X8659D01*
X8677D02*
X8684D01*
X8692D02*
X8712D01*
X8717D02*
X8725D01*
X8737D02*
X8745D01*
X8755D02*
X8763D01*
X8768D02*
X8776D01*
X8779D02*
X8793D01*
X8796D02*
X8804D01*
X8812D02*
X8832D01*
X8837D02*
X8845D01*
X8857D02*
X8884D01*
X8666Y6873D02*
X8659D01*
X8677D02*
X8684D01*
X8690D02*
X8712D01*
X8717D02*
X8725D01*
X8737D02*
X8745D01*
X8755D02*
X8763D01*
X8768D02*
X8776D01*
X8779D02*
X8785D01*
X8787D02*
X8794D01*
X8796D02*
X8804D01*
X8810D02*
X8832D01*
X8837D02*
X8845D01*
X8857D02*
X8884D01*
X8666Y6872D02*
X8659D01*
X8677D02*
X8684D01*
X8689D02*
X8712D01*
X8717D02*
X8725D01*
X8737D02*
X8745D01*
X8755D02*
X8763D01*
X8769D02*
X8776D01*
X8778D02*
X8785D01*
X8787D02*
X8794D01*
X8796D02*
X8803D01*
X8809D02*
X8832D01*
X8837D02*
X8845D01*
X8857D02*
X8884D01*
X8666Y6871D02*
X8659D01*
X8677D02*
X8684D01*
X8689D02*
X8712D01*
X8717D02*
X8725D01*
X8737D02*
X8745D01*
X8755D02*
X8763D01*
X8769D02*
X8777D01*
X8778D02*
X8785D01*
X8787D02*
X8794D01*
X8796D02*
X8803D01*
X8809D02*
X8832D01*
X8837D02*
X8845D01*
X8857D02*
X8884D01*
X8666Y6870D02*
X8659D01*
X8677D02*
X8684D01*
X8688D02*
X8712D01*
X8717D02*
X8725D01*
X8737D02*
X8745D01*
X8755D02*
X8763D01*
X8769D02*
X8777D01*
X8778D02*
X8785D01*
X8788D02*
X8795D01*
X8796D02*
X8803D01*
X8808D02*
X8832D01*
X8837D02*
X8845D01*
X8857D02*
X8884D01*
X8666Y6869D02*
X8659D01*
X8677D02*
X8684D01*
X8687D02*
X8712D01*
X8717D02*
X8725D01*
X8737D02*
X8745D01*
X8755D02*
X8763D01*
X8770D02*
X8777D01*
X8778D02*
X8784D01*
X8788D02*
X8802D01*
X8807D02*
X8832D01*
X8837D02*
X8845D01*
X8857D02*
X8884D01*
X8666Y6868D02*
X8659D01*
X8677D02*
X8684D01*
X8687D02*
X8695D01*
X8705D02*
X8712D01*
X8717D02*
X8725D01*
X8737D02*
X8745D01*
X8755D02*
X8763D01*
X8770D02*
X8784D01*
X8788D02*
X8802D01*
X8807D02*
X8815D01*
X8825D02*
X8832D01*
X8837D02*
X8845D01*
X8858D02*
X8865D01*
X8666Y6867D02*
X8659D01*
X8677D02*
X8684D01*
X8687D02*
X8694D01*
X8705D02*
X8712D01*
X8717D02*
X8725D01*
X8738D02*
X8745D01*
X8755D02*
X8763D01*
X8771D02*
X8784D01*
X8789D02*
X8802D01*
X8807D02*
X8814D01*
X8825D02*
X8832D01*
X8837D02*
X8845D01*
X8858D02*
X8866D01*
X8666Y6866D02*
X8659D01*
X8677D02*
X8684D01*
X8687D02*
X8694D01*
X8704D02*
X8712D01*
X8717D02*
X8725D01*
X8738D02*
X8746D01*
X8754D02*
X8763D01*
X8771D02*
X8784D01*
X8789D02*
X8802D01*
X8807D02*
X8814D01*
X8825D02*
X8832D01*
X8837D02*
X8845D01*
X8858D02*
X8866D01*
X8666Y6865D02*
X8659D01*
X8677D02*
X8684D01*
X8687D02*
X8694D01*
X8704D02*
X8712D01*
X8717D02*
X8725D01*
X8738D02*
X8746D01*
X8754D02*
X8763D01*
X8771D02*
X8783D01*
X8789D02*
X8801D01*
X8807D02*
X8814D01*
X8825D02*
X8832D01*
X8837D02*
X8845D01*
X8858D02*
X8866D01*
X8876D02*
X8879D01*
X8666Y6864D02*
X8659D01*
X8677D02*
X8684D01*
X8687D02*
X8695D01*
X8704D02*
X8712D01*
X8717D02*
X8725D01*
X8738D02*
X8747D01*
X8753D02*
X8763D01*
X8772D02*
X8783D01*
X8790D02*
X8801D01*
X8807D02*
X8815D01*
X8824D02*
X8832D01*
X8837D02*
X8845D01*
X8859D02*
X8867D01*
X8875D02*
X8880D01*
X8666Y6863D02*
X8659D01*
X8677D02*
X8684D01*
X8687D02*
X8712D01*
X8717D02*
X8725D01*
X8738D02*
X8763D01*
X8772D02*
X8783D01*
X8790D02*
X8801D01*
X8807D02*
X8832D01*
X8837D02*
X8845D01*
X8859D02*
X8881D01*
X8666Y6862D02*
X8659D01*
X8677D02*
X8684D01*
X8688D02*
X8712D01*
X8717D02*
X8725D01*
X8738D02*
X8763D01*
X8772D02*
X8782D01*
X8790D02*
X8800D01*
X8807D02*
X8832D01*
X8837D02*
X8845D01*
X8860D02*
X8883D01*
X8666Y6861D02*
X8659D01*
X8677D02*
X8684D01*
X8688D02*
X8712D01*
X8717D02*
X8725D01*
X8739D02*
X8763D01*
X8772D02*
X8782D01*
X8790D02*
X8800D01*
X8808D02*
X8832D01*
X8837D02*
X8845D01*
X8860D02*
X8883D01*
X8666Y6860D02*
X8659D01*
X8677D02*
X8684D01*
X8689D02*
X8712D01*
X8717D02*
X8725D01*
X8740D02*
X8763D01*
X8773D02*
X8782D01*
X8790D02*
X8800D01*
X8808D02*
X8832D01*
X8837D02*
X8845D01*
X8861D02*
X8882D01*
X8666Y6859D02*
X8659D01*
X8677D02*
X8684D01*
X8689D02*
X8712D01*
X8717D02*
X8725D01*
X8741D02*
X8763D01*
X8773D02*
X8781D01*
X8791D02*
X8799D01*
X8809D02*
X8832D01*
X8837D02*
X8845D01*
X8862D02*
X8881D01*
X8666Y6858D02*
X8659D01*
X8677D02*
X8684D01*
X8690D02*
X8712D01*
X8717D02*
X8725D01*
X8741D02*
X8763D01*
X8773D02*
X8781D01*
X8791D02*
X8799D01*
X8811D02*
X8832D01*
X8837D02*
X8845D01*
X8863D02*
X8880D01*
X8666Y6857D02*
X8659D01*
X8677D02*
X8684D01*
X8692D02*
X8704D01*
X8705D02*
X8712D01*
X8717D02*
X8725D01*
X8743D02*
X8753D01*
X8755D02*
X8763D01*
X8774D02*
X8781D01*
X8791D02*
X8799D01*
X8812D02*
X8824D01*
X8825D02*
X8832D01*
X8837D02*
X8845D01*
X8865D02*
X8878D01*
X8849Y7094D02*
X8696D01*
X8694Y8472D02*
Y8493D01*
X8695Y8494D02*
Y8471D01*
X8696D02*
Y8494D01*
X8697D02*
Y8471D01*
X8698D02*
Y8494D01*
X8699D02*
Y8471D01*
X8700Y8470D02*
Y8495D01*
X8701D02*
Y8470D01*
X8702D02*
Y8495D01*
X8703D02*
Y8470D01*
X8704D02*
Y8495D01*
X8705Y8496D02*
Y8469D01*
X8706D02*
Y8496D01*
X8707D02*
Y8469D01*
X8708Y8439D02*
Y8436D01*
Y8469D02*
Y8496D01*
Y8526D02*
Y8529D01*
X8709Y8440D02*
Y8435D01*
Y8469D02*
Y8496D01*
Y8525D02*
Y8530D01*
X8710Y8441D02*
Y8434D01*
Y8469D02*
Y8496D01*
Y8524D02*
Y8531D01*
X8711Y8443D02*
Y8433D01*
Y8468D02*
Y8497D01*
Y8522D02*
Y8532D01*
X8712Y8444D02*
Y8432D01*
Y8468D02*
Y8497D01*
Y8521D02*
Y8533D01*
X8713Y8446D02*
Y8431D01*
Y8468D02*
Y8497D01*
Y8519D02*
Y8534D01*
X8714Y8447D02*
Y8430D01*
Y8466D02*
Y8499D01*
Y8518D02*
Y8535D01*
X8715Y8449D02*
Y8429D01*
Y8464D02*
Y8501D01*
Y8516D02*
Y8536D01*
X8716Y8450D02*
Y8428D01*
Y8461D02*
Y8504D01*
Y8515D02*
Y8537D01*
X8717Y8452D02*
Y8427D01*
Y8459D02*
Y8506D01*
Y8513D02*
Y8538D01*
X8718Y8453D02*
Y8426D01*
Y8456D02*
Y8509D01*
Y8512D02*
Y8539D01*
X8719Y8540D02*
Y8425D01*
X8720Y8424D02*
Y8541D01*
X8721Y8542D02*
Y8423D01*
X8722D02*
Y8542D01*
X8723D02*
Y8423D01*
X8724D02*
Y8542D01*
X8725Y8541D02*
Y8424D01*
X8727Y8425D02*
Y8540D01*
X8728Y8539D02*
Y8426D01*
X8729Y8427D02*
Y8538D01*
X8730D02*
Y8427D01*
X8731Y8428D02*
Y8537D01*
X8732Y8536D02*
Y8429D01*
X8733D02*
Y8536D01*
X8734Y8535D02*
Y8430D01*
X8735Y8431D02*
Y8534D01*
X8736D02*
Y8431D01*
X8737Y8432D02*
Y8533D01*
X8738Y8532D02*
Y8433D01*
X8739D02*
Y8532D01*
X8740D02*
Y8433D01*
X8741D02*
Y8532D01*
X8742Y8533D02*
Y8432D01*
X8743D02*
Y8533D01*
X8744Y8534D02*
Y8431D01*
X8745D02*
Y8534D01*
X8746D02*
Y8431D01*
X8747Y8430D02*
Y8535D01*
X8748Y8479D02*
Y8430D01*
Y8486D02*
Y8535D01*
X8749Y8475D02*
Y8429D01*
Y8490D02*
Y8536D01*
X8750Y8473D02*
Y8429D01*
Y8492D02*
Y8536D01*
X8751Y8471D02*
Y8428D01*
Y8494D02*
Y8537D01*
X8752Y8470D02*
Y8428D01*
Y8495D02*
Y8537D01*
X8753Y8469D02*
Y8427D01*
Y8496D02*
Y8538D01*
X8754Y8468D02*
Y8422D01*
Y8497D02*
Y8543D01*
X8755Y8467D02*
Y8417D01*
Y8498D02*
Y8548D01*
X8756Y8466D02*
Y8411D01*
Y8499D02*
Y8554D01*
X8757Y8466D02*
Y8408D01*
Y8499D02*
Y8557D01*
X8758Y8465D02*
Y8408D01*
Y8500D02*
Y8557D01*
X8759Y8464D02*
Y8408D01*
Y8501D02*
Y8557D01*
X8760Y8464D02*
Y8408D01*
Y8501D02*
Y8557D01*
X8761Y8464D02*
Y8408D01*
Y8501D02*
Y8557D01*
X8762Y8463D02*
Y8408D01*
Y8502D02*
Y8557D01*
X8763Y8463D02*
Y8408D01*
Y8502D02*
Y8557D01*
X8764Y8463D02*
Y8408D01*
Y8502D02*
Y8557D01*
X8765Y8463D02*
Y8408D01*
Y8502D02*
Y8557D01*
X8766Y8463D02*
Y8408D01*
Y8502D02*
Y8557D01*
X8767Y8462D02*
Y8408D01*
Y8503D02*
Y8557D01*
X8768Y8462D02*
Y8408D01*
Y8503D02*
Y8557D01*
X8769Y8463D02*
Y8408D01*
Y8502D02*
Y8557D01*
X8770Y8463D02*
Y8408D01*
Y8502D02*
Y8557D01*
X8771Y8463D02*
Y8408D01*
Y8502D02*
Y8557D01*
X8772Y8463D02*
Y8408D01*
Y8502D02*
Y8557D01*
X8773Y8463D02*
Y8408D01*
Y8502D02*
Y8557D01*
X8774Y8463D02*
Y8408D01*
Y8502D02*
Y8557D01*
X8775Y8464D02*
Y8408D01*
Y8501D02*
Y8557D01*
X8776Y8464D02*
Y8408D01*
Y8501D02*
Y8557D01*
X8777Y8465D02*
Y8408D01*
Y8500D02*
Y8557D01*
X8778Y8465D02*
Y8408D01*
Y8500D02*
Y8557D01*
X8779Y8466D02*
Y8412D01*
Y8499D02*
Y8553D01*
X8780Y8467D02*
Y8417D01*
Y8498D02*
Y8548D01*
X8781Y8468D02*
Y8422D01*
Y8497D02*
Y8543D01*
X8782Y8469D02*
Y8427D01*
Y8496D02*
Y8538D01*
X8783Y8470D02*
Y8428D01*
Y8495D02*
Y8537D01*
X8784Y8471D02*
Y8428D01*
Y8494D02*
Y8537D01*
X8785Y8472D02*
Y8428D01*
Y8493D02*
Y8537D01*
X8786Y8474D02*
Y8429D01*
Y8491D02*
Y8536D01*
X8787Y8475D02*
Y8429D01*
Y8490D02*
Y8536D01*
X8788Y8475D02*
Y8430D01*
Y8490D02*
Y8535D01*
X8789Y8475D02*
Y8430D01*
Y8490D02*
Y8535D01*
X8790Y8474D02*
Y8430D01*
Y8491D02*
Y8535D01*
X8791Y8474D02*
Y8431D01*
Y8491D02*
Y8534D01*
X8792Y8473D02*
Y8431D01*
Y8492D02*
Y8534D01*
X8793Y8473D02*
Y8432D01*
Y8492D02*
Y8533D01*
X8794Y8472D02*
Y8432D01*
Y8493D02*
Y8533D01*
X8795Y8472D02*
Y8432D01*
Y8493D02*
Y8533D01*
X8796Y8472D02*
Y8433D01*
Y8493D02*
Y8532D01*
X8797Y8471D02*
Y8433D01*
Y8494D02*
Y8532D01*
X8798Y8471D02*
Y8432D01*
Y8494D02*
Y8533D01*
X8799Y8470D02*
Y8431D01*
Y8495D02*
Y8534D01*
X8800Y8470D02*
Y8431D01*
Y8495D02*
Y8534D01*
X8801Y8470D02*
Y8430D01*
Y8495D02*
Y8535D01*
X8802Y8469D02*
Y8429D01*
Y8496D02*
Y8536D01*
X8803Y8469D02*
Y8429D01*
Y8496D02*
Y8536D01*
X8804Y8468D02*
Y8428D01*
Y8497D02*
Y8537D01*
X8805Y8468D02*
Y8427D01*
Y8497D02*
Y8538D01*
X8806Y8468D02*
Y8427D01*
Y8497D02*
Y8538D01*
X8807Y8467D02*
Y8426D01*
Y8498D02*
Y8539D01*
X8808Y8467D02*
Y8425D01*
Y8498D02*
Y8540D01*
X8809Y8466D02*
Y8424D01*
Y8499D02*
Y8541D01*
X8810Y8466D02*
Y8424D01*
Y8499D02*
Y8541D01*
X8811Y8465D02*
Y8423D01*
Y8500D02*
Y8542D01*
X8812Y8465D02*
Y8423D01*
Y8500D02*
Y8542D01*
X8813Y8465D02*
Y8423D01*
Y8500D02*
Y8542D01*
X8814Y8464D02*
Y8423D01*
Y8501D02*
Y8542D01*
X8815Y8464D02*
Y8424D01*
Y8501D02*
Y8541D01*
X8816Y8463D02*
Y8425D01*
Y8502D02*
Y8540D01*
X8817Y8463D02*
Y8426D01*
Y8502D02*
Y8539D01*
X8818Y8451D02*
Y8427D01*
Y8455D02*
Y8463D01*
Y8502D02*
Y8510D01*
Y8514D02*
Y8538D01*
X8819Y8450D02*
Y8428D01*
Y8457D02*
Y8462D01*
Y8503D02*
Y8508D01*
Y8515D02*
Y8537D01*
X8820Y8449D02*
Y8429D01*
Y8459D02*
Y8462D01*
Y8503D02*
Y8506D01*
Y8516D02*
Y8536D01*
X8821Y8447D02*
Y8430D01*
Y8518D02*
Y8535D01*
X8822Y8446D02*
Y8431D01*
Y8519D02*
Y8534D01*
X8823Y8444D02*
Y8432D01*
Y8521D02*
Y8533D01*
X8824Y8443D02*
Y8433D01*
Y8522D02*
Y8532D01*
X8825Y8441D02*
Y8434D01*
Y8524D02*
Y8531D01*
X8826Y8440D02*
Y8435D01*
Y8525D02*
Y8530D01*
X8827Y8439D02*
Y8436D01*
Y8526D02*
Y8529D01*
X8742Y8576D02*
Y8584D01*
Y8591D02*
Y8597D01*
Y8598D02*
Y8604D01*
Y8615D02*
Y8622D01*
Y8630D02*
Y8635D01*
Y8636D02*
Y8643D01*
Y8662D02*
Y8671D01*
Y8681D02*
Y8688D01*
Y8695D02*
Y8701D01*
Y8707D02*
Y8713D01*
Y8716D02*
Y8721D01*
Y8722D02*
Y8729D01*
Y8734D02*
Y8742D01*
Y8751D02*
Y8759D01*
X8743Y8586D02*
Y8575D01*
Y8591D02*
Y8606D01*
Y8613D02*
Y8624D01*
Y8630D02*
Y8644D01*
Y8660D02*
Y8673D01*
Y8679D02*
Y8690D01*
Y8695D02*
Y8701D01*
Y8707D02*
Y8713D01*
Y8716D02*
Y8730D01*
Y8733D02*
Y8744D01*
Y8750D02*
Y8760D01*
X8744Y8587D02*
Y8574D01*
Y8591D02*
Y8607D01*
Y8612D02*
Y8625D01*
Y8630D02*
Y8645D01*
Y8659D02*
Y8674D01*
Y8678D02*
Y8691D01*
Y8695D02*
Y8701D01*
Y8707D02*
Y8713D01*
Y8716D02*
Y8730D01*
Y8732D02*
Y8745D01*
Y8749D02*
Y8761D01*
X8745Y8587D02*
Y8573D01*
Y8591D02*
Y8607D01*
Y8612D02*
Y8626D01*
Y8630D02*
Y8646D01*
Y8658D02*
Y8674D01*
Y8677D02*
Y8692D01*
Y8695D02*
Y8701D01*
Y8707D02*
Y8713D01*
Y8716D02*
Y8729D01*
Y8731D02*
Y8746D01*
Y8748D02*
Y8762D01*
X8746Y8588D02*
Y8572D01*
Y8591D02*
Y8608D01*
Y8611D02*
Y8627D01*
Y8630D02*
Y8646D01*
Y8658D02*
Y8673D01*
Y8677D02*
Y8692D01*
Y8695D02*
Y8701D01*
Y8707D02*
Y8713D01*
Y8716D02*
Y8728D01*
Y8730D02*
Y8746D01*
Y8747D02*
Y8763D01*
X8747Y8578D02*
Y8572D01*
Y8582D02*
Y8589D01*
Y8591D02*
Y8598D01*
Y8602D02*
Y8608D01*
Y8611D02*
Y8616D01*
Y8621D02*
Y8627D01*
Y8630D02*
Y8636D01*
Y8640D02*
Y8647D01*
Y8658D02*
Y8663D01*
Y8669D02*
Y8672D01*
Y8676D02*
Y8683D01*
Y8686D02*
Y8693D01*
Y8695D02*
Y8701D01*
Y8707D02*
Y8713D01*
Y8716D02*
Y8723D01*
Y8726D02*
Y8728D01*
Y8730D02*
Y8736D01*
Y8741D02*
Y8745D01*
Y8747D02*
Y8753D01*
Y8757D02*
Y8763D01*
X8748Y8577D02*
Y8572D01*
Y8583D02*
Y8589D01*
Y8591D02*
Y8597D01*
Y8603D02*
Y8608D01*
Y8610D02*
Y8616D01*
Y8622D02*
Y8627D01*
Y8630D02*
Y8636D01*
Y8641D02*
Y8647D01*
Y8658D02*
Y8663D01*
Y8670D02*
Y8672D01*
Y8676D02*
Y8682D01*
Y8687D02*
Y8693D01*
Y8695D02*
Y8701D01*
Y8707D02*
Y8713D01*
Y8716D02*
Y8722D01*
Y8729D02*
Y8735D01*
Y8741D02*
Y8744D01*
Y8746D02*
Y8752D01*
Y8758D02*
Y8763D01*
X8749Y8577D02*
Y8572D01*
Y8583D02*
Y8589D01*
Y8591D02*
Y8597D01*
Y8603D02*
Y8608D01*
Y8610D02*
Y8615D01*
Y8622D02*
Y8627D01*
Y8630D02*
Y8635D01*
Y8641D02*
Y8647D01*
Y8658D02*
Y8664D01*
Y8676D02*
Y8681D01*
Y8688D02*
Y8693D01*
Y8695D02*
Y8701D01*
Y8707D02*
Y8713D01*
Y8716D02*
Y8721D01*
Y8729D02*
Y8735D01*
Y8746D02*
Y8752D01*
Y8758D02*
Y8763D01*
X8750Y8577D02*
Y8572D01*
Y8584D02*
Y8589D01*
Y8591D02*
Y8597D01*
Y8603D02*
Y8608D01*
Y8610D02*
Y8628D01*
Y8630D02*
Y8635D01*
Y8642D02*
Y8647D01*
Y8658D02*
Y8671D01*
Y8676D02*
Y8681D01*
Y8688D02*
Y8693D01*
Y8695D02*
Y8701D01*
Y8707D02*
Y8713D01*
Y8716D02*
Y8721D01*
Y8729D02*
Y8734D01*
Y8746D02*
Y8763D01*
X8751Y8577D02*
Y8572D01*
Y8584D02*
Y8589D01*
Y8591D02*
Y8597D01*
Y8603D02*
Y8608D01*
Y8610D02*
Y8628D01*
Y8630D02*
Y8635D01*
Y8642D02*
Y8647D01*
Y8658D02*
Y8673D01*
Y8676D02*
Y8681D01*
Y8688D02*
Y8693D01*
Y8695D02*
Y8701D01*
Y8707D02*
Y8713D01*
Y8716D02*
Y8721D01*
Y8729D02*
Y8734D01*
Y8746D02*
Y8763D01*
X8752Y8577D02*
Y8572D01*
Y8584D02*
Y8589D01*
Y8591D02*
Y8597D01*
Y8603D02*
Y8608D01*
Y8610D02*
Y8628D01*
Y8630D02*
Y8635D01*
Y8642D02*
Y8647D01*
Y8659D02*
Y8673D01*
Y8676D02*
Y8681D01*
Y8688D02*
Y8693D01*
Y8695D02*
Y8701D01*
Y8707D02*
Y8713D01*
Y8716D02*
Y8721D01*
Y8729D02*
Y8734D01*
Y8746D02*
Y8763D01*
X8753Y8577D02*
Y8572D01*
Y8584D02*
Y8589D01*
Y8591D02*
Y8597D01*
Y8603D02*
Y8608D01*
Y8610D02*
Y8628D01*
Y8630D02*
Y8635D01*
Y8642D02*
Y8647D01*
Y8660D02*
Y8674D01*
Y8676D02*
Y8681D01*
Y8688D02*
Y8693D01*
Y8695D02*
Y8701D01*
Y8707D02*
Y8713D01*
Y8716D02*
Y8721D01*
Y8729D02*
Y8734D01*
Y8746D02*
Y8763D01*
X8754Y8577D02*
Y8572D01*
Y8584D02*
Y8589D01*
Y8591D02*
Y8597D01*
Y8603D02*
Y8608D01*
Y8610D02*
Y8628D01*
Y8630D02*
Y8635D01*
Y8642D02*
Y8647D01*
Y8663D02*
Y8674D01*
Y8676D02*
Y8681D01*
Y8688D02*
Y8693D01*
Y8695D02*
Y8701D01*
Y8707D02*
Y8713D01*
Y8716D02*
Y8721D01*
Y8729D02*
Y8734D01*
Y8746D02*
Y8763D01*
X8755Y8577D02*
Y8572D01*
Y8583D02*
Y8589D01*
Y8591D02*
Y8597D01*
Y8603D02*
Y8608D01*
Y8610D02*
Y8615D01*
Y8630D02*
Y8635D01*
Y8642D02*
Y8647D01*
Y8669D02*
Y8675D01*
Y8676D02*
Y8681D01*
Y8688D02*
Y8693D01*
Y8695D02*
Y8701D01*
Y8707D02*
Y8713D01*
Y8716D02*
Y8721D01*
Y8729D02*
Y8735D01*
Y8746D02*
Y8752D01*
X8756Y8577D02*
Y8572D01*
Y8583D02*
Y8589D01*
Y8591D02*
Y8597D01*
Y8603D02*
Y8608D01*
Y8610D02*
Y8616D01*
Y8623D02*
Y8624D01*
Y8630D02*
Y8635D01*
Y8642D02*
Y8647D01*
Y8659D02*
Y8661D01*
Y8669D02*
Y8675D01*
Y8676D02*
Y8682D01*
Y8687D02*
Y8693D01*
Y8696D02*
Y8701D01*
Y8707D02*
Y8713D01*
Y8716D02*
Y8721D01*
Y8729D02*
Y8735D01*
Y8741D02*
Y8744D01*
Y8746D02*
Y8752D01*
Y8759D02*
Y8761D01*
X8757Y8578D02*
Y8572D01*
Y8582D02*
Y8589D01*
Y8591D02*
Y8598D01*
Y8602D02*
Y8608D01*
Y8611D02*
Y8617D01*
Y8622D02*
Y8625D01*
Y8630D02*
Y8635D01*
Y8642D02*
Y8647D01*
Y8658D02*
Y8663D01*
Y8669D02*
Y8675D01*
Y8676D02*
Y8683D01*
Y8686D02*
Y8693D01*
Y8696D02*
Y8702D01*
Y8706D02*
Y8713D01*
Y8716D02*
Y8721D01*
Y8730D02*
Y8736D01*
Y8741D02*
Y8745D01*
Y8747D02*
Y8753D01*
Y8758D02*
Y8761D01*
X8758Y8588D02*
Y8572D01*
Y8591D02*
Y8608D01*
Y8611D02*
Y8626D01*
Y8630D02*
Y8635D01*
Y8642D02*
Y8647D01*
Y8657D02*
Y8674D01*
Y8677D02*
Y8692D01*
Y8696D02*
Y8713D01*
Y8716D02*
Y8721D01*
Y8730D02*
Y8746D01*
Y8747D02*
Y8763D01*
X8759Y8587D02*
Y8573D01*
Y8591D02*
Y8607D01*
Y8612D02*
Y8627D01*
Y8630D02*
Y8635D01*
Y8642D02*
Y8647D01*
Y8657D02*
Y8674D01*
Y8677D02*
Y8692D01*
Y8696D02*
Y8713D01*
Y8716D02*
Y8721D01*
Y8731D02*
Y8746D01*
Y8748D02*
Y8763D01*
X8760Y8587D02*
Y8574D01*
Y8591D02*
Y8607D01*
Y8612D02*
Y8626D01*
Y8630D02*
Y8635D01*
Y8642D02*
Y8647D01*
Y8658D02*
Y8673D01*
Y8678D02*
Y8691D01*
Y8697D02*
Y8713D01*
Y8716D02*
Y8721D01*
Y8732D02*
Y8745D01*
Y8748D02*
Y8762D01*
X8761Y8586D02*
Y8575D01*
Y8591D02*
Y8606D01*
Y8613D02*
Y8625D01*
Y8630D02*
Y8635D01*
Y8642D02*
Y8647D01*
Y8659D02*
Y8672D01*
Y8679D02*
Y8690D01*
Y8698D02*
Y8713D01*
Y8716D02*
Y8721D01*
Y8733D02*
Y8744D01*
Y8750D02*
Y8761D01*
X8762Y8584D02*
Y8576D01*
Y8591D02*
Y8597D01*
Y8598D02*
Y8604D01*
Y8615D02*
Y8623D01*
Y8630D02*
Y8635D01*
Y8642D02*
Y8647D01*
Y8661D02*
Y8670D01*
Y8681D02*
Y8688D01*
Y8700D02*
Y8706D01*
Y8707D02*
Y8713D01*
Y8716D02*
Y8721D01*
Y8734D02*
Y8742D01*
Y8751D02*
Y8760D01*
X8763Y8597D02*
Y8591D01*
X8764D02*
Y8597D01*
X8765D02*
Y8591D01*
Y8656D02*
Y8661D01*
X8766Y8597D02*
Y8591D01*
Y8656D02*
Y8661D01*
X8767Y8597D02*
Y8591D01*
Y8656D02*
Y8661D01*
X8768Y8597D02*
Y8591D01*
Y8656D02*
Y8661D01*
X8769Y8597D02*
Y8591D01*
Y8656D02*
Y8661D01*
X8770Y8597D02*
Y8591D01*
Y8656D02*
Y8661D01*
X8771Y8597D02*
Y8591D01*
Y8656D02*
Y8661D01*
X8772Y8597D02*
Y8591D01*
Y8656D02*
Y8661D01*
X8773Y8597D02*
Y8591D01*
Y8598D02*
Y8604D01*
Y8615D02*
Y8622D01*
Y8630D02*
Y8636D01*
Y8637D02*
Y8643D01*
Y8648D02*
Y8654D01*
Y8656D02*
Y8661D01*
Y8662D02*
Y8667D01*
Y8675D02*
Y8679D01*
Y8686D02*
Y8691D01*
Y8695D02*
Y8703D01*
Y8711D02*
Y8716D01*
Y8718D02*
Y8723D01*
Y8730D02*
Y8736D01*
X8774Y8605D02*
Y8591D01*
Y8613D02*
Y8624D01*
Y8630D02*
Y8645D01*
Y8647D02*
Y8655D01*
Y8656D02*
Y8661D01*
Y8662D02*
Y8668D01*
Y8674D02*
Y8679D01*
Y8686D02*
Y8691D01*
Y8693D02*
Y8705D01*
Y8711D02*
Y8725D01*
Y8728D02*
Y8738D01*
X8775Y8606D02*
Y8591D01*
Y8612D02*
Y8626D01*
Y8630D02*
Y8645D01*
Y8646D02*
Y8661D01*
Y8662D02*
Y8668D01*
Y8674D02*
Y8679D01*
Y8685D02*
Y8691D01*
Y8692D02*
Y8706D01*
Y8711D02*
Y8725D01*
Y8727D02*
Y8739D01*
X8776Y8607D02*
Y8591D01*
Y8611D02*
Y8626D01*
Y8630D02*
Y8644D01*
Y8645D02*
Y8661D01*
Y8663D02*
Y8668D01*
Y8674D02*
Y8680D01*
Y8685D02*
Y8691D01*
Y8692D02*
Y8707D01*
Y8711D02*
Y8725D01*
Y8726D02*
Y8740D01*
X8777Y8608D02*
Y8591D01*
Y8612D02*
Y8627D01*
Y8630D02*
Y8643D01*
Y8645D02*
Y8661D01*
Y8663D02*
Y8668D01*
Y8673D02*
Y8680D01*
Y8685D02*
Y8690D01*
Y8692D02*
Y8707D01*
Y8711D02*
Y8724D01*
Y8726D02*
Y8741D01*
X8778Y8599D02*
Y8591D01*
Y8601D02*
Y8608D01*
Y8613D02*
Y8616D01*
Y8621D02*
Y8627D01*
Y8630D02*
Y8638D01*
Y8640D02*
Y8643D01*
Y8644D02*
Y8651D01*
Y8654D02*
Y8661D01*
Y8663D02*
Y8669D01*
Y8673D02*
Y8680D01*
Y8685D02*
Y8690D01*
Y8694D02*
Y8697D01*
Y8702D02*
Y8708D01*
Y8711D02*
Y8718D01*
Y8720D02*
Y8723D01*
Y8725D02*
Y8732D01*
Y8735D02*
Y8741D01*
X8779Y8597D02*
Y8591D01*
Y8602D02*
Y8608D01*
Y8622D02*
Y8627D01*
Y8630D02*
Y8636D01*
Y8644D02*
Y8650D01*
Y8655D02*
Y8661D01*
Y8664D02*
Y8669D01*
Y8673D02*
Y8681D01*
Y8684D02*
Y8690D01*
Y8694D02*
Y8696D01*
Y8702D02*
Y8708D01*
Y8711D02*
Y8717D01*
Y8725D02*
Y8730D01*
Y8736D02*
Y8742D01*
X8780Y8597D02*
Y8591D01*
Y8603D02*
Y8608D01*
Y8622D02*
Y8627D01*
Y8630D02*
Y8636D01*
Y8644D02*
Y8650D01*
Y8655D02*
Y8661D01*
Y8664D02*
Y8669D01*
Y8672D02*
Y8681D01*
Y8684D02*
Y8689D01*
Y8702D02*
Y8708D01*
Y8711D02*
Y8716D01*
Y8725D02*
Y8730D01*
Y8736D02*
Y8742D01*
X8781Y8597D02*
Y8591D01*
Y8603D02*
Y8608D01*
Y8615D02*
Y8621D01*
Y8622D02*
Y8627D01*
Y8630D02*
Y8636D01*
Y8644D02*
Y8649D01*
Y8656D02*
Y8661D01*
Y8664D02*
Y8670D01*
Y8672D02*
Y8681D01*
Y8684D02*
Y8689D01*
Y8696D02*
Y8708D01*
Y8711D02*
Y8716D01*
Y8724D02*
Y8742D01*
X8782Y8597D02*
Y8591D01*
Y8603D02*
Y8608D01*
Y8613D02*
Y8627D01*
Y8630D02*
Y8636D01*
Y8644D02*
Y8649D01*
Y8656D02*
Y8661D01*
Y8665D02*
Y8670D01*
Y8672D02*
Y8676D01*
Y8677D02*
Y8682D01*
Y8683D02*
Y8689D01*
Y8693D02*
Y8708D01*
Y8711D02*
Y8716D01*
Y8724D02*
Y8742D01*
X8783Y8597D02*
Y8591D01*
Y8603D02*
Y8608D01*
Y8612D02*
Y8627D01*
Y8630D02*
Y8636D01*
Y8644D02*
Y8649D01*
Y8656D02*
Y8661D01*
Y8665D02*
Y8670D01*
Y8671D02*
Y8676D01*
Y8677D02*
Y8682D01*
Y8683D02*
Y8688D01*
Y8692D02*
Y8708D01*
Y8711D02*
Y8716D01*
Y8724D02*
Y8742D01*
X8784Y8597D02*
Y8591D01*
Y8603D02*
Y8608D01*
Y8611D02*
Y8627D01*
Y8630D02*
Y8636D01*
Y8644D02*
Y8649D01*
Y8656D02*
Y8661D01*
Y8665D02*
Y8670D01*
Y8671D02*
Y8676D01*
Y8677D02*
Y8682D01*
Y8683D02*
Y8688D01*
Y8691D02*
Y8708D01*
Y8711D02*
Y8716D01*
Y8724D02*
Y8742D01*
X8785Y8597D02*
Y8591D01*
Y8603D02*
Y8608D01*
Y8610D02*
Y8627D01*
Y8630D02*
Y8636D01*
Y8644D02*
Y8649D01*
Y8656D02*
Y8661D01*
Y8666D02*
Y8676D01*
Y8678D02*
Y8682D01*
Y8683D02*
Y8688D01*
Y8691D02*
Y8708D01*
Y8711D02*
Y8716D01*
Y8724D02*
Y8742D01*
X8786Y8597D02*
Y8591D01*
Y8603D02*
Y8608D01*
Y8610D02*
Y8616D01*
Y8622D02*
Y8627D01*
Y8630D02*
Y8636D01*
Y8644D02*
Y8649D01*
Y8656D02*
Y8661D01*
Y8666D02*
Y8675D01*
Y8678D02*
Y8687D01*
Y8691D02*
Y8696D01*
Y8702D02*
Y8708D01*
Y8711D02*
Y8716D01*
Y8724D02*
Y8730D01*
X8787Y8597D02*
Y8591D01*
Y8603D02*
Y8608D01*
Y8610D02*
Y8615D01*
Y8622D02*
Y8627D01*
Y8630D02*
Y8636D01*
Y8644D02*
Y8650D01*
Y8655D02*
Y8661D01*
Y8666D02*
Y8675D01*
Y8678D02*
Y8687D01*
Y8690D02*
Y8695D01*
Y8702D02*
Y8708D01*
Y8711D02*
Y8716D01*
Y8725D02*
Y8730D01*
X8788Y8597D02*
Y8591D01*
Y8603D02*
Y8608D01*
Y8610D02*
Y8615D01*
Y8622D02*
Y8627D01*
Y8630D02*
Y8636D01*
Y8644D02*
Y8650D01*
Y8655D02*
Y8661D01*
Y8667D02*
Y8675D01*
Y8679D02*
Y8687D01*
Y8690D02*
Y8696D01*
Y8702D02*
Y8708D01*
Y8711D02*
Y8716D01*
Y8725D02*
Y8731D01*
Y8737D02*
Y8739D01*
X8789Y8597D02*
Y8591D01*
Y8603D02*
Y8608D01*
Y8610D02*
Y8627D01*
Y8630D02*
Y8636D01*
Y8644D02*
Y8661D01*
Y8667D02*
Y8674D01*
Y8679D02*
Y8686D01*
Y8691D02*
Y8708D01*
Y8711D02*
Y8716D01*
Y8725D02*
Y8740D01*
X8790Y8597D02*
Y8591D01*
Y8603D02*
Y8608D01*
Y8610D02*
Y8627D01*
Y8630D02*
Y8636D01*
Y8645D02*
Y8661D01*
Y8667D02*
Y8674D01*
Y8679D02*
Y8686D01*
Y8691D02*
Y8708D01*
Y8711D02*
Y8716D01*
Y8726D02*
Y8741D01*
X8791Y8597D02*
Y8591D01*
Y8603D02*
Y8608D01*
Y8611D02*
Y8627D01*
Y8630D02*
Y8636D01*
Y8645D02*
Y8661D01*
Y8667D02*
Y8674D01*
Y8679D02*
Y8686D01*
Y8691D02*
Y8708D01*
Y8711D02*
Y8716D01*
Y8727D02*
Y8741D01*
X8792Y8597D02*
Y8591D01*
Y8603D02*
Y8608D01*
Y8612D02*
Y8627D01*
Y8630D02*
Y8636D01*
Y8646D02*
Y8661D01*
Y8668D02*
Y8673D01*
Y8680D02*
Y8685D01*
Y8692D02*
Y8708D01*
Y8711D02*
Y8716D01*
Y8728D02*
Y8740D01*
X8793Y8597D02*
Y8591D01*
Y8603D02*
Y8608D01*
Y8613D02*
Y8627D01*
Y8630D02*
Y8636D01*
Y8647D02*
Y8655D01*
Y8656D02*
Y8661D01*
Y8668D02*
Y8673D01*
Y8680D02*
Y8685D01*
Y8693D02*
Y8708D01*
Y8711D02*
Y8716D01*
Y8729D02*
Y8739D01*
X8726Y8540D02*
Y8425D01*
D12*
X10125Y8644D02*
Y8657D01*
Y8644D02*
X10132Y8637D01*
X10158D01*
X10165Y8644D01*
Y8657D01*
X10158Y8664D01*
X10132D01*
X10125Y8657D01*
Y8677D02*
X10165D01*
Y8704D01*
X10125Y8717D02*
Y8744D01*
Y8717D02*
X10165D01*
Y8744D01*
X10145Y8730D02*
Y8717D01*
X10165Y8757D02*
X10125D01*
X10165D02*
Y8777D01*
X10158Y8784D01*
X10132D01*
X10125Y8777D01*
Y8757D01*
X10165Y8797D02*
Y8810D01*
Y8804D01*
X10125D01*
X10126D01*
X10125D02*
X10132Y8797D01*
X9770Y7537D02*
Y7504D01*
X9777Y7497D01*
X9790D01*
X9797Y7504D01*
Y7537D01*
X9810D02*
X9837D01*
Y7530D01*
X9810Y7504D01*
Y7497D01*
X9233Y8067D02*
X9200D01*
X9233D02*
X9240Y8074D01*
Y8087D01*
X9233Y8094D01*
X9200D01*
X9207Y8120D02*
X9200Y8134D01*
X9207Y8120D02*
X9220Y8107D01*
X9233D01*
X9240Y8114D01*
Y8127D01*
X9233Y8134D01*
X9227D01*
X9220Y8127D01*
Y8107D01*
X9660Y8062D02*
X9693D01*
X9700Y8069D01*
Y8082D01*
X9693Y8089D01*
X9660D01*
Y8102D02*
Y8129D01*
Y8102D02*
X9680D01*
X9673Y8115D01*
Y8122D01*
X9680Y8129D01*
X9693D01*
X9700Y8122D01*
Y8109D01*
X9693Y8102D01*
X10345Y8302D02*
X10378D01*
X10385Y8309D01*
Y8322D01*
X10378Y8329D01*
X10345D01*
Y8362D02*
X10385D01*
X10365Y8342D02*
X10345Y8362D01*
X10365Y8369D02*
Y8342D01*
X11360Y8512D02*
X11393D01*
X11400Y8519D01*
Y8532D01*
X11393Y8539D01*
X11360D01*
X11367Y8552D02*
X11360Y8559D01*
Y8572D01*
X11367Y8579D01*
X11373D01*
X11374D01*
X11373D02*
X11374D01*
X11373D02*
X11374D01*
X11373D02*
X11380Y8572D01*
Y8565D01*
Y8572D01*
X11387Y8579D01*
X11393D01*
X11400Y8572D01*
Y8559D01*
X11393Y8552D01*
X10150Y7367D02*
Y7334D01*
X10157Y7327D01*
X10170D01*
X10177Y7334D01*
Y7367D01*
X10190Y7327D02*
X10217D01*
X10190D02*
X10217Y7354D01*
Y7360D01*
X10210Y7367D01*
X10197D01*
X10190Y7360D01*
X10807Y9045D02*
X10800Y9052D01*
X10787D01*
X10780Y9045D01*
Y9039D01*
X10787Y9032D01*
X10800D01*
X10807Y9025D01*
Y9019D01*
X10800Y9012D01*
X10787D01*
X10780Y9019D01*
X10820Y9012D02*
Y9052D01*
X10840D01*
X10847Y9045D01*
Y9032D01*
X10840Y9025D01*
X10820D01*
X10860Y9052D02*
X10873D01*
X10867D01*
Y9012D01*
X10860D01*
X10873D01*
X10893Y9005D02*
X10920D01*
X10933Y9012D02*
Y9052D01*
X10953D01*
X10960Y9045D01*
Y9032D01*
X10953Y9025D01*
X10933D01*
X10973Y9012D02*
Y9052D01*
X10987Y9025D02*
X10973Y9012D01*
X10987Y9025D02*
X11000Y9012D01*
Y9052D01*
X11013D02*
Y9012D01*
Y9052D02*
X11033D01*
X11040Y9045D01*
Y9032D01*
X11033Y9025D01*
X11013D01*
X11027D02*
X11040Y9012D01*
X9250Y9007D02*
Y9047D01*
X9270D01*
X9277Y9040D01*
Y9027D01*
X9270Y9020D01*
X9250D01*
X9263D02*
X9277Y9007D01*
X9290Y9047D02*
X9317D01*
X9290D02*
Y9007D01*
X9317D01*
X9303Y9027D02*
X9290D01*
X9350Y9047D02*
X9357Y9040D01*
X9350Y9047D02*
X9337D01*
X9330Y9040D01*
Y9034D01*
X9337Y9027D01*
X9350D01*
X9357Y9020D01*
Y9014D01*
X9350Y9007D01*
X9337D01*
X9330Y9014D01*
X9370Y9047D02*
X9397D01*
X9370D02*
Y9007D01*
X9397D01*
X9383Y9027D02*
X9370D01*
X9410Y9047D02*
X9437D01*
X9423D01*
Y9007D01*
X10245Y9012D02*
Y9052D01*
X10265D01*
X10272Y9045D01*
Y9032D01*
X10265Y9025D01*
X10245D01*
X10285Y9012D02*
Y9052D01*
X10298Y9025D02*
X10285Y9012D01*
X10298Y9025D02*
X10312Y9012D01*
Y9052D01*
X10325D02*
Y9012D01*
Y9052D02*
X10345D01*
X10352Y9045D01*
Y9032D01*
X10345Y9025D01*
X10325D01*
X10338D02*
X10352Y9012D01*
X10365Y9005D02*
X10392D01*
X10405Y9012D02*
Y9052D01*
Y9012D02*
X10425D01*
X10432Y9019D01*
Y9025D01*
X10425Y9032D01*
X10405D01*
X10406D01*
X10405D02*
X10406D01*
X10405D02*
X10406D01*
X10405D02*
X10425D01*
X10432Y9039D01*
Y9045D01*
X10425Y9052D01*
X10405D01*
X10445D02*
X10472D01*
X10458D01*
Y9012D01*
X10485D02*
Y9052D01*
X10512Y9012D01*
Y9052D01*
X10155Y8919D02*
Y8905D01*
Y8912D01*
X10188D01*
X10195Y8905D01*
Y8899D01*
X10188Y8892D01*
X10195Y8932D02*
Y8945D01*
Y8939D01*
X10155D01*
X10156D01*
X10155D02*
X10162Y8932D01*
X10155Y8965D02*
Y8992D01*
Y8965D02*
X10175D01*
X10168Y8979D01*
Y8985D01*
X10175Y8992D01*
X10188D01*
X10195Y8985D01*
Y8972D01*
X10188Y8965D01*
X8795Y7309D02*
Y7295D01*
Y7302D01*
X8828D01*
X8835Y7295D01*
Y7289D01*
X8828Y7282D01*
X8835Y7322D02*
Y7335D01*
Y7329D01*
X8795D01*
X8796D01*
X8795D02*
X8802Y7322D01*
X8795Y7375D02*
X8835D01*
X8815Y7355D02*
X8795Y7375D01*
X8815Y7382D02*
Y7355D01*
X9150Y8905D02*
Y8919D01*
Y8912D02*
Y8905D01*
Y8912D02*
X9183D01*
X9190Y8905D01*
Y8899D01*
X9183Y8892D01*
X9190Y8932D02*
Y8945D01*
Y8939D01*
X9150D01*
X9151D01*
X9150D02*
X9157Y8932D01*
Y8965D02*
X9150Y8972D01*
Y8985D01*
X9157Y8992D01*
X9163D01*
X9164D01*
X9163D02*
X9164D01*
X9163D02*
X9164D01*
X9163D02*
X9170Y8985D01*
Y8979D01*
Y8985D01*
X9177Y8992D01*
X9183D01*
X9190Y8985D01*
Y8972D01*
X9183Y8965D01*
X9615Y8919D02*
Y8905D01*
Y8912D01*
X9648D01*
X9655Y8905D01*
Y8899D01*
X9648Y8892D01*
X9655Y8932D02*
Y8945D01*
Y8939D01*
X9615D01*
X9616D01*
X9615D02*
X9622Y8932D01*
X9655Y8965D02*
Y8992D01*
Y8965D02*
X9628Y8992D01*
X9622D01*
X9615Y8985D01*
Y8972D01*
X9622Y8965D01*
X10580Y7304D02*
Y7290D01*
Y7297D01*
X10613D01*
X10620Y7290D01*
Y7284D01*
X10613Y7277D01*
X10620Y7317D02*
Y7330D01*
Y7324D01*
X10580D01*
X10581D01*
X10580D02*
X10587Y7317D01*
X10620Y7350D02*
Y7364D01*
Y7357D01*
X10580D01*
X10581D01*
X10580D02*
X10587Y7350D01*
X8855Y7274D02*
Y7260D01*
Y7267D01*
X8888D01*
X8895Y7260D01*
Y7254D01*
X8888Y7247D01*
X8895Y7287D02*
Y7300D01*
Y7294D01*
X8855D01*
X8856D01*
X8855D02*
X8862Y7287D01*
Y7320D02*
X8855Y7327D01*
Y7340D01*
X8862Y7347D01*
X8888D01*
X8895Y7340D01*
Y7327D01*
X8888Y7320D01*
X8862D01*
X9155Y7304D02*
Y7290D01*
Y7297D01*
X9188D01*
X9195Y7290D01*
Y7284D01*
X9188Y7277D01*
Y7317D02*
X9195Y7324D01*
Y7337D01*
X9188Y7344D01*
X9162D01*
X9155Y7337D01*
Y7324D01*
X9162Y7317D01*
X9168D01*
X9175Y7324D01*
Y7344D01*
X9400Y7294D02*
Y7280D01*
Y7287D01*
X9433D01*
X9440Y7280D01*
Y7274D01*
X9433Y7267D01*
X9407Y7307D02*
X9400Y7314D01*
Y7327D01*
X9407Y7334D01*
X9413D01*
X9420Y7327D01*
X9427Y7334D01*
X9433D01*
X9440Y7327D01*
Y7314D01*
X9433Y7307D01*
X9427D01*
X9420Y7314D01*
X9413Y7307D01*
X9407D01*
X9420Y7314D02*
Y7327D01*
X9910Y7294D02*
Y7280D01*
Y7287D01*
X9943D01*
X9950Y7280D01*
Y7274D01*
X9943Y7267D01*
X9910Y7307D02*
Y7334D01*
X9917D01*
X9943Y7307D01*
X9950D01*
X10775Y8910D02*
Y8924D01*
Y8917D02*
Y8910D01*
Y8917D02*
X10808D01*
X10815Y8910D01*
Y8904D01*
X10808Y8897D01*
X10782Y8950D02*
X10775Y8964D01*
X10782Y8950D02*
X10795Y8937D01*
X10808D01*
X10815Y8944D01*
Y8957D01*
X10808Y8964D01*
X10802D01*
X10795Y8957D01*
Y8937D01*
X11129Y8160D02*
Y8146D01*
Y8153D01*
X11162D01*
X11169Y8146D01*
Y8140D01*
X11162Y8133D01*
X11129Y8173D02*
Y8200D01*
Y8173D02*
X11149D01*
X11142Y8186D01*
Y8193D01*
X11149Y8200D01*
X11162D01*
X11169Y8193D01*
Y8180D01*
X11162Y8173D01*
X9692Y9045D02*
X9685Y9052D01*
X9672D01*
X9665Y9045D01*
Y9019D01*
X9672Y9012D01*
X9685D01*
X9692Y9019D01*
X9705Y9012D02*
Y9052D01*
Y9012D02*
X9732D01*
X9745D02*
Y9052D01*
X9765D01*
X9772Y9045D01*
Y9032D01*
X9765Y9025D01*
X9745D01*
X9758D02*
X9772Y9012D01*
X9785Y9005D02*
X9812D01*
X9852Y9045D02*
X9845Y9052D01*
X9832D01*
X9825Y9045D01*
Y9019D01*
X9832Y9012D01*
X9845D01*
X9852Y9019D01*
X9865Y9012D02*
Y9052D01*
X9878Y9039D01*
X9892Y9052D01*
Y9012D01*
X9912Y9052D02*
X9925D01*
X9912D02*
X9905Y9045D01*
Y9019D01*
X9912Y9012D01*
X9925D01*
X9932Y9019D01*
Y9045D01*
X9925Y9052D01*
X9965D02*
X9972Y9045D01*
X9965Y9052D02*
X9952D01*
X9945Y9045D01*
Y9039D01*
X9952Y9032D01*
X9965D01*
X9972Y9025D01*
Y9019D01*
X9965Y9012D01*
X9952D01*
X9945Y9019D01*
X11193Y7152D02*
X11207D01*
X11200D02*
X11193D01*
X11200D02*
Y7119D01*
X11193Y7112D01*
X11187D01*
X11180Y7119D01*
X11220Y7112D02*
X11233D01*
X11227D01*
Y7152D01*
X11228D01*
X11227D02*
X11220Y7145D01*
X11120Y7575D02*
Y7589D01*
Y7582D02*
Y7575D01*
Y7582D02*
X11153D01*
X11160Y7575D01*
Y7569D01*
X11153Y7562D01*
X11160Y7602D02*
X11120D01*
Y7622D01*
X11127Y7629D01*
X11140D01*
X11147Y7622D01*
Y7602D01*
X11160Y7642D02*
Y7655D01*
Y7649D01*
X11120D01*
X11121D01*
X11120D02*
X11127Y7642D01*
X9317Y7297D02*
X9303D01*
X9310D01*
Y7264D01*
X9303Y7257D01*
X9297D01*
X9290Y7264D01*
X9330Y7257D02*
X9357D01*
X9330D02*
X9357Y7284D01*
Y7290D01*
X9350Y7297D01*
X9337D01*
X9330Y7290D01*
X9102Y6817D02*
X9088D01*
X9095D01*
Y6784D01*
X9088Y6777D01*
X9082D01*
X9075Y6784D01*
X9115Y6810D02*
X9122Y6817D01*
X9135D01*
X9142Y6810D01*
Y6804D01*
X9143D01*
X9142D02*
X9143D01*
X9142D02*
X9143D01*
X9142D02*
X9135Y6797D01*
X9128D01*
X9135D01*
X9142Y6790D01*
Y6784D01*
X9135Y6777D01*
X9122D01*
X9115Y6784D01*
X11430Y7107D02*
Y7134D01*
X11443Y7120D02*
X11417D01*
Y7147D02*
X11410Y7154D01*
Y7167D01*
X11417Y7174D01*
X11423D01*
X11424D01*
X11423D02*
X11424D01*
X11423D02*
X11424D01*
X11423D02*
X11430Y7167D01*
Y7160D01*
Y7167D01*
X11437Y7174D01*
X11443D01*
X11450Y7167D01*
Y7154D01*
X11443Y7147D01*
X11437Y7187D02*
X11410D01*
X11437D02*
X11450Y7200D01*
X11437Y7214D01*
X11410D01*
X11417Y7227D02*
X11410Y7234D01*
Y7247D01*
X11417Y7254D01*
X11423D01*
X11424D01*
X11423D02*
X11424D01*
X11423D02*
X11424D01*
X11423D02*
X11430Y7247D01*
Y7240D01*
Y7247D01*
X11437Y7254D01*
X11443D01*
X11450Y7247D01*
Y7234D01*
X11443Y7227D01*
X11450Y7267D02*
X11410D01*
Y7287D01*
X11417Y7294D01*
X11430D01*
X11437Y7287D01*
Y7267D01*
X11450Y7307D02*
X11410D01*
X11437Y7320D02*
X11450Y7307D01*
X11437Y7320D02*
X11450Y7334D01*
X11410D01*
X11182Y6892D02*
X11155D01*
X11168Y6879D02*
Y6905D01*
X11195Y6912D02*
X11222D01*
X11195D02*
Y6892D01*
X11208Y6899D01*
X11215D01*
X11222Y6892D01*
Y6879D01*
X11215Y6872D01*
X11202D01*
X11195Y6879D01*
X11235Y6885D02*
Y6912D01*
Y6885D02*
X11248Y6872D01*
X11262Y6885D01*
Y6912D01*
X11275D02*
Y6872D01*
Y6912D02*
X11295D01*
X11302Y6905D01*
Y6892D01*
X11295Y6885D01*
X11275D01*
X11315Y6872D02*
Y6912D01*
X11328Y6885D02*
X11315Y6872D01*
X11328Y6885D02*
X11342Y6872D01*
Y6912D01*
X8740Y7477D02*
X8713D01*
X8700Y7490D01*
X8713Y7504D01*
X8740D01*
X8720D01*
Y7477D01*
X8700Y7537D02*
X8707Y7544D01*
X8700Y7537D02*
Y7524D01*
X8707Y7517D01*
X8733D01*
X8740Y7524D01*
Y7537D01*
X8733Y7544D01*
X8747Y7557D02*
Y7584D01*
X8707Y7624D02*
X8700Y7617D01*
Y7604D01*
X8707Y7597D01*
X8713D01*
X8720Y7604D01*
Y7617D01*
X8727Y7624D01*
X8733D01*
X8740Y7617D01*
Y7604D01*
X8733Y7597D01*
X8740Y7637D02*
X8700D01*
X8727Y7650D02*
X8740Y7637D01*
X8727Y7650D02*
X8740Y7664D01*
X8700D01*
D13*
X11047Y8165D02*
X11051Y8169D01*
X11047Y8165D02*
X11045Y8159D01*
Y8152D01*
X11047Y8146D01*
X11051Y8142D01*
X11055D01*
X11058Y8144D01*
X11060Y8146D01*
X11062Y8150D01*
X11066Y8161D01*
X11068Y8165D01*
X11070Y8167D01*
X11074Y8169D01*
X11079D01*
X11083Y8165D01*
X11085Y8159D01*
Y8152D01*
X11083Y8146D01*
X11079Y8142D01*
X11066Y8178D02*
Y8195D01*
X11064Y8200D01*
X11062Y8202D01*
X11058Y8204D01*
X11053D01*
X11049Y8202D01*
X11047Y8200D01*
X11045Y8195D01*
Y8178D01*
X11085D01*
Y8213D02*
X11045D01*
X11053Y8222D02*
X11051Y8225D01*
X11045Y8231D01*
X11085D01*
X11056Y7409D02*
X11052Y7405D01*
X11050Y7399D01*
Y7392D01*
X11052Y7386D01*
X11056Y7382D01*
X11060D01*
X11063Y7384D01*
X11065Y7386D01*
X11067Y7390D01*
X11071Y7401D01*
X11073Y7405D01*
X11075Y7407D01*
X11079Y7409D01*
X11084D01*
X11088Y7405D01*
X11090Y7399D01*
Y7392D01*
X11088Y7386D01*
X11084Y7382D01*
X11071Y7418D02*
Y7435D01*
X11069Y7440D01*
X11067Y7442D01*
X11063Y7444D01*
X11058D01*
X11054Y7442D01*
X11052Y7440D01*
X11050Y7435D01*
Y7418D01*
X11090D01*
Y7453D02*
X11050D01*
X11052Y7467D02*
X11050Y7473D01*
X11052Y7467D02*
X11058Y7464D01*
X11067Y7462D01*
X11073D01*
X11082Y7464D01*
X11088Y7467D01*
X11090Y7473D01*
Y7477D01*
X11088Y7483D01*
X11082Y7486D01*
X11073Y7488D01*
X11067D01*
X11058Y7486D01*
X11052Y7483D01*
X11050Y7477D01*
Y7473D01*
X8840Y7897D02*
X8800D01*
Y7910D01*
X8802Y7916D01*
X8806Y7920D01*
X8810Y7922D01*
X8815Y7924D01*
X8825D01*
X8830Y7922D01*
X8834Y7920D01*
X8838Y7916D01*
X8840Y7910D01*
Y7897D01*
X8825Y7933D02*
Y7955D01*
X8821D01*
X8817Y7954D01*
X8815Y7952D01*
X8813Y7948D01*
Y7942D01*
X8815Y7938D01*
X8819Y7935D01*
X8825Y7933D01*
X8829D01*
X8834Y7935D01*
X8838Y7938D01*
X8840Y7942D01*
Y7948D01*
X8838Y7952D01*
X8834Y7955D01*
X8815Y7983D02*
X8819Y7987D01*
X8815Y7983D02*
X8813Y7979D01*
Y7974D01*
X8815Y7970D01*
X8819Y7966D01*
X8825Y7964D01*
X8829D01*
X8834Y7966D01*
X8838Y7970D01*
X8840Y7974D01*
Y7979D01*
X8838Y7983D01*
X8834Y7987D01*
X8810Y8029D02*
X8808D01*
X8804Y8031D01*
X8802Y8033D01*
X8800Y8036D01*
Y8044D01*
X8802Y8048D01*
X8804Y8050D01*
X8808Y8052D01*
X8811D01*
X8815Y8050D01*
X8821Y8046D01*
X8840Y8027D01*
Y8054D01*
X8802Y8068D02*
X8800Y8074D01*
X8802Y8068D02*
X8808Y8064D01*
X8817Y8062D01*
X8823D01*
X8832Y8064D01*
X8838Y8068D01*
X8840Y8074D01*
Y8078D01*
X8838Y8083D01*
X8832Y8087D01*
X8823Y8089D01*
X8817D01*
X8808Y8087D01*
X8802Y8083D01*
X8800Y8078D01*
Y8074D01*
X8808Y8098D02*
X8806Y8102D01*
X8800Y8108D01*
X8840D01*
X8806Y8150D02*
X8802Y8148D01*
X8800Y8143D01*
Y8139D01*
X8802Y8133D01*
X8808Y8129D01*
X8817Y8127D01*
X8827D01*
X8834Y8129D01*
X8838Y8133D01*
X8840Y8139D01*
Y8141D01*
X8838Y8146D01*
X8834Y8150D01*
X8829Y8152D01*
X8827D01*
X8821Y8150D01*
X8817Y8146D01*
X8815Y8141D01*
Y8139D01*
X8817Y8133D01*
X8821Y8129D01*
X8827Y8127D01*
X8840Y8192D02*
X8800D01*
Y8210D01*
X8802Y8215D01*
X8804Y8217D01*
X8808Y8219D01*
X8811D01*
X8815Y8217D01*
X8817Y8215D01*
X8819Y8210D01*
Y8192D01*
Y8206D02*
X8840Y8219D01*
X8825Y8228D02*
Y8251D01*
X8821D01*
X8817Y8249D01*
X8815Y8247D01*
X8813Y8243D01*
Y8237D01*
X8815Y8234D01*
X8819Y8230D01*
X8825Y8228D01*
X8829D01*
X8834Y8230D01*
X8838Y8234D01*
X8840Y8237D01*
Y8243D01*
X8838Y8247D01*
X8834Y8251D01*
X8840Y8271D02*
X8813Y8259D01*
Y8282D02*
X8840Y8271D01*
X8838Y8289D02*
X8836Y8291D01*
X8838Y8289D02*
X8840Y8291D01*
X8838Y8293D01*
X8836Y8291D01*
X8840Y8332D02*
X8800Y8317D01*
X8840Y8301D01*
X8827Y8307D02*
Y8326D01*
X11400Y8072D02*
X11440D01*
X11400D02*
Y8085D01*
X11402Y8091D01*
X11406Y8095D01*
X11410Y8097D01*
X11415Y8099D01*
X11425D01*
X11430Y8097D01*
X11434Y8095D01*
X11438Y8091D01*
X11440Y8085D01*
Y8072D01*
X11425Y8108D02*
Y8130D01*
X11421D01*
X11417Y8129D01*
X11415Y8127D01*
X11413Y8123D01*
Y8117D01*
X11415Y8113D01*
X11419Y8110D01*
X11425Y8108D01*
X11429D01*
X11434Y8110D01*
X11438Y8113D01*
X11440Y8117D01*
Y8123D01*
X11438Y8127D01*
X11434Y8130D01*
X11419Y8160D02*
X11415Y8158D01*
X11413Y8152D01*
Y8147D01*
X11415Y8141D01*
X11419Y8139D01*
X11423Y8141D01*
X11425Y8145D01*
X11427Y8154D01*
X11429Y8158D01*
X11432Y8160D01*
X11434D01*
X11438Y8158D01*
X11440Y8152D01*
Y8147D01*
X11438Y8141D01*
X11434Y8139D01*
X11400Y8172D02*
X11402Y8174D01*
X11400Y8176D01*
X11398Y8174D01*
X11400Y8172D01*
X11413Y8174D02*
X11440D01*
X11444Y8206D02*
X11413D01*
X11444D02*
X11450Y8204D01*
X11451Y8202D01*
X11453Y8198D01*
Y8193D01*
X11451Y8189D01*
X11419Y8206D02*
X11415Y8202D01*
X11413Y8198D01*
Y8193D01*
X11415Y8189D01*
X11419Y8185D01*
X11425Y8183D01*
X11429D01*
X11434Y8185D01*
X11438Y8189D01*
X11440Y8193D01*
Y8198D01*
X11438Y8202D01*
X11434Y8206D01*
X11440Y8217D02*
X11413D01*
X11415Y8222D02*
X11421Y8217D01*
X11415Y8222D02*
X11413Y8226D01*
Y8232D01*
X11415Y8236D01*
X11421Y8237D01*
X11440D01*
X11425Y8248D02*
Y8271D01*
X11421D01*
X11417Y8269D01*
X11415Y8267D01*
X11413Y8263D01*
Y8257D01*
X11415Y8254D01*
X11419Y8250D01*
X11425Y8248D01*
X11429D01*
X11434Y8250D01*
X11438Y8254D01*
X11440Y8257D01*
Y8263D01*
X11438Y8267D01*
X11434Y8271D01*
X11440Y8302D02*
X11400D01*
X11415Y8298D02*
X11419Y8302D01*
X11415Y8298D02*
X11413Y8295D01*
Y8289D01*
X11415Y8285D01*
X11419Y8281D01*
X11425Y8279D01*
X11429D01*
X11434Y8281D01*
X11438Y8285D01*
X11440Y8289D01*
Y8295D01*
X11438Y8298D01*
X11434Y8302D01*
X11440Y8344D02*
X11400D01*
X11415Y8348D02*
X11419Y8344D01*
X11415Y8348D02*
X11413Y8352D01*
Y8358D01*
X11415Y8361D01*
X11419Y8365D01*
X11425Y8367D01*
X11429D01*
X11434Y8365D01*
X11438Y8361D01*
X11440Y8358D01*
Y8352D01*
X11438Y8348D01*
X11434Y8344D01*
X11413Y8378D02*
X11440Y8389D01*
X11413Y8401D01*
X11440Y8389D02*
X11448Y8385D01*
X11451Y8381D01*
X11453Y8378D01*
Y8376D01*
X11440Y8439D02*
X11400D01*
X11440Y8465D01*
X11400D01*
X11436Y8478D02*
X11438Y8476D01*
X11440Y8478D01*
X11438Y8480D01*
X11436Y8478D01*
X11440Y8489D02*
X11400D01*
Y8514D01*
X11419Y8504D02*
Y8489D01*
X11438Y8518D02*
X11436Y8520D01*
X11438Y8518D02*
X11440Y8520D01*
X11438Y8522D01*
X11436Y8520D01*
D16*
X10585Y7842D02*
Y7772D01*
X10555Y7807D02*
X10615D01*
X11035Y8232D02*
X10135D01*
Y7382D02*
X11035D01*
X10135D02*
Y8232D01*
X11035D02*
Y7382D01*
Y7562D02*
Y7612D01*
X11010Y7587D01*
X11035Y7562D01*
Y7856D02*
Y7906D01*
X11010Y7881D01*
X11035Y7856D01*
X9755Y7572D02*
Y7497D01*
Y7622D02*
Y7697D01*
X9555D02*
Y7497D01*
Y7697D02*
X9755D01*
Y7497D02*
X9555D01*
X9275Y8157D02*
X9200D01*
X9325D02*
X9400D01*
Y8357D02*
X9200D01*
X9400D02*
Y8157D01*
X9200D02*
Y8357D01*
X9665Y8157D02*
X9740D01*
X9790D02*
X9865D01*
Y8357D02*
X9665D01*
X9865D02*
Y8157D01*
X9665D02*
Y8357D01*
X10125Y8467D02*
Y8542D01*
Y8417D02*
Y8342D01*
X10325D02*
Y8542D01*
Y8342D02*
X10125D01*
Y8542D02*
X10325D01*
X11345Y8452D02*
Y8377D01*
Y8502D02*
Y8577D01*
X11145D02*
Y8377D01*
Y8577D02*
X11345D01*
Y8377D02*
X11145D01*
X9530Y9057D02*
X9520Y9047D01*
X9530Y9057D02*
X9580D01*
X9590Y9047D01*
Y8957D02*
Y8892D01*
X9520D01*
Y8957D01*
X9590Y8992D02*
Y9047D01*
X9520D02*
Y8992D01*
X10210Y8892D02*
X10510D01*
Y8992D01*
X10210D01*
Y8892D01*
X10310D02*
Y8992D01*
X8855Y7707D02*
Y7407D01*
Y7707D02*
X8755D01*
Y7407D01*
X8855D01*
Y7507D02*
X8755D01*
X9665Y8892D02*
X9965D01*
Y8992D01*
X9665D01*
Y8892D01*
X9765D02*
Y8992D01*
X10465Y7362D02*
Y7262D01*
X10365D02*
Y7362D01*
X10565D01*
Y7262D01*
X10365D01*
X9010Y7247D02*
X8910D01*
Y7147D02*
X9010D01*
X8910D02*
Y7347D01*
X9010D01*
Y7147D01*
X9045Y7247D02*
X9145D01*
Y7147D02*
X9045D01*
Y7347D01*
X9145D01*
Y7147D01*
X9565Y7262D02*
Y7362D01*
X9665D02*
Y7262D01*
X9465D01*
Y7362D01*
X9665D01*
X10945Y8892D02*
Y8992D01*
X10845D02*
Y8892D01*
Y8992D02*
X11045D01*
Y8892D01*
X10845D01*
X11285Y8227D02*
Y8127D01*
X11185D02*
Y8227D01*
X11385D01*
Y8127D01*
X11185D01*
X11065Y7247D02*
Y7147D01*
X11165D02*
Y7247D01*
Y7147D02*
X9165D01*
Y7247D01*
X11165D01*
X11065Y6877D02*
Y6777D01*
X11165D02*
Y6877D01*
Y6777D02*
X9165D01*
Y6877D01*
X11165D01*
X11300Y7232D02*
X11355D01*
Y7162D02*
X11300D01*
X11265Y7232D02*
X11200D01*
Y7162D01*
X11265D01*
X11355D02*
X11365Y7172D01*
Y7222D01*
X11355Y7232D01*
Y6862D02*
X11300D01*
Y6792D02*
X11355D01*
X11265Y6862D02*
X11200D01*
Y6792D01*
X11265D01*
X11355D02*
X11365Y6802D01*
Y6852D01*
X11355Y6862D01*
X10535Y8992D02*
Y9047D01*
X10605D02*
Y8992D01*
X10535Y8957D02*
Y8892D01*
X10605D01*
Y8957D01*
Y9047D02*
X10595Y9057D01*
X10545D01*
X10535Y9047D01*
X9300Y8992D02*
Y8892D01*
X9200D02*
Y8992D01*
X9500D01*
Y8892D01*
X9200D01*
Y8867D02*
X9400D01*
X9275Y8382D02*
X9200D01*
X9325D02*
X9400D01*
Y8867D01*
X9200D02*
Y8382D01*
X9040Y7697D02*
Y7497D01*
X9525D02*
Y7572D01*
Y7622D02*
Y7697D01*
X9040D01*
Y7497D02*
X9525D01*
X10845Y8867D02*
X11045D01*
X10920Y8382D02*
X10845D01*
X10970D02*
X11045D01*
Y8867D01*
X10845D02*
Y8382D01*
X11065Y8992D02*
Y9047D01*
X11135D02*
Y8992D01*
X11065Y8957D02*
Y8892D01*
X11135D01*
Y8957D01*
Y9047D02*
X11125Y9057D01*
X11075D01*
X11065Y9047D01*
X10635Y8867D02*
X10435D01*
Y8382D02*
X10510D01*
X10560D02*
X10635D01*
Y8867D01*
X10435D02*
Y8382D01*
X9990Y8992D02*
Y9047D01*
X10060D02*
Y8992D01*
X9990Y8957D02*
Y8892D01*
X10060D01*
Y8957D01*
Y9047D02*
X10050Y9057D01*
X10000D01*
X9990Y9047D01*
X8755Y7727D02*
X8700D01*
Y7797D02*
X8755D01*
X8790Y7727D02*
X8855D01*
Y7797D01*
X8790D01*
X8700D02*
X8690Y7787D01*
Y7737D01*
X8700Y7727D01*
X9695Y7262D02*
X9895D01*
Y7362D01*
X9695D01*
Y7262D01*
X9795D02*
Y7362D01*
X9865Y8867D02*
X9665D01*
Y8382D02*
X9740D01*
X9790D02*
X9865D01*
Y8867D01*
X9665D02*
Y8382D01*
X8995Y8512D02*
Y8642D01*
X8915D01*
Y8512D01*
X8995D01*
X10055D02*
Y8642D01*
X9975D01*
Y8512D01*
X10055D01*
Y7672D02*
Y7542D01*
Y7672D02*
X9975D01*
Y7542D01*
X10055D01*
X8995D02*
Y7672D01*
X8915D01*
Y7542D01*
X8995D01*
X9005Y7892D02*
Y8292D01*
X8905D01*
Y7892D01*
X9005D01*
Y7992D02*
X8905D01*
X8870Y7382D02*
X10100D01*
X8870D02*
Y8802D01*
X10100D02*
Y7382D01*
Y8802D02*
X8870D01*
X8945Y8242D02*
X8965D01*
X10265Y8162D02*
X10265Y8159D01*
X10265Y8155D01*
X10264Y8152D01*
X10264Y8149D01*
X10263Y8146D01*
X10262Y8143D01*
X10261Y8139D01*
X10259Y8136D01*
X10258Y8133D01*
X10256Y8131D01*
X10254Y8128D01*
X10252Y8125D01*
X10250Y8123D01*
X10248Y8120D01*
X10246Y8118D01*
X10243Y8116D01*
X10241Y8114D01*
X10238Y8112D01*
X10235Y8110D01*
X10232Y8108D01*
X10229Y8107D01*
X10226Y8106D01*
X10223Y8105D01*
X10220Y8104D01*
X10217Y8103D01*
X10213Y8103D01*
X10210Y8102D01*
X10207Y8102D01*
X10203D01*
X10200Y8102D01*
X10197Y8103D01*
X10193Y8103D01*
X10190Y8104D01*
X10187Y8105D01*
X10184Y8106D01*
X10181Y8107D01*
X10178Y8108D01*
X10175Y8110D01*
X10172Y8112D01*
X10169Y8114D01*
X10167Y8116D01*
X10164Y8118D01*
X10162Y8120D01*
X10160Y8123D01*
X10158Y8125D01*
X10156Y8128D01*
X10154Y8131D01*
X10152Y8133D01*
X10151Y8136D01*
X10149Y8139D01*
X10148Y8143D01*
X10147Y8146D01*
X10146Y8149D01*
X10146Y8152D01*
X10145Y8155D01*
X10145Y8159D01*
X10145Y8162D01*
X10145Y8165D01*
X10145Y8169D01*
X10146Y8172D01*
X10146Y8175D01*
X10147Y8178D01*
X10148Y8181D01*
X10149Y8185D01*
X10151Y8188D01*
X10152Y8191D01*
X10154Y8193D01*
X10156Y8196D01*
X10158Y8199D01*
X10160Y8201D01*
X10162Y8204D01*
X10164Y8206D01*
X10167Y8208D01*
X10169Y8210D01*
X10172Y8212D01*
X10175Y8214D01*
X10178Y8216D01*
X10181Y8217D01*
X10184Y8218D01*
X10187Y8219D01*
X10190Y8220D01*
X10193Y8221D01*
X10197Y8221D01*
X10200Y8222D01*
X10203Y8222D01*
X10207D01*
X10210Y8222D01*
X10213Y8221D01*
X10217Y8221D01*
X10220Y8220D01*
X10223Y8219D01*
X10226Y8218D01*
X10229Y8217D01*
X10232Y8216D01*
X10235Y8214D01*
X10238Y8212D01*
X10241Y8210D01*
X10243Y8208D01*
X10246Y8206D01*
X10248Y8204D01*
X10250Y8201D01*
X10252Y8199D01*
X10254Y8196D01*
X10256Y8193D01*
X10258Y8191D01*
X10259Y8188D01*
X10261Y8185D01*
X10262Y8181D01*
X10263Y8178D01*
X10264Y8175D01*
X10264Y8172D01*
X10265Y8169D01*
X10265Y8165D01*
X10265Y8162D01*
X11025D02*
X11025Y8159D01*
X11025Y8155D01*
X11024Y8152D01*
X11024Y8149D01*
X11023Y8146D01*
X11022Y8143D01*
X11021Y8139D01*
X11019Y8136D01*
X11018Y8133D01*
X11016Y8131D01*
X11014Y8128D01*
X11012Y8125D01*
X11010Y8123D01*
X11008Y8120D01*
X11006Y8118D01*
X11003Y8116D01*
X11001Y8114D01*
X10998Y8112D01*
X10995Y8110D01*
X10992Y8108D01*
X10989Y8107D01*
X10986Y8106D01*
X10983Y8105D01*
X10980Y8104D01*
X10977Y8103D01*
X10973Y8103D01*
X10970Y8102D01*
X10967Y8102D01*
X10963D01*
X10960Y8102D01*
X10957Y8103D01*
X10953Y8103D01*
X10950Y8104D01*
X10947Y8105D01*
X10944Y8106D01*
X10941Y8107D01*
X10938Y8108D01*
X10935Y8110D01*
X10932Y8112D01*
X10929Y8114D01*
X10927Y8116D01*
X10924Y8118D01*
X10922Y8120D01*
X10920Y8123D01*
X10918Y8125D01*
X10916Y8128D01*
X10914Y8131D01*
X10912Y8133D01*
X10911Y8136D01*
X10909Y8139D01*
X10908Y8143D01*
X10907Y8146D01*
X10906Y8149D01*
X10906Y8152D01*
X10905Y8155D01*
X10905Y8159D01*
X10905Y8162D01*
X10905Y8165D01*
X10905Y8169D01*
X10906Y8172D01*
X10906Y8175D01*
X10907Y8178D01*
X10908Y8181D01*
X10909Y8185D01*
X10911Y8188D01*
X10912Y8191D01*
X10914Y8193D01*
X10916Y8196D01*
X10918Y8199D01*
X10920Y8201D01*
X10922Y8204D01*
X10924Y8206D01*
X10927Y8208D01*
X10929Y8210D01*
X10932Y8212D01*
X10935Y8214D01*
X10938Y8216D01*
X10941Y8217D01*
X10944Y8218D01*
X10947Y8219D01*
X10950Y8220D01*
X10953Y8221D01*
X10957Y8221D01*
X10960Y8222D01*
X10963Y8222D01*
X10967D01*
X10970Y8222D01*
X10973Y8221D01*
X10977Y8221D01*
X10980Y8220D01*
X10983Y8219D01*
X10986Y8218D01*
X10989Y8217D01*
X10992Y8216D01*
X10995Y8214D01*
X10998Y8212D01*
X11001Y8210D01*
X11003Y8208D01*
X11006Y8206D01*
X11008Y8204D01*
X11010Y8201D01*
X11012Y8199D01*
X11014Y8196D01*
X11016Y8193D01*
X11018Y8191D01*
X11019Y8188D01*
X11021Y8185D01*
X11022Y8181D01*
X11023Y8178D01*
X11024Y8175D01*
X11024Y8172D01*
X11025Y8169D01*
X11025Y8165D01*
X11025Y8162D01*
Y7452D02*
X11025Y7449D01*
X11025Y7445D01*
X11024Y7442D01*
X11024Y7439D01*
X11023Y7436D01*
X11022Y7433D01*
X11021Y7429D01*
X11019Y7426D01*
X11018Y7423D01*
X11016Y7421D01*
X11014Y7418D01*
X11012Y7415D01*
X11010Y7413D01*
X11008Y7410D01*
X11006Y7408D01*
X11003Y7406D01*
X11001Y7404D01*
X10998Y7402D01*
X10995Y7400D01*
X10992Y7398D01*
X10989Y7397D01*
X10986Y7396D01*
X10983Y7395D01*
X10980Y7394D01*
X10977Y7393D01*
X10973Y7393D01*
X10970Y7392D01*
X10967Y7392D01*
X10963D01*
X10960Y7392D01*
X10957Y7393D01*
X10953Y7393D01*
X10950Y7394D01*
X10947Y7395D01*
X10944Y7396D01*
X10941Y7397D01*
X10938Y7398D01*
X10935Y7400D01*
X10932Y7402D01*
X10929Y7404D01*
X10927Y7406D01*
X10924Y7408D01*
X10922Y7410D01*
X10920Y7413D01*
X10918Y7415D01*
X10916Y7418D01*
X10914Y7421D01*
X10912Y7423D01*
X10911Y7426D01*
X10909Y7429D01*
X10908Y7433D01*
X10907Y7436D01*
X10906Y7439D01*
X10906Y7442D01*
X10905Y7445D01*
X10905Y7449D01*
X10905Y7452D01*
X10905Y7455D01*
X10905Y7459D01*
X10906Y7462D01*
X10906Y7465D01*
X10907Y7468D01*
X10908Y7471D01*
X10909Y7475D01*
X10911Y7478D01*
X10912Y7481D01*
X10914Y7483D01*
X10916Y7486D01*
X10918Y7489D01*
X10920Y7491D01*
X10922Y7494D01*
X10924Y7496D01*
X10927Y7498D01*
X10929Y7500D01*
X10932Y7502D01*
X10935Y7504D01*
X10938Y7506D01*
X10941Y7507D01*
X10944Y7508D01*
X10947Y7509D01*
X10950Y7510D01*
X10953Y7511D01*
X10957Y7511D01*
X10960Y7512D01*
X10963Y7512D01*
X10967D01*
X10970Y7512D01*
X10973Y7511D01*
X10977Y7511D01*
X10980Y7510D01*
X10983Y7509D01*
X10986Y7508D01*
X10989Y7507D01*
X10992Y7506D01*
X10995Y7504D01*
X10998Y7502D01*
X11001Y7500D01*
X11003Y7498D01*
X11006Y7496D01*
X11008Y7494D01*
X11010Y7491D01*
X11012Y7489D01*
X11014Y7486D01*
X11016Y7483D01*
X11018Y7481D01*
X11019Y7478D01*
X11021Y7475D01*
X11022Y7471D01*
X11023Y7468D01*
X11024Y7465D01*
X11024Y7462D01*
X11025Y7459D01*
X11025Y7455D01*
X11025Y7452D01*
X10635Y8032D02*
X10635Y8029D01*
X10635Y8025D01*
X10634Y8022D01*
X10633Y8019D01*
X10632Y8015D01*
X10631Y8012D01*
X10630Y8009D01*
X10628Y8006D01*
X10626Y8003D01*
X10624Y8001D01*
X10622Y7998D01*
X10619Y7996D01*
X10617Y7994D01*
X10614Y7991D01*
X10611Y7990D01*
X10609Y7988D01*
X10605Y7986D01*
X10602Y7985D01*
X10599Y7984D01*
X10596Y7983D01*
X10593Y7983D01*
X10589Y7982D01*
X10586Y7982D01*
X10582Y7982D01*
X10579Y7982D01*
X10576Y7983D01*
X10572Y7984D01*
X10569Y7985D01*
X10566Y7986D01*
X10563Y7987D01*
X10560Y7989D01*
X10557Y7990D01*
X10554Y7992D01*
X10552Y7995D01*
X10549Y7997D01*
X10547Y7999D01*
X10545Y8002D01*
X10543Y8005D01*
X10541Y8008D01*
X10540Y8011D01*
X10538Y8014D01*
X10537Y8017D01*
X10536Y8020D01*
X10536Y8024D01*
X10535Y8027D01*
X10535Y8030D01*
Y8034D01*
X10535Y8037D01*
X10536Y8040D01*
X10536Y8044D01*
X10537Y8047D01*
X10538Y8050D01*
X10540Y8053D01*
X10541Y8056D01*
X10543Y8059D01*
X10545Y8062D01*
X10547Y8065D01*
X10549Y8067D01*
X10552Y8069D01*
X10554Y8072D01*
X10557Y8074D01*
X10560Y8075D01*
X10563Y8077D01*
X10566Y8078D01*
X10569Y8079D01*
X10572Y8080D01*
X10576Y8081D01*
X10579Y8082D01*
X10582Y8082D01*
X10586Y8082D01*
X10589Y8082D01*
X10593Y8081D01*
X10596Y8081D01*
X10599Y8080D01*
X10602Y8079D01*
X10605Y8078D01*
X10609Y8076D01*
X10611Y8074D01*
X10614Y8073D01*
X10617Y8070D01*
X10619Y8068D01*
X10622Y8066D01*
X10624Y8063D01*
X10626Y8061D01*
X10628Y8058D01*
X10630Y8055D01*
X10631Y8052D01*
X10632Y8049D01*
X10633Y8045D01*
X10634Y8042D01*
X10635Y8039D01*
X10635Y8035D01*
X10635Y8032D01*
Y7582D02*
X10635Y7579D01*
X10635Y7575D01*
X10634Y7572D01*
X10633Y7569D01*
X10632Y7565D01*
X10631Y7562D01*
X10630Y7559D01*
X10628Y7556D01*
X10626Y7553D01*
X10624Y7551D01*
X10622Y7548D01*
X10619Y7546D01*
X10617Y7544D01*
X10614Y7541D01*
X10611Y7540D01*
X10609Y7538D01*
X10605Y7536D01*
X10602Y7535D01*
X10599Y7534D01*
X10596Y7533D01*
X10593Y7533D01*
X10589Y7532D01*
X10586Y7532D01*
X10582Y7532D01*
X10579Y7532D01*
X10576Y7533D01*
X10572Y7534D01*
X10569Y7535D01*
X10566Y7536D01*
X10563Y7537D01*
X10560Y7539D01*
X10557Y7540D01*
X10554Y7542D01*
X10552Y7545D01*
X10549Y7547D01*
X10547Y7549D01*
X10545Y7552D01*
X10543Y7555D01*
X10541Y7558D01*
X10540Y7561D01*
X10538Y7564D01*
X10537Y7567D01*
X10536Y7570D01*
X10536Y7574D01*
X10535Y7577D01*
X10535Y7580D01*
Y7584D01*
X10535Y7587D01*
X10536Y7590D01*
X10536Y7594D01*
X10537Y7597D01*
X10538Y7600D01*
X10540Y7603D01*
X10541Y7606D01*
X10543Y7609D01*
X10545Y7612D01*
X10547Y7615D01*
X10549Y7617D01*
X10552Y7619D01*
X10554Y7622D01*
X10557Y7624D01*
X10560Y7625D01*
X10563Y7627D01*
X10566Y7628D01*
X10569Y7629D01*
X10572Y7630D01*
X10576Y7631D01*
X10579Y7632D01*
X10582Y7632D01*
X10586Y7632D01*
X10589Y7632D01*
X10593Y7631D01*
X10596Y7631D01*
X10599Y7630D01*
X10602Y7629D01*
X10605Y7628D01*
X10609Y7626D01*
X10611Y7624D01*
X10614Y7623D01*
X10617Y7620D01*
X10619Y7618D01*
X10622Y7616D01*
X10624Y7613D01*
X10626Y7611D01*
X10628Y7608D01*
X10630Y7605D01*
X10631Y7602D01*
X10632Y7599D01*
X10633Y7595D01*
X10634Y7592D01*
X10635Y7589D01*
X10635Y7585D01*
X10635Y7582D01*
X10265Y7452D02*
X10265Y7449D01*
X10265Y7445D01*
X10264Y7442D01*
X10264Y7439D01*
X10263Y7436D01*
X10262Y7433D01*
X10261Y7429D01*
X10259Y7426D01*
X10258Y7423D01*
X10256Y7421D01*
X10254Y7418D01*
X10252Y7415D01*
X10250Y7413D01*
X10248Y7410D01*
X10246Y7408D01*
X10243Y7406D01*
X10241Y7404D01*
X10238Y7402D01*
X10235Y7400D01*
X10232Y7398D01*
X10229Y7397D01*
X10226Y7396D01*
X10223Y7395D01*
X10220Y7394D01*
X10217Y7393D01*
X10213Y7393D01*
X10210Y7392D01*
X10207Y7392D01*
X10203D01*
X10200Y7392D01*
X10197Y7393D01*
X10193Y7393D01*
X10190Y7394D01*
X10187Y7395D01*
X10184Y7396D01*
X10181Y7397D01*
X10178Y7398D01*
X10175Y7400D01*
X10172Y7402D01*
X10169Y7404D01*
X10167Y7406D01*
X10164Y7408D01*
X10162Y7410D01*
X10160Y7413D01*
X10158Y7415D01*
X10156Y7418D01*
X10154Y7421D01*
X10152Y7423D01*
X10151Y7426D01*
X10149Y7429D01*
X10148Y7433D01*
X10147Y7436D01*
X10146Y7439D01*
X10146Y7442D01*
X10145Y7445D01*
X10145Y7449D01*
X10145Y7452D01*
X10145Y7455D01*
X10145Y7459D01*
X10146Y7462D01*
X10146Y7465D01*
X10147Y7468D01*
X10148Y7471D01*
X10149Y7475D01*
X10151Y7478D01*
X10152Y7481D01*
X10154Y7483D01*
X10156Y7486D01*
X10158Y7489D01*
X10160Y7491D01*
X10162Y7494D01*
X10164Y7496D01*
X10167Y7498D01*
X10169Y7500D01*
X10172Y7502D01*
X10175Y7504D01*
X10178Y7506D01*
X10181Y7507D01*
X10184Y7508D01*
X10187Y7509D01*
X10190Y7510D01*
X10193Y7511D01*
X10197Y7511D01*
X10200Y7512D01*
X10203Y7512D01*
X10207D01*
X10210Y7512D01*
X10213Y7511D01*
X10217Y7511D01*
X10220Y7510D01*
X10223Y7509D01*
X10226Y7508D01*
X10229Y7507D01*
X10232Y7506D01*
X10235Y7504D01*
X10238Y7502D01*
X10241Y7500D01*
X10243Y7498D01*
X10246Y7496D01*
X10248Y7494D01*
X10250Y7491D01*
X10252Y7489D01*
X10254Y7486D01*
X10256Y7483D01*
X10258Y7481D01*
X10259Y7478D01*
X10261Y7475D01*
X10262Y7471D01*
X10263Y7468D01*
X10264Y7465D01*
X10264Y7462D01*
X10265Y7459D01*
X10265Y7455D01*
X10265Y7452D01*
X9135Y7012D02*
X9135Y7009D01*
X9135Y7005D01*
X9135Y7002D01*
X9134Y6999D01*
X9134Y6995D01*
X9133Y6992D01*
X9133Y6989D01*
X9132Y6985D01*
X9131Y6982D01*
X9130Y6979D01*
X9129Y6976D01*
X9128Y6973D01*
X9127Y6969D01*
X9126Y6966D01*
X9125Y6963D01*
X9123Y6960D01*
X9122Y6957D01*
X9120Y6954D01*
X9119Y6951D01*
X9117Y6948D01*
X9115Y6946D01*
X9113Y6943D01*
X9111Y6940D01*
X9109Y6937D01*
X9107Y6935D01*
X9105Y6932D01*
X9102Y6930D01*
X9100Y6927D01*
X9098Y6925D01*
X9095Y6923D01*
X9093Y6921D01*
X9090Y6918D01*
X9088Y6916D01*
X9085Y6914D01*
X9082Y6913D01*
X9079Y6911D01*
X9076Y6909D01*
X9074Y6907D01*
X9071Y6906D01*
X9068Y6904D01*
X9065Y6903D01*
X9062Y6901D01*
X9058Y6900D01*
X9055Y6899D01*
X9052Y6898D01*
X9049Y6897D01*
X9046Y6896D01*
X9042Y6895D01*
X9039Y6894D01*
X9036Y6894D01*
X9033Y6893D01*
X9029Y6893D01*
X9026Y6892D01*
X9023Y6892D01*
X9019Y6892D01*
X9016Y6892D01*
X9012Y6892D01*
X9009Y6892D01*
X9006Y6892D01*
X9002Y6893D01*
X8999Y6893D01*
X8996Y6894D01*
X8993Y6894D01*
X8989Y6895D01*
X8986Y6896D01*
X8983Y6896D01*
X8980Y6897D01*
X8976Y6898D01*
X8973Y6900D01*
X8970Y6901D01*
X8967Y6902D01*
X8964Y6903D01*
X8961Y6905D01*
X8958Y6906D01*
X8955Y6908D01*
X8952Y6910D01*
X8949Y6912D01*
X8947Y6913D01*
X8944Y6915D01*
X8941Y6917D01*
X8939Y6920D01*
X8936Y6922D01*
X8933Y6924D01*
X8931Y6926D01*
X8929Y6929D01*
X8926Y6931D01*
X8924Y6934D01*
X8922Y6936D01*
X8920Y6939D01*
X8918Y6941D01*
X8916Y6944D01*
X8914Y6947D01*
X8912Y6950D01*
X8911Y6953D01*
X8909Y6956D01*
X8908Y6959D01*
X8906Y6962D01*
X8905Y6965D01*
X8903Y6968D01*
X8902Y6971D01*
X8901Y6974D01*
X8900Y6977D01*
X8899Y6981D01*
X8898Y6984D01*
X8898Y6987D01*
X8897Y6990D01*
X8896Y6994D01*
X8896Y6997D01*
X8896Y7000D01*
X8895Y7004D01*
X8895Y7007D01*
X8895Y7010D01*
Y7014D01*
X8895Y7017D01*
X8895Y7020D01*
X8896Y7024D01*
X8896Y7027D01*
X8896Y7030D01*
X8897Y7034D01*
X8898Y7037D01*
X8898Y7040D01*
X8899Y7043D01*
X8900Y7047D01*
X8901Y7050D01*
X8902Y7053D01*
X8903Y7056D01*
X8905Y7059D01*
X8906Y7062D01*
X8908Y7065D01*
X8909Y7068D01*
X8911Y7071D01*
X8912Y7074D01*
X8914Y7077D01*
X8916Y7080D01*
X8918Y7083D01*
X8920Y7085D01*
X8922Y7088D01*
X8924Y7090D01*
X8926Y7093D01*
X8929Y7095D01*
X8931Y7098D01*
X8933Y7100D01*
X8936Y7102D01*
X8939Y7104D01*
X8941Y7107D01*
X8944Y7109D01*
X8947Y7111D01*
X8949Y7112D01*
X8952Y7114D01*
X8955Y7116D01*
X8958Y7118D01*
X8961Y7119D01*
X8964Y7121D01*
X8967Y7122D01*
X8970Y7123D01*
X8973Y7124D01*
X8976Y7126D01*
X8980Y7127D01*
X8983Y7128D01*
X8986Y7128D01*
X8989Y7129D01*
X8993Y7130D01*
X8996Y7130D01*
X8999Y7131D01*
X9002Y7131D01*
X9006Y7132D01*
X9009Y7132D01*
X9012Y7132D01*
X9016Y7132D01*
X9019Y7132D01*
X9023Y7132D01*
X9026Y7132D01*
X9029Y7131D01*
X9033Y7131D01*
X9036Y7130D01*
X9039Y7130D01*
X9042Y7129D01*
X9046Y7128D01*
X9049Y7127D01*
X9052Y7126D01*
X9055Y7125D01*
X9058Y7124D01*
X9062Y7123D01*
X9065Y7121D01*
X9068Y7120D01*
X9071Y7118D01*
X9074Y7117D01*
X9076Y7115D01*
X9079Y7113D01*
X9082Y7111D01*
X9085Y7110D01*
X9088Y7108D01*
X9090Y7106D01*
X9093Y7103D01*
X9095Y7101D01*
X9098Y7099D01*
X9100Y7097D01*
X9102Y7094D01*
X9105Y7092D01*
X9107Y7089D01*
X9109Y7087D01*
X9111Y7084D01*
X9113Y7081D01*
X9115Y7078D01*
X9117Y7076D01*
X9119Y7073D01*
X9120Y7070D01*
X9122Y7067D01*
X9123Y7064D01*
X9125Y7061D01*
X9126Y7058D01*
X9127Y7055D01*
X9128Y7051D01*
X9129Y7048D01*
X9130Y7045D01*
X9131Y7042D01*
X9132Y7039D01*
X9133Y7035D01*
X9133Y7032D01*
X9134Y7029D01*
X9134Y7025D01*
X9135Y7022D01*
X9135Y7019D01*
X9135Y7015D01*
X9135Y7012D01*
Y8942D02*
X9135Y8939D01*
X9135Y8935D01*
X9135Y8932D01*
X9134Y8929D01*
X9134Y8925D01*
X9133Y8922D01*
X9133Y8919D01*
X9132Y8915D01*
X9131Y8912D01*
X9130Y8909D01*
X9129Y8906D01*
X9128Y8903D01*
X9127Y8899D01*
X9126Y8896D01*
X9125Y8893D01*
X9123Y8890D01*
X9122Y8887D01*
X9120Y8884D01*
X9119Y8881D01*
X9117Y8878D01*
X9115Y8876D01*
X9113Y8873D01*
X9111Y8870D01*
X9109Y8867D01*
X9107Y8865D01*
X9105Y8862D01*
X9102Y8860D01*
X9100Y8857D01*
X9098Y8855D01*
X9095Y8853D01*
X9093Y8851D01*
X9090Y8848D01*
X9088Y8846D01*
X9085Y8844D01*
X9082Y8843D01*
X9079Y8841D01*
X9076Y8839D01*
X9074Y8837D01*
X9071Y8836D01*
X9068Y8834D01*
X9065Y8833D01*
X9062Y8831D01*
X9058Y8830D01*
X9055Y8829D01*
X9052Y8828D01*
X9049Y8827D01*
X9046Y8826D01*
X9042Y8825D01*
X9039Y8824D01*
X9036Y8824D01*
X9033Y8823D01*
X9029Y8823D01*
X9026Y8822D01*
X9023Y8822D01*
X9019Y8822D01*
X9016Y8822D01*
X9012Y8822D01*
X9009Y8822D01*
X9006Y8822D01*
X9002Y8823D01*
X8999Y8823D01*
X8996Y8824D01*
X8993Y8824D01*
X8989Y8825D01*
X8986Y8826D01*
X8983Y8826D01*
X8980Y8827D01*
X8976Y8828D01*
X8973Y8830D01*
X8970Y8831D01*
X8967Y8832D01*
X8964Y8833D01*
X8961Y8835D01*
X8958Y8836D01*
X8955Y8838D01*
X8952Y8840D01*
X8949Y8842D01*
X8947Y8843D01*
X8944Y8845D01*
X8941Y8847D01*
X8939Y8850D01*
X8936Y8852D01*
X8933Y8854D01*
X8931Y8856D01*
X8929Y8859D01*
X8926Y8861D01*
X8924Y8864D01*
X8922Y8866D01*
X8920Y8869D01*
X8918Y8871D01*
X8916Y8874D01*
X8914Y8877D01*
X8912Y8880D01*
X8911Y8883D01*
X8909Y8886D01*
X8908Y8889D01*
X8906Y8892D01*
X8905Y8895D01*
X8903Y8898D01*
X8902Y8901D01*
X8901Y8904D01*
X8900Y8907D01*
X8899Y8911D01*
X8898Y8914D01*
X8898Y8917D01*
X8897Y8920D01*
X8896Y8924D01*
X8896Y8927D01*
X8896Y8930D01*
X8895Y8934D01*
X8895Y8937D01*
X8895Y8940D01*
Y8944D01*
X8895Y8947D01*
X8895Y8950D01*
X8896Y8954D01*
X8896Y8957D01*
X8896Y8960D01*
X8897Y8964D01*
X8898Y8967D01*
X8898Y8970D01*
X8899Y8973D01*
X8900Y8977D01*
X8901Y8980D01*
X8902Y8983D01*
X8903Y8986D01*
X8905Y8989D01*
X8906Y8992D01*
X8908Y8995D01*
X8909Y8998D01*
X8911Y9001D01*
X8912Y9004D01*
X8914Y9007D01*
X8916Y9010D01*
X8918Y9013D01*
X8920Y9015D01*
X8922Y9018D01*
X8924Y9020D01*
X8926Y9023D01*
X8929Y9025D01*
X8931Y9028D01*
X8933Y9030D01*
X8936Y9032D01*
X8939Y9034D01*
X8941Y9037D01*
X8944Y9039D01*
X8947Y9041D01*
X8949Y9042D01*
X8952Y9044D01*
X8955Y9046D01*
X8958Y9048D01*
X8961Y9049D01*
X8964Y9051D01*
X8967Y9052D01*
X8970Y9053D01*
X8973Y9054D01*
X8976Y9056D01*
X8980Y9057D01*
X8983Y9058D01*
X8986Y9058D01*
X8989Y9059D01*
X8993Y9060D01*
X8996Y9060D01*
X8999Y9061D01*
X9002Y9061D01*
X9006Y9062D01*
X9009Y9062D01*
X9012Y9062D01*
X9016Y9062D01*
X9019Y9062D01*
X9023Y9062D01*
X9026Y9062D01*
X9029Y9061D01*
X9033Y9061D01*
X9036Y9060D01*
X9039Y9060D01*
X9042Y9059D01*
X9046Y9058D01*
X9049Y9057D01*
X9052Y9056D01*
X9055Y9055D01*
X9058Y9054D01*
X9062Y9053D01*
X9065Y9051D01*
X9068Y9050D01*
X9071Y9048D01*
X9074Y9047D01*
X9076Y9045D01*
X9079Y9043D01*
X9082Y9041D01*
X9085Y9040D01*
X9088Y9038D01*
X9090Y9036D01*
X9093Y9033D01*
X9095Y9031D01*
X9098Y9029D01*
X9100Y9027D01*
X9102Y9024D01*
X9105Y9022D01*
X9107Y9019D01*
X9109Y9017D01*
X9111Y9014D01*
X9113Y9011D01*
X9115Y9008D01*
X9117Y9006D01*
X9119Y9003D01*
X9120Y9000D01*
X9122Y8997D01*
X9123Y8994D01*
X9125Y8991D01*
X9126Y8988D01*
X9127Y8985D01*
X9128Y8981D01*
X9129Y8978D01*
X9130Y8975D01*
X9131Y8972D01*
X9132Y8969D01*
X9133Y8965D01*
X9133Y8962D01*
X9134Y8959D01*
X9134Y8955D01*
X9135Y8952D01*
X9135Y8949D01*
X9135Y8945D01*
X9135Y8942D01*
X11435D02*
X11435Y8939D01*
X11435Y8935D01*
X11435Y8932D01*
X11434Y8929D01*
X11434Y8925D01*
X11433Y8922D01*
X11433Y8919D01*
X11432Y8915D01*
X11431Y8912D01*
X11430Y8909D01*
X11429Y8906D01*
X11428Y8903D01*
X11427Y8899D01*
X11426Y8896D01*
X11425Y8893D01*
X11423Y8890D01*
X11422Y8887D01*
X11420Y8884D01*
X11419Y8881D01*
X11417Y8878D01*
X11415Y8876D01*
X11413Y8873D01*
X11411Y8870D01*
X11409Y8867D01*
X11407Y8865D01*
X11405Y8862D01*
X11402Y8860D01*
X11400Y8857D01*
X11398Y8855D01*
X11395Y8853D01*
X11393Y8851D01*
X11390Y8848D01*
X11388Y8846D01*
X11385Y8844D01*
X11382Y8843D01*
X11379Y8841D01*
X11376Y8839D01*
X11374Y8837D01*
X11371Y8836D01*
X11368Y8834D01*
X11365Y8833D01*
X11362Y8831D01*
X11358Y8830D01*
X11355Y8829D01*
X11352Y8828D01*
X11349Y8827D01*
X11346Y8826D01*
X11342Y8825D01*
X11339Y8824D01*
X11336Y8824D01*
X11333Y8823D01*
X11329Y8823D01*
X11326Y8822D01*
X11323Y8822D01*
X11319Y8822D01*
X11316Y8822D01*
X11312Y8822D01*
X11309Y8822D01*
X11306Y8822D01*
X11302Y8823D01*
X11299Y8823D01*
X11296Y8824D01*
X11293Y8824D01*
X11289Y8825D01*
X11286Y8826D01*
X11283Y8826D01*
X11280Y8827D01*
X11276Y8828D01*
X11273Y8830D01*
X11270Y8831D01*
X11267Y8832D01*
X11264Y8833D01*
X11261Y8835D01*
X11258Y8836D01*
X11255Y8838D01*
X11252Y8840D01*
X11249Y8842D01*
X11247Y8843D01*
X11244Y8845D01*
X11241Y8847D01*
X11239Y8850D01*
X11236Y8852D01*
X11233Y8854D01*
X11231Y8856D01*
X11229Y8859D01*
X11226Y8861D01*
X11224Y8864D01*
X11222Y8866D01*
X11220Y8869D01*
X11218Y8871D01*
X11216Y8874D01*
X11214Y8877D01*
X11212Y8880D01*
X11211Y8883D01*
X11209Y8886D01*
X11208Y8889D01*
X11206Y8892D01*
X11205Y8895D01*
X11203Y8898D01*
X11202Y8901D01*
X11201Y8904D01*
X11200Y8907D01*
X11199Y8911D01*
X11198Y8914D01*
X11198Y8917D01*
X11197Y8920D01*
X11196Y8924D01*
X11196Y8927D01*
X11196Y8930D01*
X11195Y8934D01*
X11195Y8937D01*
X11195Y8940D01*
Y8944D01*
X11195Y8947D01*
X11195Y8950D01*
X11196Y8954D01*
X11196Y8957D01*
X11196Y8960D01*
X11197Y8964D01*
X11198Y8967D01*
X11198Y8970D01*
X11199Y8973D01*
X11200Y8977D01*
X11201Y8980D01*
X11202Y8983D01*
X11203Y8986D01*
X11205Y8989D01*
X11206Y8992D01*
X11208Y8995D01*
X11209Y8998D01*
X11211Y9001D01*
X11212Y9004D01*
X11214Y9007D01*
X11216Y9010D01*
X11218Y9013D01*
X11220Y9015D01*
X11222Y9018D01*
X11224Y9020D01*
X11226Y9023D01*
X11229Y9025D01*
X11231Y9028D01*
X11233Y9030D01*
X11236Y9032D01*
X11239Y9034D01*
X11241Y9037D01*
X11244Y9039D01*
X11247Y9041D01*
X11249Y9042D01*
X11252Y9044D01*
X11255Y9046D01*
X11258Y9048D01*
X11261Y9049D01*
X11264Y9051D01*
X11267Y9052D01*
X11270Y9053D01*
X11273Y9054D01*
X11276Y9056D01*
X11280Y9057D01*
X11283Y9058D01*
X11286Y9058D01*
X11289Y9059D01*
X11293Y9060D01*
X11296Y9060D01*
X11299Y9061D01*
X11302Y9061D01*
X11306Y9062D01*
X11309Y9062D01*
X11312Y9062D01*
X11316Y9062D01*
X11319Y9062D01*
X11323Y9062D01*
X11326Y9062D01*
X11329Y9061D01*
X11333Y9061D01*
X11336Y9060D01*
X11339Y9060D01*
X11342Y9059D01*
X11346Y9058D01*
X11349Y9057D01*
X11352Y9056D01*
X11355Y9055D01*
X11358Y9054D01*
X11362Y9053D01*
X11365Y9051D01*
X11368Y9050D01*
X11371Y9048D01*
X11374Y9047D01*
X11376Y9045D01*
X11379Y9043D01*
X11382Y9041D01*
X11385Y9040D01*
X11388Y9038D01*
X11390Y9036D01*
X11393Y9033D01*
X11395Y9031D01*
X11398Y9029D01*
X11400Y9027D01*
X11402Y9024D01*
X11405Y9022D01*
X11407Y9019D01*
X11409Y9017D01*
X11411Y9014D01*
X11413Y9011D01*
X11415Y9008D01*
X11417Y9006D01*
X11419Y9003D01*
X11420Y9000D01*
X11422Y8997D01*
X11423Y8994D01*
X11425Y8991D01*
X11426Y8988D01*
X11427Y8985D01*
X11428Y8981D01*
X11429Y8978D01*
X11430Y8975D01*
X11431Y8972D01*
X11432Y8969D01*
X11433Y8965D01*
X11433Y8962D01*
X11434Y8959D01*
X11434Y8955D01*
X11435Y8952D01*
X11435Y8949D01*
X11435Y8945D01*
X11435Y8942D01*
Y7012D02*
X11435Y7009D01*
X11435Y7005D01*
X11435Y7002D01*
X11434Y6999D01*
X11434Y6995D01*
X11433Y6992D01*
X11433Y6989D01*
X11432Y6985D01*
X11431Y6982D01*
X11430Y6979D01*
X11429Y6976D01*
X11428Y6973D01*
X11427Y6969D01*
X11426Y6966D01*
X11425Y6963D01*
X11423Y6960D01*
X11422Y6957D01*
X11420Y6954D01*
X11419Y6951D01*
X11417Y6948D01*
X11415Y6946D01*
X11413Y6943D01*
X11411Y6940D01*
X11409Y6937D01*
X11407Y6935D01*
X11405Y6932D01*
X11402Y6930D01*
X11400Y6927D01*
X11398Y6925D01*
X11395Y6923D01*
X11393Y6921D01*
X11390Y6918D01*
X11388Y6916D01*
X11385Y6914D01*
X11382Y6913D01*
X11379Y6911D01*
X11376Y6909D01*
X11374Y6907D01*
X11371Y6906D01*
X11368Y6904D01*
X11365Y6903D01*
X11362Y6901D01*
X11358Y6900D01*
X11355Y6899D01*
X11352Y6898D01*
X11349Y6897D01*
X11346Y6896D01*
X11342Y6895D01*
X11339Y6894D01*
X11336Y6894D01*
X11333Y6893D01*
X11329Y6893D01*
X11326Y6892D01*
X11323Y6892D01*
X11319Y6892D01*
X11316Y6892D01*
X11312Y6892D01*
X11309Y6892D01*
X11306Y6892D01*
X11302Y6893D01*
X11299Y6893D01*
X11296Y6894D01*
X11293Y6894D01*
X11289Y6895D01*
X11286Y6896D01*
X11283Y6896D01*
X11280Y6897D01*
X11276Y6898D01*
X11273Y6900D01*
X11270Y6901D01*
X11267Y6902D01*
X11264Y6903D01*
X11261Y6905D01*
X11258Y6906D01*
X11255Y6908D01*
X11252Y6910D01*
X11249Y6912D01*
X11247Y6913D01*
X11244Y6915D01*
X11241Y6917D01*
X11239Y6920D01*
X11236Y6922D01*
X11233Y6924D01*
X11231Y6926D01*
X11229Y6929D01*
X11226Y6931D01*
X11224Y6934D01*
X11222Y6936D01*
X11220Y6939D01*
X11218Y6941D01*
X11216Y6944D01*
X11214Y6947D01*
X11212Y6950D01*
X11211Y6953D01*
X11209Y6956D01*
X11208Y6959D01*
X11206Y6962D01*
X11205Y6965D01*
X11203Y6968D01*
X11202Y6971D01*
X11201Y6974D01*
X11200Y6977D01*
X11199Y6981D01*
X11198Y6984D01*
X11198Y6987D01*
X11197Y6990D01*
X11196Y6994D01*
X11196Y6997D01*
X11196Y7000D01*
X11195Y7004D01*
X11195Y7007D01*
X11195Y7010D01*
Y7014D01*
X11195Y7017D01*
X11195Y7020D01*
X11196Y7024D01*
X11196Y7027D01*
X11196Y7030D01*
X11197Y7034D01*
X11198Y7037D01*
X11198Y7040D01*
X11199Y7043D01*
X11200Y7047D01*
X11201Y7050D01*
X11202Y7053D01*
X11203Y7056D01*
X11205Y7059D01*
X11206Y7062D01*
X11208Y7065D01*
X11209Y7068D01*
X11211Y7071D01*
X11212Y7074D01*
X11214Y7077D01*
X11216Y7080D01*
X11218Y7083D01*
X11220Y7085D01*
X11222Y7088D01*
X11224Y7090D01*
X11226Y7093D01*
X11229Y7095D01*
X11231Y7098D01*
X11233Y7100D01*
X11236Y7102D01*
X11239Y7104D01*
X11241Y7107D01*
X11244Y7109D01*
X11247Y7111D01*
X11249Y7112D01*
X11252Y7114D01*
X11255Y7116D01*
X11258Y7118D01*
X11261Y7119D01*
X11264Y7121D01*
X11267Y7122D01*
X11270Y7123D01*
X11273Y7124D01*
X11276Y7126D01*
X11280Y7127D01*
X11283Y7128D01*
X11286Y7128D01*
X11289Y7129D01*
X11293Y7130D01*
X11296Y7130D01*
X11299Y7131D01*
X11302Y7131D01*
X11306Y7132D01*
X11309Y7132D01*
X11312Y7132D01*
X11316Y7132D01*
X11319Y7132D01*
X11323Y7132D01*
X11326Y7132D01*
X11329Y7131D01*
X11333Y7131D01*
X11336Y7130D01*
X11339Y7130D01*
X11342Y7129D01*
X11346Y7128D01*
X11349Y7127D01*
X11352Y7126D01*
X11355Y7125D01*
X11358Y7124D01*
X11362Y7123D01*
X11365Y7121D01*
X11368Y7120D01*
X11371Y7118D01*
X11374Y7117D01*
X11376Y7115D01*
X11379Y7113D01*
X11382Y7111D01*
X11385Y7110D01*
X11388Y7108D01*
X11390Y7106D01*
X11393Y7103D01*
X11395Y7101D01*
X11398Y7099D01*
X11400Y7097D01*
X11402Y7094D01*
X11405Y7092D01*
X11407Y7089D01*
X11409Y7087D01*
X11411Y7084D01*
X11413Y7081D01*
X11415Y7078D01*
X11417Y7076D01*
X11419Y7073D01*
X11420Y7070D01*
X11422Y7067D01*
X11423Y7064D01*
X11425Y7061D01*
X11426Y7058D01*
X11427Y7055D01*
X11428Y7051D01*
X11429Y7048D01*
X11430Y7045D01*
X11431Y7042D01*
X11432Y7039D01*
X11433Y7035D01*
X11433Y7032D01*
X11434Y7029D01*
X11434Y7025D01*
X11435Y7022D01*
X11435Y7019D01*
X11435Y7015D01*
X11435Y7012D01*
X9755Y7572D02*
X9752Y7572D01*
X9749Y7573D01*
X9745Y7574D01*
X9742Y7575D01*
X9740Y7577D01*
X9737Y7579D01*
X9735Y7582D01*
X9733Y7584D01*
X9732Y7587D01*
X9731Y7591D01*
X9730Y7594D01*
X9730Y7597D01*
X9730Y7600D01*
X9731Y7603D01*
X9732Y7607D01*
X9733Y7610D01*
X9735Y7612D01*
X9737Y7615D01*
X9740Y7617D01*
X9742Y7619D01*
X9745Y7620D01*
X9749Y7621D01*
X9752Y7622D01*
X9755Y7622D01*
X9325Y8157D02*
X9325Y8160D01*
X9324Y8163D01*
X9323Y8167D01*
X9322Y8170D01*
X9320Y8172D01*
X9318Y8175D01*
X9315Y8177D01*
X9312Y8179D01*
X9310Y8180D01*
X9306Y8181D01*
X9303Y8182D01*
X9300Y8182D01*
X9297Y8182D01*
X9294Y8181D01*
X9290Y8180D01*
X9288Y8179D01*
X9285Y8177D01*
X9282Y8175D01*
X9280Y8172D01*
X9278Y8170D01*
X9277Y8167D01*
X9276Y8163D01*
X9275Y8160D01*
X9275Y8157D01*
X9740D02*
X9740Y8160D01*
X9741Y8163D01*
X9742Y8167D01*
X9743Y8170D01*
X9745Y8172D01*
X9747Y8175D01*
X9750Y8177D01*
X9752Y8179D01*
X9755Y8180D01*
X9759Y8181D01*
X9762Y8182D01*
X9765Y8182D01*
X9768Y8182D01*
X9771Y8181D01*
X9775Y8180D01*
X9778Y8179D01*
X9780Y8177D01*
X9783Y8175D01*
X9785Y8172D01*
X9787Y8170D01*
X9788Y8167D01*
X9789Y8163D01*
X9790Y8160D01*
X9790Y8157D01*
X10125Y8417D02*
X10128Y8417D01*
X10131Y8418D01*
X10135Y8419D01*
X10138Y8420D01*
X10140Y8422D01*
X10143Y8424D01*
X10145Y8427D01*
X10147Y8430D01*
X10148Y8432D01*
X10149Y8436D01*
X10150Y8439D01*
X10150Y8442D01*
X10150Y8445D01*
X10149Y8448D01*
X10148Y8452D01*
X10147Y8454D01*
X10145Y8457D01*
X10143Y8460D01*
X10140Y8462D01*
X10138Y8464D01*
X10135Y8465D01*
X10131Y8466D01*
X10128Y8467D01*
X10125Y8467D01*
X11345Y8452D02*
X11342Y8452D01*
X11339Y8453D01*
X11335Y8454D01*
X11332Y8455D01*
X11330Y8457D01*
X11327Y8459D01*
X11325Y8462D01*
X11323Y8464D01*
X11322Y8467D01*
X11321Y8471D01*
X11320Y8474D01*
X11320Y8477D01*
X11320Y8480D01*
X11321Y8483D01*
X11322Y8487D01*
X11323Y8490D01*
X11325Y8492D01*
X11327Y8495D01*
X11330Y8497D01*
X11332Y8499D01*
X11335Y8500D01*
X11339Y8501D01*
X11342Y8502D01*
X11345Y8502D01*
X9325Y8382D02*
X9325Y8385D01*
X9324Y8388D01*
X9323Y8392D01*
X9322Y8394D01*
X9320Y8397D01*
X9318Y8400D01*
X9315Y8402D01*
X9312Y8404D01*
X9310Y8405D01*
X9306Y8406D01*
X9303Y8407D01*
X9300Y8407D01*
X9297Y8407D01*
X9294Y8406D01*
X9290Y8405D01*
X9288Y8404D01*
X9285Y8402D01*
X9282Y8400D01*
X9280Y8397D01*
X9278Y8394D01*
X9277Y8392D01*
X9276Y8388D01*
X9275Y8385D01*
X9275Y8382D01*
X9525Y7622D02*
X9522Y7622D01*
X9519Y7621D01*
X9515Y7620D01*
X9512Y7619D01*
X9510Y7617D01*
X9507Y7615D01*
X9505Y7612D01*
X9503Y7610D01*
X9502Y7607D01*
X9501Y7603D01*
X9500Y7600D01*
X9500Y7597D01*
X9500Y7594D01*
X9501Y7591D01*
X9502Y7587D01*
X9503Y7584D01*
X9505Y7582D01*
X9507Y7579D01*
X9510Y7577D01*
X9512Y7575D01*
X9515Y7574D01*
X9519Y7573D01*
X9522Y7572D01*
X9525Y7572D01*
X10920Y8382D02*
X10920Y8385D01*
X10921Y8388D01*
X10922Y8392D01*
X10923Y8394D01*
X10925Y8397D01*
X10927Y8400D01*
X10930Y8402D01*
X10932Y8404D01*
X10935Y8405D01*
X10939Y8406D01*
X10942Y8407D01*
X10945Y8407D01*
X10948Y8407D01*
X10951Y8406D01*
X10955Y8405D01*
X10958Y8404D01*
X10960Y8402D01*
X10963Y8400D01*
X10965Y8397D01*
X10967Y8394D01*
X10968Y8392D01*
X10969Y8388D01*
X10970Y8385D01*
X10970Y8382D01*
X10560D02*
X10560Y8385D01*
X10559Y8388D01*
X10558Y8392D01*
X10557Y8394D01*
X10555Y8397D01*
X10553Y8400D01*
X10550Y8402D01*
X10548Y8404D01*
X10545Y8405D01*
X10541Y8406D01*
X10538Y8407D01*
X10535Y8407D01*
X10532Y8407D01*
X10529Y8406D01*
X10525Y8405D01*
X10522Y8404D01*
X10520Y8402D01*
X10517Y8400D01*
X10515Y8397D01*
X10513Y8394D01*
X10512Y8392D01*
X10511Y8388D01*
X10510Y8385D01*
X10510Y8382D01*
X9790D02*
X9790Y8385D01*
X9789Y8388D01*
X9788Y8392D01*
X9787Y8394D01*
X9785Y8397D01*
X9783Y8400D01*
X9780Y8402D01*
X9778Y8404D01*
X9775Y8405D01*
X9771Y8406D01*
X9768Y8407D01*
X9765Y8407D01*
X9762Y8407D01*
X9759Y8406D01*
X9755Y8405D01*
X9752Y8404D01*
X9750Y8402D01*
X9747Y8400D01*
X9745Y8397D01*
X9743Y8394D01*
X9742Y8392D01*
X9741Y8388D01*
X9740Y8385D01*
X9740Y8382D01*
D17*
X11165Y7112D02*
Y6912D01*
Y7112D02*
X9165D01*
Y6912D01*
X11165D01*
Y7012D02*
X11065D01*
Y7112D01*
X11285Y7557D02*
X11385D01*
X11285D02*
Y7457D01*
X11185D02*
Y7957D01*
X11385D01*
Y7457D01*
X11185D01*
D18*
X8745Y7897D02*
X8680D01*
Y7937D01*
X8711Y7922D02*
Y7897D01*
X8680Y7945D02*
X8745D01*
Y7982D01*
Y8038D02*
X8680Y8014D01*
X8745Y7989D01*
X8723Y7998D02*
Y8029D01*
X8683Y8091D02*
X8689Y8097D01*
X8683Y8091D02*
X8680Y8081D01*
Y8069D01*
X8683Y8060D01*
X8689Y8054D01*
X8695D01*
X8702Y8057D01*
X8705Y8060D01*
X8708Y8066D01*
X8714Y8085D01*
X8717Y8091D01*
X8720Y8094D01*
X8726Y8097D01*
X8736D01*
X8742Y8091D01*
X8745Y8081D01*
Y8069D01*
X8742Y8060D01*
X8736Y8054D01*
X8745Y8111D02*
X8680D01*
Y8155D02*
X8745D01*
X8711D02*
Y8111D01*
X8683Y8261D02*
X8689Y8267D01*
X8683Y8261D02*
X8680Y8252D01*
Y8239D01*
X8683Y8230D01*
X8689Y8224D01*
X8695D01*
X8702Y8227D01*
X8705Y8230D01*
X8708Y8236D01*
X8714Y8255D01*
X8717Y8261D01*
X8720Y8264D01*
X8726Y8267D01*
X8736D01*
X8742Y8261D01*
X8745Y8252D01*
Y8239D01*
X8742Y8230D01*
X8736Y8224D01*
X8714Y8282D02*
Y8310D01*
X8711Y8319D01*
X8708Y8322D01*
X8702Y8325D01*
X8692D01*
X8686Y8322D01*
X8683Y8319D01*
X8680Y8310D01*
Y8282D01*
X8745D01*
X8680Y8340D02*
X8711Y8364D01*
X8745D01*
X8711D02*
X8680Y8389D01*
D19*
X11075Y7917D02*
X11075Y7914D01*
X11073Y7911D01*
X11071Y7908D01*
X11068Y7907D01*
X11065Y7906D01*
X11061Y7906D01*
X11058Y7907D01*
X11056Y7909D01*
X11054Y7912D01*
X11053Y7915D01*
Y7919D01*
X11054Y7922D01*
X11056Y7925D01*
X11058Y7927D01*
X11061Y7928D01*
X11065Y7928D01*
X11068Y7927D01*
X11071Y7926D01*
X11073Y7923D01*
X11075Y7920D01*
X11075Y7917D01*
X11076Y7587D02*
X11076Y7584D01*
X11074Y7581D01*
X11072Y7578D01*
X11069Y7577D01*
X11066Y7576D01*
X11063Y7576D01*
X11059Y7577D01*
X11057Y7579D01*
X11055Y7582D01*
X11054Y7585D01*
Y7589D01*
X11055Y7592D01*
X11057Y7595D01*
X11059Y7597D01*
X11063Y7598D01*
X11066Y7598D01*
X11069Y7597D01*
X11072Y7596D01*
X11074Y7593D01*
X11076Y7590D01*
X11076Y7587D01*
D02*
M02*
