*%FSLAX55Y55*%
*%MOMM*%
G01*
%ADD11C,0.02540*%
%ADD12C,0.15240*%
%ADD13C,0.17780*%
%ADD14C,0.18627*%
%ADD15C,0.25400*%
%ADD16C,0.38100*%
%ADD17C,1.01600*%
%ADD18C,1.21920*%
%ADD19C,1.39700*%
%ADD20C,1.52400*%
%ADD21C,1.60020*%
%ADD22C,1.72720*%
%ADD23C,1.77800*%
%ADD24C,2.03200*%
%ADD25O,2.54000X0.60960*%
%ADD26O,2.54000X0.63500*%
%ADD27O,2.74320X0.81280*%
%ADD28O,2.74320X0.83820*%
%ADD29R,0.25400X0.25400*%
%ADD30R,0.25400X0.25400*%
%ADD31R,0.27652X0.27652*%
%ADD32R,0.38100X0.38100*%
%ADD33R,0.38100X0.38100*%
%ADD34R,0.50800X0.50800*%
%ADD35R,0.50800X0.50800*%
%ADD36R,0.63500X0.63500*%
%ADD37R,0.76200X0.76200*%
%ADD38R,0.76200X0.76200*%
%ADD39R,0.76200X0.76200*%
%ADD40R,0.88900X0.88900*%
%ADD41R,0.88900X0.88900*%
%ADD42R,0.93723X0.93723*%
%ADD43R,0.96520X0.96520*%
%ADD44R,0.98497X0.98497*%
%ADD45R,1.01600X1.01600*%
%ADD46R,1.01600X1.01600*%
%ADD47R,1.01600X1.01600*%
%ADD48R,1.14300X1.14300*%
%ADD49R,1.27000X1.27000*%
%ADD50R,1.27000X1.27000*%
%ADD51R,1.27000X1.52400*%
%ADD52R,1.27000X1.27000*%
%ADD53R,1.39700X1.39700*%
%ADD54R,1.39700X1.39700*%
%ADD55R,1.39700X1.39700*%
%ADD56R,1.39700X1.39700*%
%ADD57R,1.47320X1.72720*%
%ADD58R,1.52400X1.52400*%
%ADD59R,1.60020X1.60020*%
%ADD60R,1.65100X1.65100*%
%ADD61R,1.65100X1.65100*%
%ADD62R,2.03200X2.03200*%
%ADD63R,2.54000X2.54000*%
D15*
X24561800Y21539200D02*
X24511000Y21590000D01*
Y21564600D02*
X24536400Y21539200D01*
X24815800Y21132800D02*
X24866600Y21082000D01*
X24841200D02*
X24815800Y21107400D01*
Y21082000D02*
Y21539200D01*
X24511000D01*
Y21132800D02*
X24561800Y21082000D01*
X24536400D02*
X24511000Y21107400D01*
X24485600Y21577300D02*
X24434800Y21628100D01*
X24460200D02*
X24485600Y21602700D01*
X24765000Y20891500D02*
X25412700D01*
Y21056600D02*
X24892000D01*
X24765000Y21018500D02*
X24714200Y21069300D01*
X24739600D02*
X24752300Y21056600D01*
X24892000Y21082000D02*
X24917400Y21056600D01*
X24892000D02*
Y21082000D01*
X24511000D01*
Y21704300D01*
X25133300Y21183600D02*
X25260300D01*
Y21310600D01*
X25133300D01*
X24765000Y21069300D02*
X24485600D01*
X24511000Y21704300D02*
X24295100D01*
X24485600Y21628100D02*
Y21069300D01*
Y21628100D02*
X24295100D01*
X24599900Y21602700D02*
X25146000D01*
X25247600Y21704300D02*
X24599900D01*
Y21602700D01*
X25285700Y21361400D02*
X25336500Y21310600D01*
Y21336000D02*
X25311100Y21361400D01*
X25069800Y21386800D02*
X25019000Y21437600D01*
Y21412200D02*
X25044400Y21386800D01*
X25019000D02*
Y21539200D01*
X24892000D01*
Y21361400D01*
Y21386800D02*
X25361900D01*
X25336500Y21361400D02*
X24892000D01*
X25425400Y21120100D02*
X25476200Y21069300D01*
X25412700Y21145500D02*
X25361900Y21196300D01*
Y21170900D02*
X25387300Y21145500D01*
X25450800Y21120100D02*
X25476200Y21094700D01*
X25361900Y21120100D02*
Y21386800D01*
Y21145500D02*
X25514300D01*
Y20993100D01*
X25336500Y21120100D02*
Y21361400D01*
Y21120100D02*
X25476200D01*
X25488900Y21209000D02*
X25666700D01*
Y21310600D01*
X25488900D02*
Y21209000D01*
X25476200Y21120100D02*
Y20891500D01*
X25488900Y21310600D02*
X25666700D01*
X23558500Y19545300D02*
Y19456400D01*
X23571200Y19532600D02*
X23698200Y19405600D01*
X23710900Y19342100D02*
X23609300Y19443700D01*
X23533100D01*
X23710900Y19418300D02*
Y19367500D01*
Y19418300D02*
X23583900Y19545300D01*
X23533100D01*
Y19494500D01*
Y19443700D01*
Y19494500D02*
X23583900D01*
X24155400Y19304000D02*
X24206200Y19354800D01*
Y19329400D02*
X24180800Y19304000D01*
X24206200D02*
Y19177000D01*
X24155400D01*
Y19304000D02*
X24206200D01*
X24041100Y19558000D02*
X23977600Y19621500D01*
X24003000D02*
X24041100Y19583400D01*
Y19621500D02*
X24079200D01*
X24142700Y19558000D01*
Y19456400D01*
X24041100D01*
Y19621500D01*
X24206200Y19672300D02*
Y19748500D01*
X24155400Y19799300D01*
X24041100D01*
Y19748500D01*
X24193500Y19685000D02*
X24206200Y19672300D01*
X24193500Y19685000D02*
X24168100Y19710400D01*
X24041100D01*
Y19748500D01*
X24091900D01*
X25361900Y20256500D02*
Y20294600D01*
X25323800Y20218400D02*
X25234900D01*
Y20294600D02*
X25361900D01*
X27139900Y19545300D02*
Y19443700D01*
X27241500D01*
Y19494500D01*
Y19545300D02*
X27139900D01*
X27241500D02*
Y19494500D01*
X27190700D01*
X27051000Y21056600D02*
X26987500Y21120100D01*
X27012900D02*
X27051000Y21082000D01*
Y19875500D02*
X26962100Y19786600D01*
X27051000Y19875500D02*
Y21120100D01*
X27076400Y19900900D02*
X26962100Y19786600D01*
X27076400Y19900900D02*
Y21170900D01*
X26797000D02*
X26746200Y21221700D01*
Y21196300D02*
X26771600Y21170900D01*
X26619200Y21221700D02*
X26568400Y21170900D01*
X26593800D02*
X26619200Y21196300D01*
X26225500Y21120100D02*
X26174700Y21069300D01*
Y21094700D02*
X26200100Y21120100D01*
X27076400D02*
Y21170900D01*
X26746200D01*
X27076400Y21120100D02*
X26174700D01*
X26098500Y20599400D02*
X26047700Y20548600D01*
X26073100D02*
X26098500Y20574000D01*
X26746200Y21170900D02*
Y21463000D01*
X26619200D02*
Y21170900D01*
X26098500D01*
Y20472400D01*
X26174700D02*
Y21120100D01*
X26352500Y20929600D02*
X26504900D01*
Y20561300D01*
X26352500D01*
Y20929600D01*
X26365200Y20574000D02*
X26352500Y20561300D01*
X26365200Y20472400D02*
X26314400Y20421600D01*
Y20447000D02*
X26339800Y20472400D01*
X26568400Y20497800D02*
X26619200Y20548600D01*
Y20523200D02*
X26593800Y20497800D01*
X26619200D02*
Y20701000D01*
Y20497800D02*
X26238200D01*
Y20345400D01*
X26314400D02*
Y20472400D01*
X26746200D01*
Y20574000D01*
X26314400Y20345400D02*
X26238200D01*
X26619200D02*
X26644600D01*
X26619200D02*
Y20421600D01*
X26644600D01*
X26822400D02*
X26873200Y20472400D01*
Y20447000D02*
X26847800Y20421600D01*
X26873200D02*
Y20701000D01*
Y20421600D02*
X26644600D01*
Y20345400D01*
X27000200D01*
Y20574000D01*
X26822400Y20218400D02*
X26873200Y20167600D01*
Y20193000D02*
X26847800Y20218400D01*
X27000200Y20294600D02*
Y20066000D01*
Y20294600D02*
X26390600D01*
X26873200Y20218400D02*
Y20066000D01*
Y20218400D02*
X26390600D01*
Y20243800D01*
Y20256500D02*
Y20294600D01*
X26314400Y20218400D02*
X26365200Y20167600D01*
X26339800D02*
X26314400Y20193000D01*
X26568400Y20154900D02*
X26619200Y20104100D01*
Y20129500D02*
X26593800Y20154900D01*
X26746200Y20167600D02*
Y20066000D01*
Y20167600D02*
X26314400D01*
Y20294600D01*
X26238200D01*
Y20154900D02*
X26301700D01*
X26619200D02*
Y20066000D01*
X26238200Y20154900D02*
Y20294600D01*
X26136600Y19875500D02*
Y19850100D01*
X26149300Y19824700D02*
Y19951700D01*
X26174700Y19875500D02*
X26098500D01*
X26162000Y19850100D02*
X26200100D01*
X26162000Y19824700D02*
Y19951700D01*
X26606500Y19824700D02*
X26733500D01*
X26174700Y19875500D02*
Y19951700D01*
Y19875500D02*
X26200100Y19850100D01*
X26733500D01*
Y19672300D01*
X26631900D01*
Y19799300D01*
X26606500Y19824700D01*
X26149300D01*
X26098500Y19875500D01*
Y20027900D01*
X25920700Y19900900D02*
X25831800D01*
Y19913600D02*
X25886414D01*
X25859175Y19964400D02*
X25831800D01*
Y20002500D02*
X25958800Y19875500D01*
X25831800Y20002500D02*
X25755600D01*
X25831800Y19875500D02*
X25946071D01*
X25514300Y19583400D02*
Y19558000D01*
Y19583400D02*
X25450800Y19646900D01*
X25958800Y19519900D02*
X26022300Y19583400D01*
X25958800Y19646900D01*
Y19621500D02*
X25996900Y19583400D01*
X25958800Y19545300D01*
Y19265900D02*
X25895300Y19202400D01*
Y19227800D02*
X25933400Y19265900D01*
X25895300Y19202400D02*
X25831800Y19265900D01*
X25857200D02*
X25895300Y19227800D01*
X25704800Y19265900D02*
X25628600Y19189700D01*
X25387300Y19202400D02*
X25323800Y19265900D01*
X25387300Y19202400D02*
X25450800Y19265900D01*
X25425400D02*
X25387300Y19227800D01*
X25349200Y19265900D01*
X25019000Y19215100D02*
X25006300Y19227800D01*
X25019000Y19215100D02*
Y19202400D01*
X25044400D02*
X25006300Y19240500D01*
Y19253200D01*
X24396700Y19545300D02*
X24345900Y19596100D01*
X24295100Y19545300D01*
X24345900Y19570700D02*
X24371300Y19545300D01*
X24345900Y19570700D02*
X24320500Y19545300D01*
X24396700D02*
Y19443700D01*
X24295100D01*
Y19545300D01*
X24345900D02*
X24396700D01*
X24345900D02*
X24295100D01*
X24345900Y19875500D02*
X24409400Y19939000D01*
X24396700D02*
X24345900Y19888200D01*
Y19913600D02*
X24371300Y19939000D01*
X24345900Y19875500D02*
X24282400Y19939000D01*
X24295100D02*
X24345900Y19888200D01*
Y19913600D02*
X24320500Y19939000D01*
X24155400Y20345400D02*
X24130000D01*
X24155400D02*
Y20421600D01*
X24130000D01*
X24384000Y20218400D02*
X24396700D01*
Y20294600D01*
X24384000D01*
X24549100Y19964400D02*
Y19939000D01*
X24650700D01*
Y19964400D01*
X24638000Y20073877D02*
Y20129500D01*
X24663400Y20078700D02*
X24714200Y20129500D01*
X24663400Y20078700D02*
X24650700D01*
Y20053300D02*
X24726900Y20129500D01*
X24688800D02*
X24650700Y20091400D01*
X24624921Y20116421D02*
Y20053679D01*
X24599900Y20104100D02*
X24549100Y20053300D01*
X24561800D02*
X24612600Y20104100D01*
X24561800Y20053300D02*
X24549100D01*
X24561800D02*
X24599900Y20091400D01*
X24650700Y20129500D02*
Y19964400D01*
X24549100D01*
Y20053300D01*
X24587200D01*
X24599900D02*
X24650700D01*
X24955500Y20129500D02*
X24980900Y20154900D01*
X25222200D01*
X24980900Y20104100D02*
X24955500Y20129500D01*
X24980900Y20104100D02*
X25222200D01*
Y20129500D01*
Y20154900D01*
X25311100Y20077722D02*
Y20002500D01*
X25285700D02*
Y20070263D01*
X25323800Y20114638D02*
Y20002500D01*
X25234900D02*
Y20038259D01*
X25260300Y20066000D02*
X25196800Y20002500D01*
X25412700Y20345400D02*
Y20434300D01*
Y20345400D02*
X25552400D01*
X25501600Y20434300D02*
X25412700D01*
X25501600D02*
X25514300Y20421600D01*
X25552400D01*
X25514300Y20129500D02*
X25552400Y20091400D01*
X25514300Y20129500D02*
X25552400Y20167600D01*
Y20218400D02*
X25514300Y20256500D01*
X25552400Y20294600D01*
Y20091400D02*
X25565100D01*
X25552400D02*
Y20167600D01*
X25565100D01*
X25092584Y19801916D02*
X25059716D01*
X25120600Y19773900D02*
X24942800D01*
Y19875500D01*
X25069800Y19824700D02*
X25120600Y19773900D01*
X25069800Y19824700D02*
Y19875500D01*
X25485755Y19586545D02*
Y19569096D01*
X25474659Y19558000D02*
X25514300D01*
X25474659D02*
X25469080Y19563580D01*
Y19603220D01*
X25514300Y19494500D02*
X25323800D01*
Y19519900D01*
X25450800Y19621500D02*
X25514300Y19558000D01*
Y19494500D01*
Y19519900D02*
X25450800D01*
X25006300Y19545300D02*
X24942800Y19608800D01*
X24955500Y19519900D02*
X25006300Y19469100D01*
Y19494500D02*
X24980900Y19519900D01*
X24993600Y19545300D02*
X24942800Y19596100D01*
Y19570700D02*
X24968200Y19545300D01*
X24942800D02*
X25006300D01*
Y19519900D01*
X24942800D01*
X25006300D02*
Y19253200D01*
X25133300Y19202400D02*
X25196800Y19265900D01*
X25133300Y19202400D02*
X25069800Y19265900D01*
X25133300Y19227800D02*
X25171400Y19265900D01*
X25184100D01*
X25133300Y19227800D02*
X25095200Y19265900D01*
X25044400Y19202400D02*
X25006300Y19240500D01*
Y19253200D02*
X24955500Y19202400D01*
X24980900D02*
X25006300Y19227800D01*
Y19202400D02*
X25044400D01*
Y19113500D01*
X24955500D01*
Y19202400D01*
X25006300D01*
X25628600Y19215100D02*
X25679400Y19265900D01*
X25654000D02*
X25628600Y19240500D01*
Y19265900D02*
Y18923000D01*
X25387300D01*
X25527000Y19011900D02*
X25577800Y19062700D01*
Y19037300D02*
X25552400Y19011900D01*
X25577800D02*
Y19265900D01*
Y19011900D02*
X25387300D01*
Y18961100D02*
Y18923000D01*
Y18961100D02*
Y19011900D01*
X25806400Y21513800D02*
X25857200Y21564600D01*
X25831800D02*
X25806400Y21539200D01*
X27317700Y21526500D02*
Y21488400D01*
Y21526500D02*
X27266900Y21577300D01*
X25603200D01*
X25806400D02*
Y21361400D01*
X25603200D01*
X25742900Y21183600D02*
X26022300D01*
X25742900D02*
Y21310600D01*
X26022300D01*
X25603200Y21361400D02*
Y21577300D01*
X25895300Y21018500D02*
X25844500Y20967700D01*
X25869900D02*
X25895300Y20993100D01*
X26022300Y21056600D02*
Y20891500D01*
X25895300Y20967700D02*
Y21056600D01*
X26022300Y20891500D02*
X25755600D01*
Y20967700D01*
X25895300D01*
X25565100D02*
X25514300Y21018500D01*
Y20993100D02*
X25539700Y20967700D01*
X25527000D02*
X25679400D01*
Y20891500D01*
X25476200D01*
X24295100Y21628100D02*
Y21704300D01*
X24765000Y21056600D02*
Y20891500D01*
X24892000Y21272500D02*
X25019000D01*
Y21145500D01*
X24892000D01*
Y21272500D01*
X24155400D02*
X24091900Y21336000D01*
X24117300D02*
X24155400Y21297900D01*
X23774400Y21107400D02*
X23710900Y21043900D01*
Y21069300D02*
X23749000Y21107400D01*
X23876000Y21158200D02*
Y21183600D01*
X24523700Y20840700D02*
X24574500Y20789900D01*
Y20815300D02*
X24549100Y20840700D01*
X24612600Y20815300D02*
X24663400Y20764500D01*
X24638000D02*
X24612600Y20789900D01*
Y20942300D02*
X24041100D01*
X24612600D02*
Y20764500D01*
X25069800D01*
Y20637500D01*
X24574500D01*
Y20840700D01*
X24511000Y20599400D02*
X24536400Y20574000D01*
X24574500Y20840700D02*
X24041100D01*
X24549100Y20574000D02*
X24599900Y20523200D01*
Y20548600D02*
X24574500Y20574000D01*
X24485600Y20713700D02*
X24434800Y20764500D01*
X24485600Y20739100D02*
Y20599400D01*
X24511000D02*
X24460200Y20650200D01*
X24511000Y20574000D02*
X24841200D01*
X24511000D02*
X24460200Y20624800D01*
Y20726400D01*
X24599900Y20574000D02*
Y20472400D01*
X24841200D02*
Y20574000D01*
X25412700Y20891500D02*
Y21056600D01*
X24041100Y20942300D02*
Y20840700D01*
X25095200Y21602700D02*
X25146000Y21551900D01*
Y21577300D02*
X25120600Y21602700D01*
X25247600Y21704300D02*
Y21450300D01*
X25146000D02*
Y21602700D01*
Y21450300D02*
X25247600D01*
X25285700Y20459700D02*
X25247600Y20421600D01*
X25260300D02*
X25285700Y20447000D01*
Y20535900D02*
X25323800Y20574000D01*
X25463500Y20612100D02*
X25488900Y20637500D01*
X25450800Y20612100D02*
X25425400Y20586700D01*
X25463500Y20574000D02*
Y20637500D01*
Y20574000D02*
X25298400D01*
Y20345400D01*
X24599900D01*
X25450800Y20586700D02*
Y20637500D01*
Y20586700D02*
X25285700D01*
Y20421600D01*
X25222200D01*
X24980900Y20472400D02*
Y20548600D01*
Y20472400D02*
X25222200D01*
Y20548600D01*
X24980900D01*
X24015700Y20764500D02*
X23964900Y20815300D01*
Y20789900D02*
X23990300Y20764500D01*
X23939500Y21285200D02*
X23888700Y21336000D01*
X23914100D02*
X23939500Y21310600D01*
Y21336000D02*
X23774400D01*
Y21463000D02*
X23964900D01*
Y20764500D01*
X24460200D01*
X24434800Y20751800D02*
X23939500D01*
Y21336000D01*
X24434800Y20751800D02*
X24460200Y20726400D01*
X24485600Y20739100D02*
X24460200Y20764500D01*
X24599900Y20472400D02*
X24841200D01*
X25133300Y20586700D02*
X25171400Y20548600D01*
X25133300Y20586700D02*
X25095200Y20548600D01*
X25133300D02*
X24980900D01*
X23952200Y20421600D02*
X23901400Y20472400D01*
Y20447000D02*
X23926800Y20421600D01*
X23901400D02*
Y20701000D01*
Y20421600D02*
X24130000D01*
Y20345400D01*
X23774400D01*
Y20701000D01*
X23952200Y20218400D02*
X23901400Y20167600D01*
Y20193000D02*
X23926800Y20218400D01*
X23901400D02*
X24384000D01*
X23901400D02*
Y19939000D01*
X24384000Y20218400D02*
Y20294600D01*
X23774400D01*
Y20066000D01*
X24409400Y20485100D02*
X24460200Y20434300D01*
Y20459700D02*
X24434800Y20485100D01*
X24155400Y20510500D02*
Y20701000D01*
X24028400D02*
Y20485100D01*
X24460200D01*
Y20345400D01*
X24536400D02*
Y20510500D01*
X24028400D01*
X24206200Y20116800D02*
X24155400Y20066000D01*
Y20091400D02*
X24180800Y20116800D01*
X24409400Y20142200D02*
X24460200Y20193000D01*
Y20167600D02*
X24434800Y20142200D01*
X24536400Y20116800D02*
Y20294600D01*
X24460200D02*
Y20142200D01*
X24536400Y20116800D02*
X24155400D01*
Y20066000D01*
X24028400Y20142200D02*
X24460200D01*
X24028400D02*
Y20066000D01*
X24599900Y20218400D02*
X24612600D01*
X24599900D02*
Y20294600D01*
X24612600D01*
X24218900Y20510500D02*
X24155400Y20574000D01*
Y20548600D02*
X24193500Y20510500D01*
X24130000Y20345400D02*
X24053800D01*
X24130000D02*
Y20421600D01*
X23520400Y20574000D02*
X23456900Y20510500D01*
Y20535900D02*
X23495000Y20574000D01*
X24282400Y21488400D02*
X24218900Y21551900D01*
X24244300D02*
X24282400Y21513800D01*
X23469600Y21551900D02*
X23393400Y21475700D01*
Y21501100D02*
X23444200Y21551900D01*
X23368000Y21336000D02*
X23329900Y21297900D01*
X23291800Y21336000D01*
X23329900Y20764500D02*
X23393400Y20701000D01*
X23329900Y20764500D02*
X23266400Y20701000D01*
X23329900Y20739100D02*
X23368000Y20701000D01*
X23329900Y20739100D02*
X23291800Y20701000D01*
X23393400Y20574000D02*
X23329900Y20510500D01*
X23266400Y20574000D01*
X23329900Y20535900D02*
X23368000Y20574000D01*
X23329900Y20535900D02*
X23291800Y20574000D01*
X23393400Y19939000D02*
X23329900Y19875500D01*
X23266400Y19939000D01*
X23329900Y19900900D02*
X23368000Y19939000D01*
X23329900Y19900900D02*
X23291800Y19939000D01*
X23393400Y20066000D02*
X23329900Y20129500D01*
X23266400Y20066000D01*
X23329900Y20104100D02*
X23368000Y20066000D01*
X23329900Y20104100D02*
X23291800Y20066000D01*
X23393400Y19177000D02*
X23329900Y19113500D01*
X23266400Y19177000D01*
X23329900Y19138900D02*
X23368000Y19177000D01*
X23329900Y19138900D02*
X23291800Y19177000D01*
X23393400Y19304000D02*
X23329900Y19367500D01*
X23266400Y19304000D01*
X23329900Y19342100D02*
X23368000Y19304000D01*
X23329900Y19342100D02*
X23291800Y19304000D01*
X26301700Y20154900D02*
X26644600D01*
X23393400Y19304000D02*
Y19177000D01*
X23266400D01*
Y19304000D01*
X23393400D01*
X23647400D02*
Y19177000D01*
X23520400D01*
Y19304000D01*
X23647400D01*
X23901400D02*
Y19177000D01*
X23774400D01*
Y19304000D01*
X23901400D01*
X24155400D02*
Y19177000D01*
X24028400D01*
Y19304000D01*
X24155400D01*
X24409400D02*
Y19177000D01*
X24282400D01*
Y19304000D01*
X24409400D01*
Y19939000D02*
Y20066000D01*
Y19939000D02*
X24282400D01*
Y20066000D01*
X24409400D01*
X24155400D02*
Y19939000D01*
X24028400D01*
Y20066000D01*
X23901400Y19939000D02*
X23774400D01*
Y20066000D01*
X23647400D02*
Y19939000D01*
X23520400D01*
Y20066000D01*
X23647400D01*
X23393400D02*
Y19939000D01*
X23266400D01*
Y20066000D01*
X23393400D01*
Y20574000D02*
Y20701000D01*
Y20574000D02*
X23266400D01*
Y20701000D01*
X23393400D01*
X23774400D02*
X23901400D01*
X24028400D02*
X24155400D01*
X25069800Y20002500D02*
Y19875500D01*
X24942800D01*
Y20002500D01*
X25069800D01*
X25323800D02*
Y19875500D01*
X25196800D01*
Y20002500D01*
X25323800D01*
X25577800D02*
Y19875500D01*
X25450800D01*
Y20002500D01*
X25577800D01*
X25831800D02*
Y19875500D01*
X25704800D01*
Y20002500D01*
X25831800D01*
X25323800Y20637500D02*
Y20764500D01*
Y20637500D02*
X25196800D01*
Y20764500D01*
X25323800D01*
X25577800D02*
Y20637500D01*
X25450800D01*
Y20764500D01*
X25577800D01*
X25831800D02*
Y20637500D01*
X25704800D01*
Y20764500D01*
X25831800D01*
X23774400Y21336000D02*
Y21463000D01*
X23647400D02*
Y21336000D01*
X23520400D01*
Y21463000D01*
X23647400D01*
X23393400Y21336000D02*
X23266400D01*
X24409400Y20701000D02*
Y20574000D01*
X24282400D01*
Y20701000D01*
X24409400D01*
X26492200Y19304000D02*
Y19177000D01*
X26365200D01*
Y19304000D01*
X26492200D01*
X26746200D02*
Y19177000D01*
X26619200D01*
Y19304000D01*
X26746200D01*
X27000200D02*
Y19177000D01*
X26873200D01*
Y19304000D01*
X27000200D01*
X27254200D02*
Y19177000D01*
X27127200D01*
Y19304000D01*
X27254200D01*
X27508200D02*
Y19177000D01*
X27381200D01*
Y19304000D01*
X27508200D01*
Y19939000D02*
Y20066000D01*
Y19939000D02*
X27381200D01*
Y20066000D01*
X27508200D01*
Y20574000D02*
Y20701000D01*
Y20574000D02*
X27381200D01*
Y20701000D01*
X27508200D01*
X27254200D02*
Y20574000D01*
X27127200D01*
Y20701000D01*
X27254200D01*
Y20066000D02*
Y19939000D01*
X27127200D01*
Y20066000D01*
X27254200D01*
X27000200D02*
Y19939000D01*
X26873200D01*
Y20066000D01*
X27000200Y20574000D02*
Y20701000D01*
X26873200D01*
X26746200D02*
Y20574000D01*
Y20701000D02*
X26619200D01*
X26492200D02*
Y20574000D01*
X26365200D01*
Y20701000D01*
X26492200D01*
X26746200Y20066000D02*
Y19939000D01*
X26619200D01*
Y20066000D01*
X26746200D01*
X26492200D02*
Y19939000D01*
X26365200D01*
Y20066000D01*
X26492200D01*
X27508200Y21336000D02*
Y21463000D01*
Y21336000D02*
X27381200D01*
Y21463000D01*
X27508200D01*
X27000200D02*
Y21336000D01*
X26873200D01*
Y21463000D01*
X27000200D01*
X26619200D02*
Y21336000D01*
Y21463000D02*
X26746200D01*
X26492200D02*
Y21336000D01*
X26365200D01*
Y21463000D01*
X26492200D01*
X27254200D02*
Y21336000D01*
X27127200D01*
Y21463000D01*
X27254200D01*
X26022300Y21310600D02*
Y21183600D01*
Y21056600D02*
X25895300D01*
X25133300Y21183600D02*
Y21310600D01*
X25958800Y19392900D02*
Y19265900D01*
X25831800D01*
Y19392900D01*
X25958800D01*
Y19519900D02*
Y19646900D01*
Y19519900D02*
X25831800D01*
Y19646900D01*
X25958800D01*
X25704800D02*
Y19519900D01*
X25577800D01*
Y19646900D01*
X25704800D01*
X25450800D02*
Y19519900D01*
X25323800D01*
Y19646900D01*
X25450800D01*
X25704800Y19392900D02*
Y19265900D01*
X25577800D01*
Y19392900D01*
X25704800D01*
X25450800D02*
Y19265900D01*
X25323800D01*
Y19392900D01*
X25450800D01*
X25196800Y19519900D02*
Y19646900D01*
Y19519900D02*
X25069800D01*
Y19646900D01*
X25196800D01*
Y19392900D02*
Y19265900D01*
X25069800D01*
Y19392900D01*
X25196800D01*
X24942800D02*
Y19265900D01*
X24815800D01*
Y19392900D01*
X24942800D01*
Y19519900D02*
Y19646900D01*
Y19519900D02*
X24815800D01*
Y19646900D01*
X24942800D01*
X24536400Y20345400D02*
X24460200D01*
Y20294600D02*
X24536400D01*
X26174700D02*
Y20218400D01*
Y20027900D02*
X26098500D01*
Y19951700D01*
X26174700D01*
Y20027900D01*
X25552400Y20218400D02*
Y20294600D01*
X26174700D01*
Y20218400D02*
X25552400D01*
X26187400Y20167600D02*
Y20091400D01*
X25565100D02*
Y20167600D01*
X26187400D01*
Y20091400D02*
X25565100D01*
X26174700Y20345400D02*
Y20421600D01*
X25552400D02*
Y20345400D01*
Y20421600D02*
X26174700D01*
Y20345400D02*
X25552400D01*
X25234900Y20294600D02*
Y20218400D01*
X24612600D02*
Y20294600D01*
X25234900D01*
Y20218400D02*
X24612600D01*
X24599900Y20345400D02*
Y20421600D01*
X25222200D01*
X26174700Y20472400D02*
Y20548600D01*
X25552400D02*
Y20472400D01*
Y20548600D02*
X26174700D01*
Y20472400D02*
X25552400D01*
X25133300Y20789900D02*
X25095200Y20828000D01*
X25133300Y20789900D02*
X25171400Y20828000D01*
X25133300Y20777200D02*
X25082500Y20828000D01*
X25133300Y20777200D02*
X25184100Y20828000D01*
X24171794Y19782906D02*
Y19752194D01*
D16*
X24155400Y21336000D02*
X24028400D01*
Y21463000D01*
X24155400D01*
Y21043900D01*
X24193500Y21005800D01*
X24638000D01*
X24688800Y20955000D01*
Y20878800D01*
X23710900Y21183600D02*
Y19812000D01*
Y21107400D02*
X23876000D01*
Y21183600D02*
X23710900D01*
X23876000D02*
Y21107400D01*
X24688800Y20878800D02*
X24739600Y20828000D01*
X24968200D01*
X23456900Y20701000D02*
Y19786600D01*
Y20574000D02*
X23647400D01*
Y20701000D02*
X23456900D01*
X24282400Y21463000D02*
Y21551900D01*
X24295100D02*
X24409400D01*
Y21463000D01*
X23393400Y21551900D02*
X23266400D01*
Y21463000D01*
X23393400D02*
Y21551900D01*
X23329900Y21488400D02*
Y19024600D01*
Y21272500D02*
X23393400Y21336000D01*
X23329900Y21272500D02*
X23266400Y21336000D01*
X23914100Y19532600D02*
X23964900Y19481800D01*
X25082500Y19037300D02*
X25133300Y19088100D01*
X23710900Y19532600D02*
X23456900Y19786600D01*
X23710900Y19532600D02*
X23914100D01*
X25958800Y20967700D02*
Y20993100D01*
X27190700Y19494500D02*
X27089100Y19392900D01*
X26200100D01*
X26136600Y19456400D01*
X25552400D02*
X25514300Y19494500D01*
X25552400Y19456400D02*
X26136600D01*
X27317700Y21488400D02*
X27241500Y21564600D01*
X27317700Y19773900D02*
X27279600Y19735800D01*
X27076400D01*
X27038300Y19697700D01*
Y19545300D01*
X27012900Y19519900D01*
X26212800D02*
X26149300Y19583400D01*
X26212800Y19519900D02*
X27012900D01*
X27241500Y21564600D02*
X25730200D01*
X25895300Y19583400D02*
X26149300D01*
X25768300Y20789900D02*
X25730200Y20828000D01*
X25768300Y20789900D02*
Y20701000D01*
X24206200Y19710400D02*
X24168100Y19748500D01*
X24206200Y19710400D02*
Y19291300D01*
X24168100Y19748500D02*
X24091900D01*
X24206200Y19291300D02*
X24155400Y19240500D01*
X24091900D01*
X24041100Y19621500D02*
X23901400D01*
X24041100D02*
X24091900Y19570700D01*
Y19494500D01*
X23901400Y19621500D02*
X23710900Y19812000D01*
X25666700Y20383500D02*
X26136600D01*
X25666700D02*
X25450800D01*
X25387300Y19824700D02*
X25336500Y19773900D01*
X25044400D01*
X24345900Y21501100D02*
X24295100Y21551900D01*
X24345900Y21501100D02*
Y21399500D01*
Y20002500D02*
Y19494500D01*
X26962100Y19786600D02*
X27063700Y19888200D01*
X26962100Y19786600D02*
Y19659600D01*
X26898600Y19596100D01*
X25882600Y19939000D02*
X25768300D01*
X25107900Y20129500D02*
X24638000D01*
X24599900Y20091400D01*
Y20002500D01*
X24295100Y21551900D02*
X23393400D01*
X25387300Y19329400D02*
Y19126200D01*
X25730200Y20828000D02*
X24968200D01*
X25133300D02*
Y20510500D01*
X25895300Y19011900D02*
X25742900Y18859500D01*
X23495000D01*
X23329900Y19024600D01*
X25133300Y19088100D02*
Y19329400D01*
X23825200Y18961100D02*
X23710900Y19075400D01*
Y19367500D01*
X23583900Y19494500D01*
X25222200Y18961100D02*
X25387300Y19126200D01*
X25222200Y18961100D02*
X23825200D01*
X25463500Y20256500D02*
X25666700D01*
X25463500D02*
X25260300Y20053300D01*
Y19939000D01*
X25488900Y20129500D02*
X25666700D01*
X25488900D02*
X25387300Y20027900D01*
X25895300Y19329400D02*
Y19011900D01*
X26352500Y19596100D02*
X26212800Y19735800D01*
X26085800D01*
X25882600Y19939000D01*
X26352500Y19596100D02*
X26898600D01*
X23647400Y20574000D02*
Y20701000D01*
X24409400Y21336000D02*
Y21463000D01*
Y21336000D02*
X24282400D01*
Y21463000D01*
X23393400D02*
Y21336000D01*
X23266400D02*
Y21463000D01*
X25387300Y20027900D02*
Y19824700D01*
X23964900Y19481800D02*
Y19100800D01*
X24028400Y19037300D01*
X25082500D01*
X27317700Y19773900D02*
Y21488400D01*
D17*
X25539700Y21259800D02*
D03*
X25323800Y20256500D02*
D03*
X24790400Y20510500D02*
D03*
X24091900Y20383500D02*
D03*
X24345900Y20256500D02*
D03*
X23583900Y19494500D02*
D03*
X26682700Y20383500D02*
D03*
X26428700Y20256500D02*
D03*
X24993600Y19164300D02*
D03*
X27190700Y19494500D02*
D03*
X26682700Y19710400D02*
D03*
X24091900Y20891500D02*
D03*
Y19748500D02*
D03*
X25425400Y18973800D02*
D03*
X24345900Y21666200D02*
D03*
X23837900Y21145500D02*
D03*
X24091900Y19494500D02*
D03*
X25450800Y20383500D02*
D03*
X26428700Y20891500D02*
D03*
X24650700Y21653500D02*
D03*
X25196800Y21501100D02*
D03*
X24345900Y19494500D02*
D03*
X24599900Y20002500D02*
D03*
D19*
X25958800Y20993100D02*
D03*
X25196800D02*
D03*
X27444700Y20637500D02*
D03*
Y21399500D02*
D03*
X26936700D02*
D03*
Y20637500D02*
D03*
X27190700Y21399500D02*
D03*
X26682700Y20637500D02*
D03*
X27190700D02*
D03*
X26428700Y21399500D02*
D03*
X25958800Y21247100D02*
D03*
X26682700Y21399500D02*
D03*
X25006300Y19939000D02*
D03*
X25260300Y20701000D02*
D03*
Y19939000D02*
D03*
X25514300D02*
D03*
X25768300Y20701000D02*
D03*
X25006300D02*
D03*
X25514300D02*
D03*
X26682700Y19240500D02*
D03*
X26936700D02*
D03*
X27190700D02*
D03*
X27444700D02*
D03*
Y20002500D02*
D03*
X27190700D02*
D03*
X26936700D02*
D03*
X26682700D02*
D03*
X26428700D02*
D03*
X24091900D02*
D03*
X23837900D02*
D03*
X23583900D02*
D03*
X23329900D02*
D03*
Y19240500D02*
D03*
X23583900D02*
D03*
X23837900D02*
D03*
X24091900D02*
D03*
X24345900D02*
D03*
Y20637500D02*
D03*
X24091900Y21399500D02*
D03*
Y20637500D02*
D03*
X23583900D02*
D03*
Y21399500D02*
D03*
X23837900Y20637500D02*
D03*
Y21399500D02*
D03*
X23329900Y20637500D02*
D03*
Y21399500D02*
D03*
D20*
X24955500Y21463000D02*
D03*
Y20955000D02*
D03*
Y21209000D02*
D03*
X25133300Y19329400D02*
D03*
X25387300D02*
D03*
X24879300Y19583400D02*
D03*
X25133300D02*
D03*
X25387300D02*
D03*
X25641300D02*
D03*
X25895300D02*
D03*
X25641300Y19329400D02*
D03*
X25895300D02*
D03*
D25*
X25107900Y20510500D02*
D03*
D26*
X25666700D02*
D03*
Y20383500D02*
D03*
Y20256500D02*
D03*
Y20129500D02*
D03*
X25107900D02*
D03*
Y20256500D02*
D03*
Y20383500D02*
D03*
D29*
X25349200Y21132800D02*
X25501600D01*
X24523700Y20129500D02*
X24041100D01*
Y20497800D02*
X24523700D01*
D30*
X24498300Y21082000D02*
Y21691600D01*
X25349200Y21374100D02*
Y21132800D01*
X23952200Y21323300D02*
Y20764500D01*
D31*
X24093026Y19559126D02*
X24113923D01*
D32*
X25495250Y20910550D02*
Y21126450D01*
X25342850Y21367750D02*
X24911050D01*
D33*
X24593550Y20923250D02*
Y20656550D01*
D34*
X24066500Y19570700D02*
D03*
X26771600Y21145500D02*
X27051000D01*
X26593800D02*
X26174700D01*
X25488900Y19532600D02*
X25463500D01*
D35*
X25603200Y19240500D02*
Y19024600D01*
D36*
X26130250Y19907250D02*
X26142950D01*
X25990550Y20923250D02*
X25787350D01*
D37*
X26276300Y20256500D02*
D03*
Y20383500D02*
D03*
X26136600D02*
D03*
X24498300Y20256500D02*
D03*
X26136600Y19989800D02*
D03*
Y20129500D02*
D03*
X25781000Y20929600D02*
D03*
X25641300D02*
D03*
Y21386800D02*
D03*
Y21247100D02*
D03*
X24498300Y20383500D02*
D03*
X24638000D02*
D03*
Y20256500D02*
D03*
X26136600D02*
D03*
X25514300Y20929600D02*
D03*
X25374600D02*
D03*
X25768300Y21386800D02*
D03*
Y21247100D02*
D03*
D38*
X24472900Y21666200D02*
X24333200D01*
X25209500Y20383500D02*
X25260300D01*
X25273000Y20256500D02*
X25285700D01*
X26136600Y20535900D02*
Y21132800D01*
X26276300Y20459700D02*
Y20383500D01*
X26682700D02*
X26962100D01*
X26276300Y20256500D02*
Y20193000D01*
X25527000Y20383500D02*
X25463500D01*
X24993600Y19164300D02*
Y19151600D01*
X25514300Y20929600D02*
X25641300D01*
X24091900Y20383500D02*
X23939500D01*
X23812500Y20256500D02*
X24345900D01*
X24498300D02*
Y20154900D01*
X25590500Y20256500D02*
X26136600D01*
X26149300Y20129500D02*
X25603200D01*
X25590500Y20383500D02*
X26136600D01*
X25196800Y20256500D02*
X24650700D01*
X24638000Y20383500D02*
X25184100D01*
X25590500Y20510500D02*
X26136600D01*
D39*
X24498300Y20472400D02*
Y20383500D01*
D40*
X26435050Y20250150D02*
X26955750D01*
X23831550Y21139150D02*
X23755350D01*
D41*
X24085550Y19754850D02*
X24123650D01*
X25431750Y18967450D02*
X25584150D01*
D42*
X24603839Y20011261D02*
Y20014316D01*
D44*
X27192252Y19496052D02*
D03*
D46*
X25196800Y21653500D02*
X24650700D01*
X25539700Y21259800D02*
X25615900D01*
X24091900Y19507200D02*
D03*
X26682700Y19723100D02*
Y19773900D01*
X24345900Y19494500D02*
D03*
X24650700Y20523200D02*
X24790400D01*
X25196800Y21501100D02*
Y21551900D01*
D48*
X24961850Y21202650D02*
X24949150D01*
X24555450Y20885150D02*
X24098250D01*
D49*
X24828500Y20955000D02*
Y21018501D01*
X25196800Y21247100D02*
D03*
D50*
X24142700Y19240500D02*
X24091900D01*
X26682700Y21183600D02*
Y21399500D01*
Y20637500D02*
Y20535900D01*
X26936700Y20637500D02*
Y20408900D01*
Y20154900D02*
Y20002500D01*
X26682700D02*
Y20104100D01*
X25006300Y19939000D02*
Y19837400D01*
X25806400Y21247100D02*
X25958800D01*
Y20993100D02*
Y20955000D01*
X23901400Y21399500D02*
X23837900D01*
Y20637500D02*
Y20408900D01*
Y20154900D02*
Y20002500D01*
X24091900Y20574000D02*
Y20637500D01*
Y20078700D02*
Y20002500D01*
X23583900Y20637500D02*
X23520400D01*
X24345900Y21399500D02*
Y21488400D01*
X23329900D02*
Y21399500D01*
D51*
X24955500Y21463000D02*
D03*
D52*
X23329900Y19240500D02*
D03*
X23583900D02*
D03*
X23837900D02*
D03*
X24091900D02*
D03*
X24345900D02*
D03*
Y20002500D02*
D03*
X23583900D02*
D03*
X23329900D02*
D03*
Y20637500D02*
D03*
X25006300Y19939000D02*
D03*
X25260300D02*
D03*
X25514300D02*
D03*
X25768300D02*
D03*
X25260300Y20701000D02*
D03*
X25514300D02*
D03*
X25768300D02*
D03*
X24345900Y21399500D02*
D03*
X23583900D02*
D03*
X24345900Y20637500D02*
D03*
X26428700Y19240500D02*
D03*
X26682700D02*
D03*
X26936700D02*
D03*
X27190700D02*
D03*
X27444700D02*
D03*
Y20002500D02*
D03*
Y20637500D02*
D03*
X27190700D02*
D03*
Y20002500D02*
D03*
X26428700Y20637500D02*
D03*
X26682700Y20002500D02*
D03*
X26428700D02*
D03*
X27444700Y21399500D02*
D03*
X26936700D02*
D03*
X26428700D02*
D03*
X27190700D02*
D03*
X25196800Y21247100D02*
D03*
X25895300Y19329400D02*
D03*
Y19583400D02*
D03*
X25641300D02*
D03*
X25387300D02*
D03*
X25641300Y19329400D02*
D03*
X25387300D02*
D03*
X25133300Y19583400D02*
D03*
Y19329400D02*
D03*
X24879300D02*
D03*
Y19583400D02*
D03*
D54*
X25196800Y21247100D02*
D03*
X24879300Y19329400D02*
D03*
X26428700Y20637500D02*
D03*
X25768300Y19939000D02*
D03*
X26428700Y19240500D02*
D03*
X24345900Y20002500D02*
D03*
Y21399500D02*
D03*
D56*
X24669750Y20707350D02*
X24999950D01*
D58*
X26428700Y20637500D02*
Y20853400D01*
D60*
X25330150Y20974050D02*
X24974550D01*
D62*
X25704800Y21463000D02*
Y21475700D01*
D63*
X24612600Y21196300D02*
X24688800D01*
Y21412200D01*
X24612600D01*
Y21196300D01*
D02*
M02*
