*%FSLAX55Y55*%
*%MOMM*%
G01*
%ADD11C,0.02540*%
%ADD12C,0.15240*%
%ADD13C,0.17780*%
%ADD14C,0.18627*%
%ADD15C,0.25400*%
%ADD16C,0.38100*%
%ADD17C,1.01600*%
%ADD18C,1.21920*%
%ADD19C,1.39700*%
%ADD20C,1.52400*%
%ADD21C,1.60020*%
%ADD22C,1.72720*%
%ADD23C,1.77800*%
%ADD24C,2.03200*%
%ADD25O,2.54000X0.60960*%
%ADD26O,2.54000X0.63500*%
%ADD27O,2.74320X0.81280*%
%ADD28O,2.74320X0.83820*%
%ADD29R,0.25400X0.25400*%
%ADD30R,0.25400X0.25400*%
%ADD31R,0.27652X0.27652*%
%ADD32R,0.38100X0.38100*%
%ADD33R,0.38100X0.38100*%
%ADD34R,0.50800X0.50800*%
%ADD35R,0.50800X0.50800*%
%ADD36R,0.63500X0.63500*%
%ADD37R,0.76200X0.76200*%
%ADD38R,0.76200X0.76200*%
%ADD39R,0.76200X0.76200*%
%ADD40R,0.88900X0.88900*%
%ADD41R,0.88900X0.88900*%
%ADD42R,0.93723X0.93723*%
%ADD43R,0.96520X0.96520*%
%ADD44R,0.98497X0.98497*%
%ADD45R,1.01600X1.01600*%
%ADD46R,1.01600X1.01600*%
%ADD47R,1.01600X1.01600*%
%ADD48R,1.14300X1.14300*%
%ADD49R,1.27000X1.27000*%
%ADD50R,1.27000X1.27000*%
%ADD51R,1.27000X1.52400*%
%ADD52R,1.27000X1.27000*%
%ADD53R,1.39700X1.39700*%
%ADD54R,1.39700X1.39700*%
%ADD55R,1.39700X1.39700*%
%ADD56R,1.39700X1.39700*%
%ADD57R,1.47320X1.72720*%
%ADD58R,1.52400X1.52400*%
%ADD59R,1.60020X1.60020*%
%ADD60R,1.65100X1.65100*%
%ADD61R,1.65100X1.65100*%
%ADD62R,2.03200X2.03200*%
%ADD63R,2.54000X2.54000*%
D15*
X24879300Y21056600D02*
X25260300D01*
X24879300D02*
Y20891500D01*
X25260300D01*
Y21056600D01*
X24676100Y21145500D02*
X24638000Y21107400D01*
Y21145500D01*
X25031700D01*
Y21272500D01*
X24955500D01*
X24790400Y21602700D02*
X24841200Y21653500D01*
X24815800D02*
X24790400Y21628100D01*
Y21323300D02*
X24841200Y21272500D01*
X24765000Y21323300D02*
X24714200Y21272500D01*
X24739600D02*
X24765000Y21297900D01*
X24790400D02*
X24815800Y21272500D01*
X24790400D02*
Y21653500D01*
X25107900D01*
X24765000Y21678900D02*
Y21272500D01*
Y21678900D02*
X25107900D01*
X24599900Y21513800D02*
X24549100Y21463000D01*
X24574500D02*
X24599900Y21488400D01*
X24701500Y21336000D02*
X24282400D01*
X24701500D02*
Y21704300D01*
X24599900D01*
Y21463000D01*
X24282400D01*
X25133300Y21183600D02*
X25590500D01*
Y21310600D02*
X25133300D01*
X25590500D02*
Y21183600D01*
X27254200Y20574000D02*
X27317700Y20510500D01*
Y20535900D02*
X27279600Y20574000D01*
X27317700D02*
Y20701000D01*
X27254200D01*
Y20574000D02*
X27317700D01*
X26174700Y19875500D02*
X26162000Y19888200D01*
Y19977100D01*
X26111200Y19888200D02*
X26149300Y19850100D01*
X26111200Y19888200D02*
Y19964400D01*
X26136600Y19837400D02*
X26581100D01*
X26136600D02*
X26098500Y19875500D01*
Y20027900D01*
X26174700Y19875500D02*
X26212800Y19837400D01*
X26174700Y19875500D02*
Y20027900D01*
X26098500D01*
X25019000Y21526500D02*
X24892000D01*
X25019000D02*
Y21386800D01*
X24892000D01*
Y21526500D01*
X24955500Y21272500D02*
X24523700D01*
Y21234400D02*
X24472900Y21183600D01*
X24498300D02*
X24523700Y21209000D01*
Y21196300D02*
Y21272500D01*
X27038300Y19100800D02*
X27076400Y19138900D01*
Y21526500D01*
X26924000Y21678900D01*
X25107900D01*
X24561800Y21107400D02*
X23787100D01*
Y21183600D02*
X24523700D01*
X26123900Y21653500D02*
X26924000D01*
X26123900D02*
X25107900D01*
X24663400Y19532600D02*
X24536400D01*
X24663400D02*
Y19380200D01*
X24536400D01*
Y19532600D01*
Y19316700D02*
X24663400D01*
Y19164300D01*
X24536400D01*
Y19316700D01*
X24815800Y19392900D02*
X24942800D01*
Y19265900D01*
X24815800D02*
Y19392900D01*
Y19265900D02*
X24942800D01*
X25196800D02*
Y19392900D01*
Y19265900D02*
X25069800D01*
Y19392900D01*
X25196800D01*
Y19519900D02*
Y19646900D01*
Y19519900D02*
X25069800D01*
Y19646900D01*
X25196800D01*
X24942800D02*
Y19519900D01*
X24815800D01*
Y19646900D01*
X24942800D01*
X25450800D02*
Y19519900D01*
X25323800D01*
Y19646900D01*
X25450800D01*
Y19392900D02*
Y19265900D01*
X25323800D01*
Y19392900D01*
X25450800D01*
X25704800Y19519900D02*
Y19646900D01*
Y19519900D02*
X25577800D01*
Y19646900D01*
X25704800D01*
Y19392900D02*
Y19265900D01*
X25577800D01*
Y19392900D01*
X25704800D01*
X25958800Y19519900D02*
Y19646900D01*
Y19519900D02*
X25831800D01*
Y19646900D01*
X25958800D01*
Y19392900D02*
Y19265900D01*
X25831800D01*
Y19392900D01*
X25958800D01*
X25831800Y19875500D02*
Y20002500D01*
Y19875500D02*
X25704800D01*
Y20002500D01*
X25831800D01*
X25577800D02*
Y19875500D01*
X25450800D01*
Y20002500D01*
X25323800D02*
Y19875500D01*
X25196800D01*
Y20002500D01*
X25323800D01*
X25069800D02*
Y19875500D01*
X24942800D01*
Y20002500D01*
X25069800D01*
Y20637500D02*
Y20764500D01*
Y20637500D02*
X24942800D01*
Y20764500D01*
X25069800D01*
X25196800D02*
Y20637500D01*
X25577800D02*
Y20764500D01*
Y20637500D02*
X25450800D01*
Y20764500D01*
X25577800D01*
X25831800D02*
Y20637500D01*
X25704800D01*
Y20764500D01*
X25831800D01*
X26746200Y20701000D02*
Y20574000D01*
X26619200D01*
Y20701000D01*
X26746200D01*
X27000200D02*
Y20574000D01*
X26873200D01*
Y20701000D01*
X27000200D01*
X27254200D02*
Y20574000D01*
X27127200D01*
Y20701000D01*
X27254200D01*
X27508200D02*
Y20574000D01*
X27381200D01*
Y20701000D01*
X27508200D01*
Y20066000D02*
Y19939000D01*
X27381200D01*
Y20066000D01*
X27508200D01*
X27254200D02*
Y19939000D01*
X27127200D01*
Y20066000D01*
X27254200D01*
X27000200D02*
Y19939000D01*
X26873200D01*
Y20066000D01*
X27000200D01*
X26746200D02*
Y19939000D01*
X26619200D01*
Y20066000D01*
X26746200D01*
X26492200Y19939000D02*
X26365200D01*
X27508200Y19304000D02*
Y19177000D01*
X27381200D01*
Y19304000D01*
X27508200D01*
X27254200D02*
Y19177000D01*
X27127200D01*
Y19304000D01*
X27254200D01*
X27000200D02*
Y19177000D01*
X26873200D01*
Y19304000D01*
X27000200D01*
X26746200D02*
Y19177000D01*
X26619200D01*
Y19304000D01*
X26746200D01*
X27508200Y21336000D02*
Y21463000D01*
X27127200D02*
Y21336000D01*
X27000200D02*
Y21463000D01*
Y21336000D02*
X26873200D01*
Y21463000D01*
X27000200D01*
X26746200D02*
Y21336000D01*
X26619200D01*
Y21463000D01*
X26746200D01*
X26492200D02*
Y21336000D01*
X23393400Y20066000D02*
Y19939000D01*
X23266400D01*
Y20066000D01*
X23393400D01*
X23647400D02*
Y19939000D01*
X23520400D01*
Y20066000D01*
X23647400D01*
X23901400D02*
Y19939000D01*
X23774400D01*
Y20066000D01*
X23901400D01*
X24155400D02*
Y19939000D01*
X24028400D01*
Y20066000D01*
X24155400D01*
X24409400D02*
Y19939000D01*
X24282400D01*
Y20066000D01*
X24409400D01*
X23393400Y19304000D02*
Y19177000D01*
X23266400D01*
Y19304000D01*
X23393400D01*
X23647400D02*
Y19177000D01*
Y19304000D02*
X23520400D01*
X23901400D02*
Y19177000D01*
X23774400D01*
Y19304000D01*
X23901400D01*
X24155400D02*
Y19177000D01*
X24028400D01*
Y19304000D01*
X24155400D01*
X24409400D02*
Y19177000D01*
X24282400D01*
Y19304000D01*
X24409400D01*
X24155400Y20574000D02*
Y20701000D01*
Y20574000D02*
X24028400D01*
Y20701000D01*
X24155400D01*
X23901400D02*
Y20574000D01*
X23774400D01*
Y20701000D01*
X23901400D01*
X23647400D02*
Y20574000D01*
X23520400D01*
Y20701000D01*
X23647400D01*
X23393400D02*
Y20574000D01*
X23266400D01*
Y20701000D01*
X23393400D01*
Y21336000D02*
Y21463000D01*
Y21336000D02*
X23266400D01*
Y21463000D01*
X23393400D01*
X23647400D02*
Y21336000D01*
X23520400D01*
Y21463000D01*
X23647400D01*
X23901400D02*
Y21336000D01*
X23774400D01*
Y21463000D01*
X23901400D01*
X24155400D02*
Y21336000D01*
X24028400D01*
Y21463000D01*
X24155400D01*
X24282400Y21336000D02*
X24409400D01*
X24282400D02*
Y21463000D01*
X26022300Y21310600D02*
Y21183600D01*
X25895300D01*
Y21310600D01*
X26022300D01*
Y21056600D02*
Y20929600D01*
X25895300D01*
Y21056600D01*
X26022300D01*
X25133300Y21183600D02*
Y21310600D01*
X25831800Y19100800D02*
X25895300Y19037300D01*
X26174700Y20091400D02*
Y20167600D01*
X25552400D02*
Y20091400D01*
Y20167600D02*
X26174700D01*
Y20091400D02*
X25552400D01*
X26174700Y20218400D02*
Y20294600D01*
X25552400D02*
Y20218400D01*
Y20294600D02*
X26174700D01*
Y20218400D02*
X25552400D01*
X26174700Y20345400D02*
Y20421600D01*
X25552400D02*
Y20345400D01*
Y20421600D02*
X26174700D01*
Y20345400D02*
X25552400D01*
X25222200D02*
Y20421600D01*
X24599900D02*
Y20345400D01*
Y20421600D02*
X25222200D01*
Y20345400D02*
X24599900D01*
X25222200Y20294600D02*
Y20218400D01*
X24599900D02*
Y20294600D01*
X25222200D01*
Y20218400D02*
X24599900D01*
X26238200D02*
Y20294600D01*
Y20218400D02*
X26479500D01*
Y20294600D01*
X26238200D01*
Y20345400D02*
Y20421600D01*
Y20345400D02*
X26720800D01*
Y20421600D01*
X26238200D01*
X24536400D02*
X24053800D01*
Y20345400D01*
X24536400D01*
Y20421600D01*
Y20294600D02*
X24307800D01*
Y20218400D01*
X24536400D01*
Y20294600D01*
X23787100Y21107400D02*
Y21183600D01*
X24561800Y21107400D02*
X24587200Y21082000D01*
X24612600Y21107400D01*
X24587200Y21056600D02*
X24536400Y21107400D01*
X24587200Y21056600D02*
X24638000Y21107400D01*
X25958800Y21348700D02*
X25996900Y21310600D01*
X26022300D02*
X25958800Y21374100D01*
X26111200Y21336000D02*
X26492200D01*
X26111200D02*
Y21463000D01*
X25984200Y21170900D02*
X25895300D01*
Y21310600D01*
X25984200Y21170900D02*
X26111200D01*
Y21120100D01*
X26238200D02*
Y21259800D01*
X26111200D01*
Y21170900D01*
Y21259800D02*
X26022300D01*
Y21310600D02*
X26073100Y21259800D01*
X26047700D02*
X26022300Y21285200D01*
X26085800Y21170900D02*
X26111200Y21145500D01*
Y21120100D02*
X26060400Y21170900D01*
X27127200Y21463000D02*
X27508200D01*
Y21336000D02*
X27127200D01*
X27444700Y21297900D02*
X27482800Y21336000D01*
X27508200D02*
X27444700Y21272500D01*
Y21297900D02*
X27406600Y21336000D01*
X27381200D02*
X27444700Y21272500D01*
Y20739100D02*
X27406600Y20701000D01*
X27444700Y20739100D02*
X27482800Y20701000D01*
X27444700Y20764500D02*
X27381200Y20701000D01*
X27444700Y20764500D02*
X27508200Y20701000D01*
X27406600Y20574000D02*
X27444700Y20535900D01*
X27482800Y20574000D01*
X27444700Y20510500D02*
X27381200Y20574000D01*
X27444700Y20510500D02*
X27508200Y20574000D01*
X27444700Y20091400D02*
X27419300Y20066000D01*
X27444700Y20091400D02*
X27470100Y20066000D01*
X27444700Y20116800D02*
X27393900Y20066000D01*
X27444700Y20116800D02*
X27495500Y20066000D01*
X27419300Y19939000D02*
X27444700Y19913600D01*
X27470100Y19939000D01*
X27444700Y19888200D02*
X27393900Y19939000D01*
X27444700Y19888200D02*
X27495500Y19939000D01*
X27444700Y19329400D02*
X27419300Y19304000D01*
X27444700Y19329400D02*
X27470100Y19304000D01*
X27444700Y19354800D02*
X27393900Y19304000D01*
X27444700Y19354800D02*
X27495500Y19304000D01*
X27419300Y19177000D02*
X27444700Y19151600D01*
X27470100Y19177000D01*
X27444700Y19126200D02*
X27393900Y19177000D01*
X27444700Y19126200D02*
X27495500Y19177000D01*
X27228800D02*
X27190700Y19138900D01*
X27152600Y19177000D01*
X26936700Y19329400D02*
X26911300Y19304000D01*
X26936700Y19329400D02*
X26962100Y19304000D01*
X26936700Y19354800D02*
X26885900Y19304000D01*
X26936700Y19354800D02*
X26987500Y19304000D01*
X26682700Y19329400D02*
X26657300Y19304000D01*
X26682700Y19329400D02*
X26708100Y19304000D01*
X26682700Y19354800D02*
X26631900Y19304000D01*
X26682700Y19354800D02*
X26733500Y19304000D01*
X26492200Y19939000D02*
Y20129500D01*
X27063700D01*
X27025600D02*
X27063700Y20091400D01*
Y20167600D02*
X26365200D01*
X26492200Y20104100D02*
X26517600Y20129500D01*
X26543000D02*
X26492200Y20078700D01*
X26365200Y20167600D02*
Y19939000D01*
X27038300Y20167600D02*
X27063700Y20193000D01*
Y20218400D02*
X27012900Y20167600D01*
X25501600Y20002500D02*
Y20434300D01*
X25412700D01*
Y20345400D01*
X25501600Y20002500D02*
X25577800D01*
X25450800Y20307300D02*
X25412700Y20345400D01*
X25450800Y20307300D02*
Y19875500D01*
Y20307300D02*
Y20434300D01*
X25285700Y20637500D02*
Y20218400D01*
X25361900D01*
Y20764500D01*
X25196800D01*
Y20637500D02*
X25285700D01*
X25260300D02*
X25285700Y20612100D01*
Y20586700D02*
X25234900Y20637500D01*
X25222200Y20154900D02*
Y20104100D01*
Y20154900D02*
X24980900D01*
Y20104100D01*
X25222200D01*
X24980900Y20154900D02*
X24955500Y20129500D01*
X24980900Y20104100D01*
X24790400Y20548600D02*
X25222200D01*
X24803100D02*
X24739600D01*
Y20472400D01*
X25222200D01*
Y20548600D01*
X25552400Y20535900D02*
X26009600D01*
X25552400D02*
Y20485100D01*
X26009600D01*
Y20535900D01*
X26035000Y20510500D01*
X26009600Y20485100D01*
X26111200Y19545300D02*
Y19392900D01*
X26289000D01*
Y19545300D01*
X26111200D01*
X26289000Y19494500D02*
X26314400Y19469100D01*
X26289000Y19443700D01*
X26339800Y19469100D02*
X26289000Y19519900D01*
X26339800Y19469100D02*
X26289000Y19418300D01*
X26111200Y19177000D02*
X26492200D01*
Y19329400D02*
X26111200D01*
X26492200D02*
Y19177000D01*
X25958800D02*
Y19265900D01*
Y19177000D02*
X26111200D01*
Y19329400D02*
X26060400D01*
Y19392900D01*
X25958800D01*
X26060400Y19354800D02*
X26085800Y19329400D01*
X25958800Y19240500D02*
X25933400Y19265900D01*
X25908000D02*
X25958800Y19215100D01*
X26060400Y19392900D02*
X26022300Y19431000D01*
X25984200Y19392900D01*
X25742634Y19519900D02*
X25704800D01*
Y19570700D02*
Y19583400D01*
Y19570700D02*
X25768300Y19507200D01*
X25057100Y19202400D02*
X25006300D01*
X24968200D02*
X25057100D01*
X24968200D02*
Y19075400D01*
X25095200D01*
X25057100Y19113500D02*
Y19202400D01*
X25095200Y19075400D02*
X25539700D01*
X25120600Y19088100D02*
X25057100Y19151600D01*
X24815800Y19126200D02*
Y19265900D01*
X24828500Y19240500D02*
X24853900Y19265900D01*
X24879300D02*
X24828500Y19215100D01*
X25069800Y19519900D02*
X25222200D01*
X25196800Y19545300D02*
Y19558000D01*
Y19545300D02*
X25260300Y19481800D01*
X25196800Y19570700D02*
Y19583400D01*
Y19570700D02*
Y19545300D01*
X24142700D02*
X24091900D01*
X24041100D01*
Y19367500D01*
X24295100Y19494500D02*
Y19532600D01*
X24536400D01*
X24295100Y19494500D02*
Y19443700D01*
X24536400D01*
X24511000D02*
X24536400Y19418300D01*
Y19392900D02*
X24485600Y19443700D01*
X23622000D02*
X23583900D01*
X23622000D02*
Y19939000D01*
X23583900Y19443700D02*
X23545800D01*
Y19939000D01*
X23520400D02*
X23545800Y19913600D01*
X23622000D02*
X23647400Y19939000D01*
X24091900Y19799300D02*
Y19748500D01*
X24003000Y19799300D02*
X23964900Y19837400D01*
Y19862800D02*
X24028400Y19799300D01*
X24155400Y19786600D02*
X24168100D01*
X24206200Y19748500D01*
X24193500D01*
X24549100Y20053300D02*
X24599900D01*
X24549100D02*
Y19951700D01*
X24650700D01*
Y20053300D01*
X24549100D01*
X24561800Y19951700D02*
X24599900Y19913600D01*
X24638000Y19951700D01*
X24549100D02*
Y19939000D01*
X24599900Y19888200D01*
X24650700Y19939000D02*
Y19951700D01*
Y19939000D02*
X24599900Y19888200D01*
X24193500Y19748500D02*
X24155400Y19710400D01*
X24396700Y21653500D02*
Y21704300D01*
X24295100D01*
Y21602700D01*
X24396700D01*
Y21704300D01*
X24295100Y21678900D02*
X24269700Y21653500D01*
X24295100Y21628100D01*
X24244300Y21653500D02*
X24295100Y21704300D01*
X24244300Y21653500D02*
X24295100Y21602700D01*
X25146000Y21450300D02*
X25285700D01*
X26238200Y21120100D02*
X26377900D01*
Y20853400D01*
X26479500D01*
Y21259800D01*
X26238200D01*
X26352500Y21120100D02*
X26377900Y21094700D01*
Y21069300D02*
X26327100Y21120100D01*
X27165300Y19939000D02*
X27190700Y19913600D01*
X27216100Y19939000D01*
X27190700Y19888200D02*
X27139900Y19939000D01*
X27190700Y19888200D02*
X27241500Y19939000D01*
Y19545300D02*
Y19443700D01*
Y19545300D02*
X27139900D01*
Y19443700D01*
X27241500D01*
X27165300Y19545300D02*
X27190700Y19570700D01*
X27216100Y19545300D01*
X27190700Y19596100D02*
X27139900Y19545300D01*
X27190700Y19596100D02*
X27241500Y19545300D01*
X26733500Y19659600D02*
Y19761200D01*
Y19659600D02*
X26631900D01*
Y19761200D01*
X26733500D01*
X26657300Y19659600D02*
X26682700Y19634200D01*
X26708100Y19659600D01*
X26682700Y19608800D02*
X26631900Y19659600D01*
X26682700Y19608800D02*
X26733500Y19659600D01*
X26682700Y19367500D02*
X26619200Y19304000D01*
X26682700Y19367500D02*
X26746200Y19304000D01*
X26873200D02*
X26936700Y19367500D01*
X27000200Y19304000D01*
X27127200Y19177000D02*
X27190700Y19113500D01*
X27254200Y19177000D01*
X27167681Y19136519D02*
Y19090481D01*
X27381200Y19304000D02*
X27444700Y19367500D01*
X27508200Y19304000D01*
X27381200Y19177000D02*
X27444700Y19113500D01*
X27508200Y19177000D01*
X27444700Y19875500D02*
X27381200Y19939000D01*
X27444700Y19875500D02*
X27508200Y19939000D01*
X27381200Y20066000D02*
X27444700Y20129500D01*
X27508200Y20066000D01*
X26936700Y21297900D02*
X26898600Y21336000D01*
X26936700Y21297900D02*
X26974800Y21336000D01*
X26936700Y21272500D02*
X26873200Y21336000D01*
X26936700Y21272500D02*
X27000200Y21336000D01*
X25476200Y19011900D02*
Y18897600D01*
X23837900Y19329400D02*
X23812500Y19304000D01*
X23837900Y19329400D02*
X23863300Y19304000D01*
X23837900Y19354800D02*
X23787100Y19304000D01*
X23837900Y19354800D02*
X23888700Y19304000D01*
X23837900Y19367500D02*
X23774400Y19304000D01*
X23837900Y19367500D02*
X23901400Y19304000D01*
X24142700Y19405600D02*
X24180800Y19367500D01*
X24206200D02*
X24142700Y19431000D01*
X24282400Y19380200D02*
Y19304000D01*
Y19342100D02*
X24257000Y19367500D01*
X24231600D02*
X24282400Y19316700D01*
X24333200Y19380200D02*
X24409400Y19304000D01*
X24333200Y19380200D02*
X24168100D01*
X24333200D01*
X24345900Y19367500D02*
X24041100D01*
X24142700D02*
Y19545300D01*
X24345900Y19367500D02*
Y19329400D01*
X24536400Y19507200D02*
X24599900Y19570700D01*
X24663400Y19532600D02*
Y19621500D01*
X24642083Y19600183D02*
Y19541217D01*
X24624544Y19533356D02*
Y19582644D01*
X24472900Y19443700D02*
X24536400Y19380200D01*
X24574500Y19545300D02*
X24295100D01*
Y19532600D01*
X24396700Y19316700D02*
X24536400D01*
Y19164300D02*
X24282400D01*
Y19177000D01*
X24955500Y19202400D02*
X24968200D01*
X24955500D02*
Y19075400D01*
X24968200D01*
X24142700Y20891500D02*
Y20942300D01*
X23964900D01*
X24142700Y20891500D02*
Y20840700D01*
X23964900D01*
Y20789900D02*
X24015700Y20840700D01*
X24041100D02*
X23964900Y20764500D01*
Y20942300D01*
X23583900Y21310600D02*
X23558500Y21336000D01*
X23583900Y21310600D02*
X23609300Y21336000D01*
X23583900Y21285200D02*
X23533100Y21336000D01*
X23583900Y21285200D02*
X23634700Y21336000D01*
X23583900Y21272500D02*
X23520400Y21336000D01*
X23583900Y21272500D02*
X23647400Y21336000D01*
X25285700Y21450300D02*
X25806400D01*
X25895300Y21361400D01*
Y21310600D01*
X25971500Y21551900D02*
X25146000D01*
X25971500D02*
Y21297900D01*
X25146000Y21450300D02*
Y21551900D01*
X25806400Y21450300D02*
X25895300D01*
X25844500D02*
Y21437600D01*
X25895300Y21386800D01*
X25908000Y21399500D02*
X25857200Y21450300D01*
X25882600D02*
X25908000Y21424900D01*
X25895300Y21120100D02*
X26111200D01*
X25895300D02*
Y21170900D01*
X26111200Y21463000D02*
Y21653500D01*
X26492200D02*
Y21463000D01*
X26111200Y21615400D02*
X26073100Y21653500D01*
X26047700D02*
X26111200Y21590000D01*
Y21564600D02*
X26022300Y21653500D01*
X26492200Y21615400D02*
X26530300Y21653500D01*
X26555700D02*
X26492200Y21590000D01*
Y21564600D02*
X26581100Y21653500D01*
X24472900Y20701000D02*
X24409400Y20637500D01*
Y20612100D02*
X24498300Y20701000D01*
X24485600Y20713700D02*
X24396700D01*
X24485600D02*
X24587200Y20815300D01*
X24396700Y20713700D02*
X24282400D01*
X24269700D01*
Y20561300D01*
X24422100D01*
X24434800D01*
X24612600Y20739100D01*
Y21107400D01*
X24422100Y20574000D02*
X24409400D01*
X24422100D02*
X24612600Y20764500D01*
X24422100Y20599400D02*
X24409400D01*
X24422100D02*
X24612600Y20789900D01*
X27127200Y19939000D02*
X27190700Y19875500D01*
X27254200Y19939000D01*
X25196800Y19570700D02*
Y19545300D01*
X25260300Y19481800D01*
X25196800Y19570700D02*
Y19596100D01*
Y19570700D02*
X25260300Y19507200D01*
Y19481800D01*
Y19507200D02*
Y19215100D01*
X25273000Y19494500D02*
X25260300Y19507200D01*
X25273000Y19494500D02*
Y19215100D01*
Y19227800D02*
X25323800Y19177000D01*
X25603200Y19164300D02*
X25679400Y19088100D01*
X25882600Y19265900D02*
X25958800Y19189700D01*
X25869900Y19265900D02*
X25857200D01*
X25869900D02*
X25958800Y19177000D01*
Y19392900D02*
X26022300Y19456400D01*
X26289000Y19545300D02*
X26365200Y19469100D01*
X26289000Y19392900D01*
X23647400Y19177000D02*
Y19062700D01*
X23698200Y19011900D01*
X23647400D02*
Y19062700D01*
Y19011900D02*
X25476200D01*
Y18897600D02*
X23507700D01*
X23647400Y19037300D02*
X23672800Y19011900D01*
X23507700Y18897600D02*
Y19316700D01*
D16*
X25768300Y19164300D02*
X25895300Y19037300D01*
X25768300Y19164300D02*
Y19215100D01*
X25742900Y18948400D02*
X27203400D01*
X25742900D02*
X25679400Y19011900D01*
Y19126200D01*
X25628600Y19177000D02*
X25298400D01*
X25107900Y20256500D02*
X24638000D01*
Y20383500D02*
X25107900D01*
X24523700Y19621500D02*
X23914100D01*
X23837900Y19545300D01*
Y19240500D01*
X25666700Y20129500D02*
X26136600D01*
Y20256500D02*
X25666700D01*
Y20383500D02*
X26136600D01*
X24828500Y19329400D02*
Y19138900D01*
X24777700Y19088100D01*
X23749000D02*
X23710900Y19126200D01*
X23583900Y20942300D02*
Y21399500D01*
Y20942300D02*
Y20891500D01*
X23710900Y20764500D01*
X26936700Y20828000D02*
Y21399500D01*
Y20828000D02*
X26898600Y20789900D01*
X26289000D01*
X26238200Y20739100D01*
Y20561300D01*
X26187400Y20510500D01*
X25666700D01*
X26898600Y19837400D02*
X26936700Y19799300D01*
X26898600Y19837400D02*
X26187400D01*
X26936700Y19799300D02*
Y19240500D01*
X26136600Y19888200D02*
Y19989800D01*
Y19888200D02*
X26187400Y19837400D01*
X25260300Y19481800D02*
X25222200Y19519900D01*
X27190700Y19494500D02*
Y20002500D01*
X26682700Y19710400D02*
Y19240500D01*
X25768300Y19494500D02*
X25730200Y19532600D01*
X25641300D01*
X24091900Y19748500D02*
X24003000D01*
X23964900Y19786600D02*
Y20447000D01*
Y19786600D02*
X24003000Y19748500D01*
X24345900Y21653500D02*
X23609300D01*
X23456900Y21501100D01*
X26974800Y21602700D02*
X27063700Y21513800D01*
Y20243800D01*
X26974800Y21602700D02*
X26924000Y21653500D01*
X26517600Y19469100D02*
X26162000D01*
X24599900Y19240500D02*
X24345900D01*
X25984200Y21183600D02*
X25958800Y21209000D01*
X25984200Y21183600D02*
X26174700D01*
X26352500Y20713700D02*
X26504900D01*
X25958800Y21209000D02*
Y21247100D01*
X26504900Y20713700D02*
Y20561300D01*
X26352500D02*
Y20713700D01*
Y20561300D02*
X26504900D01*
X25984200Y19748500D02*
X26022300Y19710400D01*
X25984200Y19748500D02*
X24790400D01*
X24599900Y19558000D01*
Y19456400D01*
X24384000D02*
X24345900Y19494500D01*
X23964900Y20447000D02*
Y20853400D01*
X23456900Y21501100D02*
Y19367500D01*
X23583900Y19240500D01*
X23710900Y19126200D02*
Y20764500D01*
X24599900Y20002500D02*
Y19837400D01*
X24511000Y19748500D01*
X24091900D01*
X24841200Y20129500D02*
X25107900D01*
X24841200D02*
X24777700Y20066000D01*
Y19875500D01*
X24523700Y19621500D01*
X27292300Y20637500D02*
X27317700Y20612100D01*
X27292300Y20637500D02*
X27190700D01*
X27444700Y19011900D02*
X27292300Y18859500D01*
X27444700Y19011900D02*
Y21399500D01*
X25628600Y19177000D02*
X25679400Y19126200D01*
X25577800Y19037300D02*
X25527000Y19088100D01*
X25082500D01*
X25006300Y19164300D01*
X27203400Y18948400D02*
X27317700Y19062700D01*
Y20612100D01*
X25577800Y19037300D02*
Y18910300D01*
X25628600Y18859500D01*
X27292300D01*
X27114500Y19037300D02*
X25895300D01*
X26517600Y19469100D02*
X26555700Y19431000D01*
X27190700Y19240500D02*
Y19113500D01*
X27114500Y19037300D01*
X25895300D02*
X25831800Y19100800D01*
X24409400Y20574000D02*
Y20701000D01*
Y20574000D02*
X24282400D01*
Y20701000D01*
X24409400D01*
X26555700Y19431000D02*
Y19138900D01*
X26593800Y19100800D01*
X27025600D01*
X27063700Y19138900D01*
Y20243800D01*
X25298400Y19177000D02*
X25260300Y19215100D01*
X24587200Y20789900D02*
Y21183600D01*
X24498300Y20701000D02*
X24409400D01*
X24498300D02*
X24587200Y20789900D01*
X24434800Y20701000D02*
X24409400Y20675600D01*
X26022300Y19710400D02*
Y19392900D01*
X25768300Y19494500D02*
Y19215100D01*
X25260300D02*
Y19481800D01*
X24777700Y19088100D02*
X23749000D01*
X23964900Y19799300D02*
X24091900D01*
X24155400D01*
Y19710400D01*
X23964900D01*
Y19786600D01*
D17*
X25539700Y21259800D02*
D03*
X25323800Y20256500D02*
D03*
X24790400Y20510500D02*
D03*
X24091900Y20383500D02*
D03*
X24345900Y20256500D02*
D03*
X23583900Y19494500D02*
D03*
X26682700Y20383500D02*
D03*
X26428700Y20256500D02*
D03*
X24993600Y19164300D02*
D03*
X27190700Y19494500D02*
D03*
X26682700Y19710400D02*
D03*
X24091900Y20891500D02*
D03*
Y19748500D02*
D03*
X25425400Y18973800D02*
D03*
X24345900Y21666200D02*
D03*
X23837900Y21145500D02*
D03*
X24091900Y19494500D02*
D03*
X25450800Y20383500D02*
D03*
X26428700Y20891500D02*
D03*
X24650700Y21653500D02*
D03*
X25196800Y21501100D02*
D03*
X24345900Y19494500D02*
D03*
X24599900Y20002500D02*
D03*
D19*
X25958800Y20993100D02*
D03*
X25196800D02*
D03*
X27444700Y20637500D02*
D03*
Y21399500D02*
D03*
X26936700D02*
D03*
Y20637500D02*
D03*
X27190700Y21399500D02*
D03*
X26682700Y20637500D02*
D03*
X27190700D02*
D03*
X26428700Y21399500D02*
D03*
X25958800Y21247100D02*
D03*
X26682700Y21399500D02*
D03*
X25006300Y19939000D02*
D03*
X25260300Y20701000D02*
D03*
Y19939000D02*
D03*
X25514300D02*
D03*
X25768300Y20701000D02*
D03*
X25006300D02*
D03*
X25514300D02*
D03*
X26682700Y19240500D02*
D03*
X26936700D02*
D03*
X27190700D02*
D03*
X27444700D02*
D03*
Y20002500D02*
D03*
X27190700D02*
D03*
X26936700D02*
D03*
X26682700D02*
D03*
X26428700D02*
D03*
X24091900D02*
D03*
X23837900D02*
D03*
X23583900D02*
D03*
X23329900D02*
D03*
Y19240500D02*
D03*
X23583900D02*
D03*
X23837900D02*
D03*
X24091900D02*
D03*
X24345900D02*
D03*
Y20637500D02*
D03*
X24091900Y21399500D02*
D03*
Y20637500D02*
D03*
X23583900D02*
D03*
Y21399500D02*
D03*
X23837900Y20637500D02*
D03*
Y21399500D02*
D03*
X23329900Y20637500D02*
D03*
Y21399500D02*
D03*
D20*
X24955500Y21463000D02*
D03*
Y20955000D02*
D03*
Y21209000D02*
D03*
X25133300Y19329400D02*
D03*
X25387300D02*
D03*
X24879300Y19583400D02*
D03*
X25133300D02*
D03*
X25387300D02*
D03*
X25641300D02*
D03*
X25895300D02*
D03*
X25641300Y19329400D02*
D03*
X25895300D02*
D03*
D25*
X25666700Y20510500D02*
D03*
D26*
Y20383500D02*
D03*
Y20256500D02*
D03*
Y20129500D02*
D03*
X25107900D02*
D03*
Y20256500D02*
D03*
Y20383500D02*
D03*
Y20510500D02*
D03*
D29*
X24777700Y21285200D02*
Y21666200D01*
D30*
X24777700D02*
X26035000D01*
D32*
X26511250Y20148550D02*
X27031950D01*
X24364950Y19323050D02*
X24301450D01*
X24288750Y19348450D02*
X24326850D01*
D35*
X25476200Y19900900D02*
Y20408900D01*
D36*
X27285950Y20605750D02*
Y20656550D01*
X26079450Y19297650D02*
Y19208750D01*
X26066750Y21151850D02*
X25927050D01*
D37*
X24638000Y20256500D02*
D03*
X24498300D02*
D03*
X24638000Y20383500D02*
D03*
X24498300D02*
D03*
X26276300D02*
D03*
X26136600D02*
D03*
Y19989800D02*
D03*
Y20129500D02*
D03*
X26276300Y20256500D02*
D03*
X26136600D02*
D03*
D38*
X25184100Y20510500D02*
X24777700D01*
X25590500Y20129500D02*
X26136600D01*
Y20256500D02*
X25590500D01*
Y20383500D02*
X26136600D01*
X25184100D02*
X24638000D01*
Y20256500D02*
X25184100D01*
X26276300Y20383500D02*
X26682700D01*
X26441400Y20256500D02*
X26276300D01*
X24498300Y20383500D02*
X24091900D01*
X24345900Y20256500D02*
X24498300D01*
X24485600Y21145500D02*
X23837900D01*
X26060400Y21221700D02*
X26073100D01*
X23583900Y20027900D02*
Y19481800D01*
X25933400Y21348700D02*
Y21513800D01*
D39*
X25323800Y20726400D02*
Y20256500D01*
D40*
X25012650Y19157950D02*
Y19119850D01*
X24491950Y19488150D02*
X24339550D01*
D41*
X24110950Y19754850D02*
X24009350D01*
D45*
X24599900Y20002500D02*
D03*
X24345900Y21653500D02*
D03*
D46*
X24650700D02*
Y21513800D01*
X26009600Y19342100D02*
Y19227800D01*
X26428700Y20904200D02*
Y21069300D01*
X27190700Y19494500D02*
D03*
X26682700Y19710400D02*
D03*
X24091900Y19494500D02*
Y19418300D01*
X24091900Y20891500D02*
X24015700D01*
D47*
X25196800Y21501100D02*
X25857200D01*
D48*
X25419050Y18954750D02*
X23564850D01*
D49*
X26428700Y20002500D02*
Y20104100D01*
D50*
X24968200Y21209000D02*
X24701500D01*
X24638000Y21399500D02*
X24345900D01*
X25196800Y21247100D02*
X25527000D01*
X24955500Y21463000D02*
Y21475700D01*
X27190700Y21399500D02*
X27444700D01*
D51*
X24599900Y19240500D02*
D03*
Y19456400D02*
D03*
X24587200Y21183600D02*
D03*
Y21399500D02*
D03*
X26174700D02*
D03*
Y21183600D02*
D03*
X26162000Y19469100D02*
D03*
Y19253200D02*
D03*
D52*
X25133300Y19329400D02*
D03*
Y19583400D02*
D03*
X24879300D02*
D03*
X25387300D02*
D03*
Y19329400D02*
D03*
X25641300Y19583400D02*
D03*
Y19329400D02*
D03*
X25895300Y19583400D02*
D03*
Y19329400D02*
D03*
X25768300Y19939000D02*
D03*
X25260300D02*
D03*
X25006300D02*
D03*
Y20701000D02*
D03*
X25260300D02*
D03*
X25514300D02*
D03*
X25768300D02*
D03*
X26682700Y20637500D02*
D03*
X26936700D02*
D03*
X27190700D02*
D03*
X27444700D02*
D03*
Y20002500D02*
D03*
X27190700D02*
D03*
X26936700D02*
D03*
X26682700D02*
D03*
X27444700Y19240500D02*
D03*
X27190700D02*
D03*
X26936700D02*
D03*
X26682700D02*
D03*
X26936700Y21399500D02*
D03*
X26682700D02*
D03*
X23329900Y20002500D02*
D03*
X23583900D02*
D03*
X23837900D02*
D03*
X24091900D02*
D03*
X24345900D02*
D03*
X23329900Y19240500D02*
D03*
X23837900D02*
D03*
X24091900D02*
D03*
X24345900D02*
D03*
Y20637500D02*
D03*
X24091900D02*
D03*
X23837900D02*
D03*
X23583900D02*
D03*
X23329900D02*
D03*
Y21399500D02*
D03*
X23583900D02*
D03*
X23837900D02*
D03*
X24091900D02*
D03*
X24345900D02*
D03*
X25958800Y21247100D02*
D03*
Y20993100D02*
D03*
D53*
X24466550Y19246851D02*
Y19234150D01*
D54*
X25196800Y21247100D02*
D03*
X24879300Y19329400D02*
D03*
X26428700Y20637500D02*
D03*
X25768300Y19939000D02*
D03*
X26428700Y19240500D02*
D03*
X24345900Y20002500D02*
D03*
Y21399500D02*
D03*
D55*
X26308050Y21189950D02*
X26409650D01*
D56*
X23577550Y19221450D02*
Y18967450D01*
D58*
X26187400Y19469100D02*
X26212800D01*
X26187400Y19253200D02*
X26416000D01*
D61*
X25177750Y20974050D02*
X24961850D01*
D63*
X26238200Y21463000D02*
X26365200D01*
Y21526500D01*
X26238200D01*
Y21463000D01*
D02*
M02*
