*%FSLAX55Y55*%
*%MOMM*%
G01*
%ADD11C,0.02540*%
%ADD12C,0.15240*%
%ADD13C,0.17780*%
%ADD14C,0.18627*%
%ADD15C,0.25400*%
%ADD16C,0.38100*%
%ADD17C,1.01600*%
%ADD18C,1.21920*%
%ADD19C,1.39700*%
%ADD20C,1.52400*%
%ADD21C,1.60020*%
%ADD22C,1.72720*%
%ADD23C,1.77800*%
%ADD24C,2.03200*%
%ADD25O,2.54000X0.60960*%
%ADD26O,2.54000X0.63500*%
%ADD27O,2.74320X0.81280*%
%ADD28O,2.74320X0.83820*%
%ADD29R,0.25400X0.25400*%
%ADD30R,0.25400X0.25400*%
%ADD31R,0.27652X0.27652*%
%ADD32R,0.38100X0.38100*%
%ADD33R,0.38100X0.38100*%
%ADD34R,0.50800X0.50800*%
%ADD35R,0.50800X0.50800*%
%ADD36R,0.63500X0.63500*%
%ADD37R,0.76200X0.76200*%
%ADD38R,0.76200X0.76200*%
%ADD39R,0.76200X0.76200*%
%ADD40R,0.88900X0.88900*%
%ADD41R,0.88900X0.88900*%
%ADD42R,0.93723X0.93723*%
%ADD43R,0.96520X0.96520*%
%ADD44R,0.98497X0.98497*%
%ADD45R,1.01600X1.01600*%
%ADD46R,1.01600X1.01600*%
%ADD47R,1.01600X1.01600*%
%ADD48R,1.14300X1.14300*%
%ADD49R,1.27000X1.27000*%
%ADD50R,1.27000X1.27000*%
%ADD51R,1.27000X1.52400*%
%ADD52R,1.27000X1.27000*%
%ADD53R,1.39700X1.39700*%
%ADD54R,1.39700X1.39700*%
%ADD55R,1.39700X1.39700*%
%ADD56R,1.39700X1.39700*%
%ADD57R,1.47320X1.72720*%
%ADD58R,1.52400X1.52400*%
%ADD59R,1.60020X1.60020*%
%ADD60R,1.65100X1.65100*%
%ADD61R,1.65100X1.65100*%
%ADD62R,2.03200X2.03200*%
%ADD63R,2.54000X2.54000*%
D11*
X26169620Y19072860D02*
X26461720D01*
X26941780Y18902680D02*
X26967180D01*
X26908760D02*
X26896060D01*
X26888440D02*
X26850340D01*
X26830020D02*
X26817320D01*
X26799540D02*
X26786840D01*
X26769060D02*
X26756360D01*
X26753820D02*
X26733500D01*
X26705560D02*
X26690320D01*
X26682700D02*
X26647140D01*
X26634440D02*
X26621740D01*
X26606500D02*
X26591260D01*
X26939240Y18905220D02*
X26969720D01*
X26908760D02*
X26896060D01*
X26888440D02*
X26847800D01*
X26830020D02*
X26817320D01*
X26799540D02*
X26786840D01*
X26769060D02*
X26730960D01*
X26705560D02*
X26690320D01*
X26682700D02*
X26644600D01*
X26634440D02*
X26621740D01*
X26606500D02*
X26591260D01*
X26936700Y18907760D02*
X26972260D01*
X26908760D02*
X26896060D01*
X26888440D02*
X26845260D01*
X26832560D02*
X26814780D01*
X26802080D02*
X26784300D01*
X26769060D02*
X26728420D01*
X26705560D02*
X26690320D01*
X26682700D02*
X26642060D01*
X26634440D02*
X26621740D01*
X26606500D02*
X26591260D01*
X26934160Y18910300D02*
X26972260D01*
X26908760D02*
X26896060D01*
X26888440D02*
X26845260D01*
X26832560D02*
X26814780D01*
X26802080D02*
X26784300D01*
X26769060D02*
X26728420D01*
X26705560D02*
X26690320D01*
X26682700D02*
X26639520D01*
X26634440D02*
X26621740D01*
X26606500D02*
X26591260D01*
X26931620Y18912840D02*
X26969720D01*
X26908760D02*
X26896060D01*
X26888440D02*
X26845260D01*
X26832560D02*
X26814780D01*
X26802080D02*
X26784300D01*
X26769060D02*
X26725880D01*
X26705560D02*
X26690320D01*
X26682700D02*
X26639520D01*
X26634440D02*
X26621740D01*
X26606500D02*
X26591260D01*
X26962100Y18915380D02*
X26967180D01*
X26946860D02*
X26931620D01*
X26908760D02*
X26896060D01*
X26888440D02*
X26873200D01*
X26857960D02*
X26842720D01*
X26835100D02*
X26814780D01*
X26804620D02*
X26784300D01*
X26769060D02*
X26753820D01*
X26741120D02*
X26725880D01*
X26705560D02*
X26690320D01*
X26682700D02*
X26670000D01*
X26652220D02*
X26639520D01*
X26634440D02*
X26621740D01*
X26606500D02*
X26591260D01*
X26931620Y18917920D02*
X26944320D01*
X26908760D02*
X26896060D01*
X26888440D02*
X26873200D01*
X26855420D02*
X26842720D01*
X26835100D02*
X26812240D01*
X26804620D02*
X26781760D01*
X26769060D02*
X26753820D01*
X26741120D02*
X26725880D01*
X26705560D02*
X26690320D01*
X26682700D02*
X26670000D01*
X26652220D02*
X26639520D01*
X26634440D02*
X26621740D01*
X26606500D02*
X26591260D01*
X26929080Y18920460D02*
X26944320D01*
X26908760D02*
X26896060D01*
X26888440D02*
X26873200D01*
X26857960D02*
X26845260D01*
X26835100D02*
X26812240D01*
X26804620D02*
X26781760D01*
X26769060D02*
X26756360D01*
X26738580D02*
X26725880D01*
X26705560D02*
X26690320D01*
X26682700D02*
X26670000D01*
X26654760D02*
X26639520D01*
X26634440D02*
X26621740D01*
X26606500D02*
X26591260D01*
X26929080Y18923000D02*
X26974800D01*
X26908760D02*
X26896060D01*
X26888440D02*
X26845260D01*
X26837640D02*
X26824940D01*
X26822400D02*
X26812240D01*
X26807160D02*
X26781760D01*
X26769060D02*
X26756360D01*
X26738580D02*
X26725880D01*
X26705560D02*
X26690320D01*
X26682700D02*
X26639520D01*
X26634440D02*
X26621740D01*
X26606500D02*
X26591260D01*
X26929080Y18925540D02*
X26974800D01*
X26908760D02*
X26896060D01*
X26888440D02*
X26845260D01*
X26837640D02*
X26824940D01*
X26822400D02*
X26809700D01*
X26807160D02*
X26794460D01*
X26791920D02*
X26779220D01*
X26769060D02*
X26756360D01*
X26738580D02*
X26725880D01*
X26705560D02*
X26690320D01*
X26682700D02*
X26642060D01*
X26634440D02*
X26621740D01*
X26606500D02*
X26591260D01*
X26929080Y18928080D02*
X26974800D01*
X26908760D02*
X26896060D01*
X26888440D02*
X26847800D01*
X26837640D02*
X26824940D01*
X26822400D02*
X26809700D01*
X26807160D02*
X26794460D01*
X26791920D02*
X26779220D01*
X26769060D02*
X26756360D01*
X26738580D02*
X26725880D01*
X26705560D02*
X26690320D01*
X26682700D02*
X26644600D01*
X26634440D02*
X26621740D01*
X26606500D02*
X26591260D01*
X26929080Y18930620D02*
X26974800D01*
X26908760D02*
X26896060D01*
X26888440D02*
X26850340D01*
X26840180D02*
X26824940D01*
X26822400D02*
X26809700D01*
X26807160D02*
X26797000D01*
X26791920D02*
X26779220D01*
X26769060D02*
X26756360D01*
X26738580D02*
X26725880D01*
X26705560D02*
X26690320D01*
X26682700D02*
X26647140D01*
X26634440D02*
X26621740D01*
X26606500D02*
X26591260D01*
X26929080Y18933160D02*
X26974800D01*
X26908760D02*
X26896060D01*
X26888440D02*
X26857960D01*
X26840180D02*
X26827480D01*
X26819860D02*
X26797000D01*
X26791920D02*
X26776680D01*
X26769060D02*
X26756360D01*
X26738580D02*
X26725880D01*
X26705560D02*
X26690320D01*
X26682700D02*
X26670000D01*
X26667460D02*
X26652220D01*
X26634440D02*
X26621740D01*
X26606500D02*
X26591260D01*
X26959560Y18935700D02*
X26974800D01*
X26944320D02*
X26931620D01*
X26908760D02*
X26896060D01*
X26888440D02*
X26873200D01*
X26840180D02*
X26827480D01*
X26819860D02*
X26797000D01*
X26789380D02*
X26776680D01*
X26769060D02*
X26753820D01*
X26741120D02*
X26725880D01*
X26705560D02*
X26690320D01*
X26682700D02*
X26670000D01*
X26634440D02*
X26621740D01*
X26606500D02*
X26591260D01*
X26959560Y18938240D02*
X26974800D01*
X26944320D02*
X26931620D01*
X26911300D02*
X26896060D01*
X26888440D02*
X26873200D01*
X26857960D02*
X26852880D01*
X26842720D02*
X26827480D01*
X26819860D02*
X26799540D01*
X26789380D02*
X26776680D01*
X26769060D02*
X26753820D01*
X26741120D02*
X26725880D01*
X26705560D02*
X26690320D01*
X26682700D02*
X26670000D01*
X26634440D02*
X26619200D01*
X26606500D02*
X26591260D01*
X26957020Y18940780D02*
X26972260D01*
X26949400D02*
X26931620D01*
X26926540D02*
X26918920D01*
X26913840D02*
X26896060D01*
X26888440D02*
X26873200D01*
X26860500D02*
X26852880D01*
X26842720D02*
X26830020D01*
X26817320D02*
X26799540D01*
X26789380D02*
X26774140D01*
X26769060D02*
X26751280D01*
X26743660D02*
X26725880D01*
X26723340D02*
X26715720D01*
X26710640D02*
X26690320D01*
X26682700D02*
X26667460D01*
X26654760D02*
X26647140D01*
X26634440D02*
X26616660D01*
X26611580D02*
X26591260D01*
X26934160Y18943320D02*
X26972260D01*
X26929080D02*
X26896060D01*
X26885900D02*
X26847800D01*
X26842720D02*
X26830020D01*
X26817320D02*
X26799540D01*
X26786840D02*
X26774140D01*
X26769060D02*
X26728420D01*
X26723340D02*
X26690320D01*
X26682700D02*
X26644600D01*
X26634440D02*
X26591260D01*
X26934160Y18945860D02*
X26969720D01*
X26931620D02*
X26896060D01*
X26885900D02*
X26847800D01*
X26845260D02*
X26830020D01*
X26817320D02*
X26802080D01*
X26786840D02*
X26774140D01*
X26769060D02*
X26728420D01*
X26725880D02*
X26690320D01*
X26680160D02*
X26642060D01*
X26631900D02*
X26591260D01*
X26936700Y18948400D02*
X26967180D01*
X26931620D02*
X26896060D01*
X26883360D02*
X26847800D01*
X26845260D02*
X26830020D01*
X26814780D02*
X26802080D01*
X26786840D02*
X26771600D01*
X26769060D02*
X26730960D01*
X26728420D02*
X26690320D01*
X26680160D02*
X26644600D01*
X26629360D02*
X26591260D01*
X26939240Y18950940D02*
X26964640D01*
X26931620D02*
X26896060D01*
X26880820D02*
X26850340D01*
X26845260D02*
X26832560D01*
X26814780D02*
X26802080D01*
X26786840D02*
X26771600D01*
X26769060D02*
X26756360D01*
X26753820D02*
X26733500D01*
X26728420D02*
X26690320D01*
X26675080D02*
X26647140D01*
X26626820D02*
X26591260D01*
X26944320Y18953480D02*
X26959560D01*
X26926540D02*
X26913840D01*
X26908760D02*
X26896060D01*
X26875740D02*
X26855420D01*
X26845260D02*
X26832560D01*
X26814780D02*
X26804620D01*
X26784300D02*
X26771600D01*
X26769060D02*
X26756360D01*
X26751280D02*
X26736040D01*
X26723340D02*
X26708100D01*
X26705560D02*
X26690320D01*
X26670000D02*
X26652220D01*
X26624280D02*
X26609040D01*
X26606500D02*
X26591260D01*
X26756360Y18956020D02*
X26769060D01*
X26606500D02*
X26591260D01*
X26756360Y18958560D02*
X26769060D01*
X26606500D02*
X26591260D01*
X26756360Y18961100D02*
X26769060D01*
X26606500D02*
X26591260D01*
X26756360Y18963640D02*
X26769060D01*
X26606500D02*
X26591260D01*
X26756360Y18966180D02*
X26769060D01*
X26606500D02*
X26591260D01*
X26756360Y18968720D02*
X26769060D01*
X26606500D02*
X26591260D01*
X26756360Y18971260D02*
X26769060D01*
X26606500D02*
X26591260D01*
X26756360Y18973800D02*
X26769060D01*
X26606500D02*
X26591260D01*
Y18976340D02*
X26606500D01*
Y18978880D02*
X26591260D01*
X26997660Y18981420D02*
X27020520D01*
X26974800D02*
X26954480D01*
X26921460D02*
X26908760D01*
X26901140D02*
X26885900D01*
X26883360D02*
X26868120D01*
X26837640D02*
X26819860D01*
X26791920D02*
X26769060D01*
X26733500D02*
X26720800D01*
X26703020D02*
X26690320D01*
X26672540D02*
X26652220D01*
X26624280D02*
X26609040D01*
X26606500D02*
X26591260D01*
X26573480D02*
X26553160D01*
X26995120Y18983960D02*
X27023060D01*
X26979880D02*
X26951940D01*
X26921460D02*
X26908760D01*
X26901140D02*
X26863040D01*
X26842720D02*
X26814780D01*
X26797000D02*
X26763980D01*
X26733500D02*
X26720800D01*
X26703020D02*
X26690320D01*
X26677620D02*
X26647140D01*
X26629360D02*
X26591260D01*
X26578560D02*
X26550620D01*
X26990040Y18986500D02*
X27025600D01*
X26982420D02*
X26949400D01*
X26921460D02*
X26908760D01*
X26901140D02*
X26860500D01*
X26845260D02*
X26812240D01*
X26799540D02*
X26761440D01*
X26733500D02*
X26720800D01*
X26703020D02*
X26690320D01*
X26680160D02*
X26644600D01*
X26631900D02*
X26591260D01*
X26581100D02*
X26548080D01*
X26990040Y18989040D02*
X27028140D01*
X26984960D02*
X26946860D01*
X26921460D02*
X26908760D01*
X26901140D02*
X26857960D01*
X26847800D02*
X26809700D01*
X26802080D02*
X26758900D01*
X26733500D02*
X26720800D01*
X26703020D02*
X26690320D01*
X26682700D02*
X26644600D01*
X26631900D02*
X26591260D01*
X26581100D02*
X26545540D01*
X26987500Y18991580D02*
X27028140D01*
X26984960D02*
X26944320D01*
X26921460D02*
X26908760D01*
X26901140D02*
X26857960D01*
X26847800D02*
X26809700D01*
X26802080D02*
X26758900D01*
X26733500D02*
X26720800D01*
X26703020D02*
X26690320D01*
X26680160D02*
X26642060D01*
X26634440D02*
X26591260D01*
X26583640D02*
X26543000D01*
X27015440Y18994120D02*
X27023060D01*
X27002740D02*
X26987500D01*
X26982420D02*
X26972260D01*
X26959560D02*
X26944320D01*
X26921460D02*
X26908760D01*
X26901140D02*
X26883360D01*
X26873200D02*
X26857960D01*
X26850340D02*
X26832560D01*
X26824940D02*
X26807160D01*
X26804620D02*
X26789380D01*
X26774140D02*
X26761440D01*
X26733500D02*
X26720800D01*
X26703020D02*
X26690320D01*
X26677620D02*
X26670000D01*
X26657300D02*
X26642060D01*
X26634440D02*
X26619200D01*
X26609040D02*
X26591260D01*
X26586180D02*
X26568400D01*
X26558240D02*
X26543000D01*
X27017980Y18996660D02*
X27023060D01*
X27000200D02*
X26984960D01*
X26979880D02*
X26972260D01*
X26957020D02*
X26941780D01*
X26921460D02*
X26908760D01*
X26901140D02*
X26885900D01*
X26870660D02*
X26857960D01*
X26850340D02*
X26835100D01*
X26822400D02*
X26807160D01*
X26804620D02*
X26789380D01*
X26769060D02*
X26763980D01*
X26733500D02*
X26720800D01*
X26703020D02*
X26690320D01*
X26675080D02*
X26672540D01*
X26654760D02*
X26639520D01*
X26634440D02*
X26621740D01*
X26606500D02*
X26591260D01*
X26586180D02*
X26570940D01*
X26555700D02*
X26543000D01*
X26984960Y18999200D02*
X27000200D01*
X26957020D02*
X26941780D01*
X26921460D02*
X26908760D01*
X26901140D02*
X26885900D01*
X26870660D02*
X26855420D01*
X26850340D02*
X26837640D01*
X26819860D02*
X26807160D01*
X26804620D02*
X26789380D01*
X26733500D02*
X26720800D01*
X26703020D02*
X26690320D01*
X26652220D02*
X26639520D01*
X26634440D02*
X26621740D01*
X26606500D02*
X26591260D01*
X26586180D02*
X26570940D01*
X26555700D02*
X26543000D01*
X26984960Y19001740D02*
X27028140D01*
X26954480D02*
X26941780D01*
X26921460D02*
X26908760D01*
X26901140D02*
X26885900D01*
X26870660D02*
X26855420D01*
X26850340D02*
X26837640D01*
X26819860D02*
X26807160D01*
X26802080D02*
X26774140D01*
X26733500D02*
X26720800D01*
X26703020D02*
X26690320D01*
X26685240D02*
X26639520D01*
X26634440D02*
X26621740D01*
X26606500D02*
X26591260D01*
X26586180D02*
X26573480D01*
X26555700D02*
X26543000D01*
X26984960Y19004280D02*
X27028140D01*
X26954480D02*
X26941780D01*
X26921460D02*
X26908760D01*
X26901140D02*
X26885900D01*
X26870660D02*
X26855420D01*
X26850340D02*
X26837640D01*
X26819860D02*
X26807160D01*
X26802080D02*
X26766520D01*
X26733500D02*
X26720800D01*
X26703020D02*
X26690320D01*
X26685240D02*
X26639520D01*
X26634440D02*
X26621740D01*
X26606500D02*
X26591260D01*
X26586180D02*
X26573480D01*
X26555700D02*
X26543000D01*
X26984960Y19006820D02*
X27028140D01*
X26954480D02*
X26941780D01*
X26921460D02*
X26908760D01*
X26901140D02*
X26885900D01*
X26870660D02*
X26855420D01*
X26850340D02*
X26837640D01*
X26819860D02*
X26807160D01*
X26799540D02*
X26763980D01*
X26733500D02*
X26720800D01*
X26703020D02*
X26690320D01*
X26685240D02*
X26639520D01*
X26634440D02*
X26621740D01*
X26606500D02*
X26591260D01*
X26586180D02*
X26573480D01*
X26555700D02*
X26543000D01*
X26984960Y19009360D02*
X27028140D01*
X26954480D02*
X26941780D01*
X26921460D02*
X26908760D01*
X26901140D02*
X26885900D01*
X26870660D02*
X26855420D01*
X26850340D02*
X26837640D01*
X26819860D02*
X26807160D01*
X26799540D02*
X26761440D01*
X26733500D02*
X26720800D01*
X26703020D02*
X26690320D01*
X26685240D02*
X26639520D01*
X26634440D02*
X26621740D01*
X26606500D02*
X26591260D01*
X26586180D02*
X26573480D01*
X26555700D02*
X26543000D01*
X26984960Y19011900D02*
X27028140D01*
X26954480D02*
X26941780D01*
X26921460D02*
X26908760D01*
X26901140D02*
X26885900D01*
X26870660D02*
X26855420D01*
X26850340D02*
X26837640D01*
X26819860D02*
X26807160D01*
X26794460D02*
X26761440D01*
X26733500D02*
X26720800D01*
X26703020D02*
X26690320D01*
X26685240D02*
X26639520D01*
X26634440D02*
X26621740D01*
X26606500D02*
X26591260D01*
X26586180D02*
X26573480D01*
X26555700D02*
X26543000D01*
X27015440Y19014440D02*
X27028140D01*
X27000200D02*
X26984960D01*
X26957020D02*
X26941780D01*
X26921460D02*
X26908760D01*
X26901140D02*
X26885900D01*
X26870660D02*
X26855420D01*
X26850340D02*
X26837640D01*
X26819860D02*
X26807160D01*
X26776680D02*
X26761440D01*
X26733500D02*
X26718260D01*
X26703020D02*
X26690320D01*
X26682700D02*
X26670000D01*
X26652220D02*
X26639520D01*
X26634440D02*
X26621740D01*
X26606500D02*
X26591260D01*
X26586180D02*
X26570940D01*
X26555700D02*
X26543000D01*
X27015440Y19016980D02*
X27028140D01*
X27000200D02*
X26984960D01*
X26979880D02*
X26972260D01*
X26957020D02*
X26941780D01*
X26924000D02*
X26908760D01*
X26901140D02*
X26885900D01*
X26870660D02*
X26855420D01*
X26850340D02*
X26835100D01*
X26822400D02*
X26807160D01*
X26797000D02*
X26791920D01*
X26774140D02*
X26761440D01*
X26733500D02*
X26718260D01*
X26705560D02*
X26690320D01*
X26682700D02*
X26670000D01*
X26654760D02*
X26639520D01*
X26634440D02*
X26621740D01*
X26606500D02*
X26591260D01*
X26586180D02*
X26570940D01*
X26555700D02*
X26543000D01*
X27012900Y19019520D02*
X27028140D01*
X27002740D02*
X26987500D01*
X26982420D02*
X26972260D01*
X26959560D02*
X26944320D01*
X26939240D02*
X26934160D01*
X26926540D02*
X26908760D01*
X26901140D02*
X26885900D01*
X26870660D02*
X26855420D01*
X26850340D02*
X26832560D01*
X26824940D02*
X26807160D01*
X26797000D02*
X26789380D01*
X26774140D02*
X26761440D01*
X26733500D02*
X26715720D01*
X26705560D02*
X26690320D01*
X26682700D02*
X26667460D01*
X26654760D02*
X26642060D01*
X26634440D02*
X26619200D01*
X26609040D02*
X26591260D01*
X26586180D02*
X26568400D01*
X26558240D02*
X26543000D01*
X26987500Y19022060D02*
X27028140D01*
X26984960D02*
X26944320D01*
X26939240D02*
X26908760D01*
X26901140D02*
X26885900D01*
X26870660D02*
X26855420D01*
X26847800D02*
X26809700D01*
X26799540D02*
X26761440D01*
X26730960D02*
X26690320D01*
X26682700D02*
X26642060D01*
X26634440D02*
X26591260D01*
X26583640D02*
X26543000D01*
X26990040Y19024600D02*
X27025600D01*
X26984960D02*
X26946860D01*
X26941780D02*
X26908760D01*
X26901140D02*
X26885900D01*
X26870660D02*
X26855420D01*
X26847800D02*
X26809700D01*
X26802080D02*
X26761440D01*
X26730960D02*
X26690320D01*
X26680160D02*
X26644600D01*
X26631900D02*
X26591260D01*
X26581100D02*
X26545540D01*
X26992580Y19027140D02*
X27023060D01*
X26982420D02*
X26949400D01*
X26944320D02*
X26908760D01*
X26901140D02*
X26885900D01*
X26870660D02*
X26855420D01*
X26845260D02*
X26812240D01*
X26802080D02*
X26763980D01*
X26728420D02*
X26690320D01*
X26677620D02*
X26644600D01*
X26631900D02*
X26591260D01*
X26581100D02*
X26548080D01*
X26995120Y19029680D02*
X27020520D01*
X26979880D02*
X26951940D01*
X26944320D02*
X26908760D01*
X26901140D02*
X26885900D01*
X26870660D02*
X26855420D01*
X26842720D02*
X26814780D01*
X26799540D02*
X26766520D01*
X26725880D02*
X26690320D01*
X26675080D02*
X26647140D01*
X26629360D02*
X26591260D01*
X26578560D02*
X26550620D01*
X26997660Y19032220D02*
X27017980D01*
X26974800D02*
X26954480D01*
X26941780D02*
X26924000D01*
X26921460D02*
X26908760D01*
X26901140D02*
X26885900D01*
X26870660D02*
X26855420D01*
X26837640D02*
X26819860D01*
X26794460D02*
X26771600D01*
X26723340D02*
X26705560D01*
X26703020D02*
X26690320D01*
X26670000D02*
X26652220D01*
X26624280D02*
X26609040D01*
X26606500D02*
X26591260D01*
X26573480D02*
X26553160D01*
X26433780Y18816320D02*
X26426160D01*
X26205180D02*
X26197560D01*
X26423620Y18818860D02*
X26436320D01*
X26207720D02*
X26195020D01*
X26421080Y18821400D02*
X26438860D01*
X26210260D02*
X26192480D01*
X26416000Y18823940D02*
X26441400D01*
X26215340D02*
X26189940D01*
X26413460Y18826480D02*
X26443940D01*
X26217880D02*
X26187400D01*
X26408380Y18829020D02*
X26446480D01*
X26222960D02*
X26184860D01*
X26405840Y18831560D02*
X26449020D01*
X26225500D02*
X26182320D01*
X26400760Y18834100D02*
X26451560D01*
X26375360D02*
X26367740D01*
X26263600D02*
X26255980D01*
X26230580D02*
X26179780D01*
X26398220Y18836640D02*
X26454100D01*
X26380440D02*
X26367740D01*
X26263600D02*
X26250900D01*
X26233120D02*
X26177240D01*
X26395680Y18839180D02*
X26456640D01*
X26385520D02*
X26365200D01*
X26266140D02*
X26245820D01*
X26235660D02*
X26174700D01*
X26365200Y18841720D02*
X26459180D01*
X26266140D02*
X26172160D01*
X26365200Y18844260D02*
X26461720D01*
X26266140D02*
X26169620D01*
X26362660Y18846800D02*
X26464260D01*
X26268680D02*
X26167080D01*
X26362660Y18849340D02*
X26466800D01*
X26268680D02*
X26164540D01*
X26360120Y18851880D02*
X26466800D01*
X26271220D02*
X26164540D01*
X26360120Y18854420D02*
X26466800D01*
X26271220D02*
X26164540D01*
X26360120Y18856960D02*
X26466800D01*
X26271220D02*
X26164540D01*
X26357580Y18859500D02*
X26464260D01*
X26273760D02*
X26167080D01*
X26357580Y18862040D02*
X26464260D01*
X26273760D02*
X26167080D01*
X26355040Y18864580D02*
X26461720D01*
X26276300D02*
X26169620D01*
X26355040Y18867120D02*
X26459180D01*
X26276300D02*
X26172160D01*
X26352500Y18869660D02*
X26456640D01*
X26278840D02*
X26174700D01*
X26352500Y18872200D02*
X26456640D01*
X26278840D02*
X26174700D01*
X26352500Y18874740D02*
X26454100D01*
X26278840D02*
X26177240D01*
X26349960Y18877280D02*
X26451560D01*
X26281380D02*
X26179780D01*
X26349960Y18879820D02*
X26451560D01*
X26281380D02*
X26179780D01*
X26347420Y18882360D02*
X26449020D01*
X26283920D02*
X26182320D01*
X26347420Y18884900D02*
X26446480D01*
X26283920D02*
X26184860D01*
X26347420Y18887440D02*
X26446480D01*
X26283920D02*
X26184860D01*
X26344880Y18889980D02*
X26443940D01*
X26286460D02*
X26187400D01*
X26344880Y18892520D02*
X26441400D01*
X26286460D02*
X26189940D01*
X26342340Y18895060D02*
X26441400D01*
X26289000D02*
X26189940D01*
X26342340Y18897600D02*
X26443940D01*
X26289000D02*
X26187400D01*
X26342340Y18900140D02*
X26443940D01*
X26289000D02*
X26187400D01*
X26339800Y18902680D02*
X26443940D01*
X26291540D02*
X26187400D01*
X26339800Y18905220D02*
X26446480D01*
X26291540D02*
X26184860D01*
X26337260Y18907760D02*
X26446480D01*
X26294080D02*
X26184860D01*
X26337260Y18910300D02*
X26449020D01*
X26294080D02*
X26182320D01*
X26334720Y18912840D02*
X26449020D01*
X26296620D02*
X26182320D01*
X26334720Y18915380D02*
X26449020D01*
X26296620D02*
X26182320D01*
X26334720Y18917920D02*
X26451560D01*
X26296620D02*
X26179780D01*
X26337260Y18920460D02*
X26451560D01*
X26294080D02*
X26179780D01*
X26342340Y18923000D02*
X26454100D01*
X26289000D02*
X26177240D01*
X26344880Y18925540D02*
X26454100D01*
X26286460D02*
X26177240D01*
X26347420Y18928080D02*
X26454100D01*
X26283920D02*
X26177240D01*
X26349960Y18930620D02*
X26456640D01*
X26281380D02*
X26174700D01*
X26352500Y18933160D02*
X26469340D01*
X26278840D02*
X26162000D01*
X26355040Y18935700D02*
X26482040D01*
X26276300D02*
X26149300D01*
X26357580Y18938240D02*
X26494740D01*
X26273760D02*
X26136600D01*
X26360120Y18940780D02*
X26504900D01*
X26271220D02*
X26126440D01*
X26360120Y18943320D02*
X26504900D01*
X26271220D02*
X26126440D01*
X26362660Y18945860D02*
X26504900D01*
X26268680D02*
X26126440D01*
X26362660Y18948400D02*
X26504900D01*
X26268680D02*
X26126440D01*
X26365200Y18950940D02*
X26504900D01*
X26266140D02*
X26126440D01*
X26365200Y18953480D02*
X26504900D01*
X26266140D02*
X26126440D01*
X26365200Y18956020D02*
X26504900D01*
X26266140D02*
X26126440D01*
X26365200Y18958560D02*
X26504900D01*
X26266140D02*
X26126440D01*
X26365200Y18961100D02*
X26504900D01*
X26266140D02*
X26126440D01*
X26365200Y18963640D02*
X26504900D01*
X26266140D02*
X26126440D01*
X26367740Y18966180D02*
X26504900D01*
X26263600D02*
X26126440D01*
X26367740Y18968720D02*
X26504900D01*
X26263600D02*
X26126440D01*
X26365200Y18971260D02*
X26504900D01*
X26266140D02*
X26126440D01*
X26365200Y18973800D02*
X26504900D01*
X26266140D02*
X26126440D01*
X26365200Y18976340D02*
X26504900D01*
X26266140D02*
X26126440D01*
X26365200Y18978880D02*
X26504900D01*
X26266140D02*
X26126440D01*
X26365200Y18981420D02*
X26504900D01*
X26266140D02*
X26126440D01*
X26362660Y18983960D02*
X26504900D01*
X26268680D02*
X26126440D01*
X26362660Y18986500D02*
X26504900D01*
X26268680D02*
X26126440D01*
X26362660Y18989040D02*
X26504900D01*
X26268680D02*
X26126440D01*
X26360120Y18991580D02*
X26504900D01*
X26271220D02*
X26126440D01*
X26357580Y18994120D02*
X26504900D01*
X26273760D02*
X26126440D01*
X26357580Y18996660D02*
X26497280D01*
X26273760D02*
X26134060D01*
X26355040Y18999200D02*
X26482040D01*
X26276300D02*
X26149300D01*
X26352500Y19001740D02*
X26469340D01*
X26278840D02*
X26162000D01*
X26349960Y19004280D02*
X26456640D01*
X26281380D02*
X26174700D01*
X26347420Y19006820D02*
X26454100D01*
X26283920D02*
X26177240D01*
X26344880Y19009360D02*
X26454100D01*
X26286460D02*
X26177240D01*
X26339800Y19011900D02*
X26451560D01*
X26291540D02*
X26179780D01*
X26334720Y19014440D02*
X26451560D01*
X26296620D02*
X26179780D01*
X26324560Y19016980D02*
X26449020D01*
X26306780D02*
X26182320D01*
Y19019520D02*
X26449020D01*
X26446480Y19022060D02*
X26184860D01*
Y19024600D02*
X26446480D01*
Y19027140D02*
X26184860D01*
X26187400Y19029680D02*
X26443940D01*
Y19032220D02*
X26187400D01*
X26189940Y19034760D02*
X26441400D01*
Y19037300D02*
X26189940D01*
Y19039840D02*
X26441400D01*
Y19042380D02*
X26189940D01*
X26187400Y19044920D02*
X26443940D01*
X26446480Y19047460D02*
X26184860D01*
Y19050000D02*
X26446480D01*
X26449020Y19052540D02*
X26182320D01*
X26179780Y19055080D02*
X26451560D01*
Y19057620D02*
X26179780D01*
X26177240Y19060160D02*
X26454100D01*
X26456640Y19062700D02*
X26174700D01*
Y19065240D02*
X26456640D01*
X26459180Y19067780D02*
X26172160D01*
X26169620Y19070320D02*
X26461720D01*
X26464260Y19075400D02*
X26167080D01*
X26164540Y19077940D02*
X26466800D01*
Y19080480D02*
X26164540D01*
Y19083020D02*
X26466800D01*
Y19085560D02*
X26164540D01*
X26167080Y19088100D02*
X26464260D01*
X26461720Y19090640D02*
X26169620D01*
X26390600Y19093180D02*
X26459180D01*
X26382980D02*
X26248360D01*
X26240740D02*
X26172160D01*
X26393140Y19095720D02*
X26456640D01*
X26375360D02*
X26255980D01*
X26238200D02*
X26174700D01*
X26398220Y19098260D02*
X26454100D01*
X26370280D02*
X26261060D01*
X26233120D02*
X26177240D01*
X26400760Y19100800D02*
X26451560D01*
X26362660D02*
X26268680D01*
X26230580D02*
X26179780D01*
X26405840Y19103340D02*
X26449020D01*
X26357580D02*
X26273760D01*
X26225500D02*
X26182320D01*
X26408380Y19105880D02*
X26446480D01*
X26352500D02*
X26278840D01*
X26222960D02*
X26184860D01*
X26413460Y19108420D02*
X26443940D01*
X26352500D02*
X26278840D01*
X26217880D02*
X26187400D01*
X26416000Y19110960D02*
X26441400D01*
X26352500D02*
X26278840D01*
X26215340D02*
X26189940D01*
X26421080Y19113500D02*
X26438860D01*
X26349960D02*
X26281380D01*
X26210260D02*
X26192480D01*
X26423620Y19116040D02*
X26436320D01*
X26349960D02*
X26281380D01*
X26207720D02*
X26195020D01*
X26426160Y19118580D02*
X26433780D01*
X26349960D02*
X26281380D01*
X26205180D02*
X26197560D01*
X26281380Y19121120D02*
X26349960D01*
Y19123660D02*
X26281380D01*
Y19126200D02*
X26349960D01*
X26347420Y19128740D02*
X26283920D01*
Y19131280D02*
X26347420D01*
Y19133820D02*
X26283920D01*
Y19136360D02*
X26347420D01*
Y19138900D02*
X26283920D01*
X26286460Y19141440D02*
X26344880D01*
Y19143980D02*
X26286460D01*
Y19146520D02*
X26344880D01*
Y19149060D02*
X26286460D01*
Y19151600D02*
X26344880D01*
X26342340Y19154140D02*
X26289000D01*
D12*
X25908000Y21399500D02*
Y21501067D01*
Y21399500D02*
X25958783D01*
X25975711Y21416428D01*
Y21484139D01*
X25958783Y21501067D01*
X25908000D01*
X26009567Y21399500D02*
X26043423D01*
X26026495D01*
Y21501067D01*
X26026520D01*
X26026495D02*
X26009567Y21484139D01*
X26073100Y19723067D02*
Y19621500D01*
X26123883D01*
X26140811Y19638428D01*
Y19706139D01*
X26123883Y19723067D01*
X26073100D01*
X26174667Y19621500D02*
X26242379D01*
X26174667D02*
X26242379Y19689211D01*
Y19706139D01*
X26225451Y19723067D01*
X26191595D01*
X26174667Y19706139D01*
X24511000Y20916900D02*
Y21018467D01*
Y20916900D02*
X24561783D01*
X24578711Y20933828D01*
Y21001539D01*
X24561783Y21018467D01*
X24511000D01*
X24612567Y21001539D02*
X24629495Y21018467D01*
X24663351D01*
X24680279Y21001539D01*
Y20984611D01*
X24680304D01*
X24680279D02*
X24680304D01*
X24680279D02*
X24680304D01*
X24680279D02*
X24663351Y20967683D01*
X24646423D01*
X24663351D01*
X24680279Y20950756D01*
Y20933828D01*
X24663351Y20916900D01*
X24629495D01*
X24612567Y20933828D01*
X24523700Y19710367D02*
Y19608800D01*
X24574483D01*
X24591411Y19625728D01*
Y19693439D01*
X24574483Y19710367D01*
X24523700D01*
X24676051D02*
Y19608800D01*
X24625267Y19659583D02*
X24676051Y19710367D01*
X24692979Y19659583D02*
X24625267D01*
X25857200Y20218400D02*
Y20319967D01*
X25907983D01*
X25924911Y20303039D01*
Y20269183D01*
X25907983Y20252256D01*
X25857200D01*
X25891056D02*
X25924911Y20218400D01*
X25958767D02*
X25992623D01*
X25975695D01*
Y20319967D01*
X25975720D01*
X25975695D02*
X25958767Y20303039D01*
X25857200Y20345400D02*
Y20446967D01*
X25907983D01*
X25924911Y20430039D01*
Y20396183D01*
X25907983Y20379256D01*
X25857200D01*
X25891056D02*
X25924911Y20345400D01*
X25958767Y20446967D02*
X26026479D01*
Y20430039D01*
X25958767Y20362328D01*
Y20345400D01*
X24752300Y20319967D02*
Y20218400D01*
Y20319967D02*
X24803083D01*
X24820011Y20303039D01*
Y20269183D01*
X24803083Y20252256D01*
X24752300D01*
X24786156D02*
X24820011Y20218400D01*
X24853867Y20303039D02*
X24870795Y20319967D01*
X24904651D01*
X24921579Y20303039D01*
Y20286111D01*
X24904651Y20269183D01*
X24921579Y20252256D01*
Y20235328D01*
X24904651Y20218400D01*
X24870795D01*
X24853867Y20235328D01*
Y20252256D01*
X24870795Y20269183D01*
X24853867Y20286111D01*
Y20303039D01*
X24870795Y20269183D02*
X24904651D01*
X24752300Y20332700D02*
Y20434267D01*
X24803083D01*
X24820011Y20417339D01*
Y20383483D01*
X24803083Y20366556D01*
X24752300D01*
X24786156D02*
X24820011Y20332700D01*
X24853867Y20349628D02*
X24870795Y20332700D01*
X24904651D01*
X24921579Y20349628D01*
Y20417339D01*
X24904651Y20434267D01*
X24870795D01*
X24853867Y20417339D01*
Y20400411D01*
X24870795Y20383483D01*
X24921579D01*
X25933400Y20167600D02*
X26034967D01*
Y20116817D01*
X26018039Y20099889D01*
X25984183D01*
X25967256Y20116817D01*
Y20167600D01*
Y20133744D02*
X25933400Y20099889D01*
Y20066033D02*
Y20032177D01*
Y20049105D01*
X26034967D01*
X26034993D01*
X26034967D02*
X26018039Y20066033D01*
Y19981393D02*
X26034967Y19964466D01*
Y19930610D01*
X26018039Y19913682D01*
X25950328D01*
X25933400Y19930610D01*
Y19964466D01*
X25950328Y19981393D01*
X26018039D01*
X25323800Y21429128D02*
Y21513767D01*
Y21429128D02*
X25340728Y21412200D01*
X25374583D01*
X25391511Y21429128D01*
Y21513767D01*
X25476151D02*
Y21412200D01*
X25425367Y21462983D02*
X25476151Y21513767D01*
X25493079Y21462983D02*
X25425367D01*
X25311100Y20192967D02*
Y20108328D01*
X25328028Y20091400D01*
X25361883D01*
X25378811Y20108328D01*
Y20192967D01*
X25412667Y20091400D02*
X25446523D01*
X25429595D01*
Y20192967D01*
X25429620D01*
X25429595D02*
X25412667Y20176039D01*
X24820011Y19850067D02*
X24786156D01*
X24803083D01*
Y19765428D01*
X24786156Y19748500D01*
X24769228D01*
X24752300Y19765428D01*
X24853867Y19748500D02*
X24887723D01*
X24870795D01*
Y19850067D01*
X24870820D01*
X24870795D02*
X24853867Y19833139D01*
X24807311Y21505328D02*
Y21573039D01*
X24790383Y21589967D01*
X24756528D01*
X24739600Y21573039D01*
Y21505328D01*
X24756528Y21488400D01*
X24790383D01*
X24807311D02*
X24773456Y21522256D01*
X24790383Y21488400D02*
X24807311Y21505328D01*
X24841167Y21488400D02*
X24875023D01*
X24858095D01*
Y21589967D01*
X24858120D01*
X24858095D02*
X24841167Y21573039D01*
D13*
X27025600Y21615400D02*
Y21716978D01*
X27069134D01*
X27083645Y21712141D01*
X27088482Y21707304D01*
X27093319Y21697630D01*
Y21687956D01*
X27088482Y21678282D01*
X27083645Y21673445D01*
X27069134Y21668608D01*
X27025600D01*
X27059459D02*
X27093319Y21615400D01*
X27116053Y21654096D02*
X27174098D01*
Y21663770D01*
X27169261Y21673445D01*
X27164423Y21678282D01*
X27154749Y21683119D01*
X27140238D01*
X27130564Y21678282D01*
X27120890Y21668608D01*
X27116053Y21654096D01*
Y21644422D01*
X27120890Y21629911D01*
X27130564Y21620237D01*
X27140238Y21615400D01*
X27154749D01*
X27164423Y21620237D01*
X27174098Y21629911D01*
X27224887Y21615400D02*
X27195864Y21683119D01*
X27253909D02*
X27224887Y21615400D01*
X27270355Y21620237D02*
X27275192Y21625074D01*
X27270355Y21620237D02*
X27275192Y21615400D01*
X27280029Y21620237D01*
X27275192Y21625074D01*
X27379673Y21615400D02*
X27340976Y21716978D01*
X27302280Y21615400D01*
X27316791Y21649259D02*
X27365161D01*
X23355300Y19011878D02*
Y18910300D01*
Y19011878D02*
X23389159D01*
X23403670Y19007041D01*
X23413345Y18997367D01*
X23418182Y18987693D01*
X23423019Y18973182D01*
Y18948996D01*
X23418182Y18934485D01*
X23413345Y18924811D01*
X23403670Y18915137D01*
X23389159Y18910300D01*
X23355300D01*
X23445753Y18948996D02*
X23503798D01*
Y18958670D01*
X23498961Y18968345D01*
X23494123Y18973182D01*
X23484449Y18978019D01*
X23469938D01*
X23460264Y18973182D01*
X23450590Y18963508D01*
X23445753Y18948996D01*
Y18939322D01*
X23450590Y18924811D01*
X23460264Y18915137D01*
X23469938Y18910300D01*
X23484449D01*
X23494123Y18915137D01*
X23503798Y18924811D01*
X23578772Y18963508D02*
X23573935Y18973182D01*
X23559424Y18978019D01*
X23544913D01*
X23530402Y18973182D01*
X23525564Y18963508D01*
X23530402Y18953834D01*
X23540076Y18948996D01*
X23564261Y18944159D01*
X23573935Y18939322D01*
X23578772Y18929648D01*
Y18924811D01*
X23573935Y18915137D01*
X23559424Y18910300D01*
X23544913D01*
X23530402Y18915137D01*
X23525564Y18924811D01*
X23609729Y19011878D02*
X23614566Y19007041D01*
X23619403Y19011878D01*
X23614566Y19016715D01*
X23609729Y19011878D01*
X23614566Y18978019D02*
Y18910300D01*
X23695345Y18900626D02*
Y18978019D01*
Y18900626D02*
X23690508Y18886115D01*
X23685671Y18881278D01*
X23675997Y18876441D01*
X23661486D01*
X23651812Y18881278D01*
X23695345Y18963508D02*
X23685671Y18973182D01*
X23675997Y18978019D01*
X23661486D01*
X23651812Y18973182D01*
X23642138Y18963508D01*
X23637300Y18948996D01*
Y18939322D01*
X23642138Y18924811D01*
X23651812Y18915137D01*
X23661486Y18910300D01*
X23675997D01*
X23685671Y18915137D01*
X23695345Y18924811D01*
X23722433Y18910300D02*
Y18978019D01*
X23736944Y18973182D02*
X23722433Y18958670D01*
X23736944Y18973182D02*
X23746618Y18978019D01*
X23761129D01*
X23770803Y18973182D01*
X23775640Y18958670D01*
Y18910300D01*
X23802244Y18948996D02*
X23860289D01*
Y18958670D01*
X23855452Y18968345D01*
X23850614Y18973182D01*
X23840940Y18978019D01*
X23826429D01*
X23816755Y18973182D01*
X23807081Y18963508D01*
X23802244Y18948996D01*
Y18939322D01*
X23807081Y18924811D01*
X23816755Y18915137D01*
X23826429Y18910300D01*
X23840940D01*
X23850614Y18915137D01*
X23860289Y18924811D01*
X23940100Y18910300D02*
Y19011878D01*
X23930426Y18973182D02*
X23940100Y18963508D01*
X23930426Y18973182D02*
X23920752Y18978019D01*
X23906241D01*
X23896567Y18973182D01*
X23886893Y18963508D01*
X23882055Y18948996D01*
Y18939322D01*
X23886893Y18924811D01*
X23896567Y18915137D01*
X23906241Y18910300D01*
X23920752D01*
X23930426Y18915137D01*
X23940100Y18924811D01*
X24046999Y18910300D02*
Y19011878D01*
X24056673Y18973182D02*
X24046999Y18963508D01*
X24056673Y18973182D02*
X24066347Y18978019D01*
X24080858D01*
X24090532Y18973182D01*
X24100207Y18963508D01*
X24105043Y18948996D01*
Y18939322D01*
X24100207Y18924811D01*
X24090532Y18915137D01*
X24080858Y18910300D01*
X24066347D01*
X24056673Y18915137D01*
X24046999Y18924811D01*
X24131647Y18978019D02*
X24160670Y18910300D01*
X24189692Y18978019D01*
X24160670Y18910300D02*
X24150996Y18890952D01*
X24141322Y18881278D01*
X24131647Y18876441D01*
X24126810D01*
X24286433Y18910300D02*
Y19011878D01*
X24354152Y18910300D01*
Y19011878D01*
X24387044Y18919974D02*
X24382207Y18915137D01*
X24387044Y18910300D01*
X24391881Y18915137D01*
X24387044Y18919974D01*
X24414131Y18910300D02*
Y19011878D01*
X24477013D01*
X24452828Y18963508D02*
X24414131D01*
X24488622Y18915137D02*
X24493459Y18919974D01*
X24488622Y18915137D02*
X24493459Y18910300D01*
X24498296Y18915137D01*
X24493459Y18919974D01*
X26873200Y21488400D02*
Y21589978D01*
X26907059D01*
X26921570Y21585141D01*
X26931245Y21575467D01*
X26936082Y21565793D01*
X26940919Y21551282D01*
Y21527096D01*
X26936082Y21512585D01*
X26931245Y21502911D01*
X26921570Y21493237D01*
X26907059Y21488400D01*
X26873200D01*
X26963653Y21589978D02*
X27026535D01*
X26963653D02*
Y21488400D01*
X27026535D01*
X27002349Y21541608D02*
X26963653D01*
X27111183Y21575467D02*
X27116020Y21565793D01*
X27111183Y21575467D02*
X27101509Y21585141D01*
X27091835Y21589978D01*
X27072487D01*
X27062813Y21585141D01*
X27053138Y21575467D01*
X27048302Y21565793D01*
X27043464Y21551282D01*
Y21527096D01*
X27048302Y21512585D01*
X27053138Y21502911D01*
X27062813Y21493237D01*
X27072487Y21488400D01*
X27091835D01*
X27101509Y21493237D01*
X27111183Y21502911D01*
X27116020Y21512585D01*
X27229207Y21565793D02*
Y21570630D01*
X27234044Y21580304D01*
X27238882Y21585141D01*
X27248556Y21589978D01*
X27267904D01*
X27277578Y21585141D01*
X27282415Y21580304D01*
X27287252Y21570630D01*
Y21560956D01*
X27282415Y21551282D01*
X27272741Y21536770D01*
X27224370Y21488400D01*
X27292089D01*
X27329334Y21585141D02*
X27343845Y21589978D01*
X27329334Y21585141D02*
X27319660Y21570630D01*
X27314823Y21546445D01*
Y21531934D01*
X27319660Y21507748D01*
X27329334Y21493237D01*
X27343845Y21488400D01*
X27353520D01*
X27368031Y21493237D01*
X27377705Y21507748D01*
X27382542Y21531934D01*
Y21546445D01*
X27377705Y21570630D01*
X27368031Y21585141D01*
X27353520Y21589978D01*
X27343845D01*
X27405276Y21570630D02*
X27414950Y21575467D01*
X27429462Y21589978D01*
Y21488400D01*
X27537812Y21575467D02*
X27532975Y21585141D01*
X27518463Y21589978D01*
X27508789D01*
X27494278Y21585141D01*
X27484604Y21570630D01*
X27479767Y21546445D01*
Y21522259D01*
X27484604Y21502911D01*
X27494278Y21493237D01*
X27508789Y21488400D01*
X27513626D01*
X27528137Y21493237D01*
X27537812Y21502911D01*
X27542649Y21517422D01*
Y21522259D01*
X27537812Y21536770D01*
X27528137Y21546445D01*
X27513626Y21551282D01*
X27508789D01*
X27494278Y21546445D01*
X27484604Y21536770D01*
X27479767Y21522259D01*
D15*
X25049833Y21444834D02*
Y20973166D01*
X24892000Y21590000D02*
Y21755065D01*
X24994183D01*
X24954882Y21676462D02*
X24892000D01*
X25013048Y21755065D02*
Y21590000D01*
X25107370D01*
X25251212D02*
X25188330Y21755065D01*
X25125449Y21590000D01*
X25149029Y21645021D02*
X25227632D01*
X25384050Y21747204D02*
X25399770Y21731484D01*
X25384050Y21747204D02*
X25360469Y21755065D01*
X25329028D01*
X25305448Y21747204D01*
X25289727Y21731484D01*
Y21715764D01*
X25297587Y21700043D01*
X25305448Y21692183D01*
X25321168Y21684323D01*
X25368330Y21668602D01*
X25384050Y21660742D01*
X25391910Y21652882D01*
X25399770Y21637161D01*
Y21613581D01*
X25384050Y21597860D01*
X25360469Y21590000D01*
X25329028D01*
X25305448Y21597860D01*
X25289727Y21613581D01*
X25436713Y21590000D02*
Y21755065D01*
X25546756D02*
Y21590000D01*
Y21676462D02*
X25436713D01*
X25722039Y21755065D02*
Y21590000D01*
X25756624D02*
Y21755065D01*
X25866667Y21590000D01*
Y21755065D01*
X26006579Y21747204D02*
X26022300Y21731484D01*
X26006579Y21747204D02*
X25982999Y21755065D01*
X25951558D01*
X25927977Y21747204D01*
X25912257Y21731484D01*
Y21715764D01*
X25920117Y21700043D01*
X25927977Y21692183D01*
X25943698Y21684323D01*
X25990859Y21668602D01*
X26006579Y21660742D01*
X26014440Y21652882D01*
X26022300Y21637161D01*
Y21613581D01*
X26006579Y21597860D01*
X25982999Y21590000D01*
X25951558D01*
X25927977Y21597860D01*
X25912257Y21613581D01*
X26059243Y21590000D02*
Y21755065D01*
X26093828D02*
Y21590000D01*
Y21755065D02*
X26148849D01*
X26172430Y21747204D01*
X26188151Y21731484D01*
X26196011Y21715764D01*
X26203871Y21692183D01*
Y21652882D01*
X26196011Y21629301D01*
X26188151Y21613581D01*
X26172430Y21597860D01*
X26148849Y21590000D01*
X26093828D01*
X26240814Y21755065D02*
X26342997D01*
X26240814D02*
Y21590000D01*
X26342997D01*
X26303696Y21676462D02*
X26240814D01*
X26370508Y21755065D02*
Y21590000D01*
Y21755065D02*
X26441250D01*
X26464830Y21747204D01*
X26472691Y21739344D01*
X26480551Y21723624D01*
Y21707903D01*
X26472691Y21692183D01*
X26464830Y21684323D01*
X26441250Y21676462D01*
X26370508D01*
X26425529D02*
X26480551Y21590000D01*
X26757231Y21731484D02*
X26765091Y21715764D01*
X26757231Y21731484D02*
X26741510Y21747204D01*
X26725790Y21755065D01*
X26694349D01*
X26678629Y21747204D01*
X26662908Y21731484D01*
X26655048Y21715764D01*
X26647188Y21692183D01*
Y21652882D01*
X26655048Y21629301D01*
X26662908Y21613581D01*
X26678629Y21597860D01*
X26694349Y21590000D01*
X26725790D01*
X26741510Y21597860D01*
X26757231Y21613581D01*
X26765091Y21629301D01*
Y21652882D01*
X26725790D01*
X26802820Y21723624D02*
X26818541Y21731484D01*
X26842121Y21755065D01*
Y21590000D01*
X25049832Y21444834D02*
G75*
G03*X25049832Y20973166I-94332J-235834D01*
G74*
X25514300Y21374100D02*
G75*
G03*X25641300Y21374100I63500D01*
G74*
X25450800Y20574000D02*
G75*
G02*X25323800Y20574000I-63500D01*
G74*
X26301700Y20955000D02*
G75*
G03*X26301700Y21082000J63500D01*
G74*
Y19685000D02*
G75*
G02*X26301700Y19558000J-63500D01*
G74*
X24472900D02*
G75*
G02*X24472900Y19685000J63500D01*
G74*
Y20955000D02*
G75*
G02*X24472900Y21082000J63500D01*
D16*
G74*
X24511000Y19532600D02*
Y19392900D01*
X24688800D02*
Y19532600D01*
X24511000Y19304000D02*
Y19138900D01*
X24688800D01*
Y19304000D01*
Y19532600D02*
X24663400Y19558000D01*
X24536400D01*
X24511000Y19532600D01*
X25641300Y21374100D02*
X25831800D01*
X25514300D02*
X25323800D01*
Y20866100D02*
X25831800D01*
X25323800D02*
Y21374100D01*
X25831800D02*
Y20866100D01*
X25260300Y20574000D02*
Y20066000D01*
X25514300D01*
Y20574000D01*
X25450800D01*
X25323800D02*
X25260300D01*
X24752300Y19710400D02*
Y19202400D01*
X26022300D01*
Y19710400D01*
X24752300D01*
Y19456400D02*
X25006300D01*
Y19202400D01*
X24701500Y20320000D02*
X24612600D01*
X24701500D02*
Y20193000D01*
X24612600D01*
X24523700D02*
X24434800D01*
Y20320000D01*
X24523700D01*
X24612600Y20447000D02*
X24701500D01*
Y20320000D01*
X24612600D01*
X24523700D02*
X24434800D01*
Y20447000D01*
X24523700D01*
X26250900D02*
X26339800D01*
Y20320000D01*
X26250900D01*
X26162000D02*
X26073100D01*
Y20447000D01*
X26162000D01*
X26200100Y20015200D02*
Y19926300D01*
X26073100D01*
Y20015200D01*
Y20104100D02*
Y20193000D01*
X26200100D01*
Y20104100D01*
X26250900Y20320000D02*
X26339800D01*
Y20193000D01*
X26250900D01*
X26162000D02*
X26073100D01*
Y20320000D01*
X26162000D01*
X26301700Y21272500D02*
X27533600D01*
Y20764500D02*
X26301700D01*
Y20955000D01*
Y21082000D02*
Y21272500D01*
X27533600D02*
Y20764500D01*
X24498300Y21336000D02*
Y21475700D01*
X24676100D02*
Y21336000D01*
X24498300Y21247100D02*
Y21082000D01*
X24676100D01*
Y21247100D01*
Y21475700D02*
X24650700Y21501100D01*
X24523700D01*
X24498300Y21475700D01*
X26263600Y21247100D02*
Y21107400D01*
X26085800D02*
Y21247100D01*
X26263600Y21336000D02*
Y21501100D01*
X26085800D01*
Y21336000D01*
Y21107400D02*
X26111200Y21082000D01*
X26238200D01*
X26263600Y21107400D01*
X26250900Y19316700D02*
Y19177000D01*
X26073100D02*
Y19316700D01*
X26250900Y19405600D02*
Y19570700D01*
X26073100D01*
Y19405600D01*
Y19177000D02*
X26098500Y19151600D01*
X26225500D01*
X26250900Y19177000D01*
X26301700Y19875500D02*
X27533600D01*
Y19367500D02*
X26301700D01*
Y19558000D01*
Y19685000D02*
Y19875500D01*
X27533600D02*
Y19367500D01*
X24345900Y20815300D02*
Y21209000D01*
Y19824700D02*
Y19431000D01*
X26428700Y20815300D02*
Y21209000D01*
Y19824700D02*
Y19431000D01*
X24472900Y19367500D02*
X23241000D01*
Y19875500D02*
X24472900D01*
Y19685000D01*
Y19558000D02*
Y19367500D01*
X23241000D02*
Y19875500D01*
Y20764500D02*
Y21272500D01*
X24472900Y20955000D02*
Y20764500D01*
Y21082000D02*
Y21272500D01*
X23241000D01*
Y20764500D02*
X24472900D01*
D02*
M02*
