M71
M48
T1F00S00C0.762
T2F00S00C1.016
%
T01
X0004318Y0007366
X0009398
X0011938
X0018415Y0004064
X0022733Y0002159
X0040386Y0007366
X0035306Y0009525
Y0016256
X0032766Y0014986
Y0021336
X0023876Y0025019
X0020447Y0027432
X0021717Y0014986
X0022987Y0016256
X0016383Y0017526
X0011938Y0014986
X0009398Y0016256
Y0021336
X0006858Y0023876
X0011938Y0029083
X0014986Y0028956
X0014478Y0012446
X0009398Y0009906
T02
X0001778Y0004826
X0004318
X0006858
X0009398
X0011938
X0017272Y0005715
Y0008255
X0019812
Y0005715
X0022352
Y0008255
X0024892
X0027432
Y0005715
X0024892
X0032766Y0004826
X0035306
X0037846
X0040386
X0042926
Y0012446
X0040386
X0037846
X0035306
X0032766
Y0018796
X0035306
X0037846
X0040386
X0042926
Y0026416
X0040386
X0037846
X0035306
X0032766
X0028067Y0024892
Y0022352
X0026162Y0019431
X0023622
X0021082
X0018542
X0020447Y0022352
Y0024892
X0021082Y0011811
X0018542
X0023622
X0026162
X0011938Y0012446
X0009398
X0006858
X0004318
X0001778
Y0018796
X0004318
X0006858
X0009398
X0011938
Y0026416
X0009398
X0006858
X0004318
X0001778
X0018034Y0027051
Y0024511
Y0021971
M30
