*%FSLAX55Y55*%
*%MOMM*%
G01*
%ADD11C,0.02540*%
%ADD12C,0.15240*%
%ADD13C,0.17780*%
%ADD14C,0.18627*%
%ADD15C,0.25400*%
%ADD16C,0.38100*%
%ADD17C,1.01600*%
%ADD18C,1.21920*%
%ADD19C,1.39700*%
%ADD20C,1.52400*%
%ADD21C,1.60020*%
%ADD22C,1.72720*%
%ADD23C,1.77800*%
%ADD24C,2.03200*%
%ADD25O,2.54000X0.60960*%
%ADD26O,2.54000X0.63500*%
%ADD27O,2.74320X0.81280*%
%ADD28O,2.74320X0.83820*%
%ADD29R,0.25400X0.25400*%
%ADD30R,0.25400X0.25400*%
%ADD31R,0.27652X0.27652*%
%ADD32R,0.38100X0.38100*%
%ADD33R,0.38100X0.38100*%
%ADD34R,0.50800X0.50800*%
%ADD35R,0.50800X0.50800*%
%ADD36R,0.63500X0.63500*%
%ADD37R,0.76200X0.76200*%
%ADD38R,0.76200X0.76200*%
%ADD39R,0.76200X0.76200*%
%ADD40R,0.88900X0.88900*%
%ADD41R,0.88900X0.88900*%
%ADD42R,0.93723X0.93723*%
%ADD43R,0.96520X0.96520*%
%ADD44R,0.98497X0.98497*%
%ADD45R,1.01600X1.01600*%
%ADD46R,1.01600X1.01600*%
%ADD47R,1.01600X1.01600*%
%ADD48R,1.14300X1.14300*%
%ADD49R,1.27000X1.27000*%
%ADD50R,1.27000X1.27000*%
%ADD51R,1.27000X1.52400*%
%ADD52R,1.27000X1.27000*%
%ADD53R,1.39700X1.39700*%
%ADD54R,1.39700X1.39700*%
%ADD55R,1.39700X1.39700*%
%ADD56R,1.39700X1.39700*%
%ADD57R,1.47320X1.72720*%
%ADD58R,1.52400X1.52400*%
%ADD59R,1.60020X1.60020*%
%ADD60R,1.65100X1.65100*%
%ADD61R,1.65100X1.65100*%
%ADD62R,2.03200X2.03200*%
%ADD63R,2.54000X2.54000*%
D19*
X25958800Y20993100D02*
D03*
X25196800D02*
D03*
X27444700Y20637500D02*
D03*
Y21399500D02*
D03*
X26936700D02*
D03*
Y20637500D02*
D03*
X27190700Y21399500D02*
D03*
X26682700Y20637500D02*
D03*
X27190700D02*
D03*
X26428700Y21399500D02*
D03*
X25958800Y21247100D02*
D03*
X26682700Y21399500D02*
D03*
X25006300Y19939000D02*
D03*
X25260300Y20701000D02*
D03*
Y19939000D02*
D03*
X25514300D02*
D03*
X25768300Y20701000D02*
D03*
X25006300D02*
D03*
X25514300D02*
D03*
X26682700Y19240500D02*
D03*
X26936700D02*
D03*
X27190700D02*
D03*
X27444700D02*
D03*
Y20002500D02*
D03*
X27190700D02*
D03*
X26936700D02*
D03*
X26682700D02*
D03*
X26428700D02*
D03*
X24091900D02*
D03*
X23837900D02*
D03*
X23583900D02*
D03*
X23329900D02*
D03*
Y19240500D02*
D03*
X23583900D02*
D03*
X23837900D02*
D03*
X24091900D02*
D03*
X24345900D02*
D03*
Y20637500D02*
D03*
X24091900Y21399500D02*
D03*
Y20637500D02*
D03*
X23583900D02*
D03*
Y21399500D02*
D03*
X23837900Y20637500D02*
D03*
Y21399500D02*
D03*
X23329900Y20637500D02*
D03*
Y21399500D02*
D03*
D20*
X24955500Y21463000D02*
D03*
Y20955000D02*
D03*
Y21209000D02*
D03*
X25133300Y19329400D02*
D03*
X25387300D02*
D03*
X24879300Y19583400D02*
D03*
X25133300D02*
D03*
X25387300D02*
D03*
X25641300D02*
D03*
X25895300D02*
D03*
X25641300Y19329400D02*
D03*
X25895300D02*
D03*
D25*
X25107900Y20510500D02*
D03*
D26*
X25666700D02*
D03*
Y20383500D02*
D03*
Y20256500D02*
D03*
Y20129500D02*
D03*
X25107900D02*
D03*
Y20256500D02*
D03*
Y20383500D02*
D03*
D37*
X26276300Y20256500D02*
D03*
Y20383500D02*
D03*
X26136600D02*
D03*
X24498300Y20256500D02*
D03*
X26136600Y19989800D02*
D03*
Y20129500D02*
D03*
X25781000Y20929600D02*
D03*
X25641300D02*
D03*
Y21386800D02*
D03*
Y21247100D02*
D03*
X24498300Y20383500D02*
D03*
X24638000D02*
D03*
Y20256500D02*
D03*
X26136600D02*
D03*
X25514300Y20929600D02*
D03*
X25374600D02*
D03*
X25768300Y21386800D02*
D03*
Y21247100D02*
D03*
D54*
X25196800D02*
D03*
X24879300Y19329400D02*
D03*
X26428700Y20637500D02*
D03*
X25768300Y19939000D02*
D03*
X26428700Y19240500D02*
D03*
X24345900Y20002500D02*
D03*
Y21399500D02*
D03*
M02*
