*%FSLAX55Y55*%
*%MOMM*%
G01*
%ADD11C,0.02540*%
%ADD12C,0.15240*%
%ADD13C,0.17780*%
%ADD14C,0.18627*%
%ADD15C,0.25400*%
%ADD16C,0.38100*%
%ADD17C,1.01600*%
%ADD18C,1.21920*%
%ADD19C,1.39700*%
%ADD20C,1.52400*%
%ADD21C,1.60020*%
%ADD22C,1.72720*%
%ADD23C,1.77800*%
%ADD24C,2.03200*%
%ADD25O,2.54000X0.60960*%
%ADD26O,2.54000X0.63500*%
%ADD27O,2.74320X0.81280*%
%ADD28O,2.74320X0.83820*%
%ADD29R,0.25400X0.25400*%
%ADD30R,0.25400X0.25400*%
%ADD31R,0.27652X0.27652*%
%ADD32R,0.38100X0.38100*%
%ADD33R,0.38100X0.38100*%
%ADD34R,0.50800X0.50800*%
%ADD35R,0.50800X0.50800*%
%ADD36R,0.63500X0.63500*%
%ADD37R,0.76200X0.76200*%
%ADD38R,0.76200X0.76200*%
%ADD39R,0.76200X0.76200*%
%ADD40R,0.88900X0.88900*%
%ADD41R,0.88900X0.88900*%
%ADD42R,0.93723X0.93723*%
%ADD43R,0.96520X0.96520*%
%ADD44R,0.98497X0.98497*%
%ADD45R,1.01600X1.01600*%
%ADD46R,1.01600X1.01600*%
%ADD47R,1.01600X1.01600*%
%ADD48R,1.14300X1.14300*%
%ADD49R,1.27000X1.27000*%
%ADD50R,1.27000X1.27000*%
%ADD51R,1.27000X1.52400*%
%ADD52R,1.27000X1.27000*%
%ADD53R,1.39700X1.39700*%
%ADD54R,1.39700X1.39700*%
%ADD55R,1.39700X1.39700*%
%ADD56R,1.39700X1.39700*%
%ADD57R,1.47320X1.72720*%
%ADD58R,1.52400X1.52400*%
%ADD59R,1.60020X1.60020*%
%ADD60R,1.65100X1.65100*%
%ADD61R,1.65100X1.65100*%
%ADD62R,2.03200X2.03200*%
%ADD63R,2.54000X2.54000*%
D12*
X25577833Y21742400D02*
X25679400D01*
X25577833D02*
Y21691617D01*
X25594761Y21674689D01*
X25628617D01*
X25645544Y21691617D01*
Y21742400D01*
Y21708544D02*
X25679400Y21674689D01*
Y21640833D02*
Y21606977D01*
Y21623905D01*
X25577833D01*
X25577858D01*
X25577833D02*
X25594761Y21640833D01*
Y21556193D02*
X25577833Y21539266D01*
Y21505410D01*
X25594761Y21488482D01*
X25611689D01*
X25611714D01*
X25611689D02*
X25611714D01*
X25611689D02*
X25611714D01*
X25611689D02*
X25628617Y21505410D01*
Y21522338D01*
Y21505410D01*
X25645544Y21488482D01*
X25662472D01*
X25679400Y21505410D01*
Y21539266D01*
X25662472Y21556193D01*
X25450800Y20192967D02*
Y20108328D01*
X25433872Y20091400D01*
X25400017D01*
X25383089Y20108328D01*
Y20192967D01*
X25349233Y20091400D02*
X25281521D01*
X25349233D02*
X25281521Y20159111D01*
Y20176039D01*
X25298449Y20192967D01*
X25332305D01*
X25349233Y20176039D01*
X26098500Y20514728D02*
Y20599367D01*
Y20514728D02*
X26081572Y20497800D01*
X26047717D01*
X26030789Y20514728D01*
Y20599367D01*
X25996933Y20582439D02*
X25980005Y20599367D01*
X25946149D01*
X25929221Y20582439D01*
Y20565511D01*
X25929247D01*
X25929221D02*
X25929247D01*
X25929221D02*
X25929247D01*
X25929221D02*
X25946149Y20548583D01*
X25963077D01*
X25946149D01*
X25929221Y20531656D01*
Y20514728D01*
X25946149Y20497800D01*
X25980005D01*
X25996933Y20514728D01*
X26543000Y20192967D02*
Y20091400D01*
Y20192967D02*
X26492217D01*
X26475289Y20176039D01*
Y20142183D01*
X26492217Y20125256D01*
X26543000D01*
X26509144D02*
X26475289Y20091400D01*
X26441433D02*
X26373721D01*
X26441433D02*
X26373721Y20159111D01*
Y20176039D01*
X26390649Y20192967D01*
X26424505D01*
X26441433Y20176039D01*
X26543000Y20345400D02*
Y20446967D01*
X26492217D01*
X26475289Y20430039D01*
Y20396183D01*
X26492217Y20379256D01*
X26543000D01*
X26509144D02*
X26475289Y20345400D01*
X26441433Y20430039D02*
X26424505Y20446967D01*
X26390649D01*
X26373721Y20430039D01*
Y20413111D01*
X26373747D01*
X26373721D02*
X26373747D01*
X26373721D02*
X26373747D01*
X26373721D02*
X26390649Y20396183D01*
X26407577D01*
X26390649D01*
X26373721Y20379256D01*
Y20362328D01*
X26390649Y20345400D01*
X26424505D01*
X26441433Y20362328D01*
X24650700Y20167567D02*
Y20066000D01*
Y20167567D02*
X24599917D01*
X24582989Y20150639D01*
Y20116783D01*
X24599917Y20099856D01*
X24650700D01*
X24616844D02*
X24582989Y20066000D01*
X24498349D02*
Y20167567D01*
X24549133Y20116783D01*
X24481421D01*
X24384000Y20332700D02*
Y20434267D01*
X24333217D01*
X24316289Y20417339D01*
Y20383483D01*
X24333217Y20366556D01*
X24384000D01*
X24350144D02*
X24316289Y20332700D01*
X24282433Y20434267D02*
X24214721D01*
X24282433D02*
Y20383483D01*
X24248577Y20400411D01*
X24231649D01*
X24214721Y20383483D01*
Y20349628D01*
X24231649Y20332700D01*
X24265505D01*
X24282433Y20349628D01*
X25933433Y20129500D02*
X26035000D01*
X25933433D02*
Y20078717D01*
X25950361Y20061789D01*
X25984217D01*
X26001144Y20078717D01*
Y20129500D01*
Y20095644D02*
X26035000Y20061789D01*
X25950361Y19994077D02*
X25933433Y19960221D01*
X25950361Y19994077D02*
X25984217Y20027933D01*
X26018072D01*
X26035000Y20011005D01*
Y19977149D01*
X26018072Y19960221D01*
X26001144D01*
X25984217Y19977149D01*
Y20027933D01*
X25844500Y21031200D02*
Y21132767D01*
X25793717D01*
X25776789Y21115839D01*
Y21081983D01*
X25793717Y21065056D01*
X25844500D01*
X25810644D02*
X25776789Y21031200D01*
X25742933D02*
X25709077D01*
X25726005D01*
Y21132767D01*
X25726030D01*
X25726005D02*
X25742933Y21115839D01*
X25658293Y21031200D02*
X25624438D01*
X25641366D01*
Y21132767D01*
X25641391D01*
X25641366D02*
X25658293Y21115839D01*
X25577800Y21132767D02*
Y21031200D01*
Y21132767D02*
X25527017D01*
X25510089Y21115839D01*
Y21081983D01*
X25527017Y21065056D01*
X25577800D01*
X25543944D02*
X25510089Y21031200D01*
X25476233D02*
X25442377D01*
X25459305D01*
Y21132767D01*
X25459330D01*
X25459305D02*
X25476233Y21115839D01*
X25391593Y21031200D02*
X25323882D01*
X25391593D02*
X25323882Y21098911D01*
Y21115839D01*
X25340810Y21132767D01*
X25374666D01*
X25391593Y21115839D01*
X25730233Y21742400D02*
X25831800D01*
X25730233D02*
Y21691617D01*
X25747161Y21674689D01*
X25781017D01*
X25797944Y21691617D01*
Y21742400D01*
Y21708544D02*
X25831800Y21674689D01*
Y21640833D02*
Y21606977D01*
Y21623905D01*
X25730233D01*
X25730258D01*
X25730233D02*
X25747161Y21640833D01*
X25730233Y21505410D02*
X25831800D01*
X25781017Y21556193D02*
X25730233Y21505410D01*
X25781017Y21488482D02*
Y21556193D01*
D15*
X25450800Y20574000D02*
G75*
G02*X25323800Y20574000I-63500D01*
G74*
X25895300Y20383500D02*
G75*
G03*X25895300Y20256500J-63500D01*
D16*
G74*
X26250900Y20193000D02*
X26339800D01*
Y20320000D01*
X26250900D01*
X26162000D02*
X26073100D01*
Y20193000D01*
X26162000D01*
X26250900Y20320000D02*
X26339800D01*
Y20447000D01*
X26250900D01*
X26162000D02*
X26073100D01*
Y20320000D01*
X26162000D01*
X24701500Y20193000D02*
X24612600D01*
X24701500D02*
Y20320000D01*
X24612600D01*
X24523700D02*
X24434800D01*
Y20193000D01*
X24523700D01*
X26073100Y20015200D02*
Y19926300D01*
X26200100D01*
Y20015200D01*
Y20104100D02*
Y20193000D01*
X26073100D01*
Y20104100D01*
X25844500Y20866100D02*
X25755600D01*
X25844500D02*
Y20993100D01*
X25755600D01*
X25666700D02*
X25577800D01*
Y20866100D01*
X25666700D01*
X25704800Y21361400D02*
Y21450300D01*
X25577800D01*
Y21361400D01*
Y21272500D02*
Y21183600D01*
X25704800D01*
Y21272500D01*
X24523700Y20320000D02*
X24434800D01*
Y20447000D01*
X24523700D01*
X24612600D02*
X24701500D01*
Y20320000D01*
X24612600D01*
X25450800Y20574000D02*
X25514300D01*
X25323800D02*
X25260300D01*
Y20066000D01*
X25514300D01*
Y20574000D01*
X25895300Y20066000D02*
X24879300D01*
Y20574000D01*
X25895300D01*
Y20383500D01*
Y20256500D02*
Y20066000D01*
X25577800Y20993100D02*
X25488900D01*
X25577800D02*
Y20866100D01*
X25488900D01*
X25400000D02*
X25311100D01*
Y20993100D01*
X25400000D01*
X25704800Y21361400D02*
Y21450300D01*
X25831800D01*
Y21361400D01*
Y21272500D02*
Y21183600D01*
X25704800D01*
Y21272500D01*
D02*
M02*
