*%FSLAX25Y25*%
*%MOIN*%
G01*
%ADD11C,0.00100*%
%ADD12C,0.00700*%
%ADD13C,0.00733*%
%ADD14C,0.01000*%
%ADD15C,0.01200*%
%ADD16C,0.01500*%
%ADD17C,0.02000*%
%ADD18C,0.03000*%
%ADD19C,0.04000*%
%ADD20C,0.04800*%
%ADD21C,0.05000*%
%ADD22C,0.05800*%
%ADD23C,0.07000*%
%ADD24C,0.08000*%
%ADD25C,0.08800*%
%ADD26C,0.12000*%
%ADD27R,0.00967X0.00967*%
%ADD28R,0.01000X0.01000*%
%ADD29R,0.01386X0.01386*%
%ADD30R,0.01500X0.01500*%
%ADD31R,0.02000X0.02000*%
%ADD32R,0.02000X0.02000*%
%ADD33R,0.02500X0.02500*%
%ADD34R,0.02500X0.02500*%
%ADD35R,0.03000X0.03000*%
%ADD36R,0.03000X0.03000*%
%ADD37R,0.03500X0.03500*%
%ADD38R,0.03500X0.03500*%
%ADD39R,0.03800X0.03800*%
%ADD40R,0.04000X0.04000*%
%ADD41R,0.04000X0.04000*%
%ADD42R,0.04500X0.04500*%
%ADD43R,0.05000X0.05000*%
%ADD44R,0.05000X0.06000*%
%ADD45R,0.05000X0.05000*%
%ADD46R,0.05800X0.06800*%
%ADD47R,0.06000X0.05000*%
%ADD48R,0.06000X0.06000*%
%ADD49R,0.06800X0.05800*%
%ADD50R,0.08500X0.08500*%
%ADD51R,0.09000X0.09000*%
%ADD52R,0.10000X0.10000*%
D14*
X916300Y770000D02*
Y770500D01*
X1079800Y824500D02*
X1081300D01*
X983800Y797500D02*
Y793500D01*
X986300Y791000D01*
Y787500D01*
X982800Y779000D02*
X979800D01*
X982800D02*
Y776000D01*
X979800D01*
X975800Y799500D02*
X971800D01*
X975800D02*
Y795500D01*
X971800D01*
Y799500D01*
X981800D02*
X985800D01*
Y795500D01*
X981800D01*
Y799500D01*
X991800D02*
X995800D01*
Y795500D01*
X991800D01*
Y799500D01*
X1001800D02*
X1005800D01*
Y795500D01*
X1001800D01*
Y799500D01*
X975800Y769500D02*
X971800D01*
X975800D02*
Y765500D01*
X971800D01*
Y769500D01*
X981800D02*
X985800D01*
Y765500D01*
X981800D01*
Y769500D01*
X991800D02*
X995800D01*
Y765500D01*
X991800D01*
Y769500D01*
X1057800Y782500D02*
X1061800D01*
X1067800Y772500D02*
X1071800D01*
Y768500D01*
X1067800D01*
Y772500D01*
X1087800D02*
X1091800D01*
Y768500D01*
X1087800D01*
Y772500D01*
X1097800Y782500D02*
X1101800D01*
Y778500D01*
X1097800D01*
Y782500D01*
Y772500D02*
X1101800D01*
Y768500D01*
X1097800D01*
Y772500D01*
X1061800Y742500D02*
X1057800D01*
X1061800D02*
Y738500D01*
X1057800D01*
Y742500D01*
X1067800D02*
X1071800D01*
Y738500D01*
X1067800D01*
Y742500D01*
X1077800D02*
X1081800D01*
X1077800D02*
Y738500D01*
X1087800Y742500D02*
X1091800D01*
Y738500D01*
X1087800D01*
Y742500D01*
X1097800D02*
X1101800D01*
Y738500D01*
X1097800D01*
Y742500D01*
X1061800Y812500D02*
X1057800D01*
X1061800D02*
Y808500D01*
X1057800D01*
Y812500D01*
X1097800D02*
X1101800D01*
Y808500D01*
X1097800D01*
Y812500D01*
X1101800Y822500D02*
Y826500D01*
Y822500D02*
X1097800D01*
X1091800Y826500D02*
X1087800D01*
X1091800D02*
Y822500D01*
X1087800D01*
Y826500D01*
X1081800D02*
X1077800D01*
X1081800D02*
Y822500D01*
X1077800D01*
Y826500D01*
X1071800D02*
X1067800D01*
X1071800D02*
Y822500D01*
X1067800D01*
Y826500D01*
X1061800D02*
X1057800D01*
X1061800D02*
Y822500D01*
X1057800D01*
Y826500D01*
Y836500D02*
X1061800D01*
Y832500D01*
X1057800D01*
Y836500D01*
X1067800D02*
X1071800D01*
Y832500D01*
X1067800D01*
Y836500D01*
X1077800D02*
X1081800D01*
Y832500D01*
X1077800D01*
Y836500D01*
X1087800D02*
X1091800D01*
Y832500D01*
X1087800D01*
Y836500D01*
X1097800D02*
X1101800D01*
Y832500D01*
X1097800D01*
Y836500D01*
X878300Y852500D02*
X874300D01*
X878300D02*
Y848500D01*
X874300D01*
Y852500D01*
X884300D02*
X888300D01*
Y848500D01*
X884300D01*
Y852500D01*
X894300D02*
X898300D01*
Y848500D01*
X894300D01*
Y852500D01*
X904300D02*
X908300D01*
Y848500D01*
X904300D01*
Y852500D01*
X914300D02*
X918300D01*
Y848500D01*
X914300D01*
Y852500D01*
X878300Y822500D02*
X874300D01*
X878300D02*
Y818500D01*
X874300D01*
Y822500D01*
X884300D02*
X888300D01*
Y818500D01*
X884300D01*
Y822500D01*
X904300D02*
X908300D01*
Y818500D01*
X904300D01*
Y822500D01*
X914300D02*
X918300D01*
Y818500D01*
X914300D01*
Y822500D01*
X878300Y782500D02*
X874300D01*
X878300D02*
Y778500D01*
X874300D01*
Y782500D01*
Y812500D02*
X878300D01*
Y808500D01*
X874300D01*
Y812500D01*
X884300D02*
X888300D01*
Y808500D01*
X884300D01*
Y812500D01*
Y782500D02*
X888300D01*
Y778500D01*
X884300D01*
Y782500D01*
X904300D02*
X908300D01*
Y778500D01*
X904300D01*
Y782500D01*
X914300D02*
X918300D01*
Y778500D01*
X914300D01*
Y782500D01*
X878300Y772500D02*
X874300D01*
X878300D02*
Y768500D01*
X874300D01*
Y772500D01*
X914300D02*
X918300D01*
Y768500D01*
X914300D01*
Y772500D01*
X908300Y812500D02*
X904300D01*
X908300D02*
Y808500D01*
X904300D01*
Y812500D01*
X914300D02*
X918300D01*
Y808500D01*
X914300D01*
Y812500D01*
Y742500D02*
X918300D01*
Y738500D01*
X914300D01*
Y742500D01*
X908300D02*
X904300D01*
X908300D02*
Y738500D01*
X904300D01*
Y742500D01*
X898300D02*
X894300D01*
X898300D02*
Y738500D01*
X894300D01*
Y742500D01*
X888300D02*
X884300D01*
X888300D02*
Y738500D01*
X884300D01*
Y742500D01*
X878300D02*
X874300D01*
X878300D02*
Y738500D01*
X874300D01*
Y742500D01*
X979800Y776000D02*
Y779000D01*
X984800D02*
X987800D01*
Y776000D01*
X984800D01*
Y779000D01*
X989800D02*
X992800D01*
Y776000D01*
X989800D01*
Y779000D01*
X994800Y789000D02*
X997800D01*
Y786000D01*
X994800D01*
Y789000D01*
X992800D02*
X989800D01*
X992800D02*
Y786000D01*
X989800D01*
Y789000D01*
X987800D02*
X984800D01*
X987800D02*
Y786000D01*
X984800D01*
Y789000D01*
X982800D02*
X979800D01*
X982800D02*
Y786000D01*
X979800D01*
Y789000D01*
X1024800Y802000D02*
X1028800D01*
Y798000D01*
X1024800D01*
Y802000D01*
X1018800Y797000D02*
X1014800D01*
X1018800D02*
Y793000D01*
X1014800D01*
Y797000D01*
Y767000D02*
X1018800D01*
Y763000D01*
X1014800D01*
Y767000D01*
X962800Y802000D02*
X958800D01*
X962800D02*
Y798000D01*
X958800D01*
Y802000D01*
X952800Y807000D02*
X948800D01*
X952800D02*
Y803000D01*
X948800D01*
Y807000D01*
Y797000D02*
X952800D01*
Y793000D01*
X948800D01*
Y797000D01*
X960800Y786000D02*
X904300D01*
Y782500D01*
X908300D02*
Y785500D01*
Y785000D02*
X960800D01*
X909300D02*
X908300Y784000D01*
Y783000D02*
X910300Y785000D01*
X958300D02*
X960300Y783000D01*
X962300D01*
Y786000D01*
X960300D01*
Y783000D02*
X959300D01*
X957300Y785000D01*
X1041800Y794000D02*
Y796000D01*
Y799000D02*
Y801000D01*
Y766000D02*
Y764000D01*
X1044300Y794000D02*
Y796000D01*
X1041800D02*
X1018800D01*
Y794000D02*
X1041800D01*
X1019800Y796000D02*
X1018800Y797000D01*
X1019800Y794000D02*
X1018800Y793000D01*
X1028800Y801000D02*
X1041800D01*
Y799000D02*
X1028800D01*
Y798000D02*
X1029800Y799000D01*
Y801000D02*
X1028800Y802000D01*
X1018800Y766000D02*
X1041800D01*
Y764000D02*
X1018800D01*
X1019800Y766000D02*
X1018800Y767000D01*
X1019800Y764000D02*
X1018800Y763000D01*
X1069800Y740500D02*
X1074800Y745500D01*
X1084800Y819500D02*
X1079800Y824500D01*
X1097800Y797000D02*
X1105300D01*
X1097800D02*
Y808500D01*
X997800Y776000D02*
X994800D01*
Y779000D01*
X997800D02*
Y776000D01*
X1057800Y772500D02*
Y768500D01*
X1061800D01*
X997800Y779000D02*
X994800D01*
X1057800Y778500D02*
Y772500D01*
Y778500D02*
Y782500D01*
X1061800Y772500D02*
Y768500D01*
Y772500D02*
X1057800D01*
X1061800D02*
Y778500D01*
X1057800D01*
X1061800D02*
Y782500D01*
X948800Y767000D02*
Y763000D01*
X952800D01*
Y767000D01*
X948800D01*
Y773000D02*
X947300Y774500D01*
X948800Y773000D02*
Y777000D01*
Y773000D02*
X952800D01*
Y777000D01*
X948800Y773500D02*
X947800Y774500D01*
X947300Y775500D02*
X948800Y777000D01*
Y776500D02*
X947800Y775500D01*
X948800Y777000D02*
X952800D01*
X958800Y772000D02*
Y768000D01*
X962800D01*
Y772000D01*
X958800D01*
Y788000D02*
X957300Y789500D01*
X957800D02*
X958800Y788500D01*
X957300Y790500D02*
X958800Y792000D01*
Y762000D02*
Y758000D01*
X962800D01*
Y762000D02*
X958800D01*
X962800D02*
Y758000D01*
X957800Y790500D02*
X958800Y791500D01*
X960800Y790000D02*
X959300Y788500D01*
X958800Y788000D02*
Y792000D01*
Y788000D02*
X962800D01*
Y792000D02*
X958800D01*
X962800D02*
Y788000D01*
X1024800D02*
Y792000D01*
Y788000D02*
X1028800D01*
Y792000D02*
X1024800D01*
X1028800D02*
Y788000D01*
X1029800Y789000D01*
X1028800D02*
X1041800D01*
X1029800Y791000D02*
X1028800Y792000D01*
Y791000D02*
X1041800D01*
Y789000D01*
X1024800Y762000D02*
Y758000D01*
X1028800D01*
Y762000D02*
X1024800D01*
X1028800D02*
Y758000D01*
X1029800Y759000D01*
X1028800D02*
X1041800D01*
X1029800Y761000D02*
X1028800Y762000D01*
Y761000D02*
X1041800D01*
Y759000D01*
X1024800Y768000D02*
Y772000D01*
Y768000D02*
X1028800D01*
Y772000D02*
X1024800D01*
X1028800D02*
Y768000D01*
X1029800Y769000D01*
X1028800D02*
X1041800D01*
X1029800Y771000D02*
X1028800Y772000D01*
Y771000D02*
X1041800D01*
Y769000D01*
X888300Y768500D02*
X884300D01*
Y772500D01*
X888300D02*
Y768500D01*
Y772500D02*
X884300D01*
X904300Y768500D02*
X908300D01*
X904300D02*
Y772500D01*
X908300D02*
Y768500D01*
Y772500D02*
X904300D01*
X1014800Y773000D02*
Y777000D01*
Y773000D02*
X1018800D01*
X1014800Y803000D02*
Y807000D01*
Y777000D02*
X1018800D01*
Y803000D02*
X1014800D01*
Y807000D02*
X1018800D01*
Y777000D02*
Y773000D01*
Y803000D02*
Y807000D01*
X1044300Y761000D02*
Y757500D01*
X1051300D01*
Y761000D02*
X1044300D01*
Y787500D02*
Y791000D01*
Y787500D02*
X1051800D01*
Y791000D02*
X1044300D01*
X1051300Y761000D02*
Y757500D01*
X1051800Y787500D02*
Y791000D01*
X1067800Y778500D02*
X1071800D01*
X1067800D02*
Y782500D01*
X1071800D02*
Y778500D01*
Y782500D02*
X1067800D01*
Y808500D02*
X1071800D01*
X1067800D02*
Y812500D01*
X1071800D02*
Y808500D01*
Y812500D02*
X1067800D01*
X898300Y778500D02*
X894300D01*
Y782500D01*
X898300Y787500D02*
X900300Y789500D01*
X899300D02*
X898300Y788500D01*
Y790000D02*
Y782500D01*
Y786500D02*
X901300Y789500D01*
X898300D02*
X958800D01*
X960800Y790000D02*
X898300D01*
X894300Y790500D02*
X960800D01*
X894300D02*
Y782500D01*
X898300D02*
Y778500D01*
Y782500D02*
X894300D01*
X1077800D02*
Y778500D01*
X1081800D01*
Y782500D02*
X1077800D01*
X1081800D02*
Y778500D01*
X1001800Y769500D02*
Y765500D01*
X1005800D01*
Y769500D01*
X1001800D01*
X1044300Y764000D02*
X1053800D01*
Y736000D01*
Y763000D02*
X1052800Y764000D01*
X1054300Y736500D02*
Y793500D01*
X1053800Y736000D02*
X1054800Y735000D01*
X1077300D01*
X1076800Y735500D02*
X1055300D01*
X1054300Y736500D01*
X1077300Y735000D02*
X1078300Y736000D01*
X1077800Y736500D02*
X1076800Y735500D01*
X1077300Y735000D02*
X1078800D01*
X1078300Y736000D02*
Y737500D01*
X1077800Y736500D02*
Y738500D01*
X1078300Y736500D02*
X1080300Y738500D01*
X1079300D02*
X1078300Y737500D01*
X1077800Y738500D02*
X1081800D01*
X1078300Y735000D01*
X1078800D02*
X1081800Y738000D01*
Y738500D01*
X1081300Y739000D02*
X1078300Y736000D01*
X1081800Y738500D02*
Y742500D01*
X1053800Y766000D02*
X1044300D01*
X1052800D02*
X1053800Y767000D01*
Y766000D02*
Y794000D01*
X1044300D01*
X1046800Y795000D02*
X1052741D01*
X1051800Y796000D02*
X1044300D01*
X1046800Y795500D02*
X1052197D01*
X1051800Y796000D02*
X1054300Y793500D01*
X1053800Y793000D02*
X1052800Y794000D01*
X1051800D02*
X1053800Y792000D01*
X1044300Y766000D02*
Y764000D01*
Y799000D02*
Y803000D01*
X1051800D01*
Y769000D02*
X1044300D01*
Y772500D01*
X1051800D01*
Y769000D01*
Y799000D02*
Y803000D01*
Y799000D02*
X1044300D01*
X894300Y818500D02*
Y822500D01*
Y818500D02*
X898300D01*
Y822500D02*
X894300D01*
X898300D02*
Y818500D01*
X1087800Y778500D02*
X1091800D01*
X1087800D02*
Y782500D01*
X1091800D02*
Y778500D01*
Y782500D02*
X1087800D01*
Y808500D02*
Y812500D01*
Y808500D02*
X1091800D01*
Y812500D01*
X1087800D01*
X933300Y796500D02*
Y793500D01*
X898300Y808500D02*
X894300D01*
Y812500D01*
X898300D02*
Y808500D01*
Y812500D02*
X894300D01*
X1077800D02*
Y808500D01*
X1081800D01*
Y812500D02*
X1077800D01*
X1081800D02*
Y808500D01*
X1077800Y772500D02*
Y768500D01*
X1081800D01*
Y772500D01*
X1077800D01*
X1097800Y826500D02*
X1101800D01*
X1097800D02*
Y822500D01*
X931800Y756000D02*
X884300D01*
X931800D02*
X933800D01*
Y752000D01*
X888300D01*
Y742500D01*
X884300D02*
Y756000D01*
X888300Y751000D02*
X889300Y752000D01*
X890300D02*
X888300Y750000D01*
X931800Y746000D02*
X933800D01*
Y742000D01*
X929800D01*
Y745500D01*
X931800Y746000D02*
X904300D01*
X908300Y745500D02*
X929300D01*
X904300Y746000D02*
Y742500D01*
X908300D02*
Y745500D01*
Y744500D02*
X909300Y745500D01*
X910300D02*
X908300Y743500D01*
X928800Y745500D02*
X929800Y744500D01*
Y743500D02*
X927800Y745500D01*
X947800Y775500D02*
X902800D01*
X900800Y773500D01*
X902800Y774500D02*
X947800D01*
X902800D02*
X901300Y773000D01*
Y767500D01*
X897300Y763500D01*
X900800Y768000D02*
Y773500D01*
Y768000D02*
X897300Y764500D01*
X894300D01*
Y760500D01*
X898800D01*
Y765000D01*
X971800Y750000D02*
X1047300D01*
Y747000D01*
X971800D01*
Y750000D01*
X958800Y771000D02*
X935800D01*
Y769000D02*
X958800D01*
X948800Y766000D02*
X935800D01*
Y764000D02*
X948800D01*
X947800D02*
X948800Y763000D01*
X947800Y766000D02*
X948800Y767000D01*
X935800Y766000D02*
Y764000D01*
Y769000D02*
Y771000D01*
X957800D02*
X958800Y772000D01*
X957800Y769000D02*
X958800Y768000D01*
Y801000D02*
X935800D01*
Y799000D02*
X958800D01*
X935800D02*
Y801000D01*
X957800D02*
X958800Y802000D01*
X957800Y799000D02*
X958800Y798000D01*
X948800Y796000D02*
X935800D01*
Y794000D02*
X948800D01*
X935800D02*
Y796000D01*
X947800D02*
X948800Y797000D01*
X947800Y794000D02*
X948800Y793000D01*
X933300Y796500D02*
X925800D01*
Y793500D01*
X933300D01*
Y799000D02*
X925800D01*
X933300D02*
Y802000D01*
X925800D01*
Y799000D01*
Y802000D02*
X902800D01*
X900800Y804000D01*
Y816000D01*
X898300Y818500D01*
Y819500D02*
X901300Y816500D01*
Y804000D01*
X902800Y802500D01*
X932800D01*
X933300Y802000D01*
X925800Y801000D02*
X924800Y802000D01*
X923800D02*
X925800Y800000D01*
Y799000D02*
X922800Y802000D01*
X925800Y796500D02*
X899800D01*
X898300Y798000D01*
Y808500D01*
X899300Y796000D02*
X925300D01*
X899300D02*
X897800Y797500D01*
Y808500D01*
X896800D02*
X897800Y807500D01*
Y806500D02*
X895800Y808500D01*
X897800Y805500D02*
Y805000D01*
Y805500D02*
X894800Y808500D01*
X894300D02*
X897800Y805000D01*
X924800Y796000D02*
X925800Y795000D01*
Y794000D02*
X923800Y796000D01*
X923300D02*
X925800Y793500D01*
X926300Y771500D02*
X933300D01*
X926300D02*
Y768500D01*
X933300D02*
Y771500D01*
Y768500D02*
X926300D01*
Y766000D02*
X933300D01*
X926300D02*
Y762500D01*
X933300D01*
Y766000D01*
X908300Y822500D02*
Y824000D01*
X909300Y825000D01*
X904300Y824500D02*
Y822500D01*
Y824500D02*
X905300Y825500D01*
X934300D01*
X935300Y824500D01*
Y820500D01*
X931800D01*
X930800Y825000D02*
X909300D01*
X930800D02*
X931800Y824000D01*
Y820500D01*
X908800Y824500D02*
X904300D01*
X931800Y824000D02*
X935300D01*
X934800Y825000D02*
X931300D01*
X904300Y815500D02*
Y812500D01*
X908300D02*
Y815000D01*
Y814000D02*
X909300Y815000D01*
X910300D02*
X908300Y813000D01*
Y815000D02*
X930300D01*
X931800Y813500D01*
X935800D01*
X930300Y815500D02*
X904300D01*
X930300D02*
X931300Y816500D01*
X935800D01*
Y813500D01*
Y815000D02*
X930300D01*
X932300Y813500D02*
Y816500D01*
X931300D02*
Y815000D01*
X932300Y814000D01*
X883300Y858000D02*
X881300Y856000D01*
X957300Y858000D02*
X958300Y857000D01*
X1084800Y819500D02*
Y748500D01*
X1081800Y745500D01*
X1074800D01*
X1069800Y834500D02*
X1069300D01*
X1064300Y829500D01*
X884300Y782500D02*
X881300Y785500D01*
Y781500D01*
X884300Y778500D01*
X891300Y845500D02*
X886300Y850500D01*
X891300Y845500D02*
Y833500D01*
X892800Y832000D01*
X928800D01*
Y829000D01*
X925800D01*
Y832000D01*
Y831500D02*
X892800D01*
X890800Y833500D01*
Y845500D01*
X886300Y850000D01*
X924800Y831500D02*
X925800Y830500D01*
Y829500D02*
X923800Y831500D01*
X923300D02*
X925800Y829000D01*
X945800Y810000D02*
X950800Y805000D01*
X896800Y850500D02*
X896300D01*
X896800D02*
X901800Y845500D01*
Y838500D01*
X903800Y836500D01*
X942800D01*
X945800Y833500D01*
Y810000D01*
X950300Y805000D02*
X950800D01*
X950300D02*
X945300Y810000D01*
Y833500D01*
X942800Y836000D01*
X903800D01*
X901300Y838500D01*
Y845500D01*
X896300Y850500D01*
X998800Y802500D02*
X1003800Y797500D01*
X998800Y802500D02*
Y811000D01*
X995300Y814500D01*
X955300D01*
X953300Y816500D01*
X911300Y845500D02*
X906300Y850500D01*
X911300Y845500D02*
Y842000D01*
X912800Y840500D01*
X949800D01*
X953300Y837000D01*
Y816500D01*
X906300Y849500D02*
Y850500D01*
Y849500D02*
X910800Y845000D01*
Y842000D01*
X912800Y840000D01*
X949800D01*
X952800Y837000D01*
Y816500D01*
X955300Y814000D01*
X995300D01*
X998300Y811000D01*
Y802500D01*
X1003300Y797500D01*
X1003800D01*
X1010800Y799000D02*
X1016800Y805000D01*
X1010800Y799000D02*
Y781000D01*
X1016800Y775000D01*
Y805000D02*
X1016300D01*
X1010300Y799000D01*
Y781000D01*
X1016800Y774500D01*
X1074800Y765500D02*
X1079800Y770500D01*
X1056300Y762500D02*
Y759500D01*
Y757000D01*
X1060300D01*
Y762500D02*
X1056300D01*
X1060300D02*
Y757000D01*
X1063300Y765500D02*
X1074800D01*
X1063300D02*
X1058300Y760500D01*
X1079800Y769500D02*
Y770500D01*
Y770000D01*
X1074800Y765000D01*
X1063800D01*
X1058800Y760000D01*
X1069800Y770500D02*
X1064800Y775500D01*
Y819500D01*
X1069800Y824500D01*
Y824000D01*
X1065300Y819500D01*
Y775500D01*
X1069800Y771000D01*
Y770500D01*
Y810500D02*
X1074800Y815500D01*
Y827500D01*
X1076800Y829500D01*
X1094800D01*
X1099800Y824500D01*
X1069800Y811000D02*
Y810500D01*
Y811000D02*
X1074300Y815500D01*
Y827500D01*
X1076800Y830000D01*
X1094800D01*
X1099800Y825000D01*
X1080300Y824500D02*
X1079800D01*
X1080300D02*
X1085300Y819500D01*
Y748500D01*
X1081800Y745000D01*
X1074800D01*
X1070300Y740500D01*
X1101800Y768500D02*
X1106800D01*
X1104800Y772500D02*
X1101800D01*
X1104800D02*
Y797000D01*
X1103800D02*
X1104800Y796000D01*
Y795000D02*
X1102800Y797000D01*
X1104800Y773500D02*
X1103800Y772500D01*
X1102800D02*
X1104800Y774500D01*
Y812500D02*
X1101800D01*
X1104800D02*
Y839500D01*
X1061800D01*
Y836500D01*
Y838500D02*
X1062800Y839500D01*
X1063800D02*
X1061800Y837500D01*
X1103800Y839500D02*
X1104800Y838500D01*
Y837500D02*
X1102800Y839500D01*
X1104800Y813500D02*
X1103800Y812500D01*
X1102800D02*
X1104800Y814500D01*
X1106800Y852500D02*
Y768500D01*
Y852500D02*
X1057800D01*
Y832500D01*
X1045800Y848000D02*
Y852500D01*
X1057800D01*
X1045800Y848000D02*
Y843500D01*
X1057800D01*
X1056800D02*
X1057800Y842500D01*
Y841500D02*
X1055800Y843500D01*
X1054800D02*
X1057800Y840500D01*
X1043300Y837500D02*
Y848000D01*
Y837500D02*
X1037300D01*
Y852500D01*
X1043300D01*
Y848000D01*
X971800Y837000D02*
Y835000D01*
X967800D01*
Y839000D01*
X971800D01*
Y835000D01*
X977800Y837000D02*
Y839000D01*
X981800D01*
Y835000D01*
X977800D01*
Y837000D01*
X898300Y770500D02*
X896300D01*
X898300D02*
Y772500D01*
X894300D01*
Y768500D01*
X898300D01*
Y772500D01*
X881800Y781000D02*
Y856000D01*
X883300Y857500D01*
X881300Y856000D02*
Y785500D01*
X883300Y857500D02*
X958300D01*
X957800Y856500D02*
X956800Y857500D01*
X957800Y829500D02*
X998300D01*
Y837500D01*
X993800D01*
Y832500D01*
X961800D01*
X992800D02*
X993800Y833500D01*
Y834500D02*
X991800Y832500D01*
X957800Y829500D02*
Y858000D01*
X883300D01*
X957800D02*
X958300Y857500D01*
Y839000D01*
X961800D02*
Y832500D01*
Y839000D02*
X958300D01*
Y840000D02*
X959300Y839000D01*
X960300D02*
X958300Y841000D01*
X961800Y833500D02*
X962800Y832500D01*
X963800D02*
X961800Y834500D01*
X998300Y829500D02*
X1064300D01*
X1068800Y834500D02*
X1069800D01*
X1068800D02*
X1064300Y830000D01*
X998300D01*
Y831000D02*
X999300Y830000D01*
X1000300D02*
X998300Y832000D01*
X961300Y839000D02*
X958300Y842000D01*
Y842500D02*
X961800Y839000D01*
X957800Y855500D02*
X955800Y857500D01*
X884300D02*
X881800Y855000D01*
X1002800Y795500D02*
X1003800Y794500D01*
X1004800Y795500D01*
X1003800Y793500D02*
X1001800Y795500D01*
X1003800Y793500D02*
X1005800Y795500D01*
X993800Y793500D02*
Y797500D01*
Y793500D02*
X991300Y791000D01*
Y787500D01*
X993800Y845500D02*
Y847500D01*
X997800D01*
Y843500D01*
X993800D01*
Y846000D01*
X1023800Y845500D02*
Y847500D01*
X1027800D01*
Y843500D01*
X1023800D01*
Y845500D01*
X1025800Y837500D02*
X1027800D01*
Y833500D01*
X1023800D01*
Y837500D01*
X1025800D01*
X882611Y784189D02*
Y780811D01*
X883326Y779526D02*
Y783474D01*
X883800Y783000D02*
Y779000D01*
X992300Y795500D02*
X992688Y795449D01*
X993050Y795299D01*
X993361Y795061D01*
X993599Y794750D01*
X993749Y794388D01*
X993800Y794000D01*
X993851Y794388D01*
X994001Y794750D01*
X994239Y795061D01*
X994550Y795299D01*
X994912Y795449D01*
X995300Y795500D01*
X991300Y790500D02*
X991249Y790112D01*
X991099Y789750D01*
X990861Y789439D01*
X990550Y789201D01*
X990188Y789051D01*
X989800Y789000D01*
X991300Y790500D02*
X991351Y790112D01*
X991501Y789750D01*
X991739Y789439D01*
X992050Y789201D01*
X992412Y789051D01*
X992800Y789000D01*
X983800Y794000D02*
X983730Y794300D01*
X983609Y794584D01*
X983441Y794842D01*
X983230Y795066D01*
X982983Y795251D01*
X982708Y795390D01*
X982414Y795480D01*
X982108Y795517D01*
X981800Y795500D01*
X983800Y794000D02*
X983870Y794300D01*
X983991Y794584D01*
X984159Y794842D01*
X984370Y795066D01*
X984617Y795251D01*
X984892Y795390D01*
X985186Y795480D01*
X985492Y795517D01*
X985800Y795500D01*
X986300Y791000D02*
X986317Y790692D01*
X986280Y790386D01*
X986191Y790092D01*
X986051Y789817D01*
X985866Y789570D01*
X985642Y789360D01*
X985383Y789191D01*
X985100Y789070D01*
X984800Y789000D01*
X986300Y791000D02*
X986283Y790692D01*
X986320Y790386D01*
X986409Y790092D01*
X986549Y789817D01*
X986734Y789570D01*
X986958Y789360D01*
X987217Y789191D01*
X987500Y789070D01*
X987800Y789000D01*
X979800D02*
X979730Y788700D01*
X979609Y788416D01*
X979441Y788158D01*
X979230Y787934D01*
X978983Y787749D01*
X978708Y787610D01*
X978414Y787520D01*
X978108Y787483D01*
X977800Y787500D01*
X978108Y787517D01*
X978414Y787480D01*
X978708Y787390D01*
X978983Y787251D01*
X979230Y787066D01*
X979441Y786842D01*
X979609Y786584D01*
X979730Y786300D01*
X979800Y786000D01*
X973800Y793500D02*
X973770Y793847D01*
X973679Y794184D01*
X973532Y794500D01*
X973332Y794786D01*
X973086Y795032D01*
X972800Y795232D01*
X972484Y795379D01*
X972147Y795470D01*
X971800Y795500D01*
X973800Y793500D02*
X973830Y793847D01*
X973921Y794184D01*
X974068Y794500D01*
X974268Y794786D01*
X974514Y795032D01*
X974800Y795232D01*
X975116Y795379D01*
X975453Y795470D01*
X975800Y795500D01*
X979800Y779000D02*
X979730Y778700D01*
X979609Y778416D01*
X979441Y778158D01*
X979230Y777934D01*
X978983Y777749D01*
X978708Y777610D01*
X978414Y777520D01*
X978108Y777483D01*
X977800Y777500D01*
X978108Y777517D01*
X978414Y777480D01*
X978708Y777390D01*
X978983Y777251D01*
X979230Y777066D01*
X979441Y776842D01*
X979609Y776584D01*
X979730Y776300D01*
X979800Y776000D01*
X973800Y772000D02*
X973813Y771704D01*
X973788Y771409D01*
X973724Y771120D01*
X973624Y770842D01*
X973487Y770579D01*
X973318Y770336D01*
X973118Y770117D01*
X972892Y769926D01*
X972642Y769767D01*
X972374Y769641D01*
X972092Y769552D01*
X971800Y769500D01*
X973800Y772000D02*
X973787Y771704D01*
X973812Y771409D01*
X973876Y771120D01*
X973976Y770842D01*
X974113Y770579D01*
X974282Y770336D01*
X974482Y770117D01*
X974708Y769926D01*
X974958Y769767D01*
X975226Y769641D01*
X975508Y769552D01*
X975800Y769500D01*
X981800Y769500D02*
X982147Y769530D01*
X982484Y769621D01*
X982800Y769768D01*
X983086Y769968D01*
X983332Y770214D01*
X983532Y770500D01*
X983679Y770816D01*
X983770Y771153D01*
X983800Y771500D01*
X983830Y771153D01*
X983921Y770816D01*
X984068Y770500D01*
X984268Y770214D01*
X984514Y769968D01*
X984800Y769768D01*
X985116Y769621D01*
X985453Y769530D01*
X985800Y769500D01*
X986300Y774000D02*
X986317Y774308D01*
X986280Y774614D01*
X986191Y774908D01*
X986051Y775183D01*
X985866Y775430D01*
X985642Y775640D01*
X985383Y775809D01*
X985100Y775930D01*
X984800Y776000D01*
X986300Y774000D02*
X986283Y774308D01*
X986320Y774614D01*
X986409Y774908D01*
X986549Y775183D01*
X986734Y775430D01*
X986958Y775640D01*
X987217Y775809D01*
X987500Y775930D01*
X987800Y776000D01*
X989800D02*
X990100Y775930D01*
X990383Y775809D01*
X990642Y775640D01*
X990866Y775430D01*
X991051Y775183D01*
X991191Y774908D01*
X991280Y774614D01*
X991317Y774308D01*
X991300Y774000D01*
X991283Y774308D01*
X991320Y774614D01*
X991409Y774908D01*
X991549Y775183D01*
X991734Y775430D01*
X991958Y775640D01*
X992217Y775809D01*
X992500Y775930D01*
X992800Y776000D01*
X997800Y779000D02*
X997870Y778700D01*
X997991Y778416D01*
X998159Y778158D01*
X998370Y777934D01*
X998617Y777749D01*
X998892Y777610D01*
X999186Y777520D01*
X999492Y777483D01*
X999800Y777500D01*
X999492Y777517D01*
X999186Y777480D01*
X998892Y777390D01*
X998617Y777251D01*
X998370Y777066D01*
X998159Y776842D01*
X997991Y776584D01*
X997870Y776300D01*
X997800Y776000D01*
X1003800Y771500D02*
X1003770Y771153D01*
X1003679Y770816D01*
X1003532Y770500D01*
X1003332Y770214D01*
X1003086Y769968D01*
X1002800Y769768D01*
X1002484Y769621D01*
X1002147Y769530D01*
X1001800Y769500D01*
X1003800Y771500D02*
X1003830Y771153D01*
X1003921Y770816D01*
X1004068Y770500D01*
X1004268Y770214D01*
X1004514Y769968D01*
X1004800Y769768D01*
X1005116Y769621D01*
X1005453Y769530D01*
X1005800Y769500D01*
D16*
X993800Y767500D02*
Y771500D01*
X991300Y774000D01*
Y777500D01*
X983800Y771500D02*
Y767500D01*
Y771500D02*
X986300Y774000D01*
Y777500D01*
X996300Y787500D02*
X1001800D01*
X1003800Y789500D01*
Y797500D01*
X981300Y777500D02*
X975800D01*
X973800Y775500D01*
Y767500D01*
X975800Y787500D02*
X981300D01*
X975800D02*
X973800Y789500D01*
Y797500D01*
X1003800Y775500D02*
Y767500D01*
Y775500D02*
X1001800Y777500D01*
X996300D01*
D19*
X927300Y830500D02*
D03*
X960800Y784500D02*
D03*
X927300Y800500D02*
D03*
X973800Y748500D02*
D03*
X1045800D02*
D03*
X1049800Y759500D02*
D03*
X1049300Y770500D02*
D03*
Y800500D02*
D03*
Y789500D02*
D03*
X927800Y770000D02*
D03*
X927300Y795000D02*
D03*
X927800Y764000D02*
D03*
X896300Y762500D02*
D03*
X933800Y815000D02*
D03*
Y822000D02*
D03*
X1041300Y839500D02*
D03*
X1057800Y759500D02*
D03*
X991300Y777500D02*
D03*
X986300D02*
D03*
X981300D02*
D03*
X996300Y787500D02*
D03*
X991300D02*
D03*
X986300D02*
D03*
X981300D02*
D03*
X996300Y777500D02*
D03*
D21*
X973800Y767500D02*
D03*
X983800Y797500D02*
D03*
Y767500D02*
D03*
X993800D02*
D03*
X1003800Y797500D02*
D03*
X973800D02*
D03*
X1003800Y767500D02*
D03*
X993800Y797500D02*
D03*
X960800Y800000D02*
D03*
X916300Y820500D02*
D03*
Y850500D02*
D03*
X906300D02*
D03*
Y820500D02*
D03*
X886300D02*
D03*
Y850500D02*
D03*
X896300D02*
D03*
X876300D02*
D03*
Y820500D02*
D03*
X979800Y837000D02*
D03*
X959800D02*
D03*
X969800D02*
D03*
X1059800Y780500D02*
D03*
Y810500D02*
D03*
X1099800Y780500D02*
D03*
Y810500D02*
D03*
X876300Y780500D02*
D03*
Y810500D02*
D03*
X916300Y780500D02*
D03*
X906300D02*
D03*
X886300D02*
D03*
Y810500D02*
D03*
X906300D02*
D03*
X916300D02*
D03*
X876300Y770500D02*
D03*
Y740500D02*
D03*
X1016800Y765000D02*
D03*
Y795000D02*
D03*
X1026800Y800000D02*
D03*
X950800Y805000D02*
D03*
Y795000D02*
D03*
Y765000D02*
D03*
X896300Y770500D02*
D03*
X950800Y775000D02*
D03*
X960800Y770000D02*
D03*
Y760000D02*
D03*
Y790000D02*
D03*
X1026800D02*
D03*
Y760000D02*
D03*
Y770000D02*
D03*
X886300Y770500D02*
D03*
X906300D02*
D03*
X1016800Y775000D02*
D03*
Y805000D02*
D03*
X1069800Y780500D02*
D03*
Y810500D02*
D03*
X896300Y780500D02*
D03*
X1079800D02*
D03*
X916300Y740500D02*
D03*
Y770500D02*
D03*
X896300Y820500D02*
D03*
X1089800Y780500D02*
D03*
Y810500D02*
D03*
X896300Y740500D02*
D03*
Y810500D02*
D03*
X886300Y740500D02*
D03*
X906300D02*
D03*
X1079800Y810500D02*
D03*
X1059800Y834500D02*
D03*
X1069800D02*
D03*
X1059800Y824500D02*
D03*
X1099800Y834500D02*
D03*
X1089800D02*
D03*
X1079800D02*
D03*
X1099800Y824500D02*
D03*
X1089800D02*
D03*
X1079800D02*
D03*
X1069800D02*
D03*
X931800Y754000D02*
D03*
Y744000D02*
D03*
X1059800Y770500D02*
D03*
X1079800D02*
D03*
X1059800Y740500D02*
D03*
X1099800D02*
D03*
Y770500D02*
D03*
X1089800Y740500D02*
D03*
X1079800D02*
D03*
X1069800D02*
D03*
Y770500D02*
D03*
X1089800D02*
D03*
X1025800Y845500D02*
D03*
X995800Y835500D02*
D03*
Y845500D02*
D03*
X1025800Y835500D02*
D03*
D24*
X988800Y760000D02*
D03*
Y805000D02*
D03*
D28*
X950800Y775000D02*
X903300D01*
D31*
X1019300Y765000D02*
X1040800D01*
Y795000D02*
X1018300D01*
X1027300Y800000D02*
X1040800D01*
Y790000D02*
X1027800D01*
X1029300Y760000D02*
X1040800D01*
X951800Y765000D02*
X936300D01*
X936800Y770000D02*
X961800D01*
Y800000D02*
X936800D01*
Y795000D02*
X951800D01*
X1105800Y769500D02*
Y838500D01*
D32*
X1040800Y770000D02*
X1029800D01*
X907300Y823500D02*
X905300D01*
D33*
X1045550Y764750D02*
X1053050D01*
D35*
X1040300Y800000D02*
D03*
X937300Y795000D02*
D03*
X1040300Y765000D02*
D03*
X937300Y800000D02*
D03*
X1045800Y795000D02*
D03*
X1040300D02*
D03*
X931800Y800000D02*
D03*
X1045800Y765000D02*
D03*
Y770000D02*
D03*
Y800000D02*
D03*
X931800Y770000D02*
D03*
X937300Y765000D02*
D03*
Y770000D02*
D03*
X931800Y765000D02*
D03*
Y795000D02*
D03*
X1040300Y790000D02*
D03*
Y760000D02*
D03*
Y770000D02*
D03*
X1045800Y790000D02*
D03*
Y760000D02*
D03*
X981300Y777500D02*
D03*
X986300D02*
D03*
X991300D02*
D03*
X996300Y787500D02*
D03*
X991300D02*
D03*
X986300D02*
D03*
X981300D02*
D03*
X996300Y777500D02*
D03*
D36*
X973300Y748500D02*
X1045800D01*
X931800Y795000D02*
X927300D01*
Y800500D02*
X931800D01*
Y770000D02*
X927800D01*
X959300Y831000D02*
X996800D01*
D38*
X1046050Y759250D02*
X1049550D01*
X1050050Y789250D02*
X1046050D01*
Y770750D02*
X1050050D01*
X931550Y764250D02*
X928050D01*
X933550Y822250D02*
D03*
X979550Y836750D02*
X980050D01*
D40*
X906300Y784000D02*
Y780500D01*
D41*
X973800Y797500D02*
D03*
X983800D02*
D03*
X993800D02*
D03*
X1003800D02*
D03*
X973800Y767500D02*
D03*
X983800D02*
D03*
X993800D02*
D03*
X1059800Y780500D02*
D03*
Y770500D02*
D03*
X1069800D02*
D03*
X1089800D02*
D03*
X1099800Y780500D02*
D03*
Y770500D02*
D03*
X1059800Y740500D02*
D03*
X1069800D02*
D03*
X1089800D02*
D03*
X1099800D02*
D03*
X1059800Y810500D02*
D03*
X1099800D02*
D03*
X1089800Y824500D02*
D03*
X1079800D02*
D03*
X1069800D02*
D03*
X1059800D02*
D03*
Y834500D02*
D03*
X1069800D02*
D03*
X1079800D02*
D03*
X1089800D02*
D03*
X1099800D02*
D03*
X876300Y850500D02*
D03*
X886300D02*
D03*
X896300D02*
D03*
X906300D02*
D03*
X916300D02*
D03*
X876300Y820500D02*
D03*
X886300D02*
D03*
X906300D02*
D03*
X916300D02*
D03*
X876300Y780500D02*
D03*
Y810500D02*
D03*
X886300D02*
D03*
Y780500D02*
D03*
X906300D02*
D03*
X916300D02*
D03*
X876300Y770500D02*
D03*
X916300D02*
D03*
X906300Y810500D02*
D03*
X916300D02*
D03*
Y740500D02*
D03*
X906300D02*
D03*
X896300D02*
D03*
X886300D02*
D03*
X876300D02*
D03*
X1026800Y800000D02*
D03*
X1016800Y795000D02*
D03*
Y765000D02*
D03*
X960800Y800000D02*
D03*
X950800Y805000D02*
D03*
Y795000D02*
D03*
X1059800Y780500D02*
Y770500D01*
X950800Y765000D02*
D03*
Y775000D02*
D03*
X960800Y770000D02*
D03*
Y760000D02*
D03*
Y790000D02*
D03*
X1026800D02*
D03*
Y760000D02*
D03*
Y770000D02*
D03*
X886300Y770500D02*
D03*
X906300D02*
D03*
X1016800Y775000D02*
D03*
Y805000D02*
D03*
X1069800Y780500D02*
D03*
Y810500D02*
D03*
X896300Y780500D02*
D03*
Y788500D01*
X1079800Y780500D02*
D03*
X1003800Y767500D02*
D03*
X1079800Y740500D02*
D03*
X1049800Y801000D02*
X1046300D01*
X896300Y820500D02*
D03*
X1089800Y780500D02*
D03*
Y810500D02*
D03*
X896300D02*
D03*
X1079800D02*
D03*
Y770500D02*
D03*
X1099800Y824500D02*
D03*
X906300Y744000D02*
Y740500D01*
X886300D02*
Y754000D01*
X931800D01*
X896800Y762500D02*
X896300D01*
X906300Y810500D02*
Y813500D01*
X1058300Y760500D02*
Y759000D01*
X1099800Y770500D02*
X1104800D01*
X1059800Y834500D02*
Y850500D01*
X969800Y837000D02*
D03*
X896300Y770500D02*
D03*
X959800Y831500D02*
Y837000D01*
X995800Y845500D02*
D03*
X1025800D02*
D03*
Y835500D02*
D03*
D42*
X996050Y835250D02*
Y831750D01*
D47*
X1048800Y845500D02*
D03*
X1040300D02*
D03*
D48*
Y849500D02*
Y840500D01*
D50*
X1050050Y848250D02*
X1053550D01*
D51*
X1102300Y808000D02*
Y801500D01*
X1055300Y848000D02*
X1050300D01*
D52*
X1062800Y844000D02*
X1101800D01*
Y847500D01*
X1062800D01*
Y844000D01*
D02*
M02*
