*%FSLAX25Y25*%
*%MOIN*%
G01*
%ADD11C,0.00100*%
%ADD12C,0.00700*%
%ADD13C,0.00733*%
%ADD14C,0.01000*%
%ADD15C,0.01200*%
%ADD16C,0.01500*%
%ADD17C,0.02000*%
%ADD18C,0.03000*%
%ADD19C,0.04000*%
%ADD20C,0.04800*%
%ADD21C,0.05000*%
%ADD22C,0.05800*%
%ADD23C,0.07000*%
%ADD24C,0.08000*%
%ADD25C,0.08800*%
%ADD26C,0.12000*%
%ADD27R,0.00967X0.00967*%
%ADD28R,0.01000X0.01000*%
%ADD29R,0.01386X0.01386*%
%ADD30R,0.01500X0.01500*%
%ADD31R,0.02000X0.02000*%
%ADD32R,0.02000X0.02000*%
%ADD33R,0.02500X0.02500*%
%ADD34R,0.02500X0.02500*%
%ADD35R,0.03000X0.03000*%
%ADD36R,0.03000X0.03000*%
%ADD37R,0.03500X0.03500*%
%ADD38R,0.03500X0.03500*%
%ADD39R,0.03800X0.03800*%
%ADD40R,0.04000X0.04000*%
%ADD41R,0.04000X0.04000*%
%ADD42R,0.04500X0.04500*%
%ADD43R,0.05000X0.05000*%
%ADD44R,0.05000X0.06000*%
%ADD45R,0.05000X0.05000*%
%ADD46R,0.05800X0.06800*%
%ADD47R,0.06000X0.05000*%
%ADD48R,0.06000X0.06000*%
%ADD49R,0.06800X0.05800*%
%ADD50R,0.08500X0.08500*%
%ADD51R,0.09000X0.09000*%
%ADD52R,0.10000X0.10000*%
D14*
X916300Y798000D02*
Y810500D01*
Y820500D02*
X915300D01*
X981800Y747500D02*
Y744500D01*
X995800Y795500D02*
Y797500D01*
Y795500D02*
X991800D01*
Y797500D01*
X993800Y799500D02*
X995300Y801000D01*
Y802000D02*
X991800Y798500D01*
Y797500D01*
X985800Y798500D02*
X982300Y802000D01*
X985800Y798500D02*
Y797500D01*
Y795500D01*
X981800D01*
Y797000D01*
X984300Y799500D02*
X982300Y801500D01*
Y800500D02*
X983800Y799000D01*
X982300Y811500D02*
X984300Y813500D01*
X983300D02*
X982300Y812500D01*
X993300Y813500D02*
X995300Y811500D01*
Y812500D02*
X994300Y813500D01*
X995300Y813000D02*
Y797500D01*
X982300Y797000D02*
Y813000D01*
X993300Y813500D02*
X995800D01*
X993300D02*
Y816500D01*
X995800D01*
X984300Y813500D02*
X981800D01*
X984300D02*
Y816500D01*
X981800D01*
X995800D02*
Y797500D01*
X981800Y797000D02*
Y816500D01*
X998300Y755500D02*
Y752500D01*
X984800Y747500D02*
X981800D01*
X992800Y755500D02*
X995300Y758000D01*
Y757500D02*
X993300Y755500D01*
X994300D02*
X995300Y756500D01*
X995800Y752500D02*
X992800D01*
X971800Y756500D02*
Y769500D01*
X975800D01*
Y756500D01*
X971800D01*
X995800Y767500D02*
Y769500D01*
X991800D01*
Y767500D01*
X985800Y766500D02*
Y769500D01*
X981800D01*
Y767500D01*
X993800Y765500D02*
X995300Y764000D01*
Y763000D02*
X991800Y766500D01*
X995300Y767000D02*
Y753000D01*
X991800Y766500D02*
Y767500D01*
X992800Y755500D02*
X995300D01*
X992800D02*
Y752500D01*
X985800Y766500D02*
Y767500D01*
Y766500D02*
X982300Y763000D01*
Y762500D01*
Y755500D02*
X984800Y753000D01*
X984300D02*
X982300Y755000D01*
Y754000D02*
X983300Y753000D01*
X982300Y753500D02*
Y765000D01*
X981800Y753000D02*
X984800D01*
Y750000D01*
X981800D01*
Y767500D01*
X983800Y765000D02*
X981800Y763000D01*
Y764000D02*
X982800Y765000D01*
X878300Y772500D02*
X874300D01*
X878300D02*
Y768500D01*
X874300D01*
Y772500D01*
X914300D02*
X918300D01*
Y768500D01*
X914300D01*
Y772500D01*
X878300Y742500D02*
X874300D01*
X878300D02*
Y738500D01*
X874300D01*
Y742500D01*
X884300D02*
X888300D01*
Y738500D01*
X884300D01*
Y742500D01*
X894300D02*
X898300D01*
Y738500D01*
X894300D01*
Y742500D01*
X904300D02*
X908300D01*
Y738500D01*
X904300D01*
Y742500D01*
X914300D02*
X918300D01*
Y738500D01*
X914300D01*
Y742500D01*
X878300Y782500D02*
X874300D01*
X878300D02*
Y778500D01*
X874300D01*
Y782500D01*
X884300D02*
X888300D01*
Y778500D01*
X884300D01*
Y782500D01*
X904300D02*
X908300D01*
Y778500D01*
X904300D01*
Y782500D01*
X914300D02*
X918300D01*
Y778500D01*
X914300D01*
Y782500D01*
X878300Y812500D02*
X874300D01*
X878300D02*
Y808500D01*
X874300D01*
Y812500D01*
Y822500D02*
X878300D01*
Y818500D01*
X874300D01*
Y822500D01*
X884300D02*
X888300D01*
Y818500D01*
X884300D01*
Y822500D01*
Y812500D02*
X888300D01*
Y808500D01*
X884300D01*
Y812500D01*
X904300Y822500D02*
X908300D01*
Y818500D01*
X904300D01*
Y822500D01*
Y812500D02*
X908300D01*
Y808500D01*
X904300D01*
Y812500D01*
X914300D02*
X918300D01*
Y808500D01*
X914300D01*
Y812500D01*
Y822500D02*
X918300D01*
Y818500D01*
X914300D01*
Y822500D01*
X878300Y852500D02*
X874300D01*
X878300D02*
Y848500D01*
X874300D01*
Y852500D01*
X884300D02*
X888300D01*
Y848500D01*
X884300D01*
Y852500D01*
X894300D02*
X898300D01*
Y848500D01*
X894300D01*
Y852500D01*
X904300D02*
X908300D01*
Y848500D01*
X904300D01*
Y852500D01*
X914300D02*
X918300D01*
Y848500D01*
X914300D01*
Y852500D01*
X1057800Y836500D02*
X1061800D01*
Y832500D01*
X1057800D01*
Y836500D01*
X1067800D02*
X1071800D01*
Y832500D01*
X1067800D01*
Y836500D01*
X1061800Y826500D02*
X1057800D01*
X1061800D02*
Y822500D01*
X1057800D01*
Y826500D01*
X1067800D02*
X1071800D01*
Y822500D01*
X1067800D01*
Y826500D01*
X1077800Y836500D02*
X1081800D01*
Y832500D01*
X1077800D01*
Y836500D01*
Y826500D02*
X1081800D01*
Y822500D01*
X1077800D01*
Y826500D01*
X1087800D02*
X1091800D01*
Y822500D01*
X1087800D01*
Y826500D01*
X1097800D02*
X1101800D01*
Y822500D01*
X1097800D01*
Y826500D01*
X1091800Y836500D02*
X1087800D01*
X1091800D02*
Y832500D01*
X1087800D01*
Y836500D01*
X1097800D02*
X1101800D01*
Y832500D01*
X1097800D01*
Y836500D01*
Y812500D02*
X1101800D01*
Y808500D01*
X1097800D01*
Y812500D01*
X1061800D02*
X1057800D01*
X1061800D02*
Y808500D01*
X1057800D01*
Y812500D01*
X1097800Y782500D02*
X1101800D01*
Y778500D01*
X1097800D01*
Y782500D01*
X1057800D02*
Y778500D01*
X1067800Y772500D02*
X1071800D01*
Y768500D01*
X1067800D01*
Y772500D01*
X1087800D02*
X1091800D01*
Y768500D01*
X1087800D01*
Y772500D01*
X1097800D02*
X1101800D01*
Y768500D01*
X1097800D01*
Y772500D01*
Y742500D02*
X1101800D01*
Y738500D01*
X1097800D01*
Y742500D01*
X1091800D02*
X1087800D01*
X1091800D02*
Y738500D01*
X1087800D01*
Y742500D01*
X1081800D02*
X1077800D01*
X1081800D02*
Y738500D01*
X1077800D01*
Y742500D01*
X1071800D02*
X1067800D01*
X1071800D02*
Y738500D01*
X1067800D01*
Y742500D01*
X1061800D02*
X1057800D01*
X1061800D02*
Y738500D01*
X1057800D01*
Y742500D01*
X1005800Y799500D02*
X1001800D01*
X1005800D02*
Y795500D01*
X1001800D01*
Y799500D01*
X975800D02*
X971800D01*
X975800D02*
Y795500D01*
X971800D01*
Y799500D01*
X979800Y789000D02*
X982800D01*
Y786000D01*
X979800D01*
Y789000D01*
X984800D02*
X987800D01*
Y786000D01*
X984800D01*
Y789000D01*
X989800D02*
X992800D01*
Y786000D01*
X989800D01*
Y789000D01*
X994800D02*
X997800D01*
Y786000D01*
X994800D01*
Y789000D01*
X982800Y779000D02*
X979800D01*
X982800D02*
Y776000D01*
X979800D01*
Y779000D01*
X984800D02*
X987800D01*
Y776000D01*
X984800D01*
Y779000D01*
X989800D02*
X992800D01*
Y776000D01*
X989800D01*
Y779000D01*
X1097800Y797000D02*
Y808500D01*
Y797000D02*
X1101800D01*
Y808500D01*
X1097800Y794500D02*
Y782500D01*
Y794500D02*
X1101800D01*
Y782500D01*
X1097800Y768500D02*
Y757000D01*
X1101800D01*
Y768500D01*
X1097800Y754500D02*
Y742500D01*
Y754500D02*
X1101800D01*
Y742500D01*
Y738500D02*
X1106800D01*
Y794500D01*
X1101800D01*
Y754500D02*
X1104800D01*
Y778500D01*
X1101800D01*
X1104800Y755500D02*
X1103800Y754500D01*
X1102800D02*
X1104800Y756500D01*
X995800Y752500D02*
Y769500D01*
X998300Y755500D02*
X1001300D01*
Y753000D01*
Y754000D02*
X1002300Y753000D01*
X1003300D02*
X1001300Y755000D01*
Y755500D02*
X1003800Y753000D01*
X1044300Y750000D02*
X1045800D01*
X1044300D02*
Y747000D01*
X1045800D01*
Y750000D02*
X1047300D01*
Y749000D01*
X1087800D01*
Y768500D01*
Y750000D02*
X1086800Y749000D01*
X1085800D02*
X1087800Y751000D01*
X1048300Y749000D02*
X1047300Y750000D01*
X1091800Y745000D02*
Y742500D01*
Y744500D02*
X981800D01*
X984300Y745000D02*
X1091800D01*
X984800D02*
Y747500D01*
Y746000D02*
X985800Y745000D01*
X986800D02*
X984800Y747000D01*
Y747500D02*
X987300Y745000D01*
X1087800Y744500D02*
Y742500D01*
Y743500D02*
X1086800Y744500D01*
X1085800D02*
X1087800Y742500D01*
X1047300Y748000D02*
Y749000D01*
Y748000D02*
X1091800D01*
X1047300Y747000D02*
X1045800D01*
X1047300D02*
Y748000D01*
Y747000D02*
X1048300Y748000D01*
X1091800D02*
Y768500D01*
X1097800Y738500D02*
Y736000D01*
X918300D01*
Y738500D01*
X914300D02*
Y735000D01*
X1103300D01*
X1106800Y738500D01*
X1097800Y737000D02*
X1096800Y736000D01*
X1095800D02*
X1097800Y738000D01*
X921800Y736000D02*
X920800Y737000D01*
Y738000D02*
X922800Y736000D01*
X1103800Y735500D02*
Y738500D01*
X1104800D02*
Y736500D01*
X1105300Y737500D02*
Y738500D01*
X918300Y742500D02*
Y754500D01*
X914300D01*
Y742500D01*
X918300Y757000D02*
Y768500D01*
Y757000D02*
X914300D01*
Y768500D01*
X918300Y795000D02*
Y809000D01*
Y795000D02*
X914300D01*
Y808500D01*
X918300Y792500D02*
Y782500D01*
Y792500D02*
X914300D01*
Y782500D01*
Y772500D02*
X912300D01*
Y795000D02*
X914300D01*
X912300D02*
Y772500D01*
X911800Y757000D02*
X914300D01*
X911800D02*
Y812500D01*
X914300D01*
X913300Y795000D02*
X912300Y794000D01*
Y773500D02*
X913300Y772500D01*
X914300D02*
X912300Y774500D01*
Y775500D02*
X915300Y772500D01*
X918300Y778500D02*
X920300D01*
Y754500D01*
X918300D01*
Y792500D02*
X920800D01*
Y736000D01*
X920300Y777500D02*
X919300Y778500D01*
X918300D02*
X920300Y776500D01*
Y775500D02*
X917300Y778500D01*
X920300Y755500D02*
X919300Y754500D01*
X914300Y836000D02*
Y848500D01*
Y836000D02*
X918300D01*
Y848500D01*
X914300Y833500D02*
Y822500D01*
Y833500D02*
X918300D01*
Y822500D01*
X958800Y802000D02*
X962800D01*
Y798000D01*
X958800D01*
Y802000D01*
X952800Y797000D02*
X948800D01*
X952800D02*
Y793000D01*
X948800D01*
Y797000D01*
Y807000D02*
X952800D01*
Y803000D01*
X948800D01*
Y807000D01*
X1024800Y802000D02*
X1028800D01*
Y798000D01*
X1024800D01*
Y802000D01*
X1018800Y797000D02*
X1014800D01*
X1018800D02*
Y793000D01*
X1014800D01*
Y797000D01*
Y767000D02*
X1018800D01*
Y763000D01*
X1014800D01*
Y767000D01*
X975800Y815500D02*
Y816500D01*
X978300D01*
Y813500D01*
X975800D01*
Y814500D01*
X982800Y783000D02*
X960800D01*
X959300D01*
Y786000D01*
X962300D01*
X979800D01*
X982800D02*
Y783000D01*
X978800Y786000D02*
X979800Y787000D01*
Y788000D02*
X977800Y786000D01*
X976800D02*
X979800Y789000D01*
X1097800Y778500D02*
Y775500D01*
X1104800D01*
X1103800D02*
X1104800Y774500D01*
Y773500D02*
X1102800Y775500D01*
X1057800Y772500D02*
Y768500D01*
X997800Y776000D02*
X994800D01*
Y779000D01*
X997800D02*
Y776000D01*
X1057800Y768500D02*
X1061800D01*
X997800Y779000D02*
X994800D01*
X1057800Y772500D02*
X1061800D01*
Y768500D01*
Y778500D02*
X1057800D01*
X1061800D02*
Y782500D01*
X1057800D01*
X948800Y767000D02*
Y763000D01*
X952800D01*
Y767000D02*
X948800D01*
X952800D02*
Y763000D01*
Y773000D02*
X948800D01*
Y777000D01*
X952800D02*
Y773000D01*
Y777000D02*
X948800D01*
X958800Y772000D02*
Y768000D01*
X962800D01*
Y772000D02*
X958800D01*
X962800D02*
Y768000D01*
X960800Y760000D02*
X958800D01*
Y758000D02*
Y762000D01*
Y788000D02*
Y792000D01*
Y758000D02*
X962800D01*
Y762000D02*
X958800D01*
X962800D02*
Y758000D01*
X960800Y790000D02*
X958800D01*
Y788000D02*
X962800D01*
Y792000D02*
X958800D01*
X962800D02*
Y788000D01*
X1024800D02*
Y792000D01*
Y788000D02*
X1028800D01*
Y792000D02*
X1024800D01*
X1028800D02*
Y788000D01*
X1024800Y762000D02*
Y758000D01*
X1028800D01*
Y762000D02*
X1024800D01*
X1028800D02*
Y758000D01*
X1024800Y768000D02*
Y772000D01*
Y768000D02*
X1028800D01*
Y772000D02*
X1024800D01*
X1028800D02*
Y768000D01*
X888300Y768500D02*
X884300D01*
Y772500D01*
X888300D02*
Y768500D01*
Y772500D02*
X884300D01*
X904300Y768500D02*
X908300D01*
X904300D02*
Y772500D01*
X908300D02*
Y768500D01*
Y772500D02*
X904300D01*
X1014800Y773000D02*
Y777000D01*
Y773000D02*
X1018800D01*
Y777000D02*
X1014800D01*
Y803000D02*
Y807000D01*
Y803000D02*
X1018800D01*
Y807000D02*
X1014800D01*
X1018800Y777000D02*
Y773000D01*
Y803000D02*
Y807000D01*
X1019800Y806000D01*
X1045300Y788000D02*
X1050800D01*
X1047800D02*
Y791000D01*
X1050800D02*
Y788000D01*
Y791000D02*
X1049300D01*
X1067800Y782500D02*
Y778500D01*
X1071800D01*
Y782500D01*
X1067800D01*
Y808500D02*
Y812500D01*
Y808500D02*
X1071800D01*
Y812500D01*
X1067800D01*
X894300Y782500D02*
Y778500D01*
X898300D01*
Y782500D01*
X894300D01*
X1077800D02*
X1081800D01*
X1005300Y764500D02*
X1004300Y765500D01*
X1005300D02*
Y755000D01*
X1005800Y755500D02*
Y765500D01*
Y756500D02*
X1006800Y755500D01*
X1007800D02*
X1005800Y757500D01*
X1001800Y765500D02*
Y769500D01*
Y765500D02*
X1005800D01*
Y769500D01*
X1001800D01*
X1047800Y799000D02*
X1049800D01*
X1047800D02*
Y802000D01*
X1052300D01*
X1051300Y801500D02*
Y799500D01*
X1050800Y799000D02*
X1052800Y797000D01*
Y799000D02*
X1049300D01*
X1049800Y799500D02*
X1053300D01*
Y801000D02*
Y770500D01*
Y771500D02*
X1050800Y769000D01*
X1051426Y770500D02*
X1049300D01*
X1047800Y769000D02*
Y772000D01*
Y769000D02*
X1051800D01*
X1053300Y770500D01*
Y771500D02*
X1047800D01*
X1049800Y771000D02*
X1052300D01*
X1052800Y772000D02*
X1047800D01*
X1050800D02*
X1052800Y774000D01*
Y773000D02*
X1051800Y772000D01*
X1052800D02*
Y797000D01*
X1053300Y777000D02*
X1054300Y776000D01*
X1054800Y775500D02*
X1053300Y774000D01*
Y773000D02*
X1055800Y775500D01*
X1053300D02*
X1079800D01*
Y776000D02*
X1053300D01*
Y778000D02*
X1055300Y776000D01*
X1079800Y775500D02*
X1081800Y777500D01*
X1077800D02*
X1076300Y776000D01*
X1077800Y777500D02*
Y778500D01*
X1081800D01*
X1077800D02*
Y782500D01*
X1081800Y778500D02*
Y777500D01*
Y778500D02*
Y782500D01*
X1052800Y798000D02*
X1051800Y799000D01*
X1051389Y800411D02*
X1052889D01*
X1053300Y800000D02*
X1051300Y802000D01*
X894300Y818500D02*
Y822500D01*
Y818500D02*
X898300D01*
Y822500D02*
X894300D01*
X898300D02*
Y818500D01*
X1084800Y776500D02*
X1089800Y781500D01*
X1084800Y776500D02*
Y753000D01*
X1085800Y752500D02*
X998300D01*
X1001300Y753000D02*
X1085800D01*
X1084800Y755000D02*
X1082800Y753000D01*
X1083800D02*
X1084800Y754000D01*
X1085800Y752500D02*
Y776500D01*
X1089800Y780500D01*
X1087800Y778500D02*
Y782500D01*
Y778500D02*
X1091800D01*
Y782500D01*
X1087800D01*
Y808500D02*
Y812500D01*
Y808500D02*
X1091800D01*
Y812500D01*
X1087800D01*
X894300D02*
Y808500D01*
X898300D01*
Y812500D01*
X894300D01*
X1077300Y805500D02*
X1080300Y808500D01*
X1077300Y805500D02*
X1018800D01*
Y806000D02*
X1077300D01*
X1076300D02*
X1077800Y807500D01*
X1077300Y806000D02*
X1079800Y808500D01*
X1077800D02*
Y807500D01*
X1078300D02*
Y808500D01*
X1077800D02*
Y812500D01*
Y808500D02*
X1081800D01*
Y812500D02*
X1077800D01*
X1081800D02*
Y808500D01*
X1077800Y772500D02*
Y768500D01*
X1081800D01*
Y772500D01*
X1077800D01*
X1094800Y829500D02*
X1099800Y834500D01*
X898300Y764500D02*
Y742500D01*
X894300D02*
Y764500D01*
X898300D01*
X971800Y754000D02*
Y746500D01*
X975800D01*
Y754000D01*
X971800D01*
X925800Y799000D02*
Y802000D01*
X926300Y771500D02*
Y768500D01*
Y771500D02*
X929800D01*
Y768500D01*
Y771500D02*
X933300D01*
X935300Y773500D01*
X929800Y768500D02*
X926300D01*
X925800Y799000D02*
X933300D01*
X935300Y797000D01*
Y773500D01*
X933800Y802000D02*
X925800D01*
X933800D02*
X935800Y800000D01*
Y770500D01*
X933800Y768500D01*
X929800D01*
X928800Y796500D02*
X927300D01*
X928800D02*
Y793500D01*
X925800D01*
Y796500D02*
X927800D01*
X925800Y793500D02*
X924300Y792000D01*
Y767000D01*
X925800Y765500D01*
X929800D01*
Y762500D01*
X925800D01*
X923800Y764500D01*
Y794500D01*
X925800Y796500D01*
X926300Y765500D02*
X923800D01*
X924300Y764000D02*
Y767000D01*
Y765000D02*
X926800D01*
X925800Y765500D02*
Y762500D01*
Y764000D02*
X924300D01*
Y792000D02*
Y795000D01*
Y793500D02*
X925800D01*
Y794500D02*
X924300D01*
X924973Y795000D02*
X925800D01*
X933800Y799000D02*
Y802000D01*
Y800000D02*
X935800D01*
X935300D02*
Y797000D01*
X934586Y798286D02*
Y801214D01*
X935800Y771500D02*
X933300D01*
X933800Y772000D02*
Y768500D01*
X935300Y770000D02*
Y773500D01*
X934537Y772737D02*
Y769548D01*
X995800Y819000D02*
Y822000D01*
Y819000D02*
X992800D01*
Y820000D01*
X931800D01*
Y824000D01*
X991800Y820000D02*
X992800Y819000D01*
X935800Y824000D02*
X931800D01*
X935800Y822000D02*
X995800D01*
X935800D02*
Y824000D01*
Y823000D02*
X936800Y822000D01*
X937800D02*
X935800Y824000D01*
X933800Y816500D02*
X932300D01*
Y813500D01*
Y816500D02*
X935800D01*
Y813500D02*
X932300D01*
X935800Y816500D02*
X936800Y815500D01*
Y814500D02*
X935800Y813500D01*
X936800Y815500D02*
X975800D01*
Y814500D02*
X936800D01*
X935800Y813500D02*
Y816500D01*
X936800Y815500D02*
Y814500D01*
X974800Y815500D02*
X975800Y816500D01*
X974800Y814500D02*
X975800Y813500D01*
X920800Y833500D02*
Y792500D01*
Y833500D02*
X918300D01*
X914300Y836000D02*
X911800D01*
Y852500D02*
Y812500D01*
Y852500D02*
X914300D01*
X918300Y818500D02*
X920300D01*
Y792500D01*
X919300D02*
X920300Y793500D01*
Y817500D02*
X919300Y818500D01*
X918300D02*
X920300Y816500D01*
X911800Y852500D02*
X911300D01*
Y757000D01*
X911800D01*
X912800Y812500D02*
X911800Y813500D01*
Y814500D02*
X913800Y812500D01*
X911800Y835000D02*
X912800Y836000D01*
X920800Y841000D02*
X921800Y842000D01*
X920800Y841000D02*
Y833500D01*
X1066800Y829500D02*
X1094800D01*
X1066800D02*
X1064300Y827000D01*
X1084800Y839500D02*
X1087800Y836500D01*
X1088300D02*
X1085300Y839500D01*
X1079800Y834500D02*
X1074300Y840000D01*
Y854000D01*
X1072800Y855500D01*
X893300D01*
X891300Y853500D01*
Y815500D01*
X886300Y810500D01*
X888300Y811500D02*
X891800Y815000D01*
Y853500D01*
X893300Y855000D01*
X1072300D01*
X1073800Y853500D01*
Y840000D01*
X1079300Y834500D01*
X1079800D01*
X1084800Y839500D02*
Y855500D01*
X1082300Y858000D01*
X885300D01*
X881300Y854000D01*
X1085300Y855500D02*
Y839500D01*
Y855500D02*
X1082300Y858500D01*
X885300D01*
X881300Y854000D02*
Y825500D01*
X886300Y820500D01*
X880800Y854000D02*
X885300Y858500D01*
X880800Y854000D02*
Y825500D01*
X886300Y820000D01*
Y819500D01*
X955800Y758000D02*
X958800D01*
X955800D02*
Y792000D01*
X958800D01*
Y788000D02*
X956800D01*
Y762000D01*
X958800D01*
X957800D02*
X956800Y763000D01*
Y764000D02*
X958800Y762000D01*
X956800Y787000D02*
X957800Y788000D01*
X1045800Y791000D02*
X1050800D01*
X1045800D02*
X1044300Y789500D01*
Y759500D01*
X1045800Y758000D01*
Y761000D02*
X1044800Y762000D01*
Y786500D01*
X1046300Y788000D01*
X1050800D01*
X1045800Y761000D02*
X1044300D01*
X1059800Y770500D02*
X1064300Y766000D01*
Y755000D01*
X1005300D01*
X1005800Y755500D02*
X1064300D01*
X1059300Y761000D02*
X1045800D01*
X1059300D02*
Y758000D01*
X1045800D01*
Y761000D01*
X1045300D02*
Y759000D01*
X1046800Y761000D02*
X1044800Y763000D01*
X1059800Y769500D02*
Y770500D01*
Y769500D02*
X1063800Y765500D01*
Y755500D01*
X1062800D02*
X1063800Y756500D01*
Y757500D02*
X1061800Y755500D01*
X1069800Y780500D02*
X1075800Y786500D01*
X1091800D01*
X1094300Y789000D01*
Y820000D01*
X1089800Y824500D01*
X1069800Y781500D02*
Y780500D01*
Y781500D02*
X1075300Y787000D01*
X1091800D01*
X1093800Y789000D01*
Y820000D01*
X1089800Y824000D01*
X1089300D01*
X1045800Y791000D02*
Y788000D01*
X1044948Y786648D02*
Y790148D01*
X1059800Y780500D02*
X1065300Y786000D01*
Y796500D01*
X1067300Y798500D01*
X1082800D01*
X1085300Y801000D01*
Y806000D01*
X1089800Y810500D01*
Y809500D01*
X1085800Y805500D01*
Y801000D01*
X1082800Y798000D01*
X1067300D01*
X1065800Y796500D01*
Y786000D01*
X1059800Y780000D01*
X1025800Y843500D02*
X1017800D01*
X1025800D02*
X1057800D01*
Y836500D01*
X1061800Y852500D02*
X918300D01*
X1061800D02*
Y836500D01*
X1057800Y842500D02*
X1056800Y843500D01*
X1055800D02*
X1057800Y841500D01*
Y840500D02*
X1054800Y843500D01*
X1035300Y841000D02*
Y837500D01*
X1043800D01*
Y841000D01*
X1035300D01*
X1004300Y843500D02*
Y847500D01*
X993800D01*
Y843500D01*
X1004300D01*
X995800Y837500D02*
X993800D01*
Y833500D01*
X1004300D01*
Y837500D01*
X995800D01*
X1006800Y847500D02*
X1014800D01*
Y843500D01*
X1006800D01*
Y847500D01*
X1017300Y833500D02*
X1027800D01*
Y837500D01*
X1017300D01*
Y833500D01*
X1014800D02*
Y837500D01*
X1006800D01*
Y833500D01*
X1014800D01*
X1017800Y843500D02*
Y850500D01*
X918300D01*
Y849500D02*
X919300Y850500D01*
X920300D02*
X918300Y848500D01*
X1016800Y850500D02*
X1017800Y849500D01*
Y848500D02*
X1015800Y850500D01*
X921300Y840500D02*
Y738500D01*
Y840500D02*
X922300Y841500D01*
X965300D01*
X969800Y837000D01*
X965300Y842000D02*
X921800D01*
X965300D02*
X969800Y837500D01*
X971800Y837000D02*
Y839000D01*
Y837000D02*
Y835000D01*
X967800D01*
Y839000D01*
X971800D01*
X977800D02*
Y837000D01*
Y839000D02*
X981800D01*
Y835000D01*
X977800D01*
Y837000D01*
X979800D02*
X983300Y840500D01*
X1005800D01*
X1006800Y839500D01*
Y837500D01*
X980800Y839000D02*
X980300D01*
X980800D02*
X982800Y841000D01*
X1005800D01*
X1007300Y839500D01*
Y837500D01*
Y838500D02*
X1008300Y837500D01*
X1009300D02*
X1007300Y839500D01*
X1014800Y842000D02*
Y843500D01*
Y842000D02*
X1015800Y841000D01*
X1030300D01*
X1031300Y840000D01*
Y837000D01*
X1032800Y835500D01*
X1042300D01*
X1043800Y834000D01*
Y831000D01*
X1048300Y826500D01*
X1057800D01*
X1014300Y842000D02*
Y843500D01*
Y842000D02*
Y841500D01*
X1015300Y840500D01*
X1030300D01*
X1030800Y840000D01*
Y837000D01*
X1032800Y835000D01*
X1042300D01*
X1043300Y834000D01*
Y831000D01*
X1048300Y826000D01*
X1057800D01*
X1056800D02*
X1057800Y825000D01*
Y824000D02*
X1055800Y826000D01*
X1035300Y832500D02*
X1032800Y835000D01*
X1035300Y832500D02*
X1043300D01*
X1041800D02*
X1043300Y831000D01*
X1035300Y832500D02*
Y835000D01*
Y834500D02*
X1033800D01*
X1034800D02*
Y833500D01*
X1042300Y832500D02*
Y835000D01*
X1014300Y842500D02*
X1013300Y843500D01*
X1012300D02*
X1014300Y841500D01*
X1029300Y840500D02*
X1030800Y839000D01*
X1064300Y827000D02*
Y821000D01*
X1062800Y819500D01*
X1045800D01*
X1035800Y829500D01*
X928800D01*
X927300Y829000D02*
X925800D01*
Y832000D01*
X928800D01*
Y829000D01*
X927300D01*
X928800Y830500D02*
X929800Y829500D01*
X928800Y829000D02*
X1035725D01*
X1045800Y818925D01*
X1062725D01*
X1064800Y821000D01*
Y827000D01*
X1066800Y829000D01*
X1094800D01*
X1100300Y834500D01*
X930800Y829500D02*
X928800Y831500D01*
Y832000D02*
X931800Y829000D01*
X1018800Y804500D02*
X1019800Y805500D01*
X1020300D02*
X1018800Y804000D01*
Y803000D02*
X1021300Y805500D01*
X896300Y772500D02*
Y770500D01*
Y772500D02*
X898300D01*
Y768500D01*
X894300D01*
Y772500D01*
X896300D01*
X894300D02*
X898300D01*
X1052300Y802000D02*
X1053300Y801000D01*
D19*
X927300Y830500D02*
D03*
X960800Y784500D02*
D03*
X927300Y800500D02*
D03*
X973800Y748500D02*
D03*
X1045800D02*
D03*
X1049800Y759500D02*
D03*
X1049300Y770500D02*
D03*
Y800500D02*
D03*
Y789500D02*
D03*
X927800Y770000D02*
D03*
X927300Y795000D02*
D03*
X927800Y764000D02*
D03*
X896300Y762500D02*
D03*
X933800Y815000D02*
D03*
Y822000D02*
D03*
X1041300Y839500D02*
D03*
X1057800Y759500D02*
D03*
X991300Y777500D02*
D03*
X986300D02*
D03*
X981300D02*
D03*
X996300Y787500D02*
D03*
X991300D02*
D03*
X986300D02*
D03*
X981300D02*
D03*
X996300Y777500D02*
D03*
D21*
X973800Y767500D02*
D03*
X983800Y797500D02*
D03*
Y767500D02*
D03*
X993800D02*
D03*
X1003800Y797500D02*
D03*
X973800D02*
D03*
X1003800Y767500D02*
D03*
X993800Y797500D02*
D03*
X960800Y800000D02*
D03*
X916300Y820500D02*
D03*
Y850500D02*
D03*
X906300D02*
D03*
Y820500D02*
D03*
X886300D02*
D03*
Y850500D02*
D03*
X896300D02*
D03*
X876300D02*
D03*
Y820500D02*
D03*
X979800Y837000D02*
D03*
X959800D02*
D03*
X969800D02*
D03*
X1059800Y780500D02*
D03*
Y810500D02*
D03*
X1099800Y780500D02*
D03*
Y810500D02*
D03*
X876300Y780500D02*
D03*
Y810500D02*
D03*
X916300Y780500D02*
D03*
X906300D02*
D03*
X886300D02*
D03*
Y810500D02*
D03*
X906300D02*
D03*
X916300D02*
D03*
X876300Y770500D02*
D03*
Y740500D02*
D03*
X1016800Y765000D02*
D03*
Y795000D02*
D03*
X1026800Y800000D02*
D03*
X950800Y805000D02*
D03*
Y795000D02*
D03*
Y765000D02*
D03*
X896300Y770500D02*
D03*
X950800Y775000D02*
D03*
X960800Y770000D02*
D03*
Y760000D02*
D03*
Y790000D02*
D03*
X1026800D02*
D03*
Y760000D02*
D03*
Y770000D02*
D03*
X886300Y770500D02*
D03*
X906300D02*
D03*
X1016800Y775000D02*
D03*
Y805000D02*
D03*
X1069800Y780500D02*
D03*
Y810500D02*
D03*
X896300Y780500D02*
D03*
X1079800D02*
D03*
X916300Y740500D02*
D03*
Y770500D02*
D03*
X896300Y820500D02*
D03*
X1089800Y780500D02*
D03*
Y810500D02*
D03*
X896300Y740500D02*
D03*
Y810500D02*
D03*
X886300Y740500D02*
D03*
X906300D02*
D03*
X1079800Y810500D02*
D03*
X1059800Y834500D02*
D03*
X1069800D02*
D03*
X1059800Y824500D02*
D03*
X1099800Y834500D02*
D03*
X1089800D02*
D03*
X1079800D02*
D03*
X1099800Y824500D02*
D03*
X1089800D02*
D03*
X1079800D02*
D03*
X1069800D02*
D03*
X931800Y754000D02*
D03*
Y744000D02*
D03*
X1059800Y770500D02*
D03*
X1079800D02*
D03*
X1059800Y740500D02*
D03*
X1099800D02*
D03*
Y770500D02*
D03*
X1089800Y740500D02*
D03*
X1079800D02*
D03*
X1069800D02*
D03*
Y770500D02*
D03*
X1089800D02*
D03*
X1025800Y845500D02*
D03*
X995800Y835500D02*
D03*
Y845500D02*
D03*
X1025800Y835500D02*
D03*
D24*
X988800Y760000D02*
D03*
Y805000D02*
D03*
D27*
X1077816Y776550D02*
Y776483D01*
D29*
X1078493Y777807D02*
X1080721D01*
D30*
X1080050Y776750D02*
X1078550D01*
X956550Y791250D02*
Y758750D01*
D31*
X1105800Y754500D02*
Y778000D01*
X994800Y821000D02*
X932800D01*
X918800Y851500D02*
X1018300D01*
D33*
X913050Y771250D02*
Y758250D01*
Y796250D02*
Y811250D01*
X919550Y753250D02*
Y737250D01*
X933050Y821250D02*
Y822750D01*
X919550Y819750D02*
Y832250D01*
X1047050Y789250D02*
X1049550D01*
D34*
X1041050Y833750D02*
X1036550D01*
D35*
X983300Y746000D02*
D03*
X999800Y754000D02*
D03*
X994300D02*
D03*
X977300Y815000D02*
D03*
X1018800Y835500D02*
D03*
X1013300D02*
D03*
X1008300Y845500D02*
D03*
X1002800D02*
D03*
X982800Y815000D02*
D03*
X983300Y751500D02*
D03*
X1008300Y835500D02*
D03*
X1002800D02*
D03*
X1013300Y845500D02*
D03*
X1018800D02*
D03*
X973800Y758000D02*
D03*
Y752500D02*
D03*
X1036800Y834000D02*
D03*
Y839500D02*
D03*
X994300Y815000D02*
D03*
Y820500D02*
D03*
X981300Y787500D02*
D03*
X986300D02*
D03*
X991300D02*
D03*
X996300D02*
D03*
X981300Y777500D02*
D03*
X986300D02*
D03*
X991300D02*
D03*
X996300D02*
D03*
X927300Y795000D02*
D03*
D36*
X960800Y784500D02*
X981300D01*
X928300Y764000D02*
X927300D01*
Y800500D02*
X932300D01*
Y770000D02*
X927800D01*
X1047300Y759500D02*
X1057800D01*
D37*
X1099550Y777250D02*
X1104050D01*
D38*
X1101550Y736750D02*
X1099550D01*
X919050Y780250D02*
Y790750D01*
X995550Y845250D02*
X1002550D01*
X1037050Y839250D02*
X1042050D01*
D40*
X1099800Y810500D02*
Y799000D01*
Y792500D02*
Y780500D01*
Y770500D02*
Y759000D01*
Y752500D02*
Y740500D01*
X979800Y837000D02*
D03*
D41*
X973800Y767500D02*
Y758500D01*
X876300Y770500D02*
D03*
X916300D02*
D03*
X876300Y740500D02*
D03*
X886300D02*
D03*
X896300D02*
D03*
X906300D02*
D03*
X916300D02*
D03*
X876300Y780500D02*
D03*
X886300D02*
D03*
X906300D02*
D03*
X916300D02*
D03*
X876300Y810500D02*
D03*
Y820500D02*
D03*
X886300D02*
D03*
Y810500D02*
D03*
X906300Y820500D02*
D03*
Y810500D02*
D03*
X916300D02*
D03*
Y820500D02*
D03*
X876300Y850500D02*
D03*
X886300D02*
D03*
X896300D02*
D03*
X906300D02*
D03*
X916300D02*
D03*
X1059800Y834500D02*
D03*
X1069800D02*
D03*
X1059800Y824500D02*
D03*
X1069800D02*
D03*
X1079800Y834500D02*
D03*
Y824500D02*
D03*
X1089800D02*
D03*
Y834500D02*
D03*
X1099800D02*
D03*
Y810500D02*
D03*
X1059800D02*
D03*
X1099800Y780500D02*
D03*
X1059800D02*
D03*
Y770500D02*
D03*
X1069800D02*
D03*
X1089800D02*
D03*
X1099800D02*
D03*
Y740500D02*
D03*
X1089800D02*
D03*
X1079800D02*
D03*
X1069800D02*
D03*
X1059800D02*
D03*
X1003800Y797500D02*
D03*
X973800D02*
D03*
X1089800Y743000D02*
Y740500D01*
Y750000D02*
Y766500D01*
X916300Y740500D02*
Y737000D01*
Y759000D02*
Y770500D01*
Y752500D02*
Y740000D01*
Y780500D02*
Y790500D01*
Y797000D02*
Y810500D01*
X960800Y800000D02*
D03*
X950800Y795000D02*
D03*
Y805000D02*
D03*
X1026800Y800000D02*
D03*
X1016800Y795000D02*
D03*
Y765000D02*
D03*
X950800D02*
D03*
Y775000D02*
D03*
X960800Y770000D02*
D03*
Y760000D02*
D03*
Y790000D02*
D03*
X1026800D02*
D03*
Y760000D02*
D03*
Y770000D02*
D03*
X886300Y770500D02*
D03*
X906300D02*
D03*
X1016800Y775000D02*
D03*
Y805000D02*
D03*
X1069800Y780500D02*
D03*
Y810500D02*
D03*
X896300Y780500D02*
D03*
X1079800D02*
D03*
X1003800Y767500D02*
D03*
X896300Y820500D02*
D03*
X1089800Y780500D02*
D03*
Y810500D02*
D03*
X896300D02*
D03*
X1079800D02*
D03*
Y770500D02*
D03*
X1099800Y824500D02*
D03*
X896300Y762500D02*
Y740500D01*
X973800Y748500D02*
Y752000D01*
X916300Y838000D02*
Y850500D01*
Y831500D02*
Y820500D01*
X933800Y822000D02*
D03*
X957800Y790000D02*
X960800D01*
Y760000D02*
X957800D01*
X995800Y835500D02*
X1002300D01*
X1008800Y845500D02*
X1012800D01*
Y835500D02*
X1008800D01*
X1019300D02*
X1025800D01*
X1059800Y834500D02*
Y850500D01*
X969800Y837000D02*
D03*
X896300Y770500D02*
D03*
D03*
D43*
X1104300Y752000D02*
Y741000D01*
X913800Y838500D02*
Y850000D01*
D44*
X916300Y798000D02*
D03*
Y789500D02*
D03*
Y830500D02*
D03*
Y839000D02*
D03*
X1099800Y800000D02*
D03*
Y791500D02*
D03*
Y760000D02*
D03*
Y751500D02*
D03*
X916300Y760000D02*
D03*
Y751500D02*
D03*
D45*
X1104300Y781000D02*
Y792000D01*
D51*
X1057300Y848000D02*
X1022300D01*
D02*
M02*
