M71
M48
T1F00S00C0.762
T2F00S00C1.016
T3F00S00C2.032
%
T01
X0027305Y0004572
X0045593
X0046609Y0007366
X0048641
X0046482Y001016
X0015621Y0010033
Y0008509
X000762Y0008128
X0015494Y0016383
Y001778
X0017145Y0021463
Y0023241
X0015494Y00254
X0024003Y0013716
X002921Y0014478
X003048
X003175
X003302
Y0011938
X003175
X003048
X002921
X0046482Y0014986
Y001778
X004445Y0027686
T02
X0027305Y0009398
X0029845
X0032385
X0034925
X0038227Y0008763
X0040767Y0007493
Y0010033
X0049149Y001016
X0051689
X0054229
X0056769
X0059309
Y000254
X0056769
X0054229
X0051689
X0049149
X0024003Y0007493
Y0010033
X0021463Y0008763
X0016637Y0005969
Y0003429
X00127Y000254
X001016
X000762
X000508
X000254
Y001016
X000508
X000762
X001016
X00127
Y00127
X001016
X000762
X000508
X000254
Y002032
Y002286
X000508
Y002032
X000762
X001016
Y002286
X00127
Y002032
X000762Y002286
Y003048
X001016
X00127
X000508
X000254
X0023749Y0027051
X0024003Y0017653
Y0015113
X0021463Y0016383
Y0018923
Y0011303
X0027305Y0017018
X0029845
X0032385
X0034925
X0038227Y0016383
Y0018923
X0040767Y0017653
Y0015113
X0038227Y0011303
X0049149Y00127
X0051689
X0054229
X0056769
X0059309
Y002032
X0056769
X0054229
X0051689
X0049149
Y0023876
Y0026416
X0051689
X0054229
X0056769
X0059309
Y0023876
X0056769
X0054229
X0051689
X0040513Y002667
Y002921
X0032893
Y002667
X0028829Y0027051
X0026289
T03
X0031115Y0007493
Y0018923
M30
