*%FSLAX25Y25*%
*%MOIN*%
G01*
%ADD11C,0.00100*%
%ADD12C,0.00700*%
%ADD13C,0.00733*%
%ADD14C,0.01000*%
%ADD15C,0.01200*%
%ADD16C,0.01500*%
%ADD17C,0.02000*%
%ADD18C,0.03000*%
%ADD19C,0.04000*%
%ADD20C,0.04800*%
%ADD21C,0.05000*%
%ADD22C,0.05800*%
%ADD23C,0.07000*%
%ADD24C,0.08000*%
%ADD25C,0.08800*%
%ADD26C,0.12000*%
%ADD27R,0.00967X0.00967*%
%ADD28R,0.01000X0.01000*%
%ADD29R,0.01386X0.01386*%
%ADD30R,0.01500X0.01500*%
%ADD31R,0.02000X0.02000*%
%ADD32R,0.02000X0.02000*%
%ADD33R,0.02500X0.02500*%
%ADD34R,0.02500X0.02500*%
%ADD35R,0.03000X0.03000*%
%ADD36R,0.03000X0.03000*%
%ADD37R,0.03500X0.03500*%
%ADD38R,0.03500X0.03500*%
%ADD39R,0.03800X0.03800*%
%ADD40R,0.04000X0.04000*%
%ADD41R,0.04000X0.04000*%
%ADD42R,0.04500X0.04500*%
%ADD43R,0.05000X0.05000*%
%ADD44R,0.05000X0.06000*%
%ADD45R,0.05000X0.05000*%
%ADD46R,0.05800X0.06800*%
%ADD47R,0.06000X0.05000*%
%ADD48R,0.06000X0.06000*%
%ADD49R,0.06800X0.05800*%
%ADD50R,0.08500X0.08500*%
%ADD51R,0.09000X0.09000*%
%ADD52R,0.10000X0.10000*%
D11*
X939900Y858400D02*
X943200D01*
Y858300D02*
X939900D01*
Y858200D02*
X943200D01*
Y858100D02*
X939900D01*
X939800Y858000D02*
X943300D01*
Y857900D02*
X939800D01*
Y857800D02*
X943300D01*
Y857700D02*
X939800D01*
Y857600D02*
X943300D01*
Y857500D02*
X939800D01*
X939700Y857400D02*
X943400D01*
Y857300D02*
X939700D01*
Y857200D02*
X943400D01*
Y857100D02*
X939700D01*
Y857000D02*
X943400D01*
Y856900D02*
X939700D01*
Y856800D02*
X943400D01*
X943500Y856700D02*
X939600D01*
Y856600D02*
X943500D01*
Y856500D02*
X939600D01*
Y856400D02*
X943500D01*
X943600Y856300D02*
X939500D01*
X935000Y856200D02*
X934600D01*
X939500D02*
X943600D01*
X948100D02*
X948500D01*
X935200Y856100D02*
X934500D01*
X939500D02*
X943600D01*
X947900D02*
X948600D01*
X935400Y856000D02*
X934400D01*
X939500D02*
X943600D01*
X947700D02*
X948700D01*
X935500Y855900D02*
X934300D01*
X939500D02*
X943600D01*
X947600D02*
X948800D01*
X935600Y855800D02*
X934200D01*
X939400D02*
X943700D01*
X947500D02*
X948900D01*
X935800Y855700D02*
X934100D01*
X939400D02*
X943700D01*
X947300D02*
X949000D01*
X935900Y855600D02*
X934000D01*
X939400D02*
X943700D01*
X947200D02*
X949100D01*
X936100Y855500D02*
X933900D01*
X939400D02*
X943700D01*
X947000D02*
X949200D01*
X936200Y855400D02*
X933800D01*
X939200D02*
X943900D01*
X946900D02*
X949300D01*
X936400Y855300D02*
X933700D01*
X939000D02*
X944100D01*
X946700D02*
X949400D01*
X936500Y855200D02*
X933600D01*
X938800D02*
X944300D01*
X946600D02*
X949500D01*
X936600Y855100D02*
X933500D01*
X938500D02*
X944600D01*
X946500D02*
X949600D01*
X936800Y855000D02*
X933400D01*
X938300D02*
X944800D01*
X946300D02*
X949700D01*
X936900Y854900D02*
X933300D01*
X938000D02*
X945100D01*
X946200D02*
X949800D01*
X937100Y854800D02*
X933200D01*
X937800D02*
X945300D01*
X946000D02*
X949900D01*
X937200Y854700D02*
X933100D01*
X937500D02*
X945600D01*
X945900D02*
X950000D01*
X950100Y854600D02*
X933000D01*
X932900Y854500D02*
X950200D01*
X950300Y854400D02*
X932800D01*
X932700Y854300D02*
X950400D01*
X950500Y854200D02*
X932600D01*
Y854100D02*
X950500D01*
Y854000D02*
X932600D01*
X932700Y853900D02*
X950400D01*
X950300Y853800D02*
X932800D01*
Y853700D02*
X950300D01*
X950200Y853600D02*
X932900D01*
X933000Y853500D02*
X950100D01*
Y853400D02*
X933000D01*
X933100Y853300D02*
X950000D01*
X949900Y853200D02*
X933200D01*
Y853100D02*
X949900D01*
X949800Y853000D02*
X933300D01*
X933400Y852900D02*
X949700D01*
Y852800D02*
X933400D01*
X933500Y852700D02*
X949600D01*
X949500Y852600D02*
X933600D01*
X933700Y852500D02*
X949400D01*
Y852400D02*
X933700D01*
X933800Y852300D02*
X949300D01*
X949200Y852100D02*
X933900D01*
X934000Y852000D02*
X949100D01*
X949000Y851900D02*
X934100D01*
Y851800D02*
X949000D01*
X948900Y851700D02*
X934200D01*
X934300Y851600D02*
X948800D01*
X948900Y851500D02*
X934200D01*
Y851400D02*
X948900D01*
X949000Y851300D02*
X934100D01*
Y851200D02*
X949000D01*
X949100Y851100D02*
X934000D01*
Y851000D02*
X949100D01*
Y850900D02*
X934000D01*
X933900Y850800D02*
X949200D01*
Y850700D02*
X933900D01*
X933800Y850600D02*
X949300D01*
Y850500D02*
X933800D01*
Y850400D02*
X949300D01*
X941100Y850300D02*
X933700D01*
X942000D02*
X949400D01*
X940700Y850200D02*
X933700D01*
X942400D02*
X949400D01*
X940400Y850100D02*
X933600D01*
X942700D02*
X949500D01*
X940200Y850000D02*
X933600D01*
X942900D02*
X949500D01*
X939900Y849900D02*
X933500D01*
X943200D02*
X949600D01*
X939800Y849800D02*
X933500D01*
X943300D02*
X949600D01*
X939700Y849700D02*
X933400D01*
X943400D02*
X949700D01*
X939600Y849600D02*
X933400D01*
X943500D02*
X949700D01*
X939500Y849500D02*
X933300D01*
X943600D02*
X949800D01*
X939300Y849400D02*
X932800D01*
X943800D02*
X950300D01*
X939300Y849300D02*
X932200D01*
X943800D02*
X950900D01*
X939200Y849200D02*
X931700D01*
X943900D02*
X951400D01*
X939100Y849100D02*
X931200D01*
X944000D02*
X951900D01*
X939000Y849000D02*
X930800D01*
X944100D02*
X952300D01*
X939000Y848900D02*
X930400D01*
X944100D02*
X952700D01*
X938900Y848800D02*
X930400D01*
X944200D02*
X952700D01*
X938900Y848700D02*
X930400D01*
X944200D02*
X952700D01*
X938800Y848600D02*
X930400D01*
X944300D02*
X952700D01*
X938800Y848500D02*
X930400D01*
X944300D02*
X952700D01*
X938700Y848400D02*
X930400D01*
X944400D02*
X952700D01*
X938700Y848300D02*
X930400D01*
X944400D02*
X952700D01*
X938700Y848200D02*
X930400D01*
X944400D02*
X952700D01*
X938600Y848100D02*
X930400D01*
X944500D02*
X952700D01*
X938600Y848000D02*
X930400D01*
X944500D02*
X952700D01*
X938600Y847900D02*
X930400D01*
X944500D02*
X952700D01*
X938600Y847800D02*
X930400D01*
X944500D02*
X952700D01*
X938600Y847700D02*
X930400D01*
X944500D02*
X952700D01*
X938600Y847600D02*
X930400D01*
X944500D02*
X952700D01*
X938600Y847500D02*
X930400D01*
X944500D02*
X952700D01*
X938600Y847400D02*
X930400D01*
X944500D02*
X952700D01*
X938600Y847300D02*
X930400D01*
X944500D02*
X952700D01*
X938600Y847200D02*
X930400D01*
X944500D02*
X952700D01*
X938600Y847100D02*
X930400D01*
X944500D02*
X952700D01*
X938600Y847000D02*
X930400D01*
X944500D02*
X952700D01*
X938600Y846900D02*
X930400D01*
X944500D02*
X952700D01*
X938600Y846800D02*
X930400D01*
X944500D02*
X952700D01*
X938600Y846700D02*
X930400D01*
X944500D02*
X952700D01*
X938600Y846600D02*
X930400D01*
X944500D02*
X952700D01*
X938600Y846500D02*
X930400D01*
X944500D02*
X952700D01*
X938700Y846400D02*
X930400D01*
X944400D02*
X952700D01*
X938700Y846300D02*
X930400D01*
X944400D02*
X952700D01*
X938700Y846200D02*
X930400D01*
X944400D02*
X952700D01*
X938800Y846100D02*
X930400D01*
X944300D02*
X952700D01*
X938900Y846000D02*
X930400D01*
X944200D02*
X952700D01*
X938900Y845900D02*
X930400D01*
X944200D02*
X952700D01*
X939000Y845800D02*
X930500D01*
X944100D02*
X952600D01*
X939000Y845700D02*
X930800D01*
X944100D02*
X952300D01*
X939100Y845600D02*
X931300D01*
X944000D02*
X951800D01*
X939100Y845500D02*
X931700D01*
X944000D02*
X951400D01*
X939200Y845400D02*
X932200D01*
X943900D02*
X950900D01*
X939300Y845300D02*
X932800D01*
X943800D02*
X950300D01*
X939400Y845200D02*
X933300D01*
X943700D02*
X949800D01*
X939500Y845100D02*
X933300D01*
X943600D02*
X949800D01*
X939600Y845000D02*
X933400D01*
X943500D02*
X949700D01*
X939800Y844900D02*
X933400D01*
X943300D02*
X949700D01*
X939900Y844800D02*
X933400D01*
X943200D02*
X949700D01*
X940000Y844700D02*
X933500D01*
X943100D02*
X949600D01*
X940200Y844600D02*
X933500D01*
X942900D02*
X949600D01*
X940400Y844500D02*
X933600D01*
X942700D02*
X949500D01*
X940400Y844400D02*
X933600D01*
X942700D02*
X949500D01*
X940400Y844300D02*
X933700D01*
X942700D02*
X949400D01*
X940400Y844200D02*
X933700D01*
X942700D02*
X949400D01*
X940400Y844100D02*
X933800D01*
X942700D02*
X949300D01*
X940300Y844000D02*
X933800D01*
X942800D02*
X949300D01*
X940300Y843900D02*
X933800D01*
X942800D02*
X949300D01*
X940200Y843800D02*
X933900D01*
X942900D02*
X949200D01*
X940200Y843700D02*
X933900D01*
X942900D02*
X949200D01*
X940200Y843600D02*
X933900D01*
X942900D02*
X949200D01*
X940100Y843500D02*
X934000D01*
X943000D02*
X949100D01*
X940100Y843400D02*
X934000D01*
X943000D02*
X949100D01*
X940000Y843300D02*
X934100D01*
X943100D02*
X949000D01*
X940000Y843200D02*
X934100D01*
X943100D02*
X949000D01*
X939900Y843100D02*
X934100D01*
X943200D02*
X949000D01*
X939900Y843000D02*
X934200D01*
X943200D02*
X948900D01*
X939800Y842900D02*
X934100D01*
X943300D02*
X949000D01*
X939800Y842800D02*
X934100D01*
X943300D02*
X949000D01*
X939800Y842700D02*
X934000D01*
X943300D02*
X949100D01*
X939700Y842600D02*
X933900D01*
X943400D02*
X949200D01*
X939700Y842500D02*
X933900D01*
X943400D02*
X949200D01*
X939600Y842400D02*
X933800D01*
X943500D02*
X949300D01*
X939600Y842300D02*
X933700D01*
X943500D02*
X949400D01*
X939600Y842200D02*
X933600D01*
X943500D02*
X949500D01*
X939500Y842100D02*
X933600D01*
X943600D02*
X949500D01*
X939500Y842000D02*
X933500D01*
X943600D02*
X949600D01*
X939400Y841900D02*
X933400D01*
X943700D02*
X949700D01*
X939400Y841800D02*
X933400D01*
X943700D02*
X949700D01*
X939300Y841700D02*
X933300D01*
X943800D02*
X949800D01*
X939300Y841600D02*
X933200D01*
X943800D02*
X949900D01*
X939300Y841500D02*
X933200D01*
X943800D02*
X949900D01*
X939200Y841400D02*
X933100D01*
X943900D02*
X950000D01*
X939200Y841300D02*
X933000D01*
X943900D02*
X950100D01*
X939200Y841200D02*
X933000D01*
X943900D02*
X950100D01*
X939100Y841100D02*
X932900D01*
X944000D02*
X950200D01*
X939100Y841000D02*
X932800D01*
X944000D02*
X950300D01*
X939000Y840900D02*
X932800D01*
X944100D02*
X950300D01*
X939000Y840800D02*
X932700D01*
X944100D02*
X950400D01*
X938900Y840700D02*
X932600D01*
X944200D02*
X950500D01*
X938900Y840600D02*
X932600D01*
X944200D02*
X950500D01*
X938900Y840500D02*
X932600D01*
X944200D02*
X950500D01*
X938800Y840400D02*
X932700D01*
X944300D02*
X950400D01*
X938800Y840300D02*
X932800D01*
X944300D02*
X950300D01*
X938700Y840200D02*
X932900D01*
X944400D02*
X950200D01*
X938700Y840100D02*
X933000D01*
X944400D02*
X950100D01*
X938600Y840000D02*
X933100D01*
X944500D02*
X950000D01*
X937100Y839900D02*
X933200D01*
X937200D02*
X938600D01*
X944500D02*
X945900D01*
X946000D02*
X949900D01*
X936900Y839800D02*
X933300D01*
X937400D02*
X938600D01*
X944500D02*
X945700D01*
X946200D02*
X949800D01*
X936800Y839700D02*
X933400D01*
X937700D02*
X938500D01*
X944600D02*
X945400D01*
X946300D02*
X949700D01*
X936600Y839600D02*
X933500D01*
X937800D02*
X938500D01*
X944600D02*
X945300D01*
X946500D02*
X949600D01*
X936500Y839500D02*
X933600D01*
X938000D02*
X938400D01*
X944700D02*
X945100D01*
X946600D02*
X949500D01*
X936300Y839400D02*
X933700D01*
X938200D02*
X938300D01*
X944800D02*
X944900D01*
X946800D02*
X949400D01*
X936200Y839300D02*
X933800D01*
X946900D02*
X949300D01*
X936000Y839200D02*
X933900D01*
X947100D02*
X949200D01*
X935900Y839100D02*
X934000D01*
X947200D02*
X949100D01*
X935800Y839000D02*
X934100D01*
X947300D02*
X949000D01*
X935600Y838900D02*
X934200D01*
X947500D02*
X948900D01*
X935500Y838800D02*
X934300D01*
X947600D02*
X948800D01*
X935300Y838700D02*
X934400D01*
X947800D02*
X948700D01*
X935200Y838600D02*
X934500D01*
X947900D02*
X948600D01*
X935000Y838500D02*
X934600D01*
X948100D02*
X948500D01*
X929000Y836200D02*
X928000D01*
X930200D02*
X930900D01*
X931200D02*
X932100D01*
X933800D02*
X934700D01*
X935900D02*
X936700D01*
X936900D02*
X937800D01*
X940800D02*
X941900D01*
X943600D02*
X944600D01*
X945700D02*
X946500D01*
X947500D02*
X948300D01*
X948800D02*
X949500D01*
X949800D02*
X950600D01*
X951600D02*
X952600D01*
X954100D02*
X955000D01*
X929200Y836100D02*
X927800D01*
X930200D02*
X930900D01*
X931000D02*
X932200D01*
X933600D02*
X934900D01*
X935900D02*
X936700D01*
X936800D02*
X937900D01*
X940600D02*
X942100D01*
X943400D02*
X944800D01*
X945700D02*
X946500D01*
X947500D02*
X948300D01*
X948800D02*
X949500D01*
X949600D02*
X950900D01*
X951400D02*
X952800D01*
X953900D02*
X955200D01*
X929300Y836000D02*
X927700D01*
X930200D02*
X932300D01*
X933500D02*
X935100D01*
X935900D02*
X938100D01*
X940400D02*
X942300D01*
X943300D02*
X944900D01*
X945700D02*
X946500D01*
X947500D02*
X948300D01*
X948800D02*
X950900D01*
X951300D02*
X953000D01*
X953800D02*
X955400D01*
X929400Y835900D02*
X927600D01*
X930200D02*
X932400D01*
X933400D02*
X935200D01*
X935900D02*
X938200D01*
X940300D02*
X942500D01*
X943200D02*
X945000D01*
X945700D02*
X946500D01*
X947500D02*
X948300D01*
X948800D02*
X950900D01*
X951200D02*
X953100D01*
X953700D02*
X955500D01*
X929500Y835800D02*
X927500D01*
X930200D02*
X932500D01*
X933300D02*
X935300D01*
X935900D02*
X938300D01*
X940300D02*
X942500D01*
X943100D02*
X945100D01*
X945700D02*
X946500D01*
X947500D02*
X948300D01*
X948800D02*
X950800D01*
X951100D02*
X953200D01*
X953600D02*
X955600D01*
X929600Y835700D02*
X927400D01*
X930200D02*
X932600D01*
X933200D02*
X935300D01*
X935900D02*
X938300D01*
X940200D02*
X942500D01*
X943000D02*
X945200D01*
X945700D02*
X946500D01*
X947500D02*
X948300D01*
X948800D02*
X950700D01*
X951000D02*
X953300D01*
X953500D02*
X955700D01*
X929700Y835600D02*
X927400D01*
X930200D02*
X932600D01*
X933200D02*
X935400D01*
X935900D02*
X938400D01*
X940100D02*
X942400D01*
X942900D02*
X945200D01*
X945700D02*
X946500D01*
X947500D02*
X948300D01*
X948800D02*
X950600D01*
X950900D02*
X953300D01*
X953500D02*
X955700D01*
X928400Y835500D02*
X927300D01*
X928700D02*
X929700D01*
X930200D02*
X931200D01*
X931700D02*
X932700D01*
X933100D02*
X934000D01*
X934500D02*
X935500D01*
X935900D02*
X937000D01*
X937400D02*
X938400D01*
X940100D02*
X941000D01*
X941700D02*
X942300D01*
X942900D02*
X943900D01*
X944200D02*
X945300D01*
X945700D02*
X946500D01*
X947500D02*
X948300D01*
X948800D02*
X949800D01*
X950200D02*
X950600D01*
X950900D02*
X951900D01*
X952400D02*
X953100D01*
X953400D02*
X954300D01*
X954800D02*
X955800D01*
X928200Y835400D02*
X927300D01*
X928900D02*
X929700D01*
X930200D02*
X931100D01*
X931800D02*
X932700D01*
X933100D02*
X933900D01*
X934600D02*
X935500D01*
X935900D02*
X936800D01*
X937500D02*
X938400D01*
X940100D02*
X940900D01*
X941900D02*
X942200D01*
X942800D02*
X943700D01*
X944400D02*
X945300D01*
X945700D02*
X946500D01*
X947500D02*
X948300D01*
X948800D02*
X949700D01*
X950800D02*
X951700D01*
X952500D02*
X953000D01*
X953400D02*
X954200D01*
X955000D02*
X955800D01*
X928100Y835300D02*
X927300D01*
X929000D02*
X929800D01*
X930200D02*
X931000D01*
X931900D02*
X932700D01*
X933000D02*
X933800D01*
X934700D02*
X935500D01*
X935900D02*
X936800D01*
X937600D02*
X938500D01*
X940100D02*
X940900D01*
X942000D02*
X942100D01*
X942800D02*
X943700D01*
X944500D02*
X945300D01*
X945700D02*
X946500D01*
X947500D02*
X948300D01*
X948800D02*
X949600D01*
X950800D02*
X951600D01*
X952600D02*
X952900D01*
X953400D02*
X954100D01*
X955000D02*
X955800D01*
X928000Y835200D02*
X927300D01*
X929000D02*
X929800D01*
X930200D02*
X931000D01*
X931900D02*
X932700D01*
X933000D02*
X933800D01*
X934800D02*
X935600D01*
X935900D02*
X936700D01*
X937600D02*
X938500D01*
X940100D02*
X940900D01*
X942800D02*
X943600D01*
X944600D02*
X945400D01*
X945700D02*
X946500D01*
X947500D02*
X948300D01*
X948800D02*
X949600D01*
X950800D02*
X951600D01*
X953300D02*
X954100D01*
X955100D02*
X955800D01*
X928000Y835100D02*
X927300D01*
X929000D02*
X929800D01*
X930200D02*
X931000D01*
X931900D02*
X932700D01*
X933000D02*
X933700D01*
X934800D02*
X935600D01*
X935900D02*
X936700D01*
X937700D02*
X938500D01*
X940100D02*
X941100D01*
X942800D02*
X943600D01*
X944600D02*
X945400D01*
X945700D02*
X946500D01*
X947500D02*
X948300D01*
X948800D02*
X949600D01*
X950700D02*
X951500D01*
X953300D02*
X954100D01*
X955100D02*
X955800D01*
X928000Y835000D02*
X927300D01*
X929000D02*
X929800D01*
X930200D02*
X930900D01*
X932000D02*
X932700D01*
X933000D02*
X935600D01*
X935900D02*
X936700D01*
X937700D02*
X938500D01*
X940200D02*
X941900D01*
X942800D02*
X943600D01*
X944600D02*
X945400D01*
X945700D02*
X946500D01*
X947500D02*
X948300D01*
X948800D02*
X949500D01*
X950700D02*
X951500D01*
X953300D02*
X955800D01*
X928000Y834900D02*
X927300D01*
X929000D02*
X929800D01*
X930200D02*
X930900D01*
X932000D02*
X932700D01*
X933000D02*
X935600D01*
X935900D02*
X936700D01*
X937700D02*
X938500D01*
X940200D02*
X942200D01*
X942800D02*
X943600D01*
X944600D02*
X945400D01*
X945700D02*
X946500D01*
X947500D02*
X948300D01*
X948800D02*
X949500D01*
X950700D02*
X951500D01*
X953300D02*
X955800D01*
X928000Y834800D02*
X927300D01*
X929000D02*
X929800D01*
X930200D02*
X930900D01*
X932000D02*
X932700D01*
X933000D02*
X935600D01*
X935900D02*
X936700D01*
X937700D02*
X938500D01*
X940300D02*
X942300D01*
X942800D02*
X943500D01*
X944600D02*
X945400D01*
X945700D02*
X946500D01*
X947500D02*
X948300D01*
X948800D02*
X949500D01*
X950700D02*
X951500D01*
X953300D02*
X955800D01*
X928000Y834700D02*
X927300D01*
X929100D02*
X929800D01*
X930200D02*
X930900D01*
X932000D02*
X932700D01*
X933000D02*
X935600D01*
X935900D02*
X936700D01*
X937700D02*
X938500D01*
X940300D02*
X942400D01*
X942800D02*
X943500D01*
X944600D02*
X945400D01*
X945700D02*
X946500D01*
X947500D02*
X948300D01*
X948800D02*
X949500D01*
X950700D02*
X951500D01*
X953300D02*
X955800D01*
X928000Y834600D02*
X927300D01*
X929000D02*
X929800D01*
X930200D02*
X930900D01*
X932000D02*
X932700D01*
X933000D02*
X935600D01*
X935900D02*
X936700D01*
X937700D02*
X938500D01*
X940400D02*
X942500D01*
X942800D02*
X943500D01*
X944600D02*
X945400D01*
X945700D02*
X946500D01*
X947500D02*
X948300D01*
X948800D02*
X949500D01*
X950700D02*
X951500D01*
X953300D02*
X955800D01*
X928000Y834500D02*
X927300D01*
X929000D02*
X929800D01*
X930200D02*
X930900D01*
X932000D02*
X932700D01*
X933000D02*
X935600D01*
X935900D02*
X936700D01*
X937700D02*
X938500D01*
X940600D02*
X942500D01*
X942800D02*
X943500D01*
X944600D02*
X945400D01*
X945700D02*
X946500D01*
X947500D02*
X948300D01*
X948800D02*
X949500D01*
X950700D02*
X951500D01*
X953300D02*
X955800D01*
X928000Y834400D02*
X927300D01*
X929000D02*
X929800D01*
X930200D02*
X930900D01*
X932000D02*
X932700D01*
X933000D02*
X935600D01*
X935900D02*
X936700D01*
X937700D02*
X938500D01*
X940800D02*
X942600D01*
X942800D02*
X943600D01*
X944600D02*
X945400D01*
X945700D02*
X946500D01*
X947500D02*
X948300D01*
X948800D02*
X949500D01*
X950700D02*
X951500D01*
X953300D02*
X955800D01*
X928000Y834300D02*
X927300D01*
X929000D02*
X929800D01*
X930200D02*
X930900D01*
X931900D02*
X932700D01*
X933000D02*
X933700D01*
X935900D02*
X936700D01*
X937700D02*
X938500D01*
X941700D02*
X942600D01*
X942800D02*
X943600D01*
X944600D02*
X945400D01*
X945700D02*
X946500D01*
X947500D02*
X948300D01*
X948800D02*
X949500D01*
X950700D02*
X951500D01*
X953300D02*
X954100D01*
X928000Y834200D02*
X927300D01*
X929000D02*
X929800D01*
X930200D02*
X931000D01*
X931900D02*
X932700D01*
X933000D02*
X933800D01*
X935900D02*
X936700D01*
X937700D02*
X938500D01*
X941800D02*
X942600D01*
X942800D02*
X943600D01*
X944600D02*
X945400D01*
X945700D02*
X946500D01*
X947500D02*
X948300D01*
X948800D02*
X949500D01*
X950700D02*
X951600D01*
X953300D02*
X954100D01*
X928100Y834100D02*
X927300D01*
X929000D02*
X929800D01*
X930200D02*
X931000D01*
X931900D02*
X932700D01*
X933000D02*
X933800D01*
X935900D02*
X936700D01*
X937700D02*
X938500D01*
X940300D02*
X940500D01*
X941800D02*
X942600D01*
X942800D02*
X943600D01*
X944500D02*
X945300D01*
X945700D02*
X946600D01*
X947500D02*
X948300D01*
X948800D02*
X949500D01*
X950800D02*
X951600D01*
X952700D02*
X952800D01*
X953400D02*
X954100D01*
X928100Y834000D02*
X927300D01*
X928900D02*
X929700D01*
X930200D02*
X931100D01*
X931800D02*
X932700D01*
X933100D02*
X933900D01*
X934900D02*
X935100D01*
X935900D02*
X936700D01*
X937700D02*
X938500D01*
X940200D02*
X940600D01*
X941800D02*
X942600D01*
X942800D02*
X943700D01*
X944500D02*
X945300D01*
X945700D02*
X946600D01*
X947400D02*
X948300D01*
X948800D02*
X949500D01*
X950800D02*
X951700D01*
X952600D02*
X952900D01*
X953400D02*
X954200D01*
X955200D02*
X955400D01*
X928300Y833900D02*
X927300D01*
X928800D02*
X929700D01*
X930200D02*
X931200D01*
X931700D02*
X932700D01*
X933100D02*
X934000D01*
X934700D02*
X935200D01*
X935900D02*
X936700D01*
X937700D02*
X938500D01*
X940100D02*
X940800D01*
X941700D02*
X942600D01*
X942900D02*
X943800D01*
X944300D02*
X945300D01*
X945800D02*
X946800D01*
X947300D02*
X948300D01*
X948800D02*
X949500D01*
X950800D02*
X951800D01*
X952400D02*
X953000D01*
X953400D02*
X954300D01*
X955000D02*
X955500D01*
X929700Y833800D02*
X927300D01*
X930200D02*
X932700D01*
X933100D02*
X935400D01*
X935900D02*
X936700D01*
X937700D02*
X938500D01*
X939900D02*
X942600D01*
X942900D02*
X945200D01*
X945800D02*
X948300D01*
X948800D02*
X949500D01*
X950900D02*
X953200D01*
X953400D02*
X955700D01*
X929700Y833700D02*
X927400D01*
X930200D02*
X932600D01*
X933200D02*
X935500D01*
X935900D02*
X936700D01*
X937700D02*
X938500D01*
X939900D02*
X942500D01*
X943000D02*
X945200D01*
X945800D02*
X948300D01*
X948800D02*
X949500D01*
X951000D02*
X953300D01*
X953500D02*
X955800D01*
X929600Y833600D02*
X927500D01*
X930200D02*
X932600D01*
X933200D02*
X935500D01*
X935900D02*
X936700D01*
X937700D02*
X938500D01*
X939900D02*
X942500D01*
X943000D02*
X945100D01*
X945900D02*
X948300D01*
X948800D02*
X949500D01*
X951000D02*
X953300D01*
X953500D02*
X955800D01*
X929500Y833500D02*
X927500D01*
X930200D02*
X932500D01*
X933300D02*
X935400D01*
X935900D02*
X936700D01*
X937700D02*
X938500D01*
X940100D02*
X942400D01*
X943100D02*
X945100D01*
X946000D02*
X948300D01*
X948800D02*
X949500D01*
X951100D02*
X953100D01*
X953600D02*
X955800D01*
X929400Y833400D02*
X927600D01*
X930200D02*
X932400D01*
X933400D02*
X935300D01*
X935900D02*
X936700D01*
X937700D02*
X938500D01*
X940200D02*
X942300D01*
X943200D02*
X945000D01*
X946100D02*
X948300D01*
X948800D02*
X949500D01*
X951200D02*
X953000D01*
X953700D02*
X955600D01*
X929300Y833300D02*
X927800D01*
X930200D02*
X930900D01*
X931000D02*
X932300D01*
X933500D02*
X935200D01*
X935900D02*
X936700D01*
X937700D02*
X938500D01*
X940400D02*
X942200D01*
X943300D02*
X944800D01*
X946200D02*
X948300D01*
X948800D02*
X949500D01*
X951300D02*
X952900D01*
X953800D02*
X955500D01*
X929100Y833200D02*
X927900D01*
X930200D02*
X930900D01*
X931100D02*
X932100D01*
X933700D02*
X935000D01*
X935900D02*
X936700D01*
X937700D02*
X938500D01*
X940600D02*
X942000D01*
X943500D02*
X944700D01*
X946300D02*
X947300D01*
X947500D02*
X948300D01*
X948800D02*
X949500D01*
X951500D02*
X952700D01*
X954000D02*
X955300D01*
X928700Y833100D02*
X928400D01*
X930200D02*
X930900D01*
X931500D02*
X931800D01*
X934100D02*
X934500D01*
X941100D02*
X941400D01*
X943900D02*
X944200D01*
X946700D02*
X947000D01*
X952000D02*
X952300D01*
X954400D02*
X954800D01*
X930900Y833000D02*
X930200D01*
Y832900D02*
X930900D01*
Y832800D02*
X930200D01*
Y832700D02*
X930900D01*
X939800D02*
X940600D01*
X930900Y832600D02*
X930200D01*
X939800D02*
X940600D01*
X930900Y832500D02*
X930200D01*
X939800D02*
X940600D01*
X930900Y832400D02*
X930200D01*
X939800D02*
X940600D01*
X930900Y832300D02*
X930200D01*
X939800D02*
X940600D01*
X930900Y832200D02*
X930200D01*
X939800D02*
X940600D01*
X930900Y832100D02*
X930200D01*
X939800D02*
X940600D01*
X930900Y832000D02*
X930200D01*
X939800D02*
X940600D01*
X930900Y831900D02*
X930200D01*
X939800D02*
X940600D01*
X930900Y831800D02*
X930200D01*
X939800D02*
X940600D01*
X930900Y831700D02*
X930200D01*
X939800D02*
X940600D01*
X930900Y831600D02*
X930200D01*
X939800D02*
X940600D01*
X930900Y831500D02*
X930200D01*
X931200D02*
X932000D01*
X933700D02*
X934800D01*
X936000D02*
X936800D01*
X937100D02*
X937900D01*
X938700D02*
X939500D01*
X939800D02*
X940600D01*
X940700D02*
X941500D01*
X942600D02*
X943200D01*
X944300D02*
X945100D01*
X945700D02*
X946800D01*
X948000D02*
X948800D01*
X949100D02*
X949900D01*
X950900D02*
X951800D01*
X930900Y831400D02*
X930200D01*
X931000D02*
X932200D01*
X933500D02*
X935100D01*
X936000D02*
X936800D01*
X936900D02*
X938100D01*
X938500D02*
X939700D01*
X939800D02*
X940600D01*
X940800D02*
X941600D01*
X942600D02*
X943200D01*
X944300D02*
X945100D01*
X945500D02*
X947100D01*
X948000D02*
X948800D01*
X948900D02*
X950100D01*
X950700D02*
X952000D01*
X932300Y831300D02*
X930200D01*
X933300D02*
X935200D01*
X936000D02*
X938200D01*
X938400D02*
X940600D01*
X940800D02*
X941600D01*
X942600D02*
X943300D01*
X944200D02*
X945100D01*
X945300D02*
X947200D01*
X948000D02*
X950200D01*
X950600D02*
X952200D01*
X932500Y831200D02*
X930200D01*
X933200D02*
X935300D01*
X936000D02*
X938200D01*
X938300D02*
X940600D01*
X940800D02*
X941600D01*
X942500D02*
X943300D01*
X944200D02*
X945000D01*
X945200D02*
X947300D01*
X948000D02*
X950200D01*
X950500D02*
X952300D01*
X932500Y831100D02*
X930200D01*
X933200D02*
X935400D01*
X936000D02*
X938100D01*
X938200D02*
X940600D01*
X940900D02*
X941600D01*
X942500D02*
X943400D01*
X944200D02*
X945000D01*
X945100D02*
X947400D01*
X948000D02*
X950100D01*
X950400D02*
X952400D01*
X932600Y831000D02*
X930200D01*
X933200D02*
X935400D01*
X936000D02*
X938000D01*
X938200D02*
X940600D01*
X940900D02*
X941600D01*
X942500D02*
X943400D01*
X944200D02*
X945000D01*
X945200D02*
X947500D01*
X948000D02*
X950000D01*
X950300D02*
X952400D01*
X932600Y830900D02*
X930200D01*
X933300D02*
X935500D01*
X936000D02*
X937900D01*
X938100D02*
X940600D01*
X940900D02*
X941700D01*
X942400D02*
X943400D01*
X944100D02*
X944900D01*
X945300D02*
X947500D01*
X948000D02*
X949900D01*
X950300D02*
X952500D01*
X931400Y830800D02*
X930200D01*
X931500D02*
X932700D01*
X933400D02*
X933900D01*
X934600D02*
X935500D01*
X936000D02*
X937200D01*
X937300D02*
X937800D01*
X938100D02*
X939200D01*
X939400D02*
X940600D01*
X940900D02*
X941700D01*
X942400D02*
X943400D01*
X944100D02*
X944900D01*
X945400D02*
X945900D01*
X946600D02*
X947500D01*
X948000D02*
X949200D01*
X949300D02*
X949800D01*
X950200D02*
X951100D01*
X951600D02*
X952600D01*
X931100Y830700D02*
X930200D01*
X931800D02*
X932700D01*
X933500D02*
X933800D01*
X934700D02*
X935500D01*
X936000D02*
X936900D01*
X938100D02*
X939000D01*
X939700D02*
X940600D01*
X941000D02*
X941700D01*
X942300D02*
X943400D01*
X944100D02*
X944900D01*
X945600D02*
X945800D01*
X946800D02*
X947500D01*
X948000D02*
X949000D01*
X950100D02*
X951000D01*
X951700D02*
X952600D01*
X931000Y830600D02*
X930200D01*
X931900D02*
X932700D01*
X934800D02*
X935500D01*
X936000D02*
X936900D01*
X938100D02*
X938900D01*
X939700D02*
X940600D01*
X941000D02*
X941800D01*
X942300D02*
X943500D01*
X944100D02*
X944800D01*
X946800D02*
X947500D01*
X948000D02*
X948900D01*
X950100D02*
X950900D01*
X951800D02*
X952600D01*
X931000Y830500D02*
X930200D01*
X931900D02*
X932700D01*
X934800D02*
X935500D01*
X936000D02*
X936800D01*
X938100D02*
X938900D01*
X939700D02*
X940600D01*
X941000D02*
X941800D01*
X942300D02*
X943500D01*
X944000D02*
X944800D01*
X946800D02*
X947500D01*
X948000D02*
X948800D01*
X950100D02*
X950900D01*
X951800D02*
X952700D01*
X930900Y830400D02*
X930200D01*
X932000D02*
X932700D01*
X934800D02*
X935500D01*
X936000D02*
X936800D01*
X938000D02*
X938800D01*
X939800D02*
X940600D01*
X941100D02*
X941800D01*
X942300D02*
X943600D01*
X944000D02*
X944800D01*
X946800D02*
X947500D01*
X948000D02*
X948800D01*
X950100D02*
X950800D01*
X951900D02*
X952700D01*
X930900Y830300D02*
X930200D01*
X932000D02*
X932700D01*
X933700D02*
X935500D01*
X936000D02*
X936800D01*
X938000D02*
X938800D01*
X939800D02*
X940600D01*
X941100D02*
X941800D01*
X942200D02*
X943600D01*
X944000D02*
X944700D01*
X945800D02*
X947500D01*
X948000D02*
X948800D01*
X950100D02*
X952700D01*
X930900Y830200D02*
X930200D01*
X932000D02*
X932700D01*
X933500D02*
X935500D01*
X936000D02*
X936800D01*
X938000D02*
X938800D01*
X939800D02*
X940600D01*
X941100D02*
X941900D01*
X942200D02*
X943600D01*
X943900D02*
X944700D01*
X945500D02*
X947500D01*
X948000D02*
X948800D01*
X950000D02*
X952700D01*
X930900Y830100D02*
X930200D01*
X932000D02*
X932700D01*
X933300D02*
X935500D01*
X936000D02*
X936800D01*
X938000D02*
X938800D01*
X939800D02*
X940600D01*
X941100D02*
X941900D01*
X942200D02*
X942800D01*
X943000D02*
X943700D01*
X943900D02*
X944700D01*
X945300D02*
X947500D01*
X948000D02*
X948800D01*
X950000D02*
X952700D01*
X930900Y830000D02*
X930200D01*
X932000D02*
X932700D01*
X933200D02*
X935500D01*
X936000D02*
X936800D01*
X938000D02*
X938800D01*
X939800D02*
X940600D01*
X941200D02*
X941900D01*
X942100D02*
X942800D01*
X943000D02*
X943700D01*
X943900D02*
X944600D01*
X945200D02*
X947500D01*
X948000D02*
X948800D01*
X950000D02*
X952700D01*
X930900Y829900D02*
X930200D01*
X932000D02*
X932700D01*
X933200D02*
X935500D01*
X936000D02*
X936800D01*
X938000D02*
X938800D01*
X939800D02*
X940600D01*
X941200D02*
X942000D01*
X942100D02*
X942800D01*
X943000D02*
X943700D01*
X943900D02*
X944600D01*
X945200D02*
X947500D01*
X948000D02*
X948800D01*
X950000D02*
X952700D01*
X930900Y829800D02*
X930200D01*
X932000D02*
X932700D01*
X933100D02*
X935500D01*
X936000D02*
X936800D01*
X938000D02*
X938800D01*
X939800D02*
X940600D01*
X941200D02*
X942000D01*
X942100D02*
X942800D01*
X943100D02*
X943800D01*
X943900D02*
X944600D01*
X945100D02*
X947500D01*
X948000D02*
X948800D01*
X950000D02*
X952700D01*
X930900Y829700D02*
X930200D01*
X932000D02*
X932700D01*
X933000D02*
X935500D01*
X936000D02*
X936800D01*
X938000D02*
X938800D01*
X939800D02*
X940600D01*
X941300D02*
X942000D01*
X942100D02*
X942700D01*
X943100D02*
X944500D01*
X945000D02*
X947500D01*
X948000D02*
X948800D01*
X950000D02*
X952700D01*
X930900Y829600D02*
X930200D01*
X932000D02*
X932700D01*
X933000D02*
X933800D01*
X934800D02*
X935500D01*
X936000D02*
X936800D01*
X938000D02*
X938800D01*
X939800D02*
X940600D01*
X941300D02*
X942700D01*
X943100D02*
X944500D01*
X945000D02*
X945800D01*
X946800D02*
X947500D01*
X948000D02*
X948800D01*
X950100D02*
X950800D01*
X930900Y829500D02*
X930200D01*
X932000D02*
X932700D01*
X933000D02*
X933700D01*
X934800D02*
X935500D01*
X936000D02*
X936800D01*
X938100D02*
X938800D01*
X939800D02*
X940600D01*
X941400D02*
X942700D01*
X943200D02*
X944500D01*
X945000D02*
X945700D01*
X946800D02*
X947500D01*
X948000D02*
X948800D01*
X950100D02*
X950900D01*
X930900Y829400D02*
X930200D01*
X932000D02*
X932700D01*
X933000D02*
X933700D01*
X934700D02*
X935500D01*
X936000D02*
X936800D01*
X938100D02*
X938900D01*
X939700D02*
X940600D01*
X941400D02*
X942700D01*
X943200D02*
X944500D01*
X945000D02*
X945700D01*
X946800D02*
X947500D01*
X948000D02*
X948800D01*
X950100D02*
X950900D01*
X930900Y829300D02*
X930200D01*
X932000D02*
X932700D01*
X933000D02*
X933700D01*
X934700D02*
X935500D01*
X936000D02*
X936800D01*
X938100D02*
X938900D01*
X939700D02*
X940600D01*
X941400D02*
X942600D01*
X943200D02*
X944400D01*
X945000D02*
X945700D01*
X946800D02*
X947500D01*
X948000D02*
X948800D01*
X950100D02*
X950900D01*
X951900D02*
X952200D01*
X930900Y829200D02*
X930200D01*
X932000D02*
X932700D01*
X933000D02*
X933800D01*
X934700D02*
X935500D01*
X936000D02*
X936800D01*
X938100D02*
X939000D01*
X939600D02*
X940600D01*
X941500D02*
X942600D01*
X943300D02*
X944400D01*
X945000D02*
X945800D01*
X946700D02*
X947500D01*
X948000D02*
X948800D01*
X950200D02*
X951000D01*
X951800D02*
X952300D01*
X930900Y829100D02*
X930200D01*
X932000D02*
X932700D01*
X933000D02*
X935500D01*
X936000D02*
X936800D01*
X938100D02*
X940600D01*
X941500D02*
X942600D01*
X943300D02*
X944400D01*
X945000D02*
X947500D01*
X948000D02*
X948800D01*
X950200D02*
X952400D01*
X930900Y829000D02*
X930200D01*
X932000D02*
X932700D01*
X933100D02*
X935500D01*
X936000D02*
X936800D01*
X938100D02*
X940600D01*
X941500D02*
X942500D01*
X943300D02*
X944300D01*
X945000D02*
X947500D01*
X948000D02*
X948800D01*
X950300D02*
X952600D01*
X930900Y828900D02*
X930200D01*
X932000D02*
X932700D01*
X933100D02*
X935500D01*
X936000D02*
X936800D01*
X938200D02*
X940600D01*
X941500D02*
X942500D01*
X943300D02*
X944300D01*
X945100D02*
X947500D01*
X948000D02*
X948800D01*
X950300D02*
X952600D01*
X930900Y828800D02*
X930200D01*
X932000D02*
X932700D01*
X933200D02*
X935500D01*
X936000D02*
X936800D01*
X938300D02*
X940600D01*
X941600D02*
X942500D01*
X943300D02*
X944300D01*
X945100D02*
X947500D01*
X948000D02*
X948800D01*
X950400D02*
X952500D01*
X930900Y828700D02*
X930200D01*
X932000D02*
X932700D01*
X933200D02*
X935500D01*
X936000D02*
X936800D01*
X938400D02*
X940600D01*
X941600D02*
X942400D01*
X943400D02*
X944200D01*
X945200D02*
X947500D01*
X948000D02*
X948800D01*
X950500D02*
X952400D01*
X930900Y828600D02*
X930200D01*
X932000D02*
X932700D01*
X933300D02*
X935500D01*
X936000D02*
X936800D01*
X938400D02*
X940600D01*
X941600D02*
X942400D01*
X943400D02*
X944200D01*
X945400D02*
X947500D01*
X948000D02*
X948800D01*
X950600D02*
X952300D01*
X930900Y828500D02*
X930200D01*
X932000D02*
X932700D01*
X933500D02*
X934700D01*
X934800D02*
X935500D01*
X936000D02*
X936800D01*
X938600D02*
X939600D01*
X939800D02*
X940600D01*
X941700D02*
X942400D01*
X943400D02*
X944200D01*
X945500D02*
X946700D01*
X946800D02*
X947500D01*
X948000D02*
X948800D01*
X950800D02*
X952100D01*
X949200Y852200D02*
X933900D01*
D12*
X937800Y824999D02*
Y821667D01*
X938467Y821000D01*
X939799D01*
X940466Y821667D01*
Y824999D01*
X941799Y821000D02*
X943132D01*
X942465D01*
Y824999D01*
X942466D01*
X942465D02*
X941799Y824332D01*
X1037800Y755499D02*
Y751500D01*
Y755499D02*
X1039799D01*
X1040466Y754832D01*
Y753499D01*
X1039799Y752833D01*
X1037800D01*
X1039133D02*
X1040466Y751500D01*
X1041799D02*
X1043132D01*
X1042465D01*
Y755499D01*
X1042466D01*
X1042465D02*
X1041799Y754832D01*
X1045131Y752166D02*
X1045797Y751500D01*
X1047130D01*
X1047797Y752166D01*
Y754832D01*
X1047130Y755499D01*
X1045797D01*
X1045131Y754832D01*
Y754166D01*
X1045797Y753499D01*
X1047797D01*
X1037800Y779500D02*
Y783499D01*
X1039799D01*
X1040466Y782832D01*
Y781499D01*
X1039799Y780833D01*
X1037800D01*
X1039133D02*
X1040466Y779500D01*
X1041799D02*
X1043132D01*
X1042465D01*
Y783499D01*
X1042466D01*
X1042465D02*
X1041799Y782832D01*
X1045131D02*
X1045797Y783499D01*
X1047130D01*
X1047797Y782832D01*
Y782166D01*
X1047130Y781499D01*
X1047797Y780833D01*
Y780166D01*
X1047130Y779500D01*
X1045797D01*
X1045131Y780166D01*
Y780833D01*
X1045797Y781499D01*
X1045131Y782166D01*
Y782832D01*
X1045797Y781499D02*
X1047130D01*
X923300Y782499D02*
Y778500D01*
Y782499D02*
X925299D01*
X925966Y781832D01*
Y780499D01*
X925299Y779833D01*
X923300D01*
X924633D02*
X925966Y778500D01*
X927299D02*
X928632D01*
X927965D01*
Y782499D01*
X927966D01*
X927965D02*
X927299Y781832D01*
X930631Y782499D02*
X933297D01*
Y781832D01*
X930631Y779166D01*
Y778500D01*
X923300Y777999D02*
Y774000D01*
Y777999D02*
X925299D01*
X925966Y777332D01*
Y775999D01*
X925299Y775333D01*
X923300D01*
X924633D02*
X925966Y774000D01*
X927299D02*
X928632D01*
X927965D01*
Y777999D01*
X927966D01*
X927965D02*
X927299Y777332D01*
X931964D02*
X933297Y777999D01*
X931964Y777332D02*
X930631Y775999D01*
Y774666D01*
X931297Y774000D01*
X932630D01*
X933297Y774666D01*
Y775333D01*
X932630Y775999D01*
X930631D01*
X1037800Y805500D02*
Y809499D01*
X1039799D01*
X1040466Y808832D01*
Y807499D01*
X1039799Y806833D01*
X1037800D01*
X1039133D02*
X1040466Y805500D01*
X1041799D02*
X1043132D01*
X1042465D01*
Y809499D01*
X1042466D01*
X1042465D02*
X1041799Y808832D01*
X1045131Y809499D02*
X1047797D01*
X1045131D02*
Y807499D01*
X1046464Y808166D01*
X1047130D01*
X1047797Y807499D01*
Y806166D01*
X1047130Y805500D01*
X1045797D01*
X1045131Y806166D01*
X1036300Y833500D02*
Y837499D01*
Y833500D02*
X1038966D01*
X1040299Y837499D02*
X1042964D01*
X1040299D02*
Y833500D01*
X1042964D01*
X1041632Y835499D02*
X1040299D01*
X1044297Y833500D02*
Y837499D01*
Y833500D02*
X1046297D01*
X1046963Y834167D01*
Y836832D01*
X1046297Y837499D01*
X1044297D01*
X1048296Y833500D02*
X1049629D01*
X1048963D01*
Y837499D01*
X1048964D01*
X1048963D02*
X1048296Y836832D01*
X1037800Y814499D02*
Y810500D01*
Y814499D02*
X1039799D01*
X1040466Y813832D01*
Y812499D01*
X1039799Y811833D01*
X1037800D01*
X1039133D02*
X1040466Y810500D01*
X1041799D02*
X1043132D01*
X1042465D01*
Y814499D01*
X1042466D01*
X1042465D02*
X1041799Y813832D01*
X1037800Y777999D02*
Y774000D01*
Y777999D02*
X1039799D01*
X1040466Y777332D01*
Y775999D01*
X1039799Y775333D01*
X1037800D01*
X1039133D02*
X1040466Y774000D01*
X1041799Y777999D02*
X1044464D01*
Y777332D01*
X1041799Y774666D01*
Y774000D01*
X1037800Y815500D02*
Y819499D01*
X1039799D01*
X1040466Y818832D01*
Y817499D01*
X1039799Y816833D01*
X1037800D01*
X1039133D02*
X1040466Y815500D01*
X1041799Y818832D02*
X1042465Y819499D01*
X1043798D01*
X1044464Y818832D01*
Y818166D01*
X1043798Y817499D01*
X1044464Y816833D01*
Y816166D01*
X1043798Y815500D01*
X1042465D01*
X1041799Y816166D01*
Y816833D01*
X1042465Y817499D01*
X1041799Y818166D01*
Y818832D01*
X1042465Y817499D02*
X1043798D01*
X923300Y791499D02*
Y787500D01*
Y791499D02*
X925299D01*
X925966Y790832D01*
Y789499D01*
X925299Y788833D01*
X923300D01*
X924633D02*
X925966Y787500D01*
X927299Y788166D02*
X927965Y787500D01*
X929298D01*
X929964Y788166D01*
Y790832D01*
X929298Y791499D01*
X927965D01*
X927299Y790832D01*
Y790166D01*
X927965Y789499D01*
X929964D01*
X923300Y804000D02*
Y807999D01*
X925299D01*
X925966Y807332D01*
Y805999D01*
X925299Y805333D01*
X923300D01*
X924633D02*
X925966Y804000D01*
X927299D02*
X928632D01*
X927965D01*
Y807999D01*
X927966D01*
X927965D02*
X927299Y807332D01*
X930631D02*
X931297Y807999D01*
X932630D01*
X933297Y807332D01*
Y804666D01*
X932630Y804000D01*
X931297D01*
X930631Y804666D01*
Y807332D01*
X992300Y828167D02*
Y831499D01*
Y828167D02*
X992967Y827500D01*
X994299D01*
X994966Y828167D01*
Y831499D01*
X998298D02*
Y827500D01*
X996299Y829499D02*
X998298Y831499D01*
X998964Y829499D02*
X996299D01*
X986466Y834167D02*
Y836832D01*
X985799Y837499D01*
X984467D01*
X983800Y836832D01*
Y834167D01*
X984467Y833500D01*
X985799D01*
X986466D02*
X985133Y834833D01*
X985799Y833500D02*
X986466Y834167D01*
X987799Y833500D02*
X989132D01*
X988465D01*
Y837499D01*
X988466D01*
X988465D02*
X987799Y836832D01*
X1101133Y844499D02*
X1102466D01*
X1101799D02*
X1101133D01*
X1101799D02*
Y841167D01*
X1101133Y840500D01*
X1100466D01*
X1099800Y841167D01*
X1103799Y840500D02*
X1105132D01*
X1104465D01*
Y844499D01*
X1104466D01*
X1104465D02*
X1103799Y843832D01*
X930966Y736999D02*
X929633D01*
X930299D01*
Y733666D01*
X929633Y733000D01*
X928967D01*
X928300Y733666D01*
X932299Y733000D02*
X934964D01*
X932299D02*
X934964Y735666D01*
Y736332D01*
X934298Y736999D01*
X932965D01*
X932299Y736332D01*
X990300Y736999D02*
Y733000D01*
Y736999D02*
X991633D01*
X992204Y736809D01*
X992585Y736428D01*
X992776Y736047D01*
X992966Y735476D01*
Y734524D01*
X992776Y733952D01*
X992585Y733571D01*
X992204Y733190D01*
X991633Y733000D01*
X990300D01*
X993861Y734524D02*
X996146D01*
Y734904D01*
X995956Y735285D01*
X995766Y735476D01*
X995385Y735666D01*
X994813D01*
X994433Y735476D01*
X994052Y735095D01*
X993861Y734524D01*
Y734143D01*
X994052Y733571D01*
X994433Y733190D01*
X994813Y733000D01*
X995385D01*
X995766Y733190D01*
X996146Y733571D01*
X999098Y735095D02*
X998908Y735476D01*
X998336Y735666D01*
X997765D01*
X997194Y735476D01*
X997003Y735095D01*
X997194Y734714D01*
X997575Y734524D01*
X998527Y734333D01*
X998908Y734143D01*
X999098Y733762D01*
Y733571D01*
X998908Y733190D01*
X998336Y733000D01*
X997765D01*
X997194Y733190D01*
X997003Y733571D01*
X1000317Y736999D02*
X1000507Y736809D01*
X1000698Y736999D01*
X1000507Y737190D01*
X1000317Y736999D01*
X1000507Y735666D02*
Y733000D01*
X1003688Y732619D02*
Y735666D01*
Y732619D02*
X1003497Y732048D01*
X1003307Y731857D01*
X1002926Y731667D01*
X1002355D01*
X1001974Y731857D01*
X1003688Y735095D02*
X1003307Y735476D01*
X1002926Y735666D01*
X1002355D01*
X1001974Y735476D01*
X1001593Y735095D01*
X1001402Y734524D01*
Y734143D01*
X1001593Y733571D01*
X1001974Y733190D01*
X1002355Y733000D01*
X1002926D01*
X1003307Y733190D01*
X1003688Y733571D01*
X1004754Y733000D02*
Y735666D01*
X1005325Y735476D02*
X1004754Y734904D01*
X1005325Y735476D02*
X1005706Y735666D01*
X1006278D01*
X1006658Y735476D01*
X1006849Y734904D01*
Y733000D01*
X1007896Y734524D02*
X1010181D01*
Y734904D01*
X1009991Y735285D01*
X1009801Y735476D01*
X1009420Y735666D01*
X1008848D01*
X1008467Y735476D01*
X1008087Y735095D01*
X1007896Y734524D01*
Y734143D01*
X1008087Y733571D01*
X1008467Y733190D01*
X1008848Y733000D01*
X1009420D01*
X1009801Y733190D01*
X1010181Y733571D01*
X1013324Y733000D02*
Y736999D01*
X1012943Y735476D02*
X1013324Y735095D01*
X1012943Y735476D02*
X1012562Y735666D01*
X1011991D01*
X1011610Y735476D01*
X1011229Y735095D01*
X1011038Y734524D01*
Y734143D01*
X1011229Y733571D01*
X1011610Y733190D01*
X1011991Y733000D01*
X1012562D01*
X1012943Y733190D01*
X1013324Y733571D01*
X1017532Y733000D02*
Y736999D01*
X1017913Y735476D02*
X1017532Y735095D01*
X1017913Y735476D02*
X1018294Y735666D01*
X1018865D01*
X1019246Y735476D01*
X1019627Y735095D01*
X1019817Y734524D01*
Y734143D01*
X1019627Y733571D01*
X1019246Y733190D01*
X1018865Y733000D01*
X1018294D01*
X1017913Y733190D01*
X1017532Y733571D01*
X1020865Y735666D02*
X1022008Y733000D01*
X1023150Y735666D01*
X1022008Y733000D02*
X1021627Y732238D01*
X1021246Y731857D01*
X1020865Y731667D01*
X1020674D01*
X1026959Y733000D02*
Y736999D01*
X1029625Y733000D01*
Y736999D01*
X1030920Y733381D02*
X1030729Y733190D01*
X1030920Y733000D01*
X1031110Y733190D01*
X1030920Y733381D01*
X1031986Y733000D02*
Y736999D01*
X1034462D01*
X1033510Y735095D02*
X1031986D01*
X1034919Y733190D02*
X1035109Y733381D01*
X1034919Y733190D02*
X1035109Y733000D01*
X1035300Y733190D01*
X1035109Y733381D01*
X1060300Y852000D02*
Y855999D01*
X1061633D01*
X1062204Y855809D01*
X1062585Y855428D01*
X1062776Y855047D01*
X1062966Y854476D01*
Y853524D01*
X1062776Y852952D01*
X1062585Y852571D01*
X1062204Y852190D01*
X1061633Y852000D01*
X1060300D01*
X1063861Y855999D02*
X1066337D01*
X1063861D02*
Y852000D01*
X1066337D01*
X1065385Y854095D02*
X1063861D01*
X1069669Y855428D02*
X1069860Y855047D01*
X1069669Y855428D02*
X1069288Y855809D01*
X1068908Y855999D01*
X1068146D01*
X1067765Y855809D01*
X1067384Y855428D01*
X1067194Y855047D01*
X1067003Y854476D01*
Y853524D01*
X1067194Y852952D01*
X1067384Y852571D01*
X1067765Y852190D01*
X1068146Y852000D01*
X1068908D01*
X1069288Y852190D01*
X1069669Y852571D01*
X1069860Y852952D01*
X1074316Y855047D02*
Y855237D01*
X1074506Y855618D01*
X1074697Y855809D01*
X1075078Y855999D01*
X1075840D01*
X1076220Y855809D01*
X1076411Y855618D01*
X1076601Y855237D01*
Y854856D01*
X1076411Y854476D01*
X1076030Y853904D01*
X1074126Y852000D01*
X1076792D01*
X1078258Y855809D02*
X1078829Y855999D01*
X1078258Y855809D02*
X1077877Y855237D01*
X1077687Y854285D01*
Y853714D01*
X1077877Y852762D01*
X1078258Y852190D01*
X1078829Y852000D01*
X1079210D01*
X1079782Y852190D01*
X1080162Y852762D01*
X1080353Y853714D01*
Y854285D01*
X1080162Y855237D01*
X1079782Y855809D01*
X1079210Y855999D01*
X1078829D01*
X1081248Y855237D02*
X1081629Y855428D01*
X1082200Y855999D01*
Y852000D01*
X1086466Y855428D02*
X1086275Y855809D01*
X1085704Y855999D01*
X1085323D01*
X1084752Y855809D01*
X1084371Y855237D01*
X1084181Y854285D01*
Y853333D01*
X1084371Y852571D01*
X1084752Y852190D01*
X1085323Y852000D01*
X1085514D01*
X1086085Y852190D01*
X1086466Y852571D01*
X1086656Y853143D01*
Y853333D01*
X1086466Y853904D01*
X1086085Y854285D01*
X1085514Y854476D01*
X1085323D01*
X1084752Y854285D01*
X1084371Y853904D01*
X1084181Y853333D01*
X942609Y790215D02*
X942228Y789834D01*
X942609Y790215D02*
X942799Y790786D01*
Y791548D01*
X942609Y792119D01*
X942228Y792500D01*
X941847D01*
X941466Y792310D01*
X941276Y792119D01*
X941085Y791738D01*
X940704Y790596D01*
X940514Y790215D01*
X940324Y790024D01*
X939943Y789834D01*
X939371D01*
X938990Y790215D01*
X938800Y790786D01*
Y791548D01*
X938990Y792119D01*
X939371Y792500D01*
X940704Y788939D02*
Y787225D01*
X940895Y786654D01*
X941085Y786463D01*
X941466Y786273D01*
X942037D01*
X942418Y786463D01*
X942609Y786654D01*
X942799Y787225D01*
Y788939D01*
X938800D01*
Y785378D02*
X942799D01*
X942609Y783968D02*
X942799Y783397D01*
X942609Y783968D02*
X942037Y784349D01*
X941085Y784540D01*
X940514D01*
X939562Y784349D01*
X938990Y783968D01*
X938800Y783397D01*
Y783016D01*
X938990Y782445D01*
X939562Y782064D01*
X940514Y781874D01*
X941085D01*
X942037Y782064D01*
X942609Y782445D01*
X942799Y783016D01*
Y783397D01*
X942609Y756715D02*
X942228Y756334D01*
X942609Y756715D02*
X942799Y757286D01*
Y758048D01*
X942609Y758619D01*
X942228Y759000D01*
X941847D01*
X941466Y758810D01*
X941276Y758619D01*
X941085Y758238D01*
X940704Y757096D01*
X940514Y756715D01*
X940324Y756524D01*
X939943Y756334D01*
X939371D01*
X938990Y756715D01*
X938800Y757286D01*
Y758048D01*
X938990Y758619D01*
X939371Y759000D01*
X940704Y755439D02*
Y753725D01*
X940895Y753154D01*
X941085Y752963D01*
X941466Y752773D01*
X942037D01*
X942418Y752963D01*
X942609Y753154D01*
X942799Y753725D01*
Y755439D01*
X938800D01*
Y751878D02*
X942799D01*
X942037Y751040D02*
X942228Y750659D01*
X942799Y750088D01*
X938800D01*
X1041300Y852000D02*
Y855999D01*
X1043014D01*
X1043585Y855809D01*
X1043776Y855618D01*
X1043966Y855237D01*
Y854856D01*
X1043776Y854476D01*
X1043585Y854285D01*
X1043014Y854095D01*
X1041300D01*
X1042633D02*
X1043966Y852000D01*
X1044861Y853524D02*
X1047146D01*
Y853904D01*
X1046956Y854285D01*
X1046766Y854476D01*
X1046385Y854666D01*
X1045813D01*
X1045433Y854476D01*
X1045052Y854095D01*
X1044861Y853524D01*
Y853143D01*
X1045052Y852571D01*
X1045433Y852190D01*
X1045813Y852000D01*
X1046385D01*
X1046766Y852190D01*
X1047146Y852571D01*
X1049146Y852000D02*
X1048003Y854666D01*
X1050288D02*
X1049146Y852000D01*
X1050936Y852190D02*
X1051126Y852381D01*
X1050936Y852190D02*
X1051126Y852000D01*
X1051317Y852190D01*
X1051126Y852381D01*
X1055240Y852000D02*
X1053716Y855999D01*
X1052193Y852000D01*
X1052764Y853333D02*
X1054669D01*
D14*
X988800Y805000D02*
Y760000D01*
X946300Y775057D02*
X943800Y777557D01*
X946300Y775057D02*
X943800Y772557D01*
Y777557D01*
X946300Y804500D02*
X943800Y807000D01*
X946300Y804500D02*
X943800Y802000D01*
Y807000D01*
Y825000D02*
Y740000D01*
X1033800D02*
Y825000D01*
X943800D01*
Y740000D02*
X1033800D01*
X991800Y782500D02*
X985800D01*
X988800Y779000D02*
Y786000D01*
X979085Y833286D02*
X960515D01*
X1044800Y762500D02*
X1048300D01*
Y757500D01*
X1044800D01*
X1041300D02*
X1037800D01*
Y762500D01*
X1041300D01*
X1044800Y772500D02*
X1048300D01*
Y767500D01*
X1044800D01*
X1041300D02*
X1037800D01*
Y772500D01*
X1041300D01*
X939800D02*
X936300D01*
X939800D02*
Y767500D01*
X936300D01*
X932800D02*
X929300D01*
Y772500D01*
X932800D01*
X936300Y767500D02*
X939800D01*
Y762500D01*
X936300D01*
X932800D02*
X929300D01*
Y767500D01*
X932800D01*
X1044800Y792500D02*
X1048300D01*
Y787500D01*
X1044800D01*
X1041300D02*
X1037800D01*
Y792500D01*
X1041300D01*
X1037300Y842000D02*
X1036300Y843000D01*
Y848000D01*
X1037300Y849000D01*
X1046300D02*
X1052800D01*
Y842000D01*
X1046300D01*
X1042800Y849000D02*
X1037300D01*
Y842000D02*
X1042800D01*
X921300Y745500D02*
X872800D01*
Y765500D02*
X921300D01*
Y758000D01*
Y753000D02*
Y745500D01*
X872800D02*
Y765500D01*
X926800Y759000D02*
Y739000D01*
X936800D01*
Y759000D01*
X926800D01*
Y749000D02*
X936800D01*
X955800Y852000D02*
Y858499D01*
X959823D01*
X958276Y855404D02*
X955800D01*
X960566Y858499D02*
Y852000D01*
X964279D01*
X969942D02*
X967467Y858499D01*
X964991Y852000D01*
X965919Y854166D02*
X969014D01*
X975172Y858189D02*
X975791Y857570D01*
X975172Y858189D02*
X974244Y858499D01*
X973006D01*
X972078Y858189D01*
X971458Y857570D01*
Y856951D01*
X971768Y856332D01*
X972078Y856023D01*
X972696Y855714D01*
X974553Y855095D01*
X975172Y854785D01*
X975482Y854476D01*
X975791Y853857D01*
Y852928D01*
X975172Y852309D01*
X974244Y852000D01*
X973006D01*
X972078Y852309D01*
X971458Y852928D01*
X977245Y852000D02*
Y858499D01*
X981578D02*
Y852000D01*
Y855404D02*
X977245D01*
X988479Y858499D02*
Y852000D01*
X989840D02*
Y858499D01*
X994173Y852000D01*
Y858499D01*
X999681Y858189D02*
X1000300Y857570D01*
X999681Y858189D02*
X998753Y858499D01*
X997515D01*
X996586Y858189D01*
X995968Y857570D01*
Y856951D01*
X996277Y856332D01*
X996586Y856023D01*
X997205Y855714D01*
X999062Y855095D01*
X999681Y854785D01*
X999991Y854476D01*
X1000300Y853857D01*
Y852928D01*
X999681Y852309D01*
X998753Y852000D01*
X997515D01*
X996586Y852309D01*
X995968Y852928D01*
X1001754Y852000D02*
Y858499D01*
X1003116D02*
Y852000D01*
Y858499D02*
X1005282D01*
X1006211Y858189D01*
X1006830Y857570D01*
X1007139Y856951D01*
X1007448Y856023D01*
Y854476D01*
X1007139Y853547D01*
X1006830Y852928D01*
X1006211Y852309D01*
X1005282Y852000D01*
X1003116D01*
X1008903Y858499D02*
X1012926D01*
X1008903D02*
Y852000D01*
X1012926D01*
X1011379Y855404D02*
X1008903D01*
X1014009Y858499D02*
Y852000D01*
Y858499D02*
X1016794D01*
X1017722Y858189D01*
X1018032Y857880D01*
X1018341Y857261D01*
Y856642D01*
X1018032Y856023D01*
X1017722Y855714D01*
X1016794Y855404D01*
X1014009D01*
X1016175D02*
X1018341Y852000D01*
X1029234Y857570D02*
X1029544Y856951D01*
X1029234Y857570D02*
X1028615Y858189D01*
X1027996Y858499D01*
X1026759D01*
X1026140Y858189D01*
X1025521Y857570D01*
X1025211Y856951D01*
X1024902Y856023D01*
Y854476D01*
X1025211Y853547D01*
X1025521Y852928D01*
X1026140Y852309D01*
X1026759Y852000D01*
X1027996D01*
X1028615Y852309D01*
X1029234Y852928D01*
X1029544Y853547D01*
Y854476D01*
X1027996D01*
X1031339Y856951D02*
Y857261D01*
X1031648Y857880D01*
X1031958Y858189D01*
X1032576Y858499D01*
X1033814D01*
X1034433Y858189D01*
X1034743Y857880D01*
X1035052Y857261D01*
Y856642D01*
X1034743Y856023D01*
X1034124Y855095D01*
X1031029Y852000D01*
X1035362D01*
X1032800Y818000D02*
X1032791Y817670D01*
X1032764Y817340D01*
X1032718Y817012D01*
X1032655Y816688D01*
X1032574Y816367D01*
X1032475Y816052D01*
X1032359Y815742D01*
X1032226Y815439D01*
X1032077Y815144D01*
X1031912Y814858D01*
X1031731Y814581D01*
X1031535Y814315D01*
X1031325Y814060D01*
X1031101Y813816D01*
X1030864Y813586D01*
X1030614Y813368D01*
X1030353Y813165D01*
X1030082Y812977D01*
X1029800Y812804D01*
X1029509Y812646D01*
X1029210Y812505D01*
X1028904Y812381D01*
X1028591Y812274D01*
X1028273Y812184D01*
X1027950Y812111D01*
X1027624Y812057D01*
X1027296Y812020D01*
X1026965Y812002D01*
X1026635D01*
X1026304Y812020D01*
X1025976Y812057D01*
X1025650Y812111D01*
X1025327Y812184D01*
X1025009Y812274D01*
X1024696Y812381D01*
X1024390Y812505D01*
X1024091Y812646D01*
X1023800Y812804D01*
X1023518Y812977D01*
X1023247Y813165D01*
X1022986Y813368D01*
X1022736Y813586D01*
X1022499Y813816D01*
X1022275Y814060D01*
X1022065Y814315D01*
X1021869Y814581D01*
X1021688Y814858D01*
X1021523Y815144D01*
X1021374Y815439D01*
X1021241Y815742D01*
X1021125Y816052D01*
X1021026Y816367D01*
X1020945Y816688D01*
X1020882Y817012D01*
X1020836Y817340D01*
X1020809Y817670D01*
X1020800Y818000D01*
X1020809Y818330D01*
X1020836Y818660D01*
X1020882Y818988D01*
X1020945Y819312D01*
X1021026Y819633D01*
X1021125Y819948D01*
X1021241Y820258D01*
X1021374Y820561D01*
X1021523Y820856D01*
X1021688Y821142D01*
X1021869Y821419D01*
X1022065Y821685D01*
X1022275Y821941D01*
X1022499Y822184D01*
X1022736Y822414D01*
X1022986Y822632D01*
X1023247Y822835D01*
X1023518Y823023D01*
X1023800Y823196D01*
X1024091Y823354D01*
X1024390Y823495D01*
X1024696Y823619D01*
X1025009Y823726D01*
X1025327Y823816D01*
X1025650Y823889D01*
X1025976Y823943D01*
X1026304Y823980D01*
X1026635Y823998D01*
X1026965D01*
X1027296Y823980D01*
X1027624Y823943D01*
X1027950Y823889D01*
X1028273Y823816D01*
X1028591Y823726D01*
X1028904Y823619D01*
X1029210Y823495D01*
X1029509Y823354D01*
X1029800Y823196D01*
X1030082Y823023D01*
X1030353Y822835D01*
X1030614Y822632D01*
X1030864Y822414D01*
X1031101Y822184D01*
X1031325Y821941D01*
X1031535Y821685D01*
X1031731Y821419D01*
X1031912Y821142D01*
X1032077Y820856D01*
X1032226Y820561D01*
X1032359Y820258D01*
X1032475Y819948D01*
X1032574Y819633D01*
X1032655Y819312D01*
X1032718Y818988D01*
X1032764Y818660D01*
X1032791Y818330D01*
X1032800Y818000D01*
X993800Y805000D02*
X993789Y804662D01*
X993754Y804326D01*
X993698Y803994D01*
X993618Y803665D01*
X993517Y803343D01*
X993395Y803028D01*
X993251Y802722D01*
X993087Y802427D01*
X992904Y802144D01*
X992702Y801873D01*
X992482Y801617D01*
X992245Y801376D01*
X991992Y801152D01*
X991725Y800945D01*
X991445Y800757D01*
X991152Y800588D01*
X990849Y800439D01*
X990536Y800311D01*
X990216Y800205D01*
X989889Y800120D01*
X989557Y800058D01*
X989222Y800018D01*
X988884Y800001D01*
X988547Y800006D01*
X988210Y800035D01*
X987876Y800086D01*
X987547Y800160D01*
X987223Y800255D01*
X986906Y800373D01*
X986598Y800511D01*
X986300Y800670D01*
X986013Y800848D01*
X985740Y801046D01*
X985480Y801262D01*
X985235Y801494D01*
X985006Y801743D01*
X984795Y802007D01*
X984602Y802284D01*
X984428Y802574D01*
X984274Y802874D01*
X984141Y803184D01*
X984029Y803503D01*
X983939Y803829D01*
X983871Y804160D01*
X983826Y804494D01*
X983803Y804831D01*
Y805169D01*
X983826Y805506D01*
X983871Y805840D01*
X983939Y806171D01*
X984029Y806497D01*
X984141Y806816D01*
X984274Y807126D01*
X984428Y807426D01*
X984602Y807716D01*
X984795Y807993D01*
X985006Y808257D01*
X985235Y808506D01*
X985480Y808738D01*
X985740Y808954D01*
X986013Y809152D01*
X986300Y809330D01*
X986598Y809489D01*
X986906Y809627D01*
X987223Y809745D01*
X987547Y809840D01*
X987876Y809914D01*
X988210Y809965D01*
X988547Y809994D01*
X988884Y809999D01*
X989222Y809982D01*
X989557Y809942D01*
X989889Y809880D01*
X990216Y809795D01*
X990536Y809689D01*
X990849Y809561D01*
X991152Y809412D01*
X991445Y809243D01*
X991725Y809055D01*
X991992Y808848D01*
X992245Y808624D01*
X992482Y808383D01*
X992702Y808127D01*
X992904Y807856D01*
X993087Y807573D01*
X993251Y807278D01*
X993395Y806972D01*
X993517Y806657D01*
X993618Y806335D01*
X993698Y806006D01*
X993754Y805674D01*
X993789Y805338D01*
X993800Y805000D01*
Y760000D02*
X993789Y759662D01*
X993754Y759326D01*
X993698Y758994D01*
X993618Y758665D01*
X993517Y758343D01*
X993395Y758028D01*
X993251Y757722D01*
X993087Y757427D01*
X992904Y757144D01*
X992702Y756873D01*
X992482Y756617D01*
X992245Y756376D01*
X991992Y756152D01*
X991725Y755945D01*
X991445Y755757D01*
X991152Y755588D01*
X990849Y755439D01*
X990536Y755311D01*
X990216Y755205D01*
X989889Y755120D01*
X989557Y755058D01*
X989222Y755018D01*
X988884Y755001D01*
X988547Y755006D01*
X988210Y755035D01*
X987876Y755086D01*
X987547Y755160D01*
X987223Y755255D01*
X986906Y755373D01*
X986598Y755511D01*
X986300Y755670D01*
X986013Y755848D01*
X985740Y756046D01*
X985480Y756262D01*
X985235Y756494D01*
X985006Y756743D01*
X984795Y757007D01*
X984602Y757284D01*
X984428Y757574D01*
X984274Y757874D01*
X984141Y758184D01*
X984029Y758503D01*
X983939Y758829D01*
X983871Y759160D01*
X983826Y759494D01*
X983803Y759831D01*
Y760169D01*
X983826Y760506D01*
X983871Y760840D01*
X983939Y761171D01*
X984029Y761497D01*
X984141Y761816D01*
X984274Y762126D01*
X984428Y762426D01*
X984602Y762716D01*
X984795Y762993D01*
X985006Y763257D01*
X985235Y763506D01*
X985480Y763738D01*
X985740Y763954D01*
X986013Y764152D01*
X986300Y764330D01*
X986598Y764489D01*
X986906Y764627D01*
X987223Y764745D01*
X987547Y764840D01*
X987876Y764914D01*
X988210Y764965D01*
X988547Y764994D01*
X988884Y764999D01*
X989222Y764982D01*
X989557Y764942D01*
X989889Y764880D01*
X990216Y764795D01*
X990536Y764689D01*
X990849Y764561D01*
X991152Y764412D01*
X991445Y764243D01*
X991725Y764055D01*
X991992Y763848D01*
X992245Y763624D01*
X992482Y763383D01*
X992702Y763127D01*
X992904Y762856D01*
X993087Y762573D01*
X993251Y762278D01*
X993395Y761972D01*
X993517Y761657D01*
X993618Y761335D01*
X993698Y761006D01*
X993754Y760674D01*
X993789Y760338D01*
X993800Y760000D01*
X956800Y818000D02*
X956791Y817670D01*
X956764Y817340D01*
X956718Y817012D01*
X956655Y816688D01*
X956574Y816367D01*
X956475Y816052D01*
X956359Y815742D01*
X956226Y815439D01*
X956077Y815144D01*
X955912Y814858D01*
X955731Y814581D01*
X955535Y814315D01*
X955325Y814060D01*
X955101Y813816D01*
X954864Y813586D01*
X954614Y813368D01*
X954353Y813165D01*
X954082Y812977D01*
X953800Y812804D01*
X953509Y812646D01*
X953210Y812505D01*
X952904Y812381D01*
X952591Y812274D01*
X952273Y812184D01*
X951950Y812111D01*
X951624Y812057D01*
X951296Y812020D01*
X950965Y812002D01*
X950635D01*
X950304Y812020D01*
X949976Y812057D01*
X949650Y812111D01*
X949327Y812184D01*
X949009Y812274D01*
X948696Y812381D01*
X948390Y812505D01*
X948091Y812646D01*
X947800Y812804D01*
X947518Y812977D01*
X947247Y813165D01*
X946986Y813368D01*
X946736Y813586D01*
X946499Y813816D01*
X946275Y814060D01*
X946065Y814315D01*
X945869Y814581D01*
X945688Y814858D01*
X945523Y815144D01*
X945374Y815439D01*
X945241Y815742D01*
X945125Y816052D01*
X945026Y816367D01*
X944945Y816688D01*
X944882Y817012D01*
X944836Y817340D01*
X944809Y817670D01*
X944800Y818000D01*
X944809Y818330D01*
X944836Y818660D01*
X944882Y818988D01*
X944945Y819312D01*
X945026Y819633D01*
X945125Y819948D01*
X945241Y820258D01*
X945374Y820561D01*
X945523Y820856D01*
X945688Y821142D01*
X945869Y821419D01*
X946065Y821685D01*
X946275Y821941D01*
X946499Y822184D01*
X946736Y822414D01*
X946986Y822632D01*
X947247Y822835D01*
X947518Y823023D01*
X947800Y823196D01*
X948091Y823354D01*
X948390Y823495D01*
X948696Y823619D01*
X949009Y823726D01*
X949327Y823816D01*
X949650Y823889D01*
X949976Y823943D01*
X950304Y823980D01*
X950635Y823998D01*
X950965D01*
X951296Y823980D01*
X951624Y823943D01*
X951950Y823889D01*
X952273Y823816D01*
X952591Y823726D01*
X952904Y823619D01*
X953210Y823495D01*
X953509Y823354D01*
X953800Y823196D01*
X954082Y823023D01*
X954353Y822835D01*
X954614Y822632D01*
X954864Y822414D01*
X955101Y822184D01*
X955325Y821941D01*
X955535Y821685D01*
X955731Y821419D01*
X955912Y821142D01*
X956077Y820856D01*
X956226Y820561D01*
X956359Y820258D01*
X956475Y819948D01*
X956574Y819633D01*
X956655Y819312D01*
X956718Y818988D01*
X956764Y818660D01*
X956791Y818330D01*
X956800Y818000D01*
Y747000D02*
X956791Y746670D01*
X956764Y746340D01*
X956718Y746012D01*
X956655Y745688D01*
X956574Y745367D01*
X956475Y745052D01*
X956359Y744742D01*
X956226Y744439D01*
X956077Y744144D01*
X955912Y743858D01*
X955731Y743581D01*
X955535Y743315D01*
X955325Y743060D01*
X955101Y742816D01*
X954864Y742586D01*
X954614Y742368D01*
X954353Y742165D01*
X954082Y741977D01*
X953800Y741804D01*
X953509Y741646D01*
X953210Y741505D01*
X952904Y741381D01*
X952591Y741274D01*
X952273Y741184D01*
X951950Y741111D01*
X951624Y741057D01*
X951296Y741020D01*
X950965Y741002D01*
X950635D01*
X950304Y741020D01*
X949976Y741057D01*
X949650Y741111D01*
X949327Y741184D01*
X949009Y741274D01*
X948696Y741381D01*
X948390Y741505D01*
X948091Y741646D01*
X947800Y741804D01*
X947518Y741977D01*
X947247Y742165D01*
X946986Y742368D01*
X946736Y742586D01*
X946499Y742816D01*
X946275Y743060D01*
X946065Y743315D01*
X945869Y743581D01*
X945688Y743858D01*
X945523Y744144D01*
X945374Y744439D01*
X945241Y744742D01*
X945125Y745052D01*
X945026Y745367D01*
X944945Y745688D01*
X944882Y746012D01*
X944836Y746340D01*
X944809Y746670D01*
X944800Y747000D01*
X944809Y747330D01*
X944836Y747660D01*
X944882Y747988D01*
X944945Y748312D01*
X945026Y748633D01*
X945125Y748948D01*
X945241Y749258D01*
X945374Y749561D01*
X945523Y749856D01*
X945688Y750142D01*
X945869Y750419D01*
X946065Y750685D01*
X946275Y750940D01*
X946499Y751184D01*
X946736Y751414D01*
X946986Y751632D01*
X947247Y751835D01*
X947518Y752023D01*
X947800Y752196D01*
X948091Y752354D01*
X948390Y752495D01*
X948696Y752619D01*
X949009Y752726D01*
X949327Y752816D01*
X949650Y752889D01*
X949976Y752943D01*
X950304Y752980D01*
X950635Y752998D01*
X950965D01*
X951296Y752980D01*
X951624Y752943D01*
X951950Y752889D01*
X952273Y752816D01*
X952591Y752726D01*
X952904Y752619D01*
X953210Y752495D01*
X953509Y752354D01*
X953800Y752196D01*
X954082Y752023D01*
X954353Y751835D01*
X954614Y751632D01*
X954864Y751414D01*
X955101Y751184D01*
X955325Y750940D01*
X955535Y750685D01*
X955731Y750419D01*
X955912Y750142D01*
X956077Y749856D01*
X956226Y749561D01*
X956359Y749258D01*
X956475Y748948D01*
X956574Y748633D01*
X956655Y748312D01*
X956718Y747988D01*
X956764Y747660D01*
X956791Y747330D01*
X956800Y747000D01*
X1032800D02*
X1032791Y746670D01*
X1032764Y746340D01*
X1032718Y746012D01*
X1032655Y745688D01*
X1032574Y745367D01*
X1032475Y745052D01*
X1032359Y744742D01*
X1032226Y744439D01*
X1032077Y744144D01*
X1031912Y743858D01*
X1031731Y743581D01*
X1031535Y743315D01*
X1031325Y743060D01*
X1031101Y742816D01*
X1030864Y742586D01*
X1030614Y742368D01*
X1030353Y742165D01*
X1030082Y741977D01*
X1029800Y741804D01*
X1029509Y741646D01*
X1029210Y741505D01*
X1028904Y741381D01*
X1028591Y741274D01*
X1028273Y741184D01*
X1027950Y741111D01*
X1027624Y741057D01*
X1027296Y741020D01*
X1026965Y741002D01*
X1026635D01*
X1026304Y741020D01*
X1025976Y741057D01*
X1025650Y741111D01*
X1025327Y741184D01*
X1025009Y741274D01*
X1024696Y741381D01*
X1024390Y741505D01*
X1024091Y741646D01*
X1023800Y741804D01*
X1023518Y741977D01*
X1023247Y742165D01*
X1022986Y742368D01*
X1022736Y742586D01*
X1022499Y742816D01*
X1022275Y743060D01*
X1022065Y743315D01*
X1021869Y743581D01*
X1021688Y743858D01*
X1021523Y744144D01*
X1021374Y744439D01*
X1021241Y744742D01*
X1021125Y745052D01*
X1021026Y745367D01*
X1020945Y745688D01*
X1020882Y746012D01*
X1020836Y746340D01*
X1020809Y746670D01*
X1020800Y747000D01*
X1020809Y747330D01*
X1020836Y747660D01*
X1020882Y747988D01*
X1020945Y748312D01*
X1021026Y748633D01*
X1021125Y748948D01*
X1021241Y749258D01*
X1021374Y749561D01*
X1021523Y749856D01*
X1021688Y750142D01*
X1021869Y750419D01*
X1022065Y750685D01*
X1022275Y750940D01*
X1022499Y751184D01*
X1022736Y751414D01*
X1022986Y751632D01*
X1023247Y751835D01*
X1023518Y752023D01*
X1023800Y752196D01*
X1024091Y752354D01*
X1024390Y752495D01*
X1024696Y752619D01*
X1025009Y752726D01*
X1025327Y752816D01*
X1025650Y752889D01*
X1025976Y752943D01*
X1026304Y752980D01*
X1026635Y752998D01*
X1026965D01*
X1027296Y752980D01*
X1027624Y752943D01*
X1027950Y752889D01*
X1028273Y752816D01*
X1028591Y752726D01*
X1028904Y752619D01*
X1029210Y752495D01*
X1029509Y752354D01*
X1029800Y752196D01*
X1030082Y752023D01*
X1030353Y751835D01*
X1030614Y751632D01*
X1030864Y751414D01*
X1031101Y751184D01*
X1031325Y750940D01*
X1031535Y750685D01*
X1031731Y750419D01*
X1031912Y750142D01*
X1032077Y749856D01*
X1032226Y749561D01*
X1032359Y749258D01*
X1032475Y748948D01*
X1032574Y748633D01*
X1032655Y748312D01*
X1032718Y747988D01*
X1032764Y747660D01*
X1032791Y747330D01*
X1032800Y747000D01*
X921300Y833000D02*
X920974Y833021D01*
X920653Y833085D01*
X920343Y833190D01*
X920050Y833335D01*
X919778Y833517D01*
X919532Y833732D01*
X919317Y833978D01*
X919135Y834250D01*
X918990Y834543D01*
X918885Y834853D01*
X918821Y835174D01*
X918800Y835500D01*
X918821Y835826D01*
X918885Y836147D01*
X918990Y836457D01*
X919135Y836750D01*
X919317Y837022D01*
X919532Y837268D01*
X919778Y837483D01*
X920050Y837665D01*
X920343Y837810D01*
X920653Y837915D01*
X920974Y837979D01*
X921300Y838000D01*
X960515Y833286D02*
X960396Y833598D01*
X960288Y833913D01*
X960191Y834232D01*
X960104Y834554D01*
X960028Y834879D01*
X959962Y835206D01*
X959908Y835535D01*
X959864Y835866D01*
X959832Y836198D01*
X959811Y836531D01*
X959801Y836864D01*
X959802Y837198D01*
X959814Y837531D01*
X959837Y837864D01*
X959872Y838196D01*
X959917Y838526D01*
X959974Y838855D01*
X960041Y839181D01*
X960119Y839506D01*
X960208Y839827D01*
X960308Y840145D01*
X960418Y840460D01*
X960538Y840771D01*
X960669Y841078D01*
X960810Y841380D01*
X960961Y841678D01*
X961122Y841970D01*
X961293Y842256D01*
X961473Y842537D01*
X961662Y842812D01*
X961860Y843080D01*
X962068Y843341D01*
X962283Y843596D01*
X962508Y843843D01*
X962740Y844082D01*
X962980Y844314D01*
X963228Y844537D01*
X963483Y844752D01*
X963745Y844958D01*
X964014Y845156D01*
X964289Y845344D01*
X964570Y845523D01*
X964857Y845693D01*
X965150Y845853D01*
X965448Y846003D01*
X965750Y846143D01*
X966058Y846273D01*
X966369Y846393D01*
X966684Y846502D01*
X967003Y846601D01*
X967324Y846689D01*
X967649Y846766D01*
X967976Y846832D01*
X968305Y846888D01*
X968635Y846932D01*
X968967Y846965D01*
X969300Y846988D01*
X969633Y846999D01*
X969967D01*
X970300Y846988D01*
X970633Y846965D01*
X970965Y846932D01*
X971295Y846888D01*
X971624Y846832D01*
X971951Y846766D01*
X972276Y846689D01*
X972597Y846601D01*
X972916Y846502D01*
X973231Y846393D01*
X973542Y846273D01*
X973850Y846143D01*
X974152Y846003D01*
X974450Y845853D01*
X974743Y845693D01*
X975030Y845523D01*
X975311Y845344D01*
X975586Y845156D01*
X975855Y844958D01*
X976117Y844752D01*
X976372Y844537D01*
X976620Y844314D01*
X976860Y844082D01*
X977092Y843843D01*
X977317Y843596D01*
X977532Y843341D01*
X977740Y843080D01*
X977938Y842812D01*
X978127Y842537D01*
X978307Y842256D01*
X978478Y841970D01*
X978639Y841678D01*
X978790Y841380D01*
X978931Y841078D01*
X979062Y840771D01*
X979182Y840460D01*
X979292Y840145D01*
X979392Y839827D01*
X979481Y839506D01*
X979559Y839181D01*
X979626Y838855D01*
X979683Y838526D01*
X979728Y838196D01*
X979763Y837864D01*
X979786Y837531D01*
X979798Y837198D01*
X979799Y836864D01*
X979789Y836531D01*
X979768Y836198D01*
X979736Y835866D01*
X979692Y835535D01*
X979638Y835206D01*
X979572Y834879D01*
X979496Y834554D01*
X979409Y834232D01*
X979312Y833913D01*
X979204Y833598D01*
X979085Y833286D01*
X1104800Y798000D02*
X1104474Y797979D01*
X1104153Y797915D01*
X1103843Y797810D01*
X1103550Y797665D01*
X1103278Y797483D01*
X1103032Y797268D01*
X1102817Y797022D01*
X1102635Y796750D01*
X1102490Y796457D01*
X1102385Y796147D01*
X1102321Y795826D01*
X1102300Y795500D01*
X1102321Y795174D01*
X1102385Y794853D01*
X1102490Y794543D01*
X1102635Y794250D01*
X1102817Y793978D01*
X1103032Y793732D01*
X1103278Y793517D01*
X1103550Y793335D01*
X1103843Y793190D01*
X1104153Y793085D01*
X1104474Y793021D01*
X1104800Y793000D01*
X921300D02*
X920974Y793021D01*
X920653Y793085D01*
X920343Y793190D01*
X920050Y793335D01*
X919778Y793517D01*
X919532Y793732D01*
X919317Y793978D01*
X919135Y794250D01*
X918990Y794543D01*
X918885Y794853D01*
X918821Y795174D01*
X918800Y795500D01*
X918821Y795826D01*
X918885Y796147D01*
X918990Y796457D01*
X919135Y796750D01*
X919317Y797022D01*
X919532Y797268D01*
X919778Y797483D01*
X920050Y797665D01*
X920343Y797810D01*
X920653Y797915D01*
X920974Y797979D01*
X921300Y798000D01*
Y758000D02*
X920974Y757979D01*
X920653Y757915D01*
X920343Y757810D01*
X920050Y757665D01*
X919778Y757483D01*
X919532Y757268D01*
X919317Y757022D01*
X919135Y756750D01*
X918990Y756457D01*
X918885Y756147D01*
X918821Y755826D01*
X918800Y755500D01*
X918821Y755174D01*
X918885Y754853D01*
X918990Y754543D01*
X919135Y754250D01*
X919317Y753978D01*
X919532Y753732D01*
X919778Y753517D01*
X920050Y753335D01*
X920343Y753190D01*
X920653Y753085D01*
X920974Y753021D01*
X921300Y753000D01*
X1104800D02*
X1104474Y753021D01*
X1104153Y753085D01*
X1103843Y753190D01*
X1103550Y753335D01*
X1103278Y753517D01*
X1103032Y753732D01*
X1102817Y753978D01*
X1102635Y754250D01*
X1102490Y754543D01*
X1102385Y754853D01*
X1102321Y755174D01*
X1102300Y755500D01*
X1102321Y755826D01*
X1102385Y756147D01*
X1102490Y756457D01*
X1102635Y756750D01*
X1102817Y757022D01*
X1103032Y757268D01*
X1103278Y757483D01*
X1103550Y757665D01*
X1103843Y757810D01*
X1104153Y757915D01*
X1104474Y757979D01*
X1104800Y758000D01*
X1013300Y850500D02*
X1013279Y850174D01*
X1013215Y849853D01*
X1013110Y849543D01*
X1012965Y849250D01*
X1012783Y848978D01*
X1012568Y848732D01*
X1012322Y848517D01*
X1012050Y848335D01*
X1011757Y848190D01*
X1011447Y848085D01*
X1011126Y848021D01*
X1010800Y848000D01*
X1010474Y848021D01*
X1010153Y848085D01*
X1009843Y848190D01*
X1009550Y848335D01*
X1009278Y848517D01*
X1009032Y848732D01*
X1008817Y848978D01*
X1008635Y849250D01*
X1008490Y849543D01*
X1008385Y849853D01*
X1008321Y850174D01*
X1008300Y850500D01*
D15*
X1094800Y839500D02*
Y829500D01*
X1104800D01*
Y819500D02*
X1054800D01*
Y839500D01*
X1104800D01*
Y819500D01*
D16*
X872800Y825500D02*
Y845500D01*
X921300Y833000D02*
Y825500D01*
Y838000D02*
Y845500D01*
X872800D01*
Y825500D02*
X921300D01*
X1044800Y802500D02*
X1048300D01*
Y797500D01*
X1044800D01*
X1041300D02*
X1037800D01*
Y802500D01*
X1041300D01*
X939800Y797500D02*
X936300D01*
X939800D02*
Y792500D01*
X936300D01*
X932800D02*
X929300D01*
Y797500D01*
X932800D01*
X1044800Y767500D02*
X1048300D01*
Y762500D01*
X1044800D01*
X1041300D02*
X1037800D01*
Y767500D01*
X1041300D01*
X939800Y802500D02*
X936300D01*
X939800D02*
Y797500D01*
X936300D01*
X932800D02*
X929300D01*
Y802500D01*
X932800D01*
X1044800Y797500D02*
X1048300D01*
Y792500D01*
X1044800D01*
X1041300D02*
X1037800D01*
Y797500D01*
X1041300D01*
X916300Y828000D02*
Y843500D01*
Y763500D02*
Y748000D01*
Y787500D02*
Y803000D01*
X1056300Y805500D02*
Y785500D01*
X1104800D02*
Y793000D01*
Y798000D02*
Y805500D01*
X1056300D01*
Y785500D02*
X1104800D01*
X872800D02*
Y805500D01*
X921300Y793000D02*
Y785500D01*
Y798000D02*
Y805500D01*
X872800D01*
Y785500D02*
X921300D01*
X1099800Y763500D02*
Y748000D01*
Y788000D02*
Y803500D01*
X1056300Y765500D02*
Y745500D01*
X1104800D02*
Y753000D01*
Y758000D02*
Y765500D01*
X1056300D01*
Y745500D02*
X1104800D01*
X1020800Y830500D02*
Y850500D01*
X1000800D02*
Y830500D01*
X1020800D01*
X1008300Y850500D02*
X1000800D01*
X1013300D02*
X1020800D01*
D17*
X941785Y775712D02*
X941699Y776042D01*
X941541Y776343D01*
X941319Y776601D01*
X941044Y776802D01*
X940731Y776937D01*
X940396Y776997D01*
X940056Y776980D01*
X939729Y776887D01*
X939431Y776722D01*
X939177Y776495D01*
X938982Y776216D01*
X938854Y775900D01*
X938801Y775564D01*
X938825Y775225D01*
X938926Y774899D01*
X939096Y774605D01*
X939329Y774356D01*
X939612Y774167D01*
X939931Y774046D01*
X940268Y774000D01*
X940607Y774032D01*
X940930Y774139D01*
X941221Y774316D01*
X941464Y774554D01*
X941648Y774841D01*
X941761Y775162D01*
X941800Y775500D01*
X941815Y806288D02*
X941776Y805950D01*
X941662Y805629D01*
X941479Y805342D01*
X941236Y805104D01*
X940945Y804927D01*
X940622Y804820D01*
X940283Y804788D01*
X939946Y804834D01*
X939627Y804955D01*
X939344Y805144D01*
X939112Y805393D01*
X938941Y805687D01*
X938841Y806012D01*
X938817Y806352D01*
X938870Y806688D01*
X938997Y807004D01*
X939192Y807283D01*
X939446Y807510D01*
X939744Y807675D01*
X940071Y807768D01*
X940411Y807785D01*
X940746Y807724D01*
X941059Y807590D01*
X941334Y807389D01*
X941556Y807131D01*
X941714Y806829D01*
X941800Y806500D01*
D02*
M02*
