*%FSLAX25Y25*%
*%MOIN*%
G01*
%ADD11C,0.00100*%
%ADD12C,0.00700*%
%ADD13C,0.00733*%
%ADD14C,0.01000*%
%ADD15C,0.01200*%
%ADD16C,0.01500*%
%ADD17C,0.02000*%
%ADD18C,0.03000*%
%ADD19C,0.04000*%
%ADD20C,0.04800*%
%ADD21C,0.05000*%
%ADD22C,0.05800*%
%ADD23C,0.07000*%
%ADD24C,0.08000*%
%ADD25C,0.08800*%
%ADD26C,0.12000*%
%ADD27R,0.00967X0.00967*%
%ADD28R,0.01000X0.01000*%
%ADD29R,0.01386X0.01386*%
%ADD30R,0.01500X0.01500*%
%ADD31R,0.02000X0.02000*%
%ADD32R,0.02000X0.02000*%
%ADD33R,0.02500X0.02500*%
%ADD34R,0.02500X0.02500*%
%ADD35R,0.03000X0.03000*%
%ADD36R,0.03000X0.03000*%
%ADD37R,0.03500X0.03500*%
%ADD38R,0.03500X0.03500*%
%ADD39R,0.03800X0.03800*%
%ADD40R,0.04000X0.04000*%
%ADD41R,0.04000X0.04000*%
%ADD42R,0.04500X0.04500*%
%ADD43R,0.05000X0.05000*%
%ADD44R,0.05000X0.06000*%
%ADD45R,0.05000X0.05000*%
%ADD46R,0.05800X0.06800*%
%ADD47R,0.06000X0.05000*%
%ADD48R,0.06000X0.06000*%
%ADD49R,0.06800X0.05800*%
%ADD50R,0.08500X0.08500*%
%ADD51R,0.09000X0.09000*%
%ADD52R,0.10000X0.10000*%
D35*
X1040300Y800000D02*
D03*
X937300Y795000D02*
D03*
X1040300Y765000D02*
D03*
X937300Y800000D02*
D03*
X1045800Y795000D02*
D03*
X1040300D02*
D03*
X931800Y800000D02*
D03*
X1045800Y765000D02*
D03*
Y770000D02*
D03*
Y800000D02*
D03*
X931800Y770000D02*
D03*
X937300Y765000D02*
D03*
Y770000D02*
D03*
X931800Y765000D02*
D03*
Y795000D02*
D03*
X1040300Y790000D02*
D03*
Y760000D02*
D03*
Y770000D02*
D03*
X1045800Y790000D02*
D03*
Y760000D02*
D03*
D47*
X1048800Y845500D02*
D03*
X1040300D02*
D03*
M02*
